<?xml version="1.0" standalone="no"?>
<!DOCTYPE svg PUBLIC "-//W3C//DTD SVG 1.1//EN" "http://www.w3.org/Graphics/SVG/1.1/DTD/svg11.dtd" >
<svg xmlns="http://www.w3.org/2000/svg" xmlns:xlink="http://www.w3.org/1999/xlink" version="1.1">
<metadata>
Created by FontForge 20201107 at Mon May  9 02:18:52 2011
 By Jimmy Wärting
Copyright (c) 2010, 2011, Denis Masharov &#60;denis.masharov@gmail.com&#62;, Vladimir Rabdu. This Font Software is licensed under the SIL Open Font License, Version 1.1. This license is available with a FAQ at: http://scripts.sil.org/OFL
</metadata>
<defs>
<font id="RuslanDisplay" horiz-adv-x="701" >
  <font-face 
    font-family="Ruslan Display"
    font-weight="400"
    font-stretch="normal"
    units-per-em="1000"
    panose-1="2 0 0 0 0 0 0 0 0 0"
    ascent="800"
    descent="-200"
    x-height="500"
    cap-height="500"
    bbox="-60 -397 1054 688"
    underline-thickness="50"
    underline-position="-100"
    unicode-range="U+000D-2212"
  />
<missing-glyph horiz-adv-x="500" 
 />
    <glyph glyph-name=".notdef" horiz-adv-x="500" 
 />
    <glyph glyph-name=".null" horiz-adv-x="0" 
 />
    <glyph glyph-name="nonmarkingreturn" horiz-adv-x="333" 
 />
    <glyph glyph-name="NULL" horiz-adv-x="0" 
 />
    <glyph glyph-name="NULL" horiz-adv-x="0" 
 />
    <glyph glyph-name="CR" unicode="&#xd;" horiz-adv-x="350" 
 />
    <glyph glyph-name="space" unicode=" " horiz-adv-x="350" 
 />
    <glyph glyph-name="exclam" unicode="!" horiz-adv-x="302" 
d="M15 549l268 -32q-5 -97 -33 -206.5t-62 -172.5q-60 4 -100 16q-7 219 -73 395zM190 92h33q-15 -59 -35 -97q-11 -1 -64.5 -1t-90.5 6q20 45 22 102q57 -10 135 -10z" />
    <glyph glyph-name="quotedbl" unicode="&#x22;" horiz-adv-x="231" 
d="M145 353q7 84 7 102t-8 119h67q-5 -47 -5 -107t6 -114h-67zM22 353q7 84 7 102t-8 119h67q-5 -48 -5 -107.5t6 -113.5h-67z" />
    <glyph glyph-name="numbersign" unicode="#" horiz-adv-x="383" 
d="M173 167l-37 -1q-7 -44 -16 -116h-67q9 38 25 114q-46 -2 -71 -4l12 67l71 -3q5 24 13 72q-46 -2 -68 -4q4 18 13 67l66 -3q12 76 17 113h67q-18 -76 -26 -114q12 -1 36.5 -1t36.5 1q5 26 10.5 63.5t7.5 50.5h67q-16 -68 -26 -113l72 3q-9 -49 -13 -67q-23 2 -71 4
q-10 -48 -14 -72l69 3l-12 -67q-21 2 -67 4q-12 -76 -16 -114h-68q10 38 26 116zM146 223q12 -1 37.5 -1t38.5 1q4 25 14 75h-76q-10 -50 -14 -75z" />
    <glyph glyph-name="dollar" unicode="$" horiz-adv-x="652" 
d="M236 -58l2 36q-139 3 -226 23q20 94 34 132q67 3 129 4q-11 -28 -11 -45q0 -48 83 -48t151 11q-27 29 -82.5 67t-102 68.5t-93 83t-66.5 114.5q31 62 66 111q57 12 118 18q-2 14 -2 43h64q-1 -13 -1 -39q36 2 56 2q-1 12 -1 37h63l-1 -38q107 -5 197 -23
q-17 -83 -30 -120q-25 -1 -65 -2.5t-64 -2.5q10 28 10 41q0 25 -22 33t-84 8t-110 -11q49 -71 145 -113q41 -18 83 -36q105 -43 166 -113q-23 -102 -74 -182q-55 -15 -152 -21q0 -26 1 -38h-63q0 24 1 36q-19 -1 -56 -1q0 -24 1 -35h-64z" />
    <glyph glyph-name="percent" unicode="%" horiz-adv-x="540" 
d="M372 204q-7 -28 -7 -60.5t14.5 -71t37.5 -53.5q11 25 11 60.5t-15 71.5t-41 53zM124 -36l-40 23q159 263 319 552l40 -23q-173 -282 -319 -552zM115 476q-7 -28 -7 -61t14.5 -71.5t37.5 -53.5q11 25 11 60.5t-15 71.5t-41 54zM45 268q-41 56 -41 113.5t47 97t121 39.5
q33 0 69 -9q34 -44 34 -101.5t-48 -104t-118 -46.5q-29 0 -64 11zM303 -4q-41 54 -41 112.5t47.5 98.5t121.5 40q32 0 68 -9q34 -46 34 -102t-49 -103t-119 -47q-32 0 -62 10z" />
    <glyph glyph-name="ampersand" unicode="&#x26;" horiz-adv-x="745" 
d="M108 433q24 61 61 104h229q37 -45 52 -99q-11 -26 -34.5 -44t-31 -24t-31 -21t-24.5 -16q39 -56 109 -119q4 10 20 57h107q-22 -55 -61 -107q110 -93 236 -164h-281q-29 19 -64 49q-19 -17 -61 -49h-238q-59 54 -90 174q51 71 174 134q-38 57 -72 125zM216 254
q-17 -18 -17 -49.5t35 -76t78 -74.5q21 16 39 36q-67 68 -135 164zM297 374q24 17 24 42t-27 49.5t-60 31.5q22 -67 63 -123z" />
    <glyph glyph-name="quotesingle" unicode="'" horiz-adv-x="128" 
d="M31 353q7 84 7 102t-8 119h67q-5 -48 -5 -107.5t6 -113.5h-67z" />
    <glyph glyph-name="parenleft" unicode="(" horiz-adv-x="203" 
d="M131 294q0 -220 73 -408q-40 5 -112 20q-87 134 -87 337t97 362h67q-38 -151 -38 -311z" />
    <glyph glyph-name="parenright" unicode=")" horiz-adv-x="207" 
d="M73 197q0 220 -73 408q30 -4 112 -20q87 -133 87 -336.5t-97 -362.5h-67q38 151 38 311z" />
    <glyph glyph-name="asterisk" unicode="*" horiz-adv-x="273" 
d="M9 232v53q45 -3 90 -3l-48 76l46 26q13 -28 41 -82q24 43 42 82l46 -26q-32 -48 -48 -76l90 3v-53q-31 3 -92 5q32 -52 50 -77l-46 -26q-23 46 -42 79l-41 -79q-16 8 -46 26q28 40 50 77q-60 -2 -92 -5z" />
    <glyph glyph-name="plus" unicode="+" horiz-adv-x="272" 
d="M157 229q0 -48 5 -108h-53q2 36 4 108q-47 0 -107 -5v53q37 -2 107 -4q-2 70 -4 107h53q-5 -60 -5 -107q72 2 108 4v-53q-60 5 -108 5z" />
    <glyph glyph-name="comma" unicode="," horiz-adv-x="215" 
d="M112 -6q-63 0 -96 6q20 45 22 102q62 -11 168 -11q-18 -99 -70 -179q-25 3 -47 9q23 39 23 73z" />
    <glyph glyph-name="hyphen" unicode="-" horiz-adv-x="381" 
d="M93 305l67 -1q154 0 206 17q-32 -52 -75 -97h-30q-151 0 -249 21l15 13q43 38 66 47z" />
    <glyph glyph-name="period" unicode="." horiz-adv-x="219" 
d="M173 -5q-11 -1 -63.5 -1t-91.5 6q20 46 22 102q57 -10 168 -10q-14 -56 -35 -97z" />
    <glyph glyph-name="slash" unicode="/" horiz-adv-x="372" 
d="M284 587q78 20 134 20q-162 -285 -345 -701l-10 -2q-74 -18 -123 -18q168 297 344 701z" />
    <glyph glyph-name="zero" unicode="0" horiz-adv-x="658" 
d="M123 3q-89 115 -89 234.5t100 202.5t256 83q83 0 165 -25q72 -90 72 -195q0 -131 -107.5 -228t-258.5 -97q-66 0 -138 25zM275 436q-35 -60 -35 -141.5t35.5 -150t97.5 -97.5q47 60 47 139t-38.5 147t-106.5 103z" />
    <glyph glyph-name="one" unicode="1" horiz-adv-x="432" 
d="M383 358q0 -199 -21 -358h-227q5 85 5 160.5t-11 163.5q-28 -22 -67 -46q-30 54 -45 79q139 52 246 143h118q2 -94 2 -142z" />
    <glyph glyph-name="two" unicode="2" horiz-adv-x="569" 
d="M201 71q49 -6 106 -6t88 22t47 66l95 -5q-14 -90 -40 -148h-475l7 6q226 216 226 342q0 56 -49 94q-53 -38 -77 -94q-15 4 -46.5 14t-48.5 15q51 81 119 123h272q74 -56 103 -136q-39 -73 -124.5 -149.5t-202.5 -143.5z" />
    <glyph glyph-name="three" unicode="3" horiz-adv-x="508" 
d="M272 429q-17 6 -55.5 6t-60.5 -5t-32.5 -17.5t-13.5 -20.5q-4 -8 -10 -37q-30 0 -84 2q15 77 32 143h444q-57 -120 -203 -207q125 -35 211 -95q-53 -120 -147 -198h-313q67 42 138 110t98 118q-23 16 -60 33t-65 23q76 44 121 145z" />
    <glyph glyph-name="four" unicode="4" horiz-adv-x="590" 
d="M269 141v16q0 50 -11 119h251q0 -30 -9 -134q46 9 88 34q-20 -49 -44 -101h-50l-9 -75h-230q4 17 10 75h-225q-9 54 -17 88q62 62 107.5 158t58.5 179h218q-36 -91 -127 -182q-64 -66 -155 -144l-18 -15q67 -18 162 -18z" />
    <glyph glyph-name="five" unicode="5" horiz-adv-x="485" 
d="M360 500q44 0 122 23q-12 -19 -24.5 -44t-20.5 -39q-22 -5 -51 -5h-152q-24 -47 -36 -119q68 0 150.5 -12t133.5 -33q-45 -161 -146 -271h-313q151 97 215 234q-40 16 -106.5 27t-122.5 11v7q0 59 10.5 121.5t28.5 99.5h312z" />
    <glyph glyph-name="six" unicode="6" horiz-adv-x="540" 
d="M32 215q0 177 100 285h300q-100 -61 -142 -181q101 -4 226 -43q20 -53 20 -124.5t-43 -151.5h-407q-24 31 -39 89.5t-15 125.5zM274 264q-12 -53 -12 -105.5t9 -93.5q29 34 50 81.5t23 83.5q-25 22 -70 34z" />
    <glyph glyph-name="seven" unicode="7" horiz-adv-x="547" 
d="M226 435h-16q-55 0 -79.5 -17t-34.5 -64l-84 3q6 37 30 134l2 9h496q-35 -135 -86.5 -272.5t-101.5 -227.5h-311q160 159 263 429q-38 6 -78 6z" />
    <glyph glyph-name="eight" unicode="8" horiz-adv-x="532" 
d="M455 0h-369q-55 72 -82 158q57 69 132 116q-46 61 -74 129q42 65 79 98h262q55 -55 66 -119q-32 -59 -75 -95q42 -20 78.5 -60t54.5 -85q-26 -88 -72 -142zM172 175q0 -48 37 -76.5t86 -32.5q-6 37 -36.5 79t-77.5 77q-9 -26 -9 -47zM339 345q0 34 -28 60.5t-89 29.5
q23 -81 109 -122q8 14 8 32z" />
    <glyph glyph-name="nine" unicode="9" horiz-adv-x="553" 
d="M531 286q0 -182 -100 -286h-300q100 63 142 181q-97 4 -225 43q-20 53 -20 125.5t42 150.5h408q24 -31 38.5 -88.5t14.5 -125.5zM289 237q13 59 13 109t-9 89q-29 -33 -50.5 -81t-23.5 -83q21 -21 70 -34z" />
    <glyph glyph-name="colon" unicode=":" horiz-adv-x="205" 
d="M165 92h33q-15 -59 -35 -97q-11 -1 -64 -1t-91 6q20 45 22 102q58 -10 135 -10zM172 436h26q-14 -57 -35 -96q-12 -1 -69.5 -1t-85.5 6q20 45 22 102q60 -11 142 -11z" />
    <glyph glyph-name="semicolon" unicode=";" horiz-adv-x="207" 
d="M175 437h27q-11 -51 -35 -96q-24 -2 -72.5 -2t-82.5 7q20 45 22 101q60 -10 141 -10zM34 103q63 -11 168 -11q-16 -99 -70 -179q-22 3 -47 9q22 38 24 73q-64 0 -97 6q20 45 22 102z" />
    <glyph glyph-name="less" unicode="&#x3c;" horiz-adv-x="350" 
d="M240 0l-220 221l220 220h91l-187 -220l187 -221h-91z" />
    <glyph glyph-name="equal" unicode="=" horiz-adv-x="287" 
d="M13 221q61 -3 125.5 -3t133.5 3v-52q-75 5 -132 5t-127 -5v52zM13 319q57 -4 128.5 -4t130.5 4v-53q-72 5 -129.5 5t-129.5 -5v53z" />
    <glyph glyph-name="greater" unicode="&#x3e;" horiz-adv-x="350" 
d="M344 221l-220 -221h-91l187 221l-187 220h91z" />
    <glyph glyph-name="question" unicode="?" horiz-adv-x="472" 
d="M15 526q100 23 217 23t177 -39.5t60 -104.5q-4 -36 -30 -73t-55 -64q-84 -76 -101 -129q-69 7 -100 15q8 26 49.5 109t41.5 127.5t-20 80.5q-26 9 -47 9t-43 -5q7 -40 17 -73q-56 0 -128 7q-26 55 -38 117zM283 -5q-11 -1 -63 -1t-92 6q20 48 22 102q52 -10 168 -10
q-14 -56 -35 -97z" />
    <glyph glyph-name="at" unicode="@" horiz-adv-x="540" 
d="M491 250q0 92 -64.5 157t-156.5 65t-157 -65t-65 -157t65 -156.5t157 -64.5q73 0 136 47l20 -21q-68 -55 -164 -55t-169 73t-73 177t73 177t177 73t177 -73t73 -177q0 -59 -30.5 -100t-94.5 -41q-77 0 -102 75q6 0 -29.5 -28.5t-40.5 -29.5h-116q-4 20 -4 56t10 65
q37 12 70.5 36.5t47.5 53.5q-14 21 -29 38h165q17 -41 33 -118.5t25 -89.5q9 -10 21 -11q22 0 33.5 32.5t11.5 61.5zM284 221q-15 49 -34 83q-22 -63 -27 -130q31 16 61 47z" />
    <glyph glyph-name="A" unicode="A" horiz-adv-x="708" 
d="M690 8v-8h-232q-4 55 -17 118q-70 -70 -140 -118h-233q-7 41 -7 108.5t20 135.5q72 21 138.5 71t96.5 108q-28 44 -57 77h332q99 -217 99 -492zM423 191q-25 86 -68 168q-47 -138 -54 -261q74 40 122 93z" />
    <glyph glyph-name="B" unicode="B" horiz-adv-x="695" 
d="M322 65q68 0 111 11q-18 111 -102 165q-9 -89 -9 -176zM70 300q0 105 19 200h555q-45 -140 -172 -203q115 -41 184 -114q-9 -93 -43 -183h-503q-40 139 -40 300zM339 310q49 13 91 45t60 79q-80 0 -130 -5q-12 -58 -21 -119z" />
    <glyph glyph-name="C" unicode="C" horiz-adv-x="632" 
d="M449 439q-35 6 -67.5 6t-78.5 -11q-15 -63 -15 -123q0 -155 138 -238q92 61 166 152q3 -40 5 -122q-74 -58 -151 -91t-192 -33h-23q-90 39 -141.5 115t-51.5 160q0 112 92 190.5t267 78.5q98 0 205 -25q-16 -63 -40 -119q-63 -6 -130 -6q10 28 17 66z" />
    <glyph glyph-name="D" unicode="D" horiz-adv-x="718" 
d="M315 523q193 0 314 -48q43 -86 43 -174q0 -113 -77 -196q-112 -119 -303 -119q-66 0 -179 15q-39 201 -39 371q0 59 6 128q161 23 235 23zM345 448q-18 -188 -18 -269.5t3 -132.5q54 29 84.5 97.5t30.5 139t-25.5 115.5t-74.5 50z" />
    <glyph glyph-name="E" unicode="E" horiz-adv-x="671" 
d="M415 299l94 -6q14 0 21 1l-47 -88h-9q-19 0 -54 10.5t-50 10.5q-41 0 -65 -53q-4 -49 -6 -98q52 -10 82 -10h9q43 0 68.5 19t36.5 68l120 -5q-15 -86 -40 -148h-491q-20 135 -20 268t14 232h536q-18 -108 -32 -152q-59 -3 -108 -4q8 23 8 43q0 48 -72 48q-27 0 -60 -6
q-22 -95 -34 -167q40 37 99 37z" />
    <glyph glyph-name="F" unicode="F" horiz-adv-x="619" 
d="M413 284l95 -6q13 0 20 1l-47 -88h-9q-19 0 -54 10.5t-50 10.5q-39 0 -63 -51q-5 -57 -5 -90t2 -71h-217q-19 128 -19 264.5t14 234.5h534q-18 -108 -32 -151l-108 -5q9 25 9 43q0 48 -73 48q-32 0 -59 -5q-22 -89 -36 -182q40 37 98 37z" />
    <glyph glyph-name="G" unicode="G" horiz-adv-x="675" 
d="M416 49l1 42q0 71 -12 169h216q0 -142 -14 -260q-155 -22 -321 -22h-64q-91 39 -142 114.5t-51 160.5q0 113 91.5 191.5t267.5 78.5q92 0 205 -25q-17 -68 -39 -120q-61 -4 -131 -6q11 34 16 67q-32 6 -65.5 6t-79.5 -11q-16 -68 -16 -123q0 -83 37.5 -155.5
t100.5 -106.5z" />
    <glyph glyph-name="H" unicode="H" horiz-adv-x="740" 
d="M699 417q0 -196 -38 -417h-239q16 118 21 254q-52 32 -116 39q-6 -147 -32 -293h-227q13 98 13 234.5t-18 265.5h264q2 -41 2 -122q58 -18 115 -49q0 93 -7 171h260q2 -56 2 -83z" />
    <glyph glyph-name="I" unicode="I" horiz-adv-x="396" 
d="M341 500v-27q0 -264 -33 -473h-240q19 92 19 212.5t-16 287.5h270z" />
    <glyph glyph-name="J" unicode="J" horiz-adv-x="531" 
d="M192 -45q7 78 7 215.5t-23 329.5h270q2 -38 2 -117q0 -212 -28 -383q-39 -37 -72 -54.5t-45 -24t-43 -20t-37 -16.5q-128 10 -218 45q2 66 6 122q93 -67 181 -97z" />
    <glyph glyph-name="K" unicode="K" horiz-adv-x="707" 
d="M570 507h33q64 0 95 15q-44 -65 -85 -113h-16q-51 0 -99 16q-68 -56 -109 -149q106 -27 236 -32q30 -76 41 -244h-259q-17 74 -51.5 136.5t-71.5 85.5q-7 -82 -7 -132t3 -90h-220q-19 147 -19 248.5t15 251.5h278q-30 -124 -41 -208q45 74 94.5 124.5t117.5 85.5
q26 5 65 5z" />
    <glyph glyph-name="L" unicode="L" horiz-adv-x="602" 
d="M364 66q43 0 68.5 19.5t37.5 67.5l120 -4q-15 -90 -40 -149h-491q-19 128 -19 265t14 235h288q-66 -253 -68 -423q47 -11 90 -11z" />
    <glyph glyph-name="M" unicode="M" horiz-adv-x="1052" 
d="M657 454q0 27 -8 46h285q36 -96 53.5 -235t18.5 -265h-231q-7 180 -59 347q-87 -170 -94 -347h-196q-26 196 -100 348q-54 -127 -54 -236q0 -59 14 -112h-243q-7 41 -7 108.5t20 135.5q71 21 136.5 69t96.5 105q-26 43 -55 82h316q38 -103 57 -224q50 93 50 178z" />
    <glyph glyph-name="N" unicode="N" horiz-adv-x="715" 
d="M646 500q6 -105 6 -221.5t-10 -278.5h-96q-194 104 -356 283q8 -67 8 -137.5t-5 -145.5h-117q20 123 20 227.5t-10 165.5q-40 60 -63 107h284q42 -72 114.5 -148.5t138.5 -119.5q0 146 -33 268h119z" />
    <glyph glyph-name="O" unicode="O" horiz-adv-x="658" 
d="M123 3q-89 114 -89 234t100 203t256 83q83 0 165 -25q72 -91 72 -195q0 -131 -107 -228t-259 -97q-65 0 -138 25zM275 436q-35 -60 -35 -141t35.5 -149.5t97.5 -98.5q47 60 47 139t-38.5 147t-106.5 103z" />
    <glyph glyph-name="P" unicode="P" horiz-adv-x="665" 
d="M294 125q0 -57 5 -125h-220q-41 159 -41 338q0 91 11 162h542q29 -113 32 -269q-148 -66 -329 -86v-20zM295 214q64 8 107 32q-16 106 -86 188q-16 -99 -21 -220z" />
    <glyph glyph-name="Q" unicode="Q" horiz-adv-x="666" 
d="M129 3q-89 114 -89 233.5t100 203t256 83.5q86 0 164 -24q73 -92 73 -197q0 -143 -125 -243q11 2 40 10t47.5 8t39.5 -7l72 -93q-20 24 -58.5 24t-102.5 -11t-87 -12q-20 9 -40 30q-73 -30 -145 -30t-145 25zM281 435q-36 -62 -36 -141.5t36 -148t98 -98.5q47 60 47 139
t-38.5 147t-106.5 102z" />
    <glyph glyph-name="R" unicode="R" horiz-adv-x="706" 
d="M622 326l-1 -34q-80 -43 -200 -67q86 -23 166 -23h21q55 -81 71 -202h-259q-10 70 -40.5 120.5t-74.5 68.5q-1 -17 -1 -68t6 -121h-218q-29 145 -29 269.5t14 230.5h522q23 -101 23 -174zM326 433q-12 -88 -18 -173q55 8 90 39q-19 67 -72 134z" />
    <glyph glyph-name="S" unicode="S" horiz-adv-x="635" 
d="M423 440q-40 6 -85.5 6t-88.5 -6q27 -46 64 -75t93.5 -57.5t92 -52.5t78.5 -79t54 -115q-48 -62 -127 -109.5t-162 -63.5q-56 5 -141.5 31.5t-128.5 26.5t-86 -27q18 51 59 128h8q64 0 120.5 -20t103 -40t75 -20t41.5 4q0 66 -41 109q-22 23 -37.5 35.5t-47.5 34.5
l-17 12q-68 47 -112 95.5t-64 119.5q32 71 63 123q95 23 197 23h44q86 0 197 -24q-16 -66 -39 -119q-84 -6 -130 -6q9 23 17 66z" />
    <glyph glyph-name="T" unicode="T" horiz-adv-x="705" 
d="M472 435q-26 -158 -26 -258t8 -177h-218q-34 159 -34 342q0 31 2 93q-85 -25 -104 -115l-99 6l36 174h665q-20 -110 -46 -180l-101 6q4 16 4 32q0 39 -24 58t-63 19z" />
    <glyph glyph-name="U" unicode="U" 
d="M658 500q4 -65 4 -189.5t-16 -265.5q-104 -67 -249 -67q-193 0 -312 67q-13 108 -13 209.5t15 245.5h269q-40 -217 -42 -417q42 -38 121 -38t121 28q2 33 2 95q0 158 -28 332h128z" />
    <glyph glyph-name="V" unicode="V" horiz-adv-x="703" 
d="M429 341q0 73 -26 159h267q1 -15 1 -44q0 -128 -34 -211q-92 -40 -147.5 -80.5t-55.5 -83.5t37 -81h-251q-169 215 -212 500h273q4 -183 94 -357q54 90 54 198z" />
    <glyph glyph-name="W" unicode="W" horiz-adv-x="1040" 
d="M785 346q0 78 -24 154h268q1 -15 1 -44q0 -128 -34 -212q-89 -26 -148 -69t-59 -88.5t41 -86.5h-252q-62 92 -105 213q-33 -75 -33 -126.5t29 -86.5h-251q-77 102 -131 236t-73 264h266q17 -215 88 -357q51 87 51 211q0 67 -17 146h238q16 -198 94 -357q51 94 51 203z
" />
    <glyph glyph-name="X" unicode="X" 
d="M674 481q-32 -8 -55.5 -8t-44.5 3q-59 -42 -142 -137q121 -189 193 -339h-249q-41 88 -82 159q-111 -158 -171 -280q-20 -5 -59 -13.5t-56 -12.5q84 150 251 364q-103 161 -233 283h311q23 -49 64 -112q8 9 31 36.5t36 41.5t34 34q41 39 85 55q17 5 69 10.5t75 20.5
q-24 -55 -57 -105z" />
    <glyph glyph-name="Y" unicode="Y" horiz-adv-x="688" 
d="M660 481q-34 -8 -57 -8t-44 3q-31 -37 -56 -99t-37.5 -111t-27.5 -120q-76 -362 -152 -514q-50 -15 -124 -29q100 171 162 397h-207q-79 256 -82 500h292q-21 -93 -21 -197.5t34 -238.5q7 27 24 94.5t25 96.5t24.5 82t30 79.5t33.5 59.5q36 59 95 80q17 5 69 10.5
t75 20.5q-27 -62 -56 -106z" />
    <glyph glyph-name="Z" unicode="Z" horiz-adv-x="638" 
d="M396 67h9q42 0 68 19t37 67q74 -2 120 -4q-15 -87 -40 -149h-571q135 242 296 430q-24 5 -66 5t-76 -25.5t-43 -67.5q-77 5 -98 7l31 151h557q-177 -192 -308 -423q52 -10 84 -10z" />
    <glyph glyph-name="bracketleft" unicode="[" horiz-adv-x="249" 
d="M199 -116q-20 -1 -89 -1t-69 8q21 224 21 420t-4 304q63 -10 176 -10q-15 -58 -35 -98q-8 -1 -32 -1q-12 -173 -12 -325t1 -198q36 -2 47 -2t19 0.5t12 0.5q-15 -58 -35 -98z" />
    <glyph glyph-name="backslash" unicode="\" horiz-adv-x="372" 
d="M90 587q176 -404 344 -701q-49 0 -123 18l-10 2q-183 416 -345 701q56 0 134 -20z" />
    <glyph glyph-name="bracketright" unicode="]" horiz-adv-x="248" 
d="M183 61q0 -58 2 -174q-87 -3 -115 -3t-55 5q20 46 22 104q8 -1 23 -3l21 -4q13 169 13 322t-1 198q-51 0 -78 6q20 48 22 103q35 -11 156 -11q15 0 15 1q-25 -254 -25 -544z" />
    <glyph glyph-name="asciicircum" unicode="^" horiz-adv-x="430" 
d="M106 341h-93l152 159h99l151 -159h-92l-109 87z" />
    <glyph glyph-name="underscore" unicode="_" horiz-adv-x="532" 
d="M264 64q145 0 249 5v-68q-145 7 -248.5 7t-248.5 -7v68q103 -5 248 -5z" />
    <glyph glyph-name="grave" unicode="`" horiz-adv-x="273" 
d="M142 680q31 -83 103 -130h-66q-37 17 -60 30t-48.5 36t-39.5 50z" />
    <glyph glyph-name="a" unicode="a" horiz-adv-x="709" 
d="M690 8v-8h-232q-4 57 -17 118q-62 -63 -140 -118h-233q-7 41 -7 108.5t20 135.5q72 21 138.5 71t96.5 108q-27 42 -57 77h332q99 -215 99 -492zM423 191q-26 89 -68 168q-47 -138 -54 -261q72 37 122 93z" />
    <glyph glyph-name="b" unicode="b" horiz-adv-x="695" 
d="M322 65q68 0 111 11q-18 111 -102 165q-9 -89 -9 -176zM70 300q0 105 19 200h555q-45 -140 -172 -203q115 -41 184 -114q-9 -93 -43 -183h-503q-40 139 -40 300zM339 310q49 13 91 45t60 79q-80 0 -130 -5q-12 -58 -21 -119z" />
    <glyph glyph-name="c" unicode="c" horiz-adv-x="632" 
d="M449 439q-35 6 -67.5 6t-78.5 -11q-15 -63 -15 -123q0 -155 138 -238q92 61 166 152q3 -40 5 -122q-74 -58 -151 -91t-192 -33h-23q-90 39 -141.5 115t-51.5 160q0 112 92 190.5t267 78.5q98 0 205 -25q-16 -63 -40 -119q-63 -6 -130 -6q10 28 17 66z" />
    <glyph glyph-name="d" unicode="d" horiz-adv-x="718" 
d="M315 523q193 0 314 -48q43 -86 43 -174q0 -113 -77 -196q-112 -119 -303 -119q-66 0 -179 15q-39 201 -39 371q0 59 6 128q161 23 235 23zM345 448q-18 -188 -18 -269.5t3 -132.5q54 29 84.5 97.5t30.5 139t-25.5 115.5t-74.5 50z" />
    <glyph glyph-name="e" unicode="e" horiz-adv-x="671" 
d="M415 299l94 -6q14 0 21 1l-47 -88h-9q-19 0 -54 10.5t-50 10.5q-41 0 -65 -53q-4 -49 -6 -98q52 -10 82 -10h9q43 0 68.5 19t36.5 68l120 -5q-15 -86 -40 -148h-491q-20 135 -20 268t14 232h536q-18 -108 -32 -152q-59 -3 -108 -4q8 23 8 43q0 48 -72 48q-27 0 -60 -6
q-22 -95 -34 -167q40 37 99 37z" />
    <glyph glyph-name="f" unicode="f" horiz-adv-x="619" 
d="M413 284l95 -6q13 0 20 1l-47 -88h-9q-19 0 -54 10.5t-50 10.5q-39 0 -63 -51q-5 -57 -5 -90t2 -71h-217q-19 128 -19 264.5t14 234.5h534q-18 -108 -32 -151l-108 -5q9 25 9 43q0 48 -73 48q-32 0 -59 -5q-22 -89 -36 -182q40 37 98 37z" />
    <glyph glyph-name="g" unicode="g" horiz-adv-x="675" 
d="M416 49l1 42q0 71 -12 169h216q0 -142 -14 -260q-155 -22 -321 -22h-64q-91 39 -142 114.5t-51 160.5q0 113 91.5 191.5t267.5 78.5q92 0 205 -25q-17 -68 -39 -120q-61 -4 -131 -6q11 34 16 67q-32 6 -65.5 6t-79.5 -11q-16 -68 -16 -123q0 -83 37.5 -155.5
t100.5 -106.5z" />
    <glyph glyph-name="h" unicode="h" horiz-adv-x="740" 
d="M699 417q0 -196 -38 -417h-239q16 118 21 254q-52 32 -116 39q-6 -147 -32 -293h-227q13 98 13 234.5t-18 265.5h264q2 -41 2 -122q58 -18 115 -49q0 93 -7 171h260q2 -56 2 -83z" />
    <glyph glyph-name="i" unicode="i" horiz-adv-x="396" 
d="M341 500v-27q0 -264 -33 -473h-240q19 92 19 212.5t-16 287.5h270z" />
    <glyph glyph-name="j" unicode="j" horiz-adv-x="531" 
d="M192 -45q7 78 7 215.5t-23 329.5h270q2 -38 2 -117q0 -212 -28 -383q-39 -37 -72 -54.5t-45 -24t-43 -20t-37 -16.5q-128 10 -218 45q2 66 6 122q93 -67 181 -97z" />
    <glyph glyph-name="k" unicode="k" horiz-adv-x="707" 
d="M570 507h33q64 0 95 15q-44 -65 -85 -113h-16q-51 0 -99 16q-68 -56 -109 -149q106 -27 236 -32q30 -76 41 -244h-259q-17 74 -51.5 136.5t-71.5 85.5q-7 -82 -7 -132t3 -90h-220q-19 147 -19 248.5t15 251.5h278q-30 -124 -41 -208q45 74 94.5 124.5t117.5 85.5
q26 5 65 5z" />
    <glyph glyph-name="l" unicode="l" horiz-adv-x="602" 
d="M364 66q43 0 68.5 19.5t37.5 67.5l120 -4q-15 -90 -40 -149h-491q-19 128 -19 265t14 235h288q-66 -253 -68 -423q47 -11 90 -11z" />
    <glyph glyph-name="m" unicode="m" horiz-adv-x="1052" 
d="M657 454q0 27 -8 46h285q36 -96 53.5 -235t18.5 -265h-231q-7 180 -59 347q-87 -170 -94 -347h-196q-26 196 -100 348q-54 -127 -54 -236q0 -59 14 -112h-243q-7 41 -7 108.5t20 135.5q71 21 136.5 69t96.5 105q-26 43 -55 82h316q38 -103 57 -224q50 93 50 178z" />
    <glyph glyph-name="n" unicode="n" horiz-adv-x="715" 
d="M646 500q6 -105 6 -221.5t-10 -278.5h-96q-194 104 -356 283q8 -67 8 -137.5t-5 -145.5h-117q20 123 20 227.5t-10 165.5q-40 60 -63 107h284q42 -72 114.5 -148.5t138.5 -119.5q0 146 -33 268h119z" />
    <glyph glyph-name="o" unicode="o" horiz-adv-x="658" 
d="M123 3q-89 114 -89 234t100 203t256 83q83 0 165 -25q72 -91 72 -195q0 -131 -107 -228t-259 -97q-65 0 -138 25zM275 436q-35 -60 -35 -141t35.5 -149.5t97.5 -98.5q47 60 47 139t-38.5 147t-106.5 103z" />
    <glyph glyph-name="p" unicode="p" horiz-adv-x="665" 
d="M294 125q0 -57 5 -125h-220q-41 159 -41 338q0 91 11 162h542q29 -113 32 -269q-148 -66 -329 -86v-20zM295 214q64 8 107 32q-16 106 -86 188q-16 -99 -21 -220z" />
    <glyph glyph-name="q" unicode="q" horiz-adv-x="666" 
d="M129 3q-89 114 -89 233.5t100 203t256 83.5q86 0 164 -24q73 -92 73 -197q0 -143 -125 -243q11 2 40 10t47.5 8t39.5 -7l72 -93q-20 24 -58.5 24t-102.5 -11t-87 -12q-20 9 -40 30q-73 -30 -145 -30t-145 25zM281 435q-36 -62 -36 -141.5t36 -148t98 -98.5q47 60 47 139
t-38.5 147t-106.5 102z" />
    <glyph glyph-name="r" unicode="r" horiz-adv-x="706" 
d="M622 326l-1 -34q-80 -43 -200 -67q86 -23 166 -23h21q55 -81 71 -202h-259q-10 70 -40.5 120.5t-74.5 68.5q-1 -17 -1 -68t6 -121h-218q-29 145 -29 269.5t14 230.5h522q23 -101 23 -174zM326 433q-12 -88 -18 -173q55 8 90 39q-19 67 -72 134z" />
    <glyph glyph-name="s" unicode="s" horiz-adv-x="635" 
d="M423 440q-40 6 -85.5 6t-88.5 -6q27 -46 64 -75t93.5 -57.5t92 -52.5t78.5 -79t54 -115q-48 -62 -127 -109.5t-162 -63.5q-56 5 -141.5 31.5t-128.5 26.5t-86 -27q18 51 59 128h8q64 0 120.5 -20t103 -40t75 -20t41.5 4q0 66 -41 109q-22 23 -37.5 35.5t-47.5 34.5
l-17 12q-68 47 -112 95.5t-64 119.5q32 71 63 123q95 23 197 23h44q86 0 197 -24q-16 -66 -39 -119q-84 -6 -130 -6q9 23 17 66z" />
    <glyph glyph-name="t" unicode="t" horiz-adv-x="705" 
d="M472 435q-26 -158 -26 -258t8 -177h-218q-34 159 -34 342q0 31 2 93q-85 -25 -104 -115l-99 6l36 174h665q-20 -110 -46 -180l-101 6q4 16 4 32q0 39 -24 58t-63 19z" />
    <glyph glyph-name="u" unicode="u" 
d="M658 500q4 -65 4 -189.5t-16 -265.5q-104 -67 -249 -67q-193 0 -312 67q-13 108 -13 209.5t15 245.5h269q-40 -217 -42 -417q42 -38 121 -38t121 28q2 33 2 95q0 158 -28 332h128z" />
    <glyph glyph-name="v" unicode="v" horiz-adv-x="703" 
d="M429 341q0 73 -26 159h267q1 -15 1 -44q0 -128 -34 -211q-92 -40 -147.5 -80.5t-55.5 -83.5t37 -81h-251q-169 215 -212 500h273q4 -183 94 -357q54 90 54 198z" />
    <glyph glyph-name="w" unicode="w" horiz-adv-x="1040" 
d="M785 346q0 78 -24 154h268q1 -15 1 -44q0 -128 -34 -212q-89 -26 -148 -69t-59 -88.5t41 -86.5h-252q-62 92 -105 213q-33 -75 -33 -126.5t29 -86.5h-251q-77 102 -131 236t-73 264h266q17 -215 88 -357q51 87 51 211q0 67 -17 146h238q16 -198 94 -357q51 94 51 203z
" />
    <glyph glyph-name="x" unicode="x" 
d="M674 481q-32 -8 -55.5 -8t-44.5 3q-59 -42 -142 -137q121 -189 193 -339h-249q-41 88 -82 159q-111 -158 -171 -280q-20 -5 -59 -13.5t-56 -12.5q84 150 251 364q-103 161 -233 283h311q23 -49 64 -112q8 9 31 36.5t36 41.5t34 34q41 39 85 55q17 5 69 10.5t75 20.5
q-24 -55 -57 -105z" />
    <glyph glyph-name="y" unicode="y" horiz-adv-x="688" 
d="M660 481q-34 -8 -57 -8t-44 3q-31 -37 -56 -99t-37.5 -111t-27.5 -120q-76 -362 -152 -514q-50 -15 -124 -29q100 171 162 397h-207q-79 256 -82 500h292q-21 -93 -21 -197.5t34 -238.5q7 27 24 94.5t25 96.5t24.5 82t30 79.5t33.5 59.5q36 59 95 80q17 5 69 10.5
t75 20.5q-27 -62 -56 -106z" />
    <glyph glyph-name="z" unicode="z" horiz-adv-x="638" 
d="M396 67h9q42 0 68 19t37 67q74 -2 120 -4q-15 -87 -40 -149h-571q135 242 296 430q-24 5 -66 5t-76 -25.5t-43 -67.5q-77 5 -98 7l31 151h557q-177 -192 -308 -423q52 -10 84 -10z" />
    <glyph glyph-name="braceleft" unicode="{" horiz-adv-x="254" 
d="M147 605h67q-28 -117 -35.5 -231t-43.5 -128q38 -15 51 -108q16 -127 63 -252q-38 5 -112 20q-72 111 -83 255q-5 56 -26 73q-9 8 -23 12q28 6 39 40q10 29 19 90q23 128 84 229z" />
    <glyph glyph-name="bar" unicode="|" horiz-adv-x="129" 
d="M31 -119q8 309 8 375t-9 343h69q-9 -209 -9 -353t9 -365h-68z" />
    <glyph glyph-name="braceright" unicode="}" horiz-adv-x="252" 
d="M107 -114h-67q30 135 36 230q5 116 43 130q-40 14 -51 107q-19 140 -63 252q33 -4 112 -20q64 -97 82 -232q0 -29 6 -51.5t11 -29.5q11 -20 34 -26q-31 -6 -42 -40q-10 -33 -13 -59q-16 -141 -88 -261z" />
    <glyph glyph-name="asciitilde" unicode="~" horiz-adv-x="449" 
d="M134 224q-54 0 -105 -41l37 89q44 22 104 22q28 0 79 -18.5t79 -18.5q53 0 104 41l-37 -89q-40 -22 -104 -22q-28 0 -79 18.5t-78 18.5z" />
    <glyph glyph-name="uni00A0" unicode="&#xa0;" horiz-adv-x="0" 
 />
    <glyph glyph-name="exclamdown" unicode="&#xa1;" horiz-adv-x="302" 
d="M283 0l-268 -32q66 176 73 395q40 12 100 16q34 -63 62 -172.5t33 -206.5zM33 517q37 6 90.5 6t64.5 -1q20 -38 35 -97h-33q-78 0 -135 -10q-2 57 -22 102z" />
    <glyph glyph-name="cent" unicode="&#xa2;" horiz-adv-x="663" 
d="M38 253q0 106 82 183t239 86q3 12 7 38h54q-7 -29 -8 -37q87 -2 190 -25q-15 -60 -40 -120q-55 -5 -130 -7q10 37 16 68q-27 4 -53 6q-40 -199 -57 -298q33 -41 89 -74q92 61 164 152q4 -55 6 -122q-136 -108 -286 -122l-6 -38h-54q3 14 7 35h-28q-90 39 -141 114.5
t-51 160.5zM303 434q-16 -67 -16 -122.5t18 -102.5q9 46 41 233q-11 -2 -43 -8z" />
    <glyph glyph-name="sterling" unicode="&#xa3;" horiz-adv-x="588" 
d="M114 275h102q-16 71 -84 152q37 67 99 121q135 -1 205 -39q0 -35 -6 -95q-60 82 -166 82q7 -13 62 -93.5t73 -129.5q31 0 93 2v-49h-80l2 -22q0 -103 -46 -160q28 -4 63 -4q87 0 155 32q-27 -67 -58 -121q-96 0 -198 50q-70 -28 -159 -28h-10q-80 1 -141 28q6 29 17 56
q64 19 118 20q58 64 64 150q-70 -2 -105 -4v52z" />
    <glyph glyph-name="currency" unicode="&#xa4;" horiz-adv-x="312" 
d="M309 117l-47 -47l-41 46q-29 -18 -64 -18t-64 18l-41 -46l-47 47l45 42q-17 28 -17 63.5t18 63.5l-46 41l47 47l42 -45q28 17 63 17t63 -17l42 45q23 -24 47 -47l-46 -41q18 -28 18 -63.5t-17 -63.5zM157 302q-33 0 -56.5 -23.5t-23.5 -56.5t23.5 -56.5t56.5 -23.5
t56.5 23.5t23.5 56.5t-23.5 56.5t-56.5 23.5z" />
    <glyph glyph-name="yen" unicode="&#xa5;" horiz-adv-x="734" 
d="M119 186q-63 0 -94 -1v50h146q-19 19 -37 47q-107 -3 -109 -3v53q13 0 39.5 -0.5t40.5 -0.5q-42 79 -65 169h273q6 -102 23 -174t59 -137q67 71 67 157q0 52 -28 154h268v-21q0 -80 -26 -147h41v-53q-44 2 -66 2q-17 -27 -36 -48q34 0 102 2v-53h-153q-41 -26 -69 -39
q-4 -76 -20 -143h-263q42 80 50 146q-27 19 -48 40h-95z" />
    <glyph glyph-name="brokenbar" unicode="&#xa6;" horiz-adv-x="117" 
d="M25 323q5 73 5 134.5t-5 141.5h67q-6 -71 -6 -140t6 -136h-67zM25 -120q5 73 5 135t-5 142h67q-6 -72 -6 -141t6 -136h-67z" />
    <glyph glyph-name="section" unicode="&#xa7;" horiz-adv-x="546" 
d="M257 608h22q99 0 190 -20q-16 -54 -35 -104l-112 -5q11 31 14 58q-29 10 -62.5 10t-62.5 -14q24 -40 62 -69t73 -44.5t78 -45t73 -69.5q-11 -37 -34 -81t-43 -71q-12 -3 -40 -6q74 -42 114 -96q-19 -70 -76 -151q-71 -15 -170 -15h-19q-83 0 -180 21q16 62 34 103l113 6
q-13 -31 -16 -58q32 -12 86 -12t85 16q-30 36 -157 115q-41 26 -81 71.5t-54 98.5q19 34 66 95q28 6 45 8q-87 71 -109 150q32 56 67 95q68 14 129 14zM286 197q49 3 74 11q-24 29 -112 88q-22 -1 -53 -11q30 -43 91 -88z" />
    <glyph glyph-name="dieresis" unicode="&#xa8;" horiz-adv-x="344" 
d="M116 576l-40 -1q-20 0 -58 2q25 59 30 101q53 -5 102 -6q-12 -54 -34 -96zM295 576l-41 -1q-19 0 -57 2q24 61 30 101q52 -5 102 -6q-14 -56 -34 -96z" />
    <glyph glyph-name="copyright" unicode="&#xa9;" horiz-adv-x="541" 
d="M318 342q-17 3 -32.5 3t-38.5 -5q-8 -35 -8 -59q0 -76 68 -117q45 29 81 74l3 -60q-75 -60 -179 -60q-44 19 -69 56t-25 85t45 86t130 38q45 0 100 -12q-7 -32 -19 -58q-32 -3 -64 -3q3 8 8 32zM263 472q-92 0 -156.5 -65t-64.5 -157t65 -156.5t156.5 -64.5t156.5 64.5
t65 156.5t-65 157t-157 65zM263 500q103 0 176.5 -73t73.5 -177t-73.5 -177t-176.5 -73t-176.5 73t-73.5 177t73.5 177t176.5 73z" />
    <glyph glyph-name="ordfeminine" unicode="&#xaa;" horiz-adv-x="503" 
d="M481 222h-170q-3 44 -12 86q-43 -45 -102 -86h-171q-5 35 -5 81.5t15 96.5q53 15 102 52t70 79q-17 25 -42 56h242q73 -157 73 -365zM286 362q-21 68 -49 122q-34 -97 -40 -191q54 29 89 69z" />
    <glyph glyph-name="guillemotleft" unicode="&#xab;" horiz-adv-x="362" 
d="M113 23l-109 221l109 221h82l-76 -221l76 -221h-82zM271 23l-110 221l110 221h81l-75 -221l75 -221h-81z" />
    <glyph glyph-name="logicalnot" unicode="&#xac;" horiz-adv-x="615" 
d="M50 222q138 -5 257.5 -5t257.5 5q-3 -51 -3 -91.5t3 -86.5h-67q3 51 3 84v30q-83 4 -207.5 4t-243.5 -7v67z" />
    <glyph glyph-name="uni00AD" unicode="&#xad;" horiz-adv-x="381" 
d="M93 305l67 -1q154 0 206 17q-32 -52 -75 -97h-30q-151 0 -249 21l15 13q43 38 66 47z" />
    <glyph glyph-name="registered" unicode="&#xae;" horiz-adv-x="549" 
d="M243 221l-1 -24q0 -24 4 -70h-109q-14 66 -14 133.5t7 115.5h260q11 -53 11 -104q-41 -22 -100 -33q45 -12 94 -12q28 -39 35 -100h-129q-5 35 -20.5 60t-37.5 34zM272 473q-92 0 -156.5 -65t-64.5 -156.5t64.5 -156.5t156.5 -65t156.5 65t64.5 156.5t-64.5 156.5
t-156.5 65zM272 501q104 0 177 -73.5t73 -176.5t-73 -176.5t-177 -73.5t-177 73.5t-73 176.5t73 176.5t177 73.5zM254 342q-6 -43 -9 -86q29 5 45 20q-11 35 -36 66z" />
    <glyph glyph-name="degree" unicode="&#xb0;" horiz-adv-x="245" 
d="M104 585q-6 -19 -6 -48t11.5 -60t30.5 -43q9 21 9 50t-12 57.5t-33 43.5zM47 415q-33 44 -33 91.5t38.5 80t98.5 32.5q28 0 56 -7q28 -37 28 -83t-40 -84.5t-97 -38.5q-26 0 -51 9z" />
    <glyph glyph-name="plusminus" unicode="&#xb1;" horiz-adv-x="284" 
d="M118 315q0 53 -3 106h53q-5 -58 -5 -106q55 0 107 3v-52q-69 4 -107 5q0 -48 5 -108h-53q3 54 3 108q-37 -1 -106 -5v52q53 -3 106 -3zM12 117q55 -4 126.5 -4t131.5 4v-53q-73 5 -130.5 5t-127.5 -5v53z" />
    <glyph glyph-name="twosuperior" unicode="&#xb2;" horiz-adv-x="426" 
d="M235 268q77 0 101 64q48 -2 69 -3q-6 -61 -29 -108h-347q170 166 170 254q0 43 -36 69q-38 -28 -56 -69q-10 3 -33 10.5t-36 11.5q37 58 86 90h199q54 -40 76 -100q-28 -54 -91 -110.5t-148 -103.5q40 -5 75 -5z" />
    <glyph glyph-name="threesuperior" unicode="&#xb3;" horiz-adv-x="398" 
d="M219 534q-13 5 -45 5t-49.5 -8t-21.5 -17q-3 -6 -10 -34q-23 0 -61 2q7 41 23 105h324q-39 -88 -148 -152q93 -25 154 -69q-34 -85 -107 -145h-229q49 30 101 79.5t72 86.5q-40 30 -92 41q55 30 89 106z" />
    <glyph glyph-name="acute" unicode="&#xb4;" horiz-adv-x="273" 
d="M138 680l111 -14q-14 -27 -39.5 -50t-48.5 -36t-60 -30h-66q72 47 103 130z" />
    <glyph glyph-name="mu" unicode="&#xb5;" horiz-adv-x="767" 
d="M732 500q0 -291 -34 -500h-225q5 24 7 57q-21 -30 -65 -47t-109.5 -17t-103.5 30q1 -122 27 -271h-146q-25 261 -25 568q0 60 2 180h274q-16 -118 -27 -323v-14q0 -41 15 -59.5t51 -18.5q73 0 103 78q2 44 2 110.5t-16 226.5h270z" />
    <glyph glyph-name="paragraph" unicode="&#xb6;" horiz-adv-x="434" 
d="M289 540l-22 -1q-5 -178 -5 -328.5t6 -324.5h-66q4 214 4 306v70q-73 0 -123.5 47t-50.5 114t50 114.5t123 48.5h176q-6 -183 -6 -354.5t6 -345.5h-67q5 185 5 307t-4 346h-4z" />
    <glyph glyph-name="periodcentered" unicode="&#xb7;" horiz-adv-x="133" 
d="M30 291.5q15 14.5 35.5 14.5t35 -14.5t14.5 -35t-14.5 -35.5t-35 -15t-35.5 15t-15 35.5t15 35z" />
    <glyph glyph-name="cedilla" unicode="&#xb8;" horiz-adv-x="183" 
d="M77 -48l43 7q17 0 31.5 -9.5t16.5 -24.5v-5q0 -39 -35.5 -71.5t-90.5 -33.5l-6 21q30 0 46.5 14.5t16.5 32.5q0 26 -32 26q-6 0 -46 -15l44 128h36z" />
    <glyph glyph-name="onesuperior" unicode="&#xb9;" horiz-adv-x="298" 
d="M278 482q0 -142 -15 -261h-166q4 48 4 106.5t-9 130.5q-14 -10 -48 -34l-33 58q101 38 180 105h85q2 -70 2 -105z" />
    <glyph glyph-name="ordmasculine" unicode="&#xba;" horiz-adv-x="422" 
d="M68 225q-61 81 -61 167t70.5 146t181.5 60q50 0 102 -13q51 -67 51 -142q0 -94 -72.5 -164t-176.5 -70q-47 0 -95 16zM172 535q-10 -33 -10 -86.5t21 -110.5t56 -80q16 36 16 90t-22 107.5t-61 79.5z" />
    <glyph glyph-name="guillemotright" unicode="&#xbb;" horiz-adv-x="362" 
d="M355 244l-109 -221h-82l76 221l-76 221h82zM198 244l-110 -221h-81l75 221l-75 221h81z" />
    <glyph glyph-name="onequarter" unicode="&#xbc;" horiz-adv-x="859" 
d="M272 485q0 -146 -16 -263h-166q4 49 4 111.5t-8 125.5q-14 -10 -48 -34l-33 58q98 37 179 104h86q2 -68 2 -102zM612 22v17q0 28 -6 70l-2 11h184q0 -19 -2 -33q-3 -32 -5 -65q32 6 64 26q-23 -57 -32 -74h-37l-6 -55h-168q5 31 8 55h-165l-12 64q46 47 79 116.5
t42 130.5h159q-32 -82 -149 -188q-22 -20 -59 -51l-12 -11q50 -13 119 -13zM491 587q78 20 134 20q-162 -285 -345 -701l-10 -2q-74 -18 -123 -18q168 297 344 701z" />
    <glyph glyph-name="onehalf" unicode="&#xbd;" horiz-adv-x="945" 
d="M123 231l4 95q0 60 -9 133q-14 -10 -48 -34l-33 58q101 38 179 104h86q2 -68 2 -102q0 -146 -16 -263h-165v9zM644 -29q40 -5 79 -5q73 0 97 64l69 -3q-9 -69 -30 -108h-347q171 164 171 254q0 43 -36 69q-37 -28 -56 -69l-69 21q37 60 86 90h199q54 -40 76 -100
q-28 -53 -91 -109.5t-148 -103.5zM540 587q78 20 134 20q-162 -285 -345 -701l-10 -2q-74 -18 -123 -18q168 297 344 701z" />
    <glyph glyph-name="threequarters" unicode="&#xbe;" horiz-adv-x="921" 
d="M676 22q0 46 -6 87l-2 11h184q0 -19 -2 -33q-3 -32 -5 -65q32 6 64 26q-23 -57 -32 -74h-37l-6 -55h-168q6 33 7 55h-164l-12 64q46 47 78.5 116t41.5 130h159q-26 -63 -89.5 -131t-129.5 -118q50 -13 119 -13zM210 534q-13 5 -45 5t-50.5 -8t-22.5 -17t-6 -20.5
t-3 -13.5q-21 0 -61 2q9 45 24 104h324q-39 -86 -148 -152q94 -26 154 -68q-36 -86 -107 -145h-229q49 31 101 80.5t71 85.5q-40 30 -91 41q56 31 89 106zM557 587q78 20 134 20q-162 -285 -345 -701l-10 -2q-74 -18 -123 -18q168 297 344 701z" />
    <glyph glyph-name="questiondown" unicode="&#xbf;" horiz-adv-x="489" 
d="M216 -23q-96 0 -201 23q12 63 38 117q72 7 128 7q-11 -41 -17 -73q22 -5 43 -5t47 9q20 37 20 80.5t-41.5 126t-49.5 110.5q31 8 100 15q18 -57 100 -129q30 -27 56 -64t30 -73q0 -65 -60 -104.5t-193 -39.5zM128 517q39 6 91.5 6t63.5 -1q21 -41 35 -97q-111 0 -168 -10
q-2 56 -22 102z" />
    <glyph glyph-name="Agrave" unicode="&#xc0;" horiz-adv-x="767" 
d="M81 244q72 21 138.5 71t96.5 108q-27 42 -57 77h332q99 -215 99 -492v-8h-232q-4 57 -17 118q-62 -63 -140 -118h-233q-7 41 -7 108.5t20 135.5zM423 191q-26 89 -68 168q-47 -138 -54 -261q72 37 122 93zM387 680q31 -83 103 -130h-66q-37 17 -60 30t-48.5 36t-39.5 50z
" />
    <glyph glyph-name="Aacute" unicode="&#xc1;" horiz-adv-x="767" 
d="M690 8v-8h-232q-4 57 -17 118q-62 -63 -140 -118h-233q-7 41 -7 108.5t20 135.5q72 21 138.5 71t96.5 108q-27 42 -57 77h332q99 -215 99 -492zM423 191q-26 89 -68 168q-47 -138 -54 -261q72 37 122 93zM379 680l111 -14q-14 -27 -39.5 -50t-48.5 -36t-60 -30h-66
q72 47 103 130z" />
    <glyph glyph-name="Acircumflex" unicode="&#xc2;" horiz-adv-x="767" 
d="M81 244q72 21 138.5 71t96.5 108q-27 42 -57 77h332q99 -215 99 -492v-8h-232q-4 57 -17 118q-62 -63 -140 -118h-233q-7 41 -7 108.5t20 135.5zM423 191q-26 89 -68 168q-47 -138 -54 -261q72 37 122 93zM284 558l90 115h49l90 -115h-32l-83 62l-82 -62h-32z" />
    <glyph glyph-name="Atilde" unicode="&#xc3;" horiz-adv-x="767" 
d="M690 8v-8h-232q-4 57 -17 118q-62 -63 -140 -118h-233q-7 41 -7 108.5t20 135.5q72 21 138.5 71t96.5 108q-27 42 -57 77h332q99 -215 99 -492zM423 191q-26 89 -68 168q-47 -138 -54 -261q72 37 122 93zM485.5 586.5q-20.5 -11.5 -50 -11.5t-63.5 20.5t-50 20.5
q-37 0 -66 -33l13 40q12 14 30.5 25.5t40 11.5t52 -11t52.5 -11q54 0 99 47q-4 -8 -14 -37t-16.5 -39.5t-27 -22z" />
    <glyph glyph-name="Adieresis" unicode="&#xc4;" horiz-adv-x="767" 
d="M690 8v-8h-232q-4 57 -17 118q-62 -63 -140 -118h-233q-7 41 -7 108.5t20 135.5q72 21 138.5 71t96.5 108q-27 42 -57 77h332q99 -215 99 -492zM423 191q-26 89 -68 168q-47 -138 -54 -261q72 37 122 93zM326 576l-40 -1q-20 0 -58 2q25 59 30 101q53 -5 102 -6
q-12 -54 -34 -96zM505 576l-41 -1q-19 0 -57 2q24 61 30 101q52 -5 102 -6q-14 -56 -34 -96z" />
    <glyph glyph-name="Aring" unicode="&#xc5;" horiz-adv-x="767" 
d="M81 244q72 21 138.5 71t96.5 108q-27 42 -57 77h332q99 -215 99 -492v-8h-232q-4 57 -17 118q-62 -63 -140 -118h-233q-7 41 -7 108.5t20 135.5zM423 191q-26 89 -68 168q-47 -138 -54 -261q72 37 122 93zM378 558q-29 22 -29 48.5t28.5 48t62.5 21.5t46.5 -15.5
t12.5 -40t-27 -46t-63 -21.5q-14 0 -31 5zM404 624q0 -42 31 -56q10 13 10 33q0 40 -33 55q-8 -16 -8 -32z" />
    <glyph glyph-name="AE" unicode="&#xc6;" horiz-adv-x="1027" 
d="M777 298l92 -6q3 0 8.5 0.5t8.5 0.5l-47 -87h-10q-19 0 -53.5 10t-49.5 10q-42 0 -65 -53q-4 -47 -6 -97q52 -10 81 -10h9q43 0 68.5 19t36.5 68l121 -5q-15 -86 -40 -148h-494q-7 69 -17 118q-65 -66 -140 -118h-232q-7 42 -7 111.5t19 132.5q73 21 140 71t96 108
q-31 45 -58 77h732q-17 -101 -33 -152l-108 -5q9 27 9 44q0 47 -73 47q-31 0 -59 -5q-23 -95 -34 -168q40 37 99 37h6zM402 191q-26 92 -67 167q-46 -135 -55 -260q72 37 122 93z" />
    <glyph glyph-name="Ccedilla" unicode="&#xc7;" horiz-adv-x="632" 
d="M308 -52l43 7q17 0 31.5 -9.5t16.5 -24.5v-5q0 -39 -35.5 -71.5t-90.5 -33.5l-6 21q30 0 46.5 14.5t16.5 32.5q0 26 -32 26q-6 0 -46 -15l31 90q-10 -1 -29 -1h-23q-90 39 -141.5 115t-51.5 160q0 112 92 190.5t267 78.5q98 0 205 -25q-16 -63 -40 -119q-63 -6 -130 -6
q10 28 17 66q-35 6 -67.5 6t-78.5 -11q-15 -63 -15 -123q0 -155 138 -238q92 61 166 152q3 -40 5 -122q-63 -49 -126 -80t-151 -40z" />
    <glyph glyph-name="Egrave" unicode="&#xc8;" horiz-adv-x="671" 
d="M509 293q14 0 21 1l-47 -88h-9q-19 0 -54 10.5t-50 10.5q-41 0 -65 -53q-4 -49 -6 -98q52 -10 82 -10h9q43 0 68.5 19t36.5 68l120 -5q-15 -86 -40 -148h-491q-20 135 -20 268t14 232h536q-18 -108 -32 -152q-59 -3 -108 -4q8 23 8 43q0 48 -72 48q-27 0 -60 -6
q-22 -95 -34 -167q40 37 99 37zM339 680q31 -83 103 -130h-66q-37 17 -60 30t-48.5 36t-39.5 50z" />
    <glyph glyph-name="Eacute" unicode="&#xc9;" horiz-adv-x="671" 
d="M415 299l94 -6q14 0 21 1l-47 -88h-9q-19 0 -54 10.5t-50 10.5q-41 0 -65 -53q-4 -49 -6 -98q52 -10 82 -10h9q43 0 68.5 19t36.5 68l120 -5q-15 -86 -40 -148h-491q-20 135 -20 268t14 232h536q-18 -108 -32 -152q-59 -3 -108 -4q8 23 8 43q0 48 -72 48q-27 0 -60 -6
q-22 -95 -34 -167q40 37 99 37zM331 680l111 -14q-14 -27 -39.5 -50t-48.5 -36t-60 -30h-66q72 47 103 130z" />
    <glyph glyph-name="Ecircumflex" unicode="&#xca;" horiz-adv-x="671" 
d="M415 299l94 -6q14 0 21 1l-47 -88h-9q-19 0 -54 10.5t-50 10.5q-42 0 -65 -53q-5 -50 -6 -98q44 -10 82 -10h9q44 0 68.5 19t36.5 68l120 -5q-17 -91 -40 -148h-491q-20 135 -20 271.5t14 228.5h536q-24 -123 -32 -152q-30 -2 -108 -4q8 24 8 43q0 48 -72 48
q-27 0 -60 -6q-23 -100 -34 -167q42 37 99 37zM221 558l90 115h49l90 -115h-32l-83 62l-82 -62h-32z" />
    <glyph glyph-name="Edieresis" unicode="&#xcb;" horiz-adv-x="671" 
d="M415 299l94 -6q14 0 21 1l-47 -88h-9q-19 0 -54 10.5t-50 10.5q-42 0 -65 -53q-5 -50 -6 -98q44 -10 82 -10h9q44 0 68.5 19t36.5 68l120 -5q-17 -91 -40 -148h-491q-20 135 -20 271.5t14 228.5h536q-24 -123 -32 -152q-30 -2 -108 -4q8 24 8 43q0 48 -72 48
q-27 0 -60 -6q-23 -100 -34 -167q42 37 99 37zM278 576l-40 -1q-20 0 -58 2q24 53 30 101q52 -4 102 -6q-12 -54 -34 -96zM457 576l-41 -1q-19 0 -57 2q24 61 30 101q53 -4 102 -6q-14 -56 -34 -96z" />
    <glyph glyph-name="Igrave" unicode="&#xcc;" horiz-adv-x="396" 
d="M341 500v-27q0 -264 -33 -473h-240q19 92 19 212.5t-16 287.5h270zM202 680q31 -83 103 -130h-66q-37 17 -60 30t-48.5 36t-39.5 50z" />
    <glyph glyph-name="Iacute" unicode="&#xcd;" horiz-adv-x="396" 
d="M341 500v-27q0 -264 -33 -473h-240q19 92 19 212.5t-16 287.5h270zM194 680l111 -14q-14 -27 -39.5 -50t-48.5 -36t-60 -30h-66q72 47 103 130z" />
    <glyph glyph-name="Icircumflex" unicode="&#xce;" horiz-adv-x="396" 
d="M341 500v-27q0 -264 -33 -473h-240q19 92 19 212.5t-16 287.5h270zM83 558l90 115h49l90 -115h-32l-83 62l-82 -62h-32z" />
    <glyph glyph-name="Idieresis" unicode="&#xcf;" horiz-adv-x="396" 
d="M341 500v-27q0 -264 -33 -473h-240q19 92 19 212.5t-16 287.5h270zM140 576l-40 -1q-20 0 -58 2q25 59 30 101q53 -5 102 -6q-12 -54 -34 -96zM319 576l-41 -1q-19 0 -57 2q24 61 30 101q52 -5 102 -6q-14 -56 -34 -96z" />
    <glyph glyph-name="Eth" unicode="&#xd0;" horiz-adv-x="730" 
d="M339 523q195 0 320 -49q45 -87 45 -176q0 -116 -77 -199q-112 -121 -307 -121q-62 0 -154 12l-30 4q-25 124 -35 239q-83 6 -101 9q6 4 18 14q26 22 40 28h39q-2 29 -2 91.5t6 130.5q119 17 238 17zM355 228q-2 -56 -2 -95.5t3 -93.5q55 29 86 98t31 140.5t-26.5 118.5
t-75.5 52q-6 -63 -13 -160q62 2 84 8q-24 -42 -51 -68h-36z" />
    <glyph glyph-name="Ntilde" unicode="&#xd1;" horiz-adv-x="715" 
d="M646 500q6 -105 6 -221.5t-10 -278.5h-96q-194 104 -356 283q8 -67 8 -137.5t-5 -145.5h-117q20 123 20 227.5t-10 165.5q-40 60 -63 107h284q42 -72 114.5 -148.5t138.5 -119.5q0 146 -33 268h119zM443.5 586.5q-20.5 -11.5 -50 -11.5t-63.5 20.5t-50 20.5
q-37 0 -66 -33l13 40q12 14 30.5 25.5t40 11.5t52 -11t52.5 -11q54 0 99 47q-4 -8 -14 -37t-16.5 -39.5t-27 -22z" />
    <glyph glyph-name="Ograve" unicode="&#xd2;" horiz-adv-x="658" 
d="M261 -22q-65 0 -138 25q-89 114 -89 234t100 203t256 83q83 0 165 -25q72 -91 72 -195q0 -131 -107 -228t-259 -97zM381.5 333q-38.5 68 -106.5 103q-35 -60 -35 -141t35.5 -149.5t97.5 -98.5q47 60 47 139t-38.5 147zM333 680q31 -83 103 -130h-66q-37 17 -60 30
t-48.5 36t-39.5 50z" />
    <glyph glyph-name="Oacute" unicode="&#xd3;" horiz-adv-x="658" 
d="M123 3q-89 114 -89 234t100 203t256 83q83 0 165 -25q72 -91 72 -195q0 -131 -107 -228t-259 -97q-65 0 -138 25zM275 436q-35 -60 -35 -141t35.5 -149.5t97.5 -98.5q47 60 47 139t-38.5 147t-106.5 103zM325 680l111 -14q-14 -27 -39.5 -50t-48.5 -36t-60 -30h-66
q72 47 103 130z" />
    <glyph glyph-name="Ocircumflex" unicode="&#xd4;" horiz-adv-x="658" 
d="M261 -22q-65 0 -138 25q-89 114 -89 234t100 203t256 83q83 0 165 -25q72 -91 72 -195q0 -131 -107 -228t-259 -97zM381.5 333q-38.5 68 -106.5 103q-35 -60 -35 -141t35.5 -149.5t97.5 -98.5q47 60 47 139t-38.5 147zM214 558l90 115h49l90 -115h-32l-83 62l-82 -62h-32
z" />
    <glyph glyph-name="Otilde" unicode="&#xd5;" horiz-adv-x="658" 
d="M123 3q-89 114 -89 234t100 203t256 83q83 0 165 -25q72 -91 72 -195q0 -131 -107 -228t-259 -97q-65 0 -138 25zM275 436q-35 -60 -35 -141t35.5 -149.5t97.5 -98.5q47 60 47 139t-38.5 147t-106.5 103zM414.5 586.5q-20.5 -11.5 -50 -11.5t-63.5 20.5t-50 20.5
q-37 0 -66 -33l13 40q12 14 30.5 25.5t40 11.5t52 -11t52.5 -11q54 0 99 47q-4 -8 -14 -37t-16.5 -39.5t-27 -22z" />
    <glyph glyph-name="Odieresis" unicode="&#xd6;" horiz-adv-x="658" 
d="M123 3q-89 114 -89 234t100 203t256 83q83 0 165 -25q72 -91 72 -195q0 -131 -107 -228t-259 -97q-65 0 -138 25zM275 436q-35 -60 -35 -141t35.5 -149.5t97.5 -98.5q47 60 47 139t-38.5 147t-106.5 103zM271 576l-40 -1q-20 0 -58 2q25 59 30 101q53 -5 102 -6
q-12 -54 -34 -96zM450 576l-41 -1q-19 0 -57 2q24 61 30 101q52 -5 102 -6q-14 -56 -34 -96z" />
    <glyph glyph-name="multiply" unicode="&#xd7;" horiz-adv-x="319" 
d="M50 186q52 48 77 73q-34 34 -77 72l37 38q31 -36 72 -79q37 38 73 79l37 -38q-36 -31 -79 -72q25 -25 79 -73l-37 -37q-36 41 -73 79q-41 -43 -72 -79q-6 5 -12 11.5t-13 13.5z" />
    <glyph glyph-name="Oslash" unicode="&#xd8;" horiz-adv-x="623" 
d="M18 232q0 124 101 207.5t255 83.5q65 0 132 -16l19 22q56 11 119 16l-83 -79q49 -78 49 -164q0 -130 -106.5 -227t-258.5 -97q-65 0 -138 25l-6 7l-47 -51h-69l89 90q-56 94 -56 183zM402 192q0 54 -19 104q-90 -88 -133 -132q38 -83 106 -116q46 59 46 144zM224 293
q0 -43 9 -80q71 73 124 131q-39 61 -98 91q-35 -60 -35 -142z" />
    <glyph glyph-name="Ugrave" unicode="&#xd9;" 
d="M558 168q0 158 -28 332h128q4 -65 4 -189.5t-16 -265.5q-104 -67 -249 -67q-193 0 -312 67q-13 108 -13 209.5t15 245.5h269q-40 -217 -42 -417q42 -38 121 -38t121 28q2 33 2 95zM354 680q31 -83 103 -130h-66q-37 17 -60 30t-48.5 36t-39.5 50z" />
    <glyph glyph-name="Uacute" unicode="&#xda;" 
d="M658 500q4 -65 4 -189.5t-16 -265.5q-104 -67 -249 -67q-193 0 -312 67q-13 108 -13 209.5t15 245.5h269q-40 -217 -42 -417q42 -38 121 -38t121 28q2 33 2 95q0 158 -28 332h128zM346 680l111 -14q-14 -27 -39.5 -50t-48.5 -36t-60 -30h-66q72 47 103 130z" />
    <glyph glyph-name="Ucircumflex" unicode="&#xdb;" 
d="M558 168q0 158 -28 332h128q4 -65 4 -189.5t-16 -265.5q-104 -67 -249 -67q-193 0 -312 67q-13 108 -13 209.5t15 245.5h269q-40 -217 -42 -417q42 -38 121 -38t121 28q2 33 2 95zM236 558l90 115h49l90 -115h-32l-83 62l-82 -62h-32z" />
    <glyph glyph-name="Udieresis" unicode="&#xdc;" 
d="M658 500q4 -65 4 -189.5t-16 -265.5q-104 -67 -249 -67q-193 0 -312 67q-13 108 -13 209.5t15 245.5h269q-40 -217 -42 -417q42 -38 121 -38t121 28q2 33 2 95q0 158 -28 332h128zM293 576l-40 -1q-20 0 -58 2q25 59 30 101q53 -5 102 -6q-12 -54 -34 -96zM472 576
l-41 -1q-19 0 -57 2q24 61 30 101q52 -5 102 -6q-14 -56 -34 -96z" />
    <glyph glyph-name="Yacute" unicode="&#xdd;" horiz-adv-x="732" 
d="M704 481q-34 -8 -57 -8t-44 3q-31 -37 -56 -99t-37.5 -111t-27.5 -120q-76 -362 -152 -514q-50 -15 -124 -29q100 171 162 397h-207q-79 256 -82 500h292q-21 -93 -21 -197.5t34 -238.5q7 27 24 94.5t25 96.5t24.5 82t30 79.5t33.5 59.5q36 59 95 80q17 5 69 10.5
t75 20.5q-27 -62 -56 -106zM362 680l111 -14q-14 -27 -39.5 -50t-48.5 -36t-60 -30h-66q72 47 103 130z" />
    <glyph glyph-name="Thorn" unicode="&#xde;" horiz-adv-x="676" 
d="M87 156q0 230 -42 460q97 -17 289 -49l4 -67h265q33 -88 33 -178q0 -42 -8 -96q-120 -59 -284 -74q-3 -77 -9 -152h-253q5 64 5 156zM345 274v-52q53 5 91 20q-7 43 -35.5 97.5t-58.5 92.5q3 -80 3 -158z" />
    <glyph glyph-name="germandbls" unicode="&#xdf;" horiz-adv-x="638" 
d="M64 313q0 57 3 120q51 105 126 177h236q80 -69 111 -145q-43 -73 -98 -115q101 -70 156 -178q-31 -105 -72 -172h-207l-29 110q41 -43 79 -43q4 28 4 43q0 52 -19.5 107t-54.5 96q86 52 135 141q-15 28 -56 54.5t-82 35.5q-30 -205 -30 -429q0 -63 3 -115h-182
q-23 161 -23 313z" />
    <glyph glyph-name="agrave" unicode="&#xe0;" horiz-adv-x="767" 
d="M81 244q72 21 138.5 71t96.5 108q-27 42 -57 77h332q99 -215 99 -492v-8h-232q-4 57 -17 118q-62 -63 -140 -118h-233q-7 41 -7 108.5t20 135.5zM423 191q-26 89 -68 168q-47 -138 -54 -261q72 37 122 93zM387 680q31 -83 103 -130h-66q-37 17 -60 30t-48.5 36t-39.5 50z
" />
    <glyph glyph-name="aacute" unicode="&#xe1;" horiz-adv-x="767" 
d="M690 8v-8h-232q-4 57 -17 118q-62 -63 -140 -118h-233q-7 41 -7 108.5t20 135.5q72 21 138.5 71t96.5 108q-27 42 -57 77h332q99 -215 99 -492zM423 191q-26 89 -68 168q-47 -138 -54 -261q72 37 122 93zM379 680l111 -14q-14 -27 -39.5 -50t-48.5 -36t-60 -30h-66
q72 47 103 130z" />
    <glyph glyph-name="acircumflex" unicode="&#xe2;" horiz-adv-x="767" 
d="M81 244q72 21 138.5 71t96.5 108q-27 42 -57 77h332q99 -215 99 -492v-8h-232q-4 57 -17 118q-62 -63 -140 -118h-233q-7 41 -7 108.5t20 135.5zM423 191q-26 89 -68 168q-47 -138 -54 -261q72 37 122 93zM284 558l90 115h49l90 -115h-32l-83 62l-82 -62h-32z" />
    <glyph glyph-name="atilde" unicode="&#xe3;" horiz-adv-x="767" 
d="M690 8v-8h-232q-4 57 -17 118q-62 -63 -140 -118h-233q-7 41 -7 108.5t20 135.5q72 21 138.5 71t96.5 108q-27 42 -57 77h332q99 -215 99 -492zM423 191q-26 89 -68 168q-47 -138 -54 -261q72 37 122 93zM485.5 586.5q-20.5 -11.5 -50 -11.5t-63.5 20.5t-50 20.5
q-37 0 -66 -33l13 40q12 14 30.5 25.5t40 11.5t52 -11t52.5 -11q54 0 99 47q-4 -8 -14 -37t-16.5 -39.5t-27 -22z" />
    <glyph glyph-name="adieresis" unicode="&#xe4;" horiz-adv-x="767" 
d="M690 8v-8h-232q-4 57 -17 118q-62 -63 -140 -118h-233q-7 41 -7 108.5t20 135.5q72 21 138.5 71t96.5 108q-27 42 -57 77h332q99 -215 99 -492zM423 191q-26 89 -68 168q-47 -138 -54 -261q72 37 122 93zM326 576l-40 -1q-20 0 -58 2q25 59 30 101q53 -5 102 -6
q-12 -54 -34 -96zM505 576l-41 -1q-19 0 -57 2q24 61 30 101q52 -5 102 -6q-14 -56 -34 -96z" />
    <glyph glyph-name="aring" unicode="&#xe5;" horiz-adv-x="767" 
d="M81 244q72 21 138.5 71t96.5 108q-27 42 -57 77h332q99 -215 99 -492v-8h-232q-4 57 -17 118q-62 -63 -140 -118h-233q-7 41 -7 108.5t20 135.5zM423 191q-26 89 -68 168q-47 -138 -54 -261q72 37 122 93zM378 558q-29 22 -29 48.5t28.5 48t62.5 21.5t46.5 -15.5
t12.5 -40t-27 -46t-63 -21.5q-14 0 -31 5zM404 624q0 -42 31 -56q10 13 10 33q0 40 -33 55q-8 -16 -8 -32z" />
    <glyph glyph-name="ae" unicode="&#xe6;" horiz-adv-x="1027" 
d="M777 298l92 -6q3 0 8.5 0.5t8.5 0.5l-47 -87h-10q-19 0 -53.5 10t-49.5 10q-42 0 -65 -53q-4 -47 -6 -97q52 -10 81 -10h9q43 0 68.5 19t36.5 68l121 -5q-15 -86 -40 -148h-494q-7 69 -17 118q-65 -66 -140 -118h-232q-7 42 -7 111.5t19 132.5q73 21 140 71t96 108
q-31 45 -58 77h732q-17 -101 -33 -152l-108 -5q9 27 9 44q0 47 -73 47q-31 0 -59 -5q-23 -95 -34 -168q40 37 99 37h6zM402 191q-26 92 -67 167q-46 -135 -55 -260q72 37 122 93z" />
    <glyph glyph-name="ccedilla" unicode="&#xe7;" horiz-adv-x="632" 
d="M308 -52l43 7q17 0 31.5 -9.5t16.5 -24.5v-5q0 -39 -35.5 -71.5t-90.5 -33.5l-6 21q30 0 46.5 14.5t16.5 32.5q0 26 -32 26q-6 0 -46 -15l31 90q-10 -1 -29 -1h-23q-90 39 -141.5 115t-51.5 160q0 112 92 190.5t267 78.5q98 0 205 -25q-16 -63 -40 -119q-63 -6 -130 -6
q10 28 17 66q-35 6 -67.5 6t-78.5 -11q-15 -63 -15 -123q0 -155 138 -238q92 61 166 152q3 -40 5 -122q-63 -49 -126 -80t-151 -40z" />
    <glyph glyph-name="egrave" unicode="&#xe8;" horiz-adv-x="671" 
d="M509 293q14 0 21 1l-47 -88h-9q-19 0 -54 10.5t-50 10.5q-41 0 -65 -53q-4 -49 -6 -98q52 -10 82 -10h9q43 0 68.5 19t36.5 68l120 -5q-15 -86 -40 -148h-491q-20 135 -20 268t14 232h536q-18 -108 -32 -152q-59 -3 -108 -4q8 23 8 43q0 48 -72 48q-27 0 -60 -6
q-22 -95 -34 -167q40 37 99 37zM339 680q31 -83 103 -130h-66q-37 17 -60 30t-48.5 36t-39.5 50z" />
    <glyph glyph-name="eacute" unicode="&#xe9;" horiz-adv-x="671" 
d="M415 299l94 -6q14 0 21 1l-47 -88h-9q-19 0 -54 10.5t-50 10.5q-41 0 -65 -53q-4 -49 -6 -98q52 -10 82 -10h9q43 0 68.5 19t36.5 68l120 -5q-15 -86 -40 -148h-491q-20 135 -20 268t14 232h536q-18 -108 -32 -152q-59 -3 -108 -4q8 23 8 43q0 48 -72 48q-27 0 -60 -6
q-22 -95 -34 -167q40 37 99 37zM331 680l111 -14q-14 -27 -39.5 -50t-48.5 -36t-60 -30h-66q72 47 103 130z" />
    <glyph glyph-name="ecircumflex" unicode="&#xea;" horiz-adv-x="671" 
d="M509 293q14 0 21 1l-47 -88h-9q-19 0 -54 10.5t-50 10.5q-41 0 -65 -53q-4 -49 -6 -98q52 -10 82 -10h9q43 0 68.5 19t36.5 68l120 -5q-15 -86 -40 -148h-491q-20 135 -20 268t14 232h536q-18 -108 -32 -152q-59 -3 -108 -4q8 23 8 43q0 48 -72 48q-27 0 -60 -6
q-22 -95 -34 -167q40 37 99 37zM221 558l90 115h49l90 -115h-32l-83 62l-82 -62h-32z" />
    <glyph glyph-name="edieresis" unicode="&#xeb;" horiz-adv-x="671" 
d="M415 299l94 -6q14 0 21 1l-47 -88h-9q-19 0 -54 10.5t-50 10.5q-41 0 -65 -53q-4 -49 -6 -98q52 -10 82 -10h9q43 0 68.5 19t36.5 68l120 -5q-15 -86 -40 -148h-491q-20 135 -20 268t14 232h536q-18 -108 -32 -152q-59 -3 -108 -4q8 23 8 43q0 48 -72 48q-27 0 -60 -6
q-22 -95 -34 -167q40 37 99 37zM278 576l-40 -1q-20 0 -58 2q25 59 30 101q53 -5 102 -6q-12 -54 -34 -96zM457 576l-41 -1q-19 0 -57 2q24 61 30 101q52 -5 102 -6q-14 -56 -34 -96z" />
    <glyph glyph-name="igrave" unicode="&#xec;" horiz-adv-x="396" 
d="M341 500v-27q0 -264 -33 -473h-240q19 92 19 212.5t-16 287.5h270zM202 680q31 -83 103 -130h-66q-37 17 -60 30t-48.5 36t-39.5 50z" />
    <glyph glyph-name="iacute" unicode="&#xed;" horiz-adv-x="396" 
d="M341 500v-27q0 -264 -33 -473h-240q19 92 19 212.5t-16 287.5h270zM194 680l111 -14q-14 -27 -39.5 -50t-48.5 -36t-60 -30h-66q72 47 103 130z" />
    <glyph glyph-name="icircumflex" unicode="&#xee;" horiz-adv-x="396" 
d="M341 500v-27q0 -264 -33 -473h-240q19 92 19 212.5t-16 287.5h270zM83 558l90 115h49l90 -115h-32l-83 62l-82 -62h-32z" />
    <glyph glyph-name="idieresis" unicode="&#xef;" horiz-adv-x="396" 
d="M341 500v-27q0 -264 -33 -473h-240q19 92 19 212.5t-16 287.5h270zM140 576l-40 -1q-20 0 -58 2q25 59 30 101q53 -5 102 -6q-12 -54 -34 -96zM319 576l-41 -1q-19 0 -57 2q24 61 30 101q52 -5 102 -6q-14 -56 -34 -96z" />
    <glyph glyph-name="eth" unicode="&#xf0;" horiz-adv-x="730" 
d="M339 523q195 0 320 -49q45 -87 45 -176q0 -116 -77 -199q-112 -121 -307 -121q-62 0 -154 12l-30 4q-25 124 -35 239q-83 6 -101 9q6 4 18 14q26 22 40 28h39q-2 29 -2 91.5t6 130.5q119 17 238 17zM355 228q-2 -56 -2 -95.5t3 -93.5q55 29 86 98t31 140.5t-26.5 118.5
t-75.5 52q-6 -63 -13 -160q62 2 84 8q-24 -42 -51 -68h-36z" />
    <glyph glyph-name="ntilde" unicode="&#xf1;" horiz-adv-x="715" 
d="M646 500q6 -105 6 -221.5t-10 -278.5h-96q-194 104 -356 283q8 -67 8 -137.5t-5 -145.5h-117q20 123 20 227.5t-10 165.5q-40 60 -63 107h284q42 -72 114.5 -148.5t138.5 -119.5q0 146 -33 268h119zM443.5 586.5q-20.5 -11.5 -50 -11.5t-63.5 20.5t-50 20.5
q-37 0 -66 -33l13 40q12 14 30.5 25.5t40 11.5t52 -11t52.5 -11q54 0 99 47q-4 -8 -14 -37t-16.5 -39.5t-27 -22z" />
    <glyph glyph-name="ograve" unicode="&#xf2;" horiz-adv-x="658" 
d="M261 -22q-65 0 -138 25q-89 114 -89 234t100 203t256 83q83 0 165 -25q72 -91 72 -195q0 -131 -107 -228t-259 -97zM381.5 333q-38.5 68 -106.5 103q-35 -60 -35 -141t35.5 -149.5t97.5 -98.5q47 60 47 139t-38.5 147zM333 680q31 -83 103 -130h-66q-37 17 -60 30
t-48.5 36t-39.5 50z" />
    <glyph glyph-name="oacute" unicode="&#xf3;" horiz-adv-x="658" 
d="M123 3q-89 114 -89 234t100 203t256 83q83 0 165 -25q72 -91 72 -195q0 -131 -107 -228t-259 -97q-65 0 -138 25zM275 436q-35 -60 -35 -141t35.5 -149.5t97.5 -98.5q47 60 47 139t-38.5 147t-106.5 103zM325 680l111 -14q-14 -27 -39.5 -50t-48.5 -36t-60 -30h-66
q72 47 103 130z" />
    <glyph glyph-name="ocircumflex" unicode="&#xf4;" horiz-adv-x="658" 
d="M261 -22q-65 0 -138 25q-89 114 -89 234t100 203t256 83q83 0 165 -25q72 -91 72 -195q0 -131 -107 -228t-259 -97zM381.5 333q-38.5 68 -106.5 103q-35 -60 -35 -141t35.5 -149.5t97.5 -98.5q47 60 47 139t-38.5 147zM214 558l90 115h49l90 -115h-32l-83 62l-82 -62h-32
z" />
    <glyph glyph-name="otilde" unicode="&#xf5;" horiz-adv-x="658" 
d="M123 3q-89 114 -89 234t100 203t256 83q83 0 165 -25q72 -91 72 -195q0 -131 -107 -228t-259 -97q-65 0 -138 25zM275 436q-35 -60 -35 -141t35.5 -149.5t97.5 -98.5q47 60 47 139t-38.5 147t-106.5 103zM414.5 586.5q-20.5 -11.5 -50 -11.5t-63.5 20.5t-50 20.5
q-37 0 -66 -33l13 40q12 14 30.5 25.5t40 11.5t52 -11t52.5 -11q54 0 99 47q-4 -8 -14 -37t-16.5 -39.5t-27 -22z" />
    <glyph glyph-name="odieresis" unicode="&#xf6;" horiz-adv-x="658" 
d="M123 3q-89 114 -89 234t100 203t256 83q83 0 165 -25q72 -91 72 -195q0 -131 -107 -228t-259 -97q-65 0 -138 25zM275 436q-35 -60 -35 -141t35.5 -149.5t97.5 -98.5q47 60 47 139t-38.5 147t-106.5 103zM271 576l-40 -1q-20 0 -58 2q25 59 30 101q53 -5 102 -6
q-12 -54 -34 -96zM450 576l-41 -1q-19 0 -57 2q24 61 30 101q52 -5 102 -6q-14 -56 -34 -96z" />
    <glyph glyph-name="divide" unicode="&#xf7;" horiz-adv-x="358" 
d="M179 281q72 0 129 4v-53q-72 5 -129 5t-129 -5v53q57 -4 129 -4zM179 369q11 0 19 -8t8 -19t-8 -19t-19 -8t-19 8t-8 19t8 19t19 8zM179 202q11 0 19 -7.5t8 -18.5t-8 -19t-19 -8t-19 8t-8 19t8 18.5t19 7.5z" />
    <glyph glyph-name="oslash" unicode="&#xf8;" horiz-adv-x="623" 
d="M18 232q0 124 101 207.5t255 83.5q65 0 132 -16l19 22q56 11 119 16l-83 -79q49 -78 49 -164q0 -130 -106.5 -227t-258.5 -97q-65 0 -138 25l-6 7l-47 -51h-69l89 90q-56 94 -56 183zM402 192q0 54 -19 104q-90 -88 -133 -132q38 -83 106 -116q46 59 46 144zM224 293
q0 -43 9 -80q71 73 124 131q-39 61 -98 91q-35 -60 -35 -142z" />
    <glyph glyph-name="ugrave" unicode="&#xf9;" 
d="M558 168q0 158 -28 332h128q4 -65 4 -189.5t-16 -265.5q-104 -67 -249 -67q-193 0 -312 67q-13 108 -13 209.5t15 245.5h269q-40 -217 -42 -417q42 -38 121 -38t121 28q2 33 2 95zM354 680q31 -83 103 -130h-66q-37 17 -60 30t-48.5 36t-39.5 50z" />
    <glyph glyph-name="uacute" unicode="&#xfa;" 
d="M658 500q4 -65 4 -189.5t-16 -265.5q-104 -67 -249 -67q-193 0 -312 67q-13 108 -13 209.5t15 245.5h269q-40 -217 -42 -417q42 -38 121 -38t121 28q2 33 2 95q0 158 -28 332h128zM346 680l111 -14q-14 -27 -39.5 -50t-48.5 -36t-60 -30h-66q72 47 103 130z" />
    <glyph glyph-name="ucircumflex" unicode="&#xfb;" 
d="M558 168q0 158 -28 332h128q4 -65 4 -189.5t-16 -265.5q-104 -67 -249 -67q-193 0 -312 67q-13 108 -13 209.5t15 245.5h269q-40 -217 -42 -417q42 -38 121 -38t121 28q2 33 2 95zM236 558l90 115h49l90 -115h-32l-83 62l-82 -62h-32z" />
    <glyph glyph-name="udieresis" unicode="&#xfc;" 
d="M658 500q4 -65 4 -189.5t-16 -265.5q-104 -67 -249 -67q-193 0 -312 67q-13 108 -13 209.5t15 245.5h269q-40 -217 -42 -417q42 -38 121 -38t121 28q2 33 2 95q0 158 -28 332h128zM293 576l-40 -1q-20 0 -58 2q25 59 30 101q53 -5 102 -6q-12 -54 -34 -96zM472 576
l-41 -1q-19 0 -57 2q24 61 30 101q52 -5 102 -6q-14 -56 -34 -96z" />
    <glyph glyph-name="yacute" unicode="&#xfd;" horiz-adv-x="732" 
d="M704 481q-34 -8 -57 -8t-44 3q-31 -37 -56 -99t-37.5 -111t-27.5 -120q-76 -362 -152 -514q-50 -15 -124 -29q100 171 162 397h-207q-79 256 -82 500h292q-21 -93 -21 -197.5t34 -238.5q7 27 24 94.5t25 96.5t24.5 82t30 79.5t33.5 59.5q36 59 95 80q17 5 69 10.5
t75 20.5q-27 -62 -56 -106zM362 680l111 -14q-14 -27 -39.5 -50t-48.5 -36t-60 -30h-66q72 47 103 130z" />
    <glyph glyph-name="thorn" unicode="&#xfe;" horiz-adv-x="676" 
d="M87 156q0 230 -42 460q97 -17 289 -49l4 -67h265q33 -88 33 -178q0 -42 -8 -96q-120 -59 -284 -74q-3 -77 -9 -152h-253q5 64 5 156zM345 274v-52q53 5 91 20q-7 43 -35.5 97.5t-58.5 92.5q3 -80 3 -158z" />
    <glyph glyph-name="ydieresis" unicode="&#xff;" horiz-adv-x="732" 
d="M704 481q-34 -8 -57 -8t-44 3q-31 -37 -56 -99t-37.5 -111t-27.5 -120q-76 -362 -152 -514q-50 -15 -124 -29q100 171 162 397h-207q-79 256 -82 500h292q-21 -93 -21 -197.5t34 -238.5q7 27 24 94.5t25 96.5t24.5 82t30 79.5t33.5 59.5q36 59 95 80q17 5 69 10.5
t75 20.5q-27 -62 -56 -106zM308 576l-40 -1q-20 0 -58 2q25 59 30 101q53 -5 102 -6q-12 -54 -34 -96zM487 576l-41 -1q-19 0 -57 2q24 61 30 101q52 -5 102 -6q-14 -56 -34 -96z" />
    <glyph glyph-name="Amacron" unicode="&#x100;" horiz-adv-x="767" 
d="M82 655q157 -5 275 -5t288 5v-75q-179 7 -287 7t-276 -7v75zM690 8v-8h-232q-4 57 -17 118q-62 -63 -140 -118h-233q-7 41 -7 108.5t20 135.5q72 21 138.5 71t96.5 108q-27 42 -57 77h332q99 -215 99 -492zM423 191q-26 89 -68 168q-47 -138 -54 -261q72 37 122 93z" />
    <glyph glyph-name="amacron" unicode="&#x101;" horiz-adv-x="767" 
d="M82 655q157 -5 275 -5t288 5v-75q-179 7 -287 7t-276 -7v75zM690 8v-8h-232q-4 57 -17 118q-62 -63 -140 -118h-233q-7 41 -7 108.5t20 135.5q72 21 138.5 71t96.5 108q-27 42 -57 77h332q99 -215 99 -492zM423 191q-26 89 -68 168q-47 -138 -54 -261q72 37 122 93z" />
    <glyph glyph-name="Abreve" unicode="&#x102;" horiz-adv-x="767" 
d="M690 8v-8h-232q-4 57 -17 118q-62 -63 -140 -118h-233q-7 41 -7 108.5t20 135.5q72 21 138.5 71t96.5 108q-27 42 -57 77h332q99 -215 99 -492zM423 191q-26 89 -68 168q-47 -138 -54 -261q72 37 122 93zM362 615q35 -22 82.5 -22t85.5 33q2 0 -9 -19.5t-37 -40.5
q-33 -28 -87.5 -28t-104.5 31l-14 8q5 30 18.5 66.5t14.5 36.5z" />
    <glyph glyph-name="abreve" unicode="&#x103;" horiz-adv-x="767" 
d="M690 8v-8h-232q-4 57 -17 118q-62 -63 -140 -118h-233q-7 41 -7 108.5t20 135.5q72 21 138.5 71t96.5 108q-27 42 -57 77h332q99 -215 99 -492zM423 191q-26 89 -68 168q-47 -138 -54 -261q72 37 122 93zM362 615q35 -22 82.5 -22t85.5 33q2 0 -9 -19.5t-37 -40.5
q-33 -28 -87.5 -28t-104.5 31l-14 8q5 30 18.5 66.5t14.5 36.5z" />
    <glyph glyph-name="Aogonek" unicode="&#x104;" horiz-adv-x="749" 
d="M559 -96q0 -40 36 -40q18 0 37 18q2 -10 5 -21q-26 -35 -63.5 -35t-58.5 21t-21 47q0 59 69 106h-109q-4 57 -17 118q-62 -63 -140 -118h-233q-7 41 -7 108.5t20 135.5q72 21 138.5 71t96.5 108q-27 42 -57 77h332q99 -215 99 -492v-8h-75q-52 -42 -52 -96zM419 191
q-26 89 -68 168q-47 -138 -54 -261q72 37 122 93z" />
    <glyph glyph-name="aogonek" unicode="&#x105;" horiz-adv-x="749" 
d="M559 -96q0 -40 36 -40q18 0 37 18q2 -10 5 -21q-26 -35 -63.5 -35t-58.5 21t-21 47q0 59 69 106h-109q-4 57 -17 118q-62 -63 -140 -118h-233q-7 41 -7 108.5t20 135.5q72 21 138.5 71t96.5 108q-27 42 -57 77h332q99 -215 99 -492v-8h-75q-52 -42 -52 -96zM419 191
q-26 89 -68 168q-47 -138 -54 -261q72 37 122 93z" />
    <glyph glyph-name="Cacute" unicode="&#x106;" horiz-adv-x="632" 
d="M449 439q-35 6 -67.5 6t-78.5 -11q-15 -63 -15 -123q0 -155 138 -238q92 61 166 152q3 -40 5 -122q-74 -58 -151 -91t-192 -33h-23q-90 39 -141.5 115t-51.5 160q0 112 92 190.5t267 78.5q98 0 205 -25q-16 -63 -40 -119q-63 -6 -130 -6q10 28 17 66zM312 680l111 -14
q-14 -27 -39.5 -50t-48.5 -36t-60 -30h-66q72 47 103 130z" />
    <glyph glyph-name="cacute" unicode="&#x107;" horiz-adv-x="632" 
d="M449 439q-35 6 -67.5 6t-78.5 -11q-15 -63 -15 -123q0 -155 138 -238q92 61 166 152q3 -40 5 -122q-74 -58 -151 -91t-192 -33h-23q-90 39 -141.5 115t-51.5 160q0 112 92 190.5t267 78.5q98 0 205 -25q-16 -63 -40 -119q-63 -6 -130 -6q10 28 17 66zM312 680l111 -14
q-14 -27 -39.5 -50t-48.5 -36t-60 -30h-66q72 47 103 130z" />
    <glyph glyph-name="Ccircumflex" unicode="&#x108;" horiz-adv-x="632" 
d="M397 523q98 0 205 -25q-16 -63 -40 -119q-63 -6 -130 -6q10 28 17 66q-35 6 -67.5 6t-78.5 -11q-15 -63 -15 -123q0 -155 138 -238q92 61 166 152q3 -40 5 -122q-74 -58 -151 -91t-192 -33h-23q-90 39 -141.5 115t-51.5 160q0 112 92 190.5t267 78.5zM201 558l90 115h49
l90 -115h-32l-83 62l-82 -62h-32z" />
    <glyph glyph-name="ccircumflex" unicode="&#x109;" horiz-adv-x="632" 
d="M397 523q98 0 205 -25q-16 -63 -40 -119q-63 -6 -130 -6q10 28 17 66q-35 6 -67.5 6t-78.5 -11q-15 -63 -15 -123q0 -155 138 -238q92 61 166 152q3 -40 5 -122q-74 -58 -151 -91t-192 -33h-23q-90 39 -141.5 115t-51.5 160q0 112 92 190.5t267 78.5zM201 558l90 115h49
l90 -115h-32l-83 62l-82 -62h-32z" />
    <glyph glyph-name="Cdotaccent" unicode="&#x10a;" horiz-adv-x="632" 
d="M449 439q-35 6 -67.5 6t-78.5 -11q-15 -63 -15 -123q0 -155 138 -238q92 61 166 152q3 -40 5 -122q-74 -58 -151 -91t-192 -33h-23q-90 39 -141.5 115t-51.5 160q0 112 92 190.5t267 78.5q98 0 205 -25q-16 -63 -40 -119q-63 -6 -130 -6q10 28 17 66zM348 576l-40 -1
q-20 0 -58 2q25 59 30 101q53 -5 102 -6q-12 -54 -34 -96z" />
    <glyph glyph-name="cdotaccent" unicode="&#x10b;" horiz-adv-x="632" 
d="M449 439q-35 6 -67.5 6t-78.5 -11q-15 -63 -15 -123q0 -155 138 -238q92 61 166 152q3 -40 5 -122q-74 -58 -151 -91t-192 -33h-23q-90 39 -141.5 115t-51.5 160q0 112 92 190.5t267 78.5q98 0 205 -25q-16 -63 -40 -119q-63 -6 -130 -6q10 28 17 66zM348 576l-40 -1
q-20 0 -58 2q25 59 30 101q53 -5 102 -6q-12 -54 -34 -96z" />
    <glyph glyph-name="Ccaron" unicode="&#x10c;" horiz-adv-x="632" 
d="M449 439q-35 6 -67.5 6t-78.5 -11q-15 -63 -15 -123q0 -155 138 -238q92 61 166 152q3 -40 5 -122q-74 -58 -151 -91t-192 -33h-23q-90 39 -141.5 115t-51.5 160q0 112 92 190.5t267 78.5q98 0 205 -25q-16 -63 -40 -119q-63 -6 -130 -6q10 28 17 66zM291 554l-90 115h32
l82 -62l83 62h32l-90 -115h-49z" />
    <glyph glyph-name="ccaron" unicode="&#x10d;" horiz-adv-x="632" 
d="M449 439q-35 6 -67.5 6t-78.5 -11q-15 -63 -15 -123q0 -155 138 -238q92 61 166 152q3 -40 5 -122q-74 -58 -151 -91t-192 -33h-23q-90 39 -141.5 115t-51.5 160q0 112 92 190.5t267 78.5q98 0 205 -25q-16 -63 -40 -119q-63 -6 -130 -6q10 28 17 66zM291 554l-90 115h32
l82 -62l83 62h32l-90 -115h-49z" />
    <glyph glyph-name="Dcaron" unicode="&#x10e;" horiz-adv-x="813" 
d="M315 523q193 0 314 -48q43 -86 43 -174q0 -113 -77 -196q-112 -119 -303 -119q-66 0 -179 15q-39 201 -39 371q0 59 6 128q161 23 235 23zM345 448q-18 -188 -18 -269.5t3 -132.5q54 29 84.5 97.5t30.5 139t-25.5 115.5t-74.5 50zM633 688q62 -11 165 -11
q-19 -101 -69 -175q-30 4 -46 8q21 39 23 72q-62 0 -95 6q20 45 22 100z" />
    <glyph glyph-name="dcaron" unicode="&#x10f;" horiz-adv-x="813" 
d="M315 523q193 0 314 -48q43 -86 43 -174q0 -113 -77 -196q-112 -119 -303 -119q-66 0 -179 15q-39 201 -39 371q0 59 6 128q161 23 235 23zM345 448q-18 -188 -18 -269.5t3 -132.5q54 29 84.5 97.5t30.5 139t-25.5 115.5t-74.5 50zM633 688q62 -11 165 -11
q-19 -101 -69 -175q-30 4 -46 8q21 39 23 72q-62 0 -95 6q20 45 22 100z" />
    <glyph glyph-name="Dcroat" unicode="&#x110;" horiz-adv-x="730" 
d="M339 523q195 0 320 -49q45 -87 45 -176q0 -116 -77 -199q-112 -121 -307 -121q-62 0 -154 12l-30 4q-25 124 -35 239q-83 6 -101 9q6 4 18 14q26 22 40 28h39q-2 29 -2 91.5t6 130.5q119 17 238 17zM355 228q-2 -56 -2 -95.5t3 -93.5q55 29 86 98t31 140.5t-26.5 118.5
t-75.5 52q-6 -63 -13 -160q62 2 84 8q-24 -42 -51 -68h-36z" />
    <glyph glyph-name="dcroat" unicode="&#x111;" horiz-adv-x="730" 
d="M339 523q195 0 320 -49q45 -87 45 -176q0 -116 -77 -199q-112 -121 -307 -121q-62 0 -154 12l-30 4q-25 124 -35 239q-83 6 -101 9q6 4 18 14q26 22 40 28h39q-2 29 -2 91.5t6 130.5q119 17 238 17zM355 228q-2 -56 -2 -95.5t3 -93.5q55 29 86 98t31 140.5t-26.5 118.5
t-75.5 52q-6 -63 -13 -160q62 2 84 8q-24 -42 -51 -68h-36z" />
    <glyph glyph-name="Emacron" unicode="&#x112;" horiz-adv-x="671" 
d="M70 655q157 -5 275 -5t288 5v-75q-178 7 -286.5 7t-276.5 -7v75zM415 299l94 -6q14 0 21 1l-47 -88h-9q-19 0 -54 10.5t-50 10.5q-41 0 -65 -53q-4 -49 -6 -98q52 -10 82 -10h9q43 0 68.5 19t36.5 68l120 -5q-15 -86 -40 -148h-491q-20 135 -20 268t14 232h536
q-18 -108 -32 -152q-59 -3 -108 -4q8 23 8 43q0 48 -72 48q-27 0 -60 -6q-22 -95 -34 -167q40 37 99 37z" />
    <glyph glyph-name="emacron" unicode="&#x113;" horiz-adv-x="671" 
d="M70 655q157 -5 275 -5t288 5v-75q-178 7 -286.5 7t-276.5 -7v75zM415 299l94 -6q14 0 21 1l-47 -88h-9q-19 0 -54 10.5t-50 10.5q-41 0 -65 -53q-4 -49 -6 -98q52 -10 82 -10h9q43 0 68.5 19t36.5 68l120 -5q-15 -86 -40 -148h-491q-20 135 -20 268t14 232h536
q-18 -108 -32 -152q-59 -3 -108 -4q8 23 8 43q0 48 -72 48q-27 0 -60 -6q-22 -95 -34 -167q40 37 99 37z" />
    <glyph glyph-name="Edotaccent" unicode="&#x116;" horiz-adv-x="671" 
d="M415 299l94 -6q14 0 21 1l-47 -88h-9q-19 0 -54 10.5t-50 10.5q-41 0 -65 -53q-4 -49 -6 -98q52 -10 82 -10h9q43 0 68.5 19t36.5 68l120 -5q-15 -86 -40 -148h-491q-20 135 -20 268t14 232h536q-18 -108 -32 -152q-59 -3 -108 -4q8 23 8 43q0 48 -72 48q-27 0 -60 -6
q-22 -95 -34 -167q40 37 99 37zM367 576l-40 -1q-20 0 -58 2q25 59 30 101q53 -5 102 -6q-12 -54 -34 -96z" />
    <glyph glyph-name="edotaccent" unicode="&#x117;" horiz-adv-x="671" 
d="M415 299l94 -6q14 0 21 1l-47 -88h-9q-19 0 -54 10.5t-50 10.5q-41 0 -65 -53q-4 -49 -6 -98q52 -10 82 -10h9q43 0 68.5 19t36.5 68l120 -5q-15 -86 -40 -148h-491q-20 135 -20 268t14 232h536q-18 -108 -32 -152q-59 -3 -108 -4q8 23 8 43q0 48 -72 48q-27 0 -60 -6
q-22 -95 -34 -167q40 37 99 37zM367 576l-40 -1q-20 0 -58 2q25 59 30 101q53 -5 102 -6q-12 -54 -34 -96z" />
    <glyph glyph-name="Eogonek" unicode="&#x118;" horiz-adv-x="671" 
d="M415 299l94 -6q14 0 21 1l-47 -88h-9q-19 0 -54 10.5t-50 10.5q-41 0 -65 -53q-4 -49 -6 -98q52 -10 82 -10h9q43 0 68.5 19t36.5 68l120 -5q-15 -86 -40 -148h-197q-52 -42 -52 -96q0 -20 9 -30t27 -10t37 18q1 -11 5 -21q-26 -35 -63.5 -35t-58.5 21t-21 47
q0 59 69 106h-246q-20 135 -20 268t14 232h536q-18 -108 -32 -152q-59 -3 -108 -4q8 23 8 43q0 48 -72 48q-27 0 -60 -6q-22 -95 -34 -167q40 37 99 37z" />
    <glyph glyph-name="eogonek" unicode="&#x119;" horiz-adv-x="671" 
d="M415 299l94 -6q14 0 21 1l-47 -88h-9q-19 0 -54 10.5t-50 10.5q-41 0 -65 -53q-4 -49 -6 -98q52 -10 82 -10h9q43 0 68.5 19t36.5 68l120 -5q-15 -86 -40 -148h-197q-52 -42 -52 -96q0 -20 9 -30t27 -10t37 18q1 -11 5 -21q-26 -35 -63.5 -35t-58.5 21t-21 47
q0 59 69 106h-246q-20 135 -20 268t14 232h536q-18 -108 -32 -152q-59 -3 -108 -4q8 23 8 43q0 48 -72 48q-27 0 -60 -6q-22 -95 -34 -167q40 37 99 37z" />
    <glyph glyph-name="Ecaron" unicode="&#x11a;" horiz-adv-x="671" 
d="M415 299l94 -6q14 0 21 1l-47 -88h-9q-19 0 -54 10.5t-50 10.5q-41 0 -65 -53q-4 -49 -6 -98q52 -10 82 -10h9q43 0 68.5 19t36.5 68l120 -5q-15 -86 -40 -148h-491q-20 135 -20 268t14 232h536q-18 -108 -32 -152q-59 -3 -108 -4q8 23 8 43q0 48 -72 48q-27 0 -60 -6
q-22 -95 -34 -167q40 37 99 37zM311 554l-90 115h32l82 -62l83 62h32l-90 -115h-49z" />
    <glyph glyph-name="ecaron" unicode="&#x11b;" horiz-adv-x="671" 
d="M415 299l94 -6q14 0 21 1l-47 -88h-9q-19 0 -54 10.5t-50 10.5q-41 0 -65 -53q-4 -49 -6 -98q52 -10 82 -10h9q43 0 68.5 19t36.5 68l120 -5q-15 -86 -40 -148h-491q-20 135 -20 268t14 232h536q-18 -108 -32 -152q-59 -3 -108 -4q8 23 8 43q0 48 -72 48q-27 0 -60 -6
q-22 -95 -34 -167q40 37 99 37zM311 554l-90 115h32l82 -62l83 62h32l-90 -115h-49z" />
    <glyph glyph-name="Gcircumflex" unicode="&#x11c;" horiz-adv-x="675" 
d="M388 523q92 0 205 -25q-17 -68 -39 -120q-60 -4 -131 -6q11 34 16 67q-31 6 -65 6t-80 -11q-16 -68 -16 -123q0 -83 37.5 -155.5t100.5 -106.5q0 7 0.5 21.5t0.5 53t-12 136.5h216q0 -142 -14 -260q-155 -22 -321 -22h-64q-91 39 -142 114.5t-51 160.5q0 113 91.5 191.5
t267.5 78.5zM223 558l90 115h49l90 -115h-32l-83 62l-82 -62h-32z" />
    <glyph glyph-name="gcircumflex" unicode="&#x11d;" horiz-adv-x="675" 
d="M388 523q92 0 205 -25q-17 -68 -39 -120q-60 -4 -131 -6q11 34 16 67q-31 6 -65 6t-80 -11q-16 -68 -16 -123q0 -83 37.5 -155.5t100.5 -106.5q0 7 0.5 21.5t0.5 53t-12 136.5h216q0 -142 -14 -260q-155 -22 -321 -22h-64q-91 39 -142 114.5t-51 160.5q0 113 91.5 191.5
t267.5 78.5zM223 558l90 115h49l90 -115h-32l-83 62l-82 -62h-32z" />
    <glyph glyph-name="Gbreve" unicode="&#x11e;" horiz-adv-x="675" 
d="M416 49l1 42q0 71 -12 169h216q0 -142 -14 -260q-155 -22 -321 -22h-64q-91 39 -142 114.5t-51 160.5q0 113 91.5 191.5t267.5 78.5q92 0 205 -25q-17 -68 -39 -120q-61 -4 -131 -6q11 34 16 67q-32 6 -65.5 6t-79.5 -11q-16 -68 -16 -123q0 -83 37.5 -155.5
t100.5 -106.5zM296 615q34 -22 82 -22t85 33q2 0 -9 -19.5t-37 -40.5q-33 -28 -87.5 -28t-104.5 31l-14 8q5 30 18.5 66.5t14.5 36.5z" />
    <glyph glyph-name="gbreve" unicode="&#x11f;" horiz-adv-x="675" 
d="M416 49l1 42q0 71 -12 169h216q0 -142 -14 -260q-155 -22 -321 -22h-64q-91 39 -142 114.5t-51 160.5q0 113 91.5 191.5t267.5 78.5q92 0 205 -25q-17 -68 -39 -120q-61 -4 -131 -6q11 34 16 67q-32 6 -65.5 6t-79.5 -11q-16 -68 -16 -123q0 -83 37.5 -155.5
t100.5 -106.5zM296 615q34 -22 82 -22t85 33q2 0 -9 -19.5t-37 -40.5q-33 -28 -87.5 -28t-104.5 31l-14 8q5 30 18.5 66.5t14.5 36.5z" />
    <glyph glyph-name="Gdotaccent" unicode="&#x120;" horiz-adv-x="675" 
d="M416 49l1 42q0 71 -12 169h216q0 -142 -14 -260q-155 -22 -321 -22h-64q-91 39 -142 114.5t-51 160.5q0 113 91.5 191.5t267.5 78.5q92 0 205 -25q-17 -68 -39 -120q-61 -4 -131 -6q11 34 16 67q-32 6 -65.5 6t-79.5 -11q-16 -68 -16 -123q0 -83 37.5 -155.5
t100.5 -106.5zM369 576l-40 -1q-20 0 -58 2q25 59 30 101q53 -5 102 -6q-12 -54 -34 -96z" />
    <glyph glyph-name="gdotaccent" unicode="&#x121;" horiz-adv-x="675" 
d="M416 49l1 42q0 71 -12 169h216q0 -142 -14 -260q-155 -22 -321 -22h-64q-91 39 -142 114.5t-51 160.5q0 113 91.5 191.5t267.5 78.5q92 0 205 -25q-17 -68 -39 -120q-61 -4 -131 -6q11 34 16 67q-32 6 -65.5 6t-79.5 -11q-16 -68 -16 -123q0 -83 37.5 -155.5
t100.5 -106.5zM369 576l-40 -1q-20 0 -58 2q25 59 30 101q53 -5 102 -6q-12 -54 -34 -96z" />
    <glyph glyph-name="uni0122" unicode="&#x122;" horiz-adv-x="666" 
d="M129 3q-89 114 -89 233.5t100 203t256 83.5q86 0 164 -24q73 -92 73 -197q0 -143 -125 -243q11 2 40 10t47.5 8t39.5 -7l72 -93q-20 24 -58.5 24t-102.5 -11t-87 -12q-20 9 -40 30q-73 -30 -145 -30t-145 25zM281 435q-36 -62 -36 -141.5t36 -148t98 -98.5q47 60 47 139
t-38.5 147t-106.5 102zM341 -151q-63 0 -96 6q20 45 22 102q62 -11 168 -11q-18 -99 -70 -179q-25 3 -47 9q23 39 23 73z" />
    <glyph glyph-name="uni0123" unicode="&#x123;" horiz-adv-x="666" 
d="M129 3q-89 114 -89 233.5t100 203t256 83.5q86 0 164 -24q73 -92 73 -197q0 -143 -125 -243q11 2 40 10t47.5 8t39.5 -7l72 -93q-20 24 -58.5 24t-102.5 -11t-87 -12q-20 9 -40 30q-73 -30 -145 -30t-145 25zM281 435q-36 -62 -36 -141.5t36 -148t98 -98.5q47 60 47 139
t-38.5 147t-106.5 102zM341 -151q-63 0 -96 6q20 45 22 102q62 -11 168 -11q-18 -99 -70 -179q-25 3 -47 9q23 39 23 73z" />
    <glyph glyph-name="Hcircumflex" unicode="&#x124;" horiz-adv-x="740" 
d="M63 500h264q2 -41 2 -122q58 -18 115 -49q0 93 -7 171h260q2 -56 2 -83q0 -196 -38 -417h-239q16 118 21 254q-52 32 -116 39q-6 -147 -32 -293h-227q13 98 13 234.5t-18 265.5zM255 558l90 115h49l90 -115h-32l-83 62l-82 -62h-32z" />
    <glyph glyph-name="hcircumflex" unicode="&#x125;" horiz-adv-x="740" 
d="M63 500h264q2 -41 2 -122q58 -18 115 -49q0 93 -7 171h260q2 -56 2 -83q0 -196 -38 -417h-239q16 118 21 254q-52 32 -116 39q-6 -147 -32 -293h-227q13 98 13 234.5t-18 265.5zM255 558l90 115h49l90 -115h-32l-83 62l-82 -62h-32z" />
    <glyph glyph-name="Itilde" unicode="&#x128;" horiz-adv-x="396" 
d="M341 500v-27q0 -264 -33 -473h-240q19 92 19 212.5t-16 287.5h270zM283.5 586.5q-20.5 -11.5 -50 -11.5t-63.5 20.5t-50 20.5q-37 0 -66 -33l13 40q12 14 30.5 25.5t40 11.5t52 -11t52.5 -11q54 0 99 47q-4 -8 -14 -37t-16.5 -39.5t-27 -22z" />
    <glyph glyph-name="itilde" unicode="&#x129;" horiz-adv-x="396" 
d="M341 500v-27q0 -264 -33 -473h-240q19 92 19 212.5t-16 287.5h270zM283.5 586.5q-20.5 -11.5 -50 -11.5t-63.5 20.5t-50 20.5q-37 0 -66 -33l13 40q12 14 30.5 25.5t40 11.5t52 -11t52.5 -11q54 0 99 47q-4 -8 -14 -37t-16.5 -39.5t-27 -22z" />
    <glyph glyph-name="Imacron" unicode="&#x12a;" horiz-adv-x="396" 
d="M7 655q110 -5 194 -5t204 5v-74q-126 7 -202.5 7t-195.5 -7v74zM341 500v-27q0 -264 -33 -473h-240q19 92 19 212.5t-16 287.5h270z" />
    <glyph glyph-name="imacron" unicode="&#x12b;" horiz-adv-x="396" 
d="M7 655q110 -5 194 -5t204 5v-74q-126 7 -202.5 7t-195.5 -7v74zM341 500v-27q0 -264 -33 -473h-240q19 92 19 212.5t-16 287.5h270z" />
    <glyph glyph-name="Iogonek" unicode="&#x12e;" horiz-adv-x="396" 
d="M179 -96q0 -40 36 -40q18 0 37 18q2 -10 5 -21q-26 -35 -63.5 -35t-58.5 21t-21 47q0 59 69 106h-115q19 92 19 212.5t-16 287.5h270v-27q0 -264 -33 -473h-77q-52 -42 -52 -96z" />
    <glyph glyph-name="iogonek" unicode="&#x12f;" horiz-adv-x="396" 
d="M179 -96q0 -40 36 -40q18 0 37 18q2 -10 5 -21q-26 -35 -63.5 -35t-58.5 21t-21 47q0 59 69 106h-115q19 92 19 212.5t-16 287.5h270v-27q0 -264 -33 -473h-77q-52 -42 -52 -96z" />
    <glyph glyph-name="Idotaccent" unicode="&#x130;" horiz-adv-x="396" 
d="M332 398q0 -209 -34 -398h-227q14 107 14 235.5t-19 264.5h264q2 -68 2 -102zM165 678q53 -5 104 -6q-12 -53 -35 -97q-67 0 -100 1q25 60 31 102z" />
    <glyph glyph-name="dotlessi" unicode="&#x131;" horiz-adv-x="396" 
d="M341 500v-27q0 -263 -33 -473h-240q19 86 19 208.5t-16 291.5h270z" />
    <glyph glyph-name="Jcircumflex" unicode="&#x134;" horiz-adv-x="531" 
d="M192 -45q7 78 7 215.5t-23 329.5h270q2 -38 2 -117q0 -212 -28 -383q-39 -37 -72 -54.5t-45 -24t-43 -20t-37 -16.5q-128 10 -218 45q2 66 6 122q93 -67 181 -97zM201 558l90 115h49l90 -115h-32l-83 62l-82 -62h-32z" />
    <glyph glyph-name="jcircumflex" unicode="&#x135;" horiz-adv-x="531" 
d="M192 -45q7 78 7 215.5t-23 329.5h270q2 -38 2 -117q0 -212 -28 -383q-39 -37 -72 -54.5t-45 -24t-43 -20t-37 -16.5q-128 10 -218 45q2 66 6 122q93 -67 181 -97zM201 558l90 115h49l90 -115h-32l-83 62l-82 -62h-32z" />
    <glyph glyph-name="uni0136" unicode="&#x136;" horiz-adv-x="707" 
d="M570 507h33q64 0 95 15q-44 -65 -85 -113h-16q-51 0 -99 16q-68 -56 -109 -149q106 -27 236 -32q30 -76 41 -244h-259q-17 74 -51.5 136.5t-71.5 85.5q-7 -82 -7 -132t3 -90h-220q-19 147 -19 248.5t15 251.5h278q-30 -124 -41 -208q45 74 94.5 124.5t117.5 85.5
q26 5 65 5zM272 -33h165q-21 -111 -69 -182q-30 4 -46 8q21 39 23 72q-62 0 -95 6q20 45 22 96z" />
    <glyph glyph-name="uni0137" unicode="&#x137;" horiz-adv-x="707" 
d="M570 507h33q66 0 95 15q-48 -72 -85 -113h-16q-52 0 -99 16q-69 -58 -109 -149q106 -27 236 -32q30 -69 41 -244h-259q-16 73 -50.5 135.5t-72.5 86.5q-7 -82 -7 -132t3 -90h-220q-19 147 -19 248.5t15 251.5h278q-31 -130 -41 -208q92 150 212 210q26 5 65 5zM272 -33
h165q-20 -111 -69 -182q-4 1 -20.5 3.5t-25.5 4.5q21 41 23 72q-61 0 -95 6q20 45 22 96z" />
    <glyph glyph-name="kgreenlandic" unicode="&#x138;" horiz-adv-x="707" 
d="M570 507h33q64 0 95 15q-44 -65 -85 -113h-16q-51 0 -99 16q-68 -56 -109 -149q106 -27 236 -32q30 -76 41 -244h-259q-17 74 -51.5 136.5t-71.5 85.5q-7 -82 -7 -132t3 -90h-220q-19 147 -19 248.5t15 251.5h278q-30 -124 -41 -208q45 74 94.5 124.5t117.5 85.5
q26 5 65 5z" />
    <glyph glyph-name="Lacute" unicode="&#x139;" horiz-adv-x="602" 
d="M364 66q43 0 68.5 19.5t37.5 67.5l120 -4q-15 -90 -40 -149h-491q-19 128 -19 265t14 235h288q-66 -253 -68 -423q47 -11 90 -11zM248 680l111 -14q-14 -27 -39.5 -50t-48.5 -36t-60 -30h-66q72 47 103 130z" />
    <glyph glyph-name="lacute" unicode="&#x13a;" horiz-adv-x="602" 
d="M364 66q43 0 68.5 19.5t37.5 67.5l120 -4q-15 -90 -40 -149h-491q-19 128 -19 265t14 235h288q-66 -253 -68 -423q47 -11 90 -11zM248 680l111 -14q-14 -27 -39.5 -50t-48.5 -36t-60 -30h-66q72 47 103 130z" />
    <glyph glyph-name="uni013B" unicode="&#x13b;" horiz-adv-x="602" 
d="M364 66q43 0 68.5 19.5t37.5 67.5l120 -4q-15 -90 -40 -149h-491q-19 128 -19 265t14 235h288q-66 -253 -68 -423q47 -11 90 -11zM233 -33h165q-21 -111 -69 -182q-30 4 -46 8q21 39 23 72q-62 0 -95 6q20 45 22 96z" />
    <glyph glyph-name="uni013C" unicode="&#x13c;" horiz-adv-x="602" 
d="M364 66q43 0 68.5 19.5t37.5 67.5l120 -4q-15 -90 -40 -149h-491q-19 128 -19 265t14 235h288q-66 -253 -68 -423q47 -11 90 -11zM233 -33h165q-21 -111 -69 -182q-30 4 -46 8q21 39 23 72q-62 0 -95 6q20 45 22 96z" />
    <glyph glyph-name="Lcaron" unicode="&#x13d;" horiz-adv-x="602" 
d="M186 554l-90 115h32l82 -62l83 62h32l-90 -115h-49zM364 66q43 0 68.5 19.5t37.5 67.5l120 -4q-15 -90 -40 -149h-491q-19 128 -19 265t14 235h288q-66 -253 -68 -423q47 -11 90 -11z" />
    <glyph glyph-name="lcaron" unicode="&#x13e;" horiz-adv-x="615" 
d="M364 66q43 0 68.5 19.5t37.5 67.5l120 -4q-15 -90 -40 -149h-491q-19 128 -19 265t14 235h288q-66 -253 -68 -423q47 -11 90 -11zM401 687q62 -11 165 -11q-19 -101 -69 -175q-30 4 -46 8q21 39 23 72q-62 0 -95 6q20 45 22 100z" />
    <glyph glyph-name="Lslash" unicode="&#x141;" horiz-adv-x="617" 
d="M12 116l-1 32q0 12 2 40q0 4 42 20q-1 22 -1 106.5t14 185.5h289q-22 -83 -38 -165q70 39 109 71q-14 -54 -36 -99q-33 -14 -85 -38q-17 -108 -18 -193q53 -11 93 -11t65.5 20t36.5 68l121 -5q-15 -88 -40 -148h-491q-10 63 -15 143z" />
    <glyph glyph-name="lslash" unicode="&#x142;" horiz-adv-x="617" 
d="M12 116l-1 32q0 12 2 40q0 4 42 20q-1 22 -1 106.5t14 185.5h289q-22 -83 -38 -165q70 39 109 71q-14 -54 -36 -99q-33 -14 -85 -38q-17 -108 -18 -193q53 -11 93 -11t65.5 20t36.5 68l121 -5q-15 -88 -40 -148h-491q-10 63 -15 143z" />
    <glyph glyph-name="Nacute" unicode="&#x143;" horiz-adv-x="715" 
d="M646 500q6 -105 6 -221.5t-10 -278.5h-96q-194 104 -356 283q8 -67 8 -137.5t-5 -145.5h-117q20 123 20 227.5t-10 165.5q-40 60 -63 107h284q42 -72 114.5 -148.5t138.5 -119.5q0 146 -33 268h119zM353 680l111 -14q-14 -27 -39.5 -50t-48.5 -36t-60 -30h-66
q72 47 103 130z" />
    <glyph glyph-name="nacute" unicode="&#x144;" horiz-adv-x="715" 
d="M646 500q6 -105 6 -221.5t-10 -278.5h-96q-194 104 -356 283q8 -67 8 -137.5t-5 -145.5h-117q20 123 20 227.5t-10 165.5q-40 60 -63 107h284q42 -72 114.5 -148.5t138.5 -119.5q0 146 -33 268h119zM353 680l111 -14q-14 -27 -39.5 -50t-48.5 -36t-60 -30h-66
q72 47 103 130z" />
    <glyph glyph-name="uni0145" unicode="&#x145;" horiz-adv-x="715" 
d="M646 500q6 -105 6 -233t-10 -267h-96q-188 99 -356 283q8 -69 8 -138.5t-5 -144.5h-117q20 123 20 227.5t-10 165.5q-44 68 -63 107h284q41 -72 114.5 -149t138.5 -119q0 146 -33 268h119zM281 -33h165q-20 -111 -69 -182q-4 1 -20.5 3.5t-25.5 4.5q21 41 23 72
q-60 0 -95 6q20 45 22 96z" />
    <glyph glyph-name="uni0146" unicode="&#x146;" horiz-adv-x="715" 
d="M646 500q6 -105 6 -221.5t-10 -278.5h-96q-194 104 -356 283q8 -67 8 -137.5t-5 -145.5h-117q20 123 20 227.5t-10 165.5q-40 60 -63 107h284q42 -72 114.5 -148.5t138.5 -119.5q0 146 -33 268h119zM281 -33h165q-21 -111 -69 -182q-30 4 -46 8q21 39 23 72q-62 0 -95 6
q20 45 22 96z" />
    <glyph glyph-name="Ncaron" unicode="&#x147;" horiz-adv-x="715" 
d="M646 500q6 -105 6 -221.5t-10 -278.5h-96q-194 104 -356 283q8 -67 8 -137.5t-5 -145.5h-117q20 123 20 227.5t-10 165.5q-40 60 -63 107h284q42 -72 114.5 -148.5t138.5 -119.5q0 146 -33 268h119zM333 554l-90 115h32l82 -62l83 62h32l-90 -115h-49z" />
    <glyph glyph-name="ncaron" unicode="&#x148;" horiz-adv-x="715" 
d="M646 500q6 -105 6 -221.5t-10 -278.5h-96q-194 104 -356 283q8 -67 8 -137.5t-5 -145.5h-117q20 123 20 227.5t-10 165.5q-40 60 -63 107h284q42 -72 114.5 -148.5t138.5 -119.5q0 146 -33 268h119zM333 554l-90 115h32l82 -62l83 62h32l-90 -115h-49z" />
    <glyph glyph-name="Omacron" unicode="&#x14c;" horiz-adv-x="658" 
d="M54 655q157 -5 275 -5t288 5v-75q-178 7 -286.5 7t-276.5 -7v75zM123 3q-89 114 -89 234t100 203t256 83q83 0 165 -25q72 -91 72 -195q0 -131 -107 -228t-259 -97q-65 0 -138 25zM275 436q-35 -60 -35 -141t35.5 -149.5t97.5 -98.5q47 60 47 139t-38.5 147t-106.5 103z
" />
    <glyph glyph-name="omacron" unicode="&#x14d;" horiz-adv-x="658" 
d="M54 655q158 -5 276.5 -5t286.5 5v-75q-238 7 -316.5 7t-246.5 -7v75zM123 3q-89 115 -89 234.5t99.5 202.5t256.5 83q83 0 165 -25q72 -90 72 -195q0 -131 -107 -228t-259 -97q-66 0 -138 25zM275 436q-35 -60 -35 -141.5t35.5 -150t97.5 -97.5q47 60 47 139t-38.5 147
t-106.5 103z" />
    <glyph glyph-name="Ohungarumlaut" unicode="&#x150;" horiz-adv-x="658" 
d="M123 3q-89 114 -89 234t100 203t256 83q83 0 165 -25q72 -91 72 -195q0 -131 -107 -228t-259 -97q-65 0 -138 25zM275 436q-35 -60 -35 -141t35.5 -149.5t97.5 -98.5q47 60 47 139t-38.5 147t-106.5 103zM244 680l111 -14q-14 -27 -39.5 -50t-48.5 -36t-60 -30h-66
q72 47 103 130zM405 680l111 -14q-14 -27 -39.5 -50t-48.5 -36t-60 -30h-66q72 47 103 130z" />
    <glyph glyph-name="ohungarumlaut" unicode="&#x151;" horiz-adv-x="658" 
d="M123 3q-89 114 -89 234t100 203t256 83q83 0 165 -25q72 -91 72 -195q0 -131 -107 -228t-259 -97q-65 0 -138 25zM275 436q-35 -60 -35 -141t35.5 -149.5t97.5 -98.5q47 60 47 139t-38.5 147t-106.5 103zM244 680l111 -14q-14 -27 -39.5 -50t-48.5 -36t-60 -30h-66
q72 47 103 130zM405 680l111 -14q-14 -27 -39.5 -50t-48.5 -36t-60 -30h-66q72 47 103 130z" />
    <glyph glyph-name="OE" unicode="&#x152;" horiz-adv-x="952" 
d="M695 299l94 -6q14 0 21 1l-47 -88h-9q-19 0 -54 10.5t-50 10.5q-41 0 -65 -53q-4 -49 -6 -98q52 -10 82 -10h9q43 0 68.5 19t36.5 68l120 -5q-15 -86 -40 -148h-416q-100 -22 -175.5 -22t-146.5 23q-87 113 -87 232.5t97 204.5t248 85q38 0 82 -10.5t53 -12.5h384
q-17 -105 -32 -152q-59 -3 -108 -4q9 25 9 48q0 43 -73 43q-32 0 -60 -5q-22 -93 -34 -168q40 37 99 37zM266 431q-35 -61 -35 -139.5t35 -145t95 -95.5q52 67 52 149.5t-37.5 143t-109.5 87.5z" />
    <glyph glyph-name="oe" unicode="&#x153;" horiz-adv-x="952" 
d="M695 299l94 -6q14 0 21 1l-47 -88h-9q-19 0 -54 10.5t-50 10.5q-41 0 -65 -53q-4 -49 -6 -98q52 -10 82 -10h9q43 0 68.5 19t36.5 68l120 -5q-15 -86 -40 -148h-416q-100 -22 -175.5 -22t-146.5 23q-87 113 -87 232.5t97 204.5t248 85q38 0 82 -10.5t53 -12.5h384
q-17 -105 -32 -152q-59 -3 -108 -4q9 25 9 48q0 43 -73 43q-32 0 -60 -5q-22 -93 -34 -168q40 37 99 37zM266 431q-35 -61 -35 -139.5t35 -145t95 -95.5q52 67 52 149.5t-37.5 143t-109.5 87.5z" />
    <glyph glyph-name="Racute" unicode="&#x154;" horiz-adv-x="706" 
d="M622 326l-1 -34q-80 -43 -200 -67q86 -23 166 -23h21q55 -81 71 -202h-259q-10 70 -40.5 120.5t-74.5 68.5q-1 -17 -1 -68t6 -121h-218q-29 145 -29 269.5t14 230.5h522q23 -101 23 -174zM326 433q-12 -88 -18 -173q55 8 90 39q-19 67 -72 134zM349 680l111 -14
q-14 -27 -39.5 -50t-48.5 -36t-60 -30h-66q72 47 103 130z" />
    <glyph glyph-name="racute" unicode="&#x155;" horiz-adv-x="706" 
d="M622 326l-1 -34q-80 -43 -200 -67q86 -23 166 -23h21q55 -81 71 -202h-259q-10 70 -40.5 120.5t-74.5 68.5q-1 -17 -1 -68t6 -121h-218q-29 145 -29 269.5t14 230.5h522q23 -101 23 -174zM326 433q-12 -88 -18 -173q55 8 90 39q-19 67 -72 134zM349 680l111 -14
q-14 -27 -39.5 -50t-48.5 -36t-60 -30h-66q72 47 103 130z" />
    <glyph glyph-name="uni0156" unicode="&#x156;" horiz-adv-x="706" 
d="M622 326l-1 -34q-80 -43 -200 -67q86 -23 166 -23h21q55 -81 71 -202h-259q-10 70 -40.5 120.5t-74.5 68.5q-1 -17 -1 -68t6 -121h-218q-29 145 -29 269.5t14 230.5h522q23 -101 23 -174zM326 433q-12 -88 -18 -173q55 8 90 39q-19 67 -72 134zM281 -33h165
q-21 -111 -69 -182q-30 4 -46 8q21 39 23 72q-62 0 -95 6q20 45 22 96z" />
    <glyph glyph-name="uni0157" unicode="&#x157;" horiz-adv-x="706" 
d="M622 326l-1 -34q-80 -43 -200 -67q86 -23 166 -23h21q55 -81 71 -202h-259q-10 70 -40.5 120.5t-74.5 68.5q-1 -17 -1 -68t6 -121h-218q-29 145 -29 269.5t14 230.5h522q23 -101 23 -174zM326 433q-12 -88 -18 -173q55 8 90 39q-19 67 -72 134zM281 -33h165
q-21 -111 -69 -182q-30 4 -46 8q21 39 23 72q-62 0 -95 6q20 45 22 96z" />
    <glyph glyph-name="Rcaron" unicode="&#x158;" horiz-adv-x="706" 
d="M622 326l-1 -34q-77 -43 -200 -67q86 -23 166 -23h21q55 -80 71 -202h-259q-10 70 -40.5 120.5t-74.5 68.5q-1 -17 -1 -68t6 -121h-218q-29 148 -29 271t14 229h522q23 -102 23 -174zM326 433q-12 -90 -18 -173q54 8 90 39q-18 66 -72 134zM328 554l-90 115h32l82 -62
l83 62h32l-90 -115h-49z" />
    <glyph glyph-name="rcaron" unicode="&#x159;" horiz-adv-x="706" 
d="M622 326l-1 -34q-77 -43 -200 -67q86 -23 166 -23h21q55 -80 71 -202h-259q-10 70 -40.5 120.5t-74.5 68.5q-1 -17 -1 -68t6 -121h-218q-29 148 -29 271t14 229h522q23 -102 23 -174zM326 433q-12 -90 -18 -173q54 8 90 39q-18 66 -72 134zM328 554l-90 115h32l82 -62
l83 62h32l-90 -115h-49z" />
    <glyph glyph-name="Sacute" unicode="&#x15a;" horiz-adv-x="635" 
d="M423 440q-40 6 -85.5 6t-88.5 -6q27 -46 64 -75t93.5 -57.5t92 -52.5t78.5 -79t54 -115q-48 -62 -127 -109.5t-162 -63.5q-56 5 -141.5 31.5t-128.5 26.5t-86 -27q18 51 59 128h8q64 0 120.5 -20t103 -40t75 -20t41.5 4q0 66 -41 109q-22 23 -37.5 35.5t-47.5 34.5
l-17 12q-68 47 -112 95.5t-64 119.5q32 71 63 123q95 23 197 23h44q86 0 197 -24q-16 -66 -39 -119q-84 -6 -130 -6q9 23 17 66zM313 680l111 -14q-14 -27 -39.5 -50t-48.5 -36t-60 -30h-66q72 47 103 130z" />
    <glyph glyph-name="sacute" unicode="&#x15b;" horiz-adv-x="635" 
d="M423 440q-40 6 -85.5 6t-88.5 -6q27 -46 64 -75t93.5 -57.5t92 -52.5t78.5 -79t54 -115q-48 -62 -127 -109.5t-162 -63.5q-56 5 -141.5 31.5t-128.5 26.5t-86 -27q18 51 59 128h8q64 0 120.5 -20t103 -40t75 -20t41.5 4q0 66 -41 109q-22 23 -37.5 35.5t-47.5 34.5
l-17 12q-68 47 -112 95.5t-64 119.5q32 71 63 123q95 23 197 23h44q86 0 197 -24q-16 -66 -39 -119q-84 -6 -130 -6q9 23 17 66zM313 680l111 -14q-14 -27 -39.5 -50t-48.5 -36t-60 -30h-66q72 47 103 130z" />
    <glyph glyph-name="Scircumflex" unicode="&#x15c;" horiz-adv-x="635" 
d="M378 523q86 0 197 -24q-16 -66 -39 -119q-84 -6 -130 -6q9 23 17 66q-41 6 -85.5 6t-88.5 -6q27 -46 64 -75t94 -58t91.5 -52t78 -78.5t54.5 -115.5q-48 -62 -127 -109.5t-162 -63.5q-56 5 -141.5 31.5t-128.5 26.5t-86 -27q18 51 59 128h8q64 0 120.5 -20t103 -40
t75 -20t41.5 4q0 66 -41 109q-22 23 -37.5 35.5t-47.5 34.5l-17 12q-68 47 -112 95.5t-64 119.5q32 71 63 123q95 23 197 23h44zM203 558l90 115h49l90 -115h-32l-83 62l-82 -62h-32z" />
    <glyph glyph-name="scircumflex" unicode="&#x15d;" horiz-adv-x="635" 
d="M378 523q86 0 197 -24q-16 -66 -39 -119q-84 -6 -130 -6q9 23 17 66q-41 6 -85.5 6t-88.5 -6q27 -46 64 -75t94 -58t91.5 -52t78 -78.5t54.5 -115.5q-48 -62 -127 -109.5t-162 -63.5q-56 5 -141.5 31.5t-128.5 26.5t-86 -27q18 51 59 128h8q64 0 120.5 -20t103 -40
t75 -20t41.5 4q0 66 -41 109q-22 23 -37.5 35.5t-47.5 34.5l-17 12q-68 47 -112 95.5t-64 119.5q32 71 63 123q95 23 197 23h44zM203 558l90 115h49l90 -115h-32l-83 62l-82 -62h-32z" />
    <glyph glyph-name="Scedilla" unicode="&#x15e;" horiz-adv-x="577" 
d="M286 -58l43 7q17 0 31.5 -9.5t16.5 -24.5v-5q0 -39 -35.5 -71.5t-90.5 -33.5l-6 21q30 0 46.5 14.5t16.5 32.5q0 26 -32 26q-6 0 -46 -15l32 93q-153 0 -243 24q14 89 29 131l110 5q-9 -27 -9 -45q0 -48 71.5 -48t128.5 11q-32 40 -157 135q-40 31 -80 83.5t-57 113.5
q28 64 57 112q91 24 203 24t219 -24q-15 -84 -26 -119l-110 -5q8 26 8 45.5t-18.5 27.5t-71.5 8t-96 -11q28 -47 73 -80t86.5 -50t92 -51t86.5 -81q-18 -97 -63 -182q-69 -21 -197 -24z" />
    <glyph glyph-name="scedilla" unicode="&#x15f;" horiz-adv-x="577" 
d="M286 -58l43 7q17 0 31.5 -9.5t16.5 -24.5v-5q0 -39 -35.5 -71.5t-90.5 -33.5l-6 21q30 0 46.5 14.5t16.5 32.5q0 26 -32 26q-6 0 -46 -15l32 93q-153 0 -243 24q14 89 29 131l110 5q-9 -27 -9 -45q0 -48 71.5 -48t128.5 11q-32 40 -157 135q-40 31 -80 83.5t-57 113.5
q28 64 57 112q91 24 203 24t219 -24q-15 -84 -26 -119l-110 -5q8 26 8 45.5t-18.5 27.5t-71.5 8t-96 -11q28 -47 73 -80t86.5 -50t92 -51t86.5 -81q-18 -97 -63 -182q-69 -21 -197 -24z" />
    <glyph glyph-name="Scaron" unicode="&#x160;" horiz-adv-x="635" 
d="M423 440q-40 6 -85.5 6t-88.5 -6q27 -46 64 -75t93.5 -57.5t92 -52.5t78.5 -79t54 -115q-48 -62 -127 -109.5t-162 -63.5q-56 5 -141.5 31.5t-128.5 26.5t-86 -27q18 51 59 128h8q64 0 120.5 -20t103 -40t75 -20t41.5 4q0 66 -41 109q-22 23 -37.5 35.5t-47.5 34.5
l-17 12q-68 47 -112 95.5t-64 119.5q32 71 63 123q95 23 197 23h44q86 0 197 -24q-16 -66 -39 -119q-84 -6 -130 -6q9 23 17 66zM293 554l-90 115h32l82 -62l83 62h32l-90 -115h-49z" />
    <glyph glyph-name="scaron" unicode="&#x161;" horiz-adv-x="635" 
d="M423 440q-40 6 -85.5 6t-88.5 -6q27 -46 64 -75t93.5 -57.5t92 -52.5t78.5 -79t54 -115q-48 -62 -127 -109.5t-162 -63.5q-56 5 -141.5 31.5t-128.5 26.5t-86 -27q18 51 59 128h8q64 0 120.5 -20t103 -40t75 -20t41.5 4q0 66 -41 109q-22 23 -37.5 35.5t-47.5 34.5
l-17 12q-68 47 -112 95.5t-64 119.5q32 71 63 123q95 23 197 23h44q86 0 197 -24q-16 -66 -39 -119q-84 -6 -130 -6q9 23 17 66zM293 554l-90 115h32l82 -62l83 62h32l-90 -115h-49z" />
    <glyph glyph-name="uni0162" unicode="&#x162;" horiz-adv-x="705" 
d="M472 435q-26 -158 -26 -258t8 -177h-218q-34 159 -34 342q0 31 2 93q-85 -25 -104 -115l-99 6l36 174h665q-20 -110 -46 -180l-101 6q4 16 4 32q0 39 -24 58t-63 19zM472 435q39 0 63 -19t24 -58q0 -16 -4 -32l101 -6q26 70 46 180h-665l-36 -174l99 -6q19 90 104 115
q-2 -62 -2 -93q0 -183 34 -342h218q-8 77 -8 177t26 258zM272 -33h165q-21 -111 -69 -182q-30 4 -46 8q21 39 23 72q-62 0 -95 6q20 45 22 96z" />
    <glyph glyph-name="uni0163" unicode="&#x163;" horiz-adv-x="705" 
d="M472 435q-26 -158 -26 -258t8 -177h-218q-34 159 -34 342q0 31 2 93q-85 -25 -104 -115l-99 6l36 174h665q-20 -110 -46 -180l-101 6q4 16 4 32q0 39 -24 58t-63 19zM472 435q39 0 63 -19t24 -58q0 -16 -4 -32l101 -6q26 70 46 180h-665l-36 -174l99 -6q19 90 104 115
q-2 -62 -2 -93q0 -183 34 -342h218q-8 77 -8 177t26 258zM272 -33h165q-21 -111 -69 -182q-30 4 -46 8q21 39 23 72q-62 0 -95 6q20 45 22 96z" />
    <glyph glyph-name="Tcaron" unicode="&#x164;" horiz-adv-x="705" 
d="M472 435q-26 -158 -26 -258t8 -177h-218q-34 159 -34 342q0 31 2 93q-85 -25 -104 -115l-99 6l36 174h665q-20 -110 -46 -180l-101 6q4 16 4 32q0 39 -24 58t-63 19zM328 555l-90 115h32l82 -62l83 62h32l-90 -115h-49z" />
    <glyph glyph-name="tcaron" unicode="&#x165;" horiz-adv-x="886" 
d="M472 435q-26 -158 -26 -258t8 -177h-218q-34 159 -34 342q0 31 2 93q-85 -25 -104 -115l-99 6l36 174h665q-20 -110 -46 -180l-101 6q4 16 4 32q0 39 -24 58t-63 19zM709 687q62 -11 165 -11q-19 -101 -69 -175q-30 4 -46 8q21 39 23 72q-62 0 -95 6q20 45 22 100z" />
    <glyph glyph-name="Utilde" unicode="&#x168;" 
d="M658 500q4 -65 4 -189.5t-16 -265.5q-104 -67 -249 -67q-193 0 -312 67q-13 108 -13 209.5t15 245.5h269q-40 -217 -42 -417q42 -38 121 -38t121 28q2 33 2 95q0 158 -28 332h128zM436.5 586.5q-20.5 -11.5 -50 -11.5t-63.5 20.5t-50 20.5q-37 0 -66 -33l13 40
q12 14 30.5 25.5t40 11.5t52 -11t52.5 -11q54 0 99 47q-4 -8 -14 -37t-16.5 -39.5t-27 -22z" />
    <glyph glyph-name="utilde" unicode="&#x169;" 
d="M658 500q4 -65 4 -189.5t-16 -265.5q-104 -67 -249 -67q-193 0 -312 67q-13 108 -13 209.5t15 245.5h269q-40 -217 -42 -417q42 -38 121 -38t121 28q2 33 2 95q0 158 -28 332h128zM436.5 586.5q-20.5 -11.5 -50 -11.5t-63.5 20.5t-50 20.5q-37 0 -66 -33l13 40
q12 14 30.5 25.5t40 11.5t52 -11t52.5 -11q54 0 99 47q-4 -8 -14 -37t-16.5 -39.5t-27 -22z" />
    <glyph glyph-name="Umacron" unicode="&#x16a;" 
d="M90 655q157 -5 275 -5t288 5v-75q-178 7 -286.5 7t-276.5 -7v75zM658 500q4 -65 4 -189.5t-16 -265.5q-104 -67 -249 -67q-193 0 -312 67q-13 108 -13 209.5t15 245.5h269q-40 -217 -42 -417q42 -38 121 -38t121 28q2 33 2 95q0 158 -28 332h128z" />
    <glyph glyph-name="umacron" unicode="&#x16b;" 
d="M90 655q157 -5 275 -5t288 5v-75q-178 7 -286.5 7t-276.5 -7v75zM658 500q4 -65 4 -189.5t-16 -265.5q-104 -67 -249 -67q-193 0 -312 67q-13 108 -13 209.5t15 245.5h269q-40 -217 -42 -417q42 -38 121 -38t121 28q2 33 2 95q0 158 -28 332h128z" />
    <glyph glyph-name="Ubreve" unicode="&#x16c;" horiz-adv-x="675" 
d="M388 523q92 0 205 -25q-17 -68 -39 -120q-60 -4 -131 -6q11 34 16 67q-31 6 -65 6t-80 -11q-16 -68 -16 -123q0 -83 37.5 -155.5t100.5 -106.5q0 7 0.5 21.5t0.5 53t-12 136.5h216q0 -142 -14 -260q-155 -22 -321 -22h-64q-91 39 -142 114.5t-51 160.5q0 113 91.5 191.5
t267.5 78.5zM223 558l90 115h49l90 -115h-32l-83 62l-82 -62h-32z" />
    <glyph glyph-name="ubreve" unicode="&#x16d;" 
d="M658 500q4 -65 4 -189.5t-16 -265.5q-104 -67 -249 -67q-193 0 -312 67q-13 108 -13 209.5t15 245.5h269q-40 -217 -42 -417q42 -38 121 -38t121 28q2 33 2 95q0 158 -28 332h128zM352 615q34 -22 82 -22t85 33q2 0 -9 -19.5t-37 -40.5q-33 -28 -87.5 -28t-104.5 31
l-14 8q5 30 18.5 66.5t14.5 36.5z" />
    <glyph glyph-name="Uring" unicode="&#x16e;" 
d="M558 168q0 158 -28 332h128q4 -65 4 -189.5t-16 -265.5q-104 -67 -249 -67q-193 0 -312 67q-13 108 -13 209.5t15 245.5h269q-40 -217 -42 -417q42 -38 121 -38t121 28q2 33 2 95zM332 558q-29 22 -29 48.5t28.5 48t62.5 21.5t46.5 -15.5t12.5 -40t-27 -46t-63 -21.5
q-14 0 -31 5zM358 624q0 -42 31 -56q10 13 10 33q0 40 -33 55q-8 -16 -8 -32z" />
    <glyph glyph-name="uring" unicode="&#x16f;" 
d="M558 168q0 158 -28 332h128q4 -65 4 -189.5t-16 -265.5q-104 -67 -249 -67q-193 0 -312 67q-13 108 -13 209.5t15 245.5h269q-40 -217 -42 -417q42 -38 121 -38t121 28q2 33 2 95zM332 558q-29 22 -29 48.5t28.5 48t62.5 21.5t46.5 -15.5t12.5 -40t-27 -46t-63 -21.5
q-14 0 -31 5zM358 624q0 -42 31 -56q10 13 10 33q0 40 -33 55q-8 -16 -8 -32z" />
    <glyph glyph-name="Uhungarumlaut" unicode="&#x170;" 
d="M658 500q4 -65 4 -189.5t-16 -265.5q-104 -67 -249 -67q-193 0 -312 67q-13 108 -13 209.5t15 245.5h269q-40 -217 -42 -417q42 -38 121 -38t121 28q2 33 2 95q0 158 -28 332h128zM313 680l111 -14q-14 -27 -39.5 -50t-48.5 -36t-60 -30h-66q72 47 103 130zM474 680
l111 -14q-14 -27 -39.5 -50t-48.5 -36t-60 -30h-66q72 47 103 130z" />
    <glyph glyph-name="uhungarumlaut" unicode="&#x171;" 
d="M658 500q4 -65 4 -189.5t-16 -265.5q-104 -67 -249 -67q-193 0 -312 67q-13 108 -13 209.5t15 245.5h269q-40 -217 -42 -417q42 -38 121 -38t121 28q2 33 2 95q0 158 -28 332h128zM313 680l111 -14q-14 -27 -39.5 -50t-48.5 -36t-60 -30h-66q72 47 103 130zM474 680
l111 -14q-14 -27 -39.5 -50t-48.5 -36t-60 -30h-66q72 47 103 130z" />
    <glyph glyph-name="Uogonek" unicode="&#x172;" 
d="M422 -21q-30 -37 -30 -76t36 -39q17 0 37 18q1 -11 5 -21q-26 -35 -63.5 -35t-58.5 21t-21 47q0 46 42 84q-174 5 -284 67q-13 108 -13 209.5t15 245.5h269q-40 -217 -42 -417q42 -38 121 -38t121 28q2 33 2 95q0 158 -28 332h128q4 -65 4 -189.5t-16 -265.5
q-93 -60 -224 -66z" />
    <glyph glyph-name="uogonek" unicode="&#x173;" 
d="M422 -21q-30 -37 -30 -76t36 -39q17 0 37 18q1 -11 5 -21q-26 -35 -63.5 -35t-58.5 21t-21 47q0 46 42 84q-174 5 -284 67q-13 108 -13 209.5t15 245.5h269q-40 -217 -42 -417q42 -38 121 -38t121 28q2 33 2 95q0 158 -28 332h128q4 -65 4 -189.5t-16 -265.5
q-93 -60 -224 -66z" />
    <glyph glyph-name="Wcircumflex" unicode="&#x174;" horiz-adv-x="1040" 
d="M419 354q0 67 -17 146h238q16 -198 94 -357q51 94 51 203q0 78 -24 154h268q1 -15 1 -44q0 -128 -34 -212q-89 -26 -148 -69t-59 -88.5t41 -86.5h-252q-62 92 -105 213q-33 -75 -33 -126.5t29 -86.5h-251q-77 102 -131 236t-73 264h266q17 -215 88 -357q51 87 51 211z
M405 558l90 115h49l90 -115h-32l-83 62l-82 -62h-32z" />
    <glyph glyph-name="wcircumflex" unicode="&#x175;" horiz-adv-x="1040" 
d="M419 354q0 67 -17 146h238q16 -198 94 -357q51 94 51 203q0 78 -24 154h268q1 -15 1 -44q0 -128 -34 -212q-89 -26 -148 -69t-59 -88.5t41 -86.5h-252q-62 92 -105 213q-33 -75 -33 -126.5t29 -86.5h-251q-77 102 -131 236t-73 264h266q17 -215 88 -357q51 87 51 211z
M405 558l90 115h49l90 -115h-32l-83 62l-82 -62h-32z" />
    <glyph glyph-name="Ycircumflex" unicode="&#x176;" horiz-adv-x="732" 
d="M384 64q7 27 24 94.5t25 96.5t24.5 82t30 79.5t33.5 59.5t43.5 51.5t46 26t74.5 13t75 20.5q-27 -62 -56 -106q-34 -8 -57 -8t-44 3q-31 -37 -56 -99t-37.5 -111t-27.5 -120q-76 -362 -152 -514q-50 -15 -124 -29q100 171 162 397h-207q-79 256 -82 500h292
q-21 -93 -21 -197.5t34 -238.5zM251 558l90 115h49l90 -115h-32l-83 62l-82 -62h-32z" />
    <glyph glyph-name="ycircumflex" unicode="&#x177;" horiz-adv-x="732" 
d="M384 64q7 27 24 94.5t25 96.5t24.5 82t30 79.5t33.5 59.5t43.5 51.5t46 26t74.5 13t75 20.5q-27 -62 -56 -106q-34 -8 -57 -8t-44 3q-31 -37 -56 -99t-37.5 -111t-27.5 -120q-76 -362 -152 -514q-50 -15 -124 -29q100 171 162 397h-207q-79 256 -82 500h292
q-21 -93 -21 -197.5t34 -238.5zM251 558l90 115h49l90 -115h-32l-83 62l-82 -62h-32z" />
    <glyph glyph-name="Ydieresis" unicode="&#x178;" horiz-adv-x="732" 
d="M704 481q-34 -8 -57 -8t-44 3q-31 -37 -56 -99t-37.5 -111t-27.5 -120q-76 -362 -152 -514q-50 -15 -124 -29q100 171 162 397h-207q-79 256 -82 500h292q-21 -93 -21 -197.5t34 -238.5q7 27 24 94.5t25 96.5t24.5 82t30 79.5t33.5 59.5q36 59 95 80q17 5 69 10.5
t75 20.5q-27 -62 -56 -106zM308 576l-40 -1q-20 0 -58 2q25 59 30 101q53 -5 102 -6q-12 -54 -34 -96zM487 576l-41 -1q-19 0 -57 2q24 61 30 101q52 -5 102 -6q-14 -56 -34 -96z" />
    <glyph glyph-name="Zacute" unicode="&#x179;" horiz-adv-x="638" 
d="M396 67h9q42 0 68 19t37 67q74 -2 120 -4q-15 -87 -40 -149h-571q135 242 296 430q-24 5 -66 5t-76 -25.5t-43 -67.5q-77 5 -98 7l31 151h557q-177 -192 -308 -423q52 -10 84 -10zM315 680l111 -14q-14 -27 -39.5 -50t-48.5 -36t-60 -30h-66q72 47 103 130z" />
    <glyph glyph-name="zacute" unicode="&#x17a;" horiz-adv-x="638" 
d="M396 67h9q42 0 68 19t37 67q74 -2 120 -4q-15 -87 -40 -149h-571q135 242 296 430q-24 5 -66 5t-76 -25.5t-43 -67.5q-77 5 -98 7l31 151h557q-177 -192 -308 -423q52 -10 84 -10zM315 680l111 -14q-14 -27 -39.5 -50t-48.5 -36t-60 -30h-66q72 47 103 130z" />
    <glyph glyph-name="Zdotaccent" unicode="&#x17b;" horiz-adv-x="638" 
d="M396 67h9q42 0 68 19t37 67q74 -2 120 -4q-15 -87 -40 -149h-571q135 242 296 430q-24 5 -66 5t-76 -25.5t-43 -67.5q-77 5 -98 7l31 151h557q-177 -192 -308 -423q52 -10 84 -10zM351 576l-40 -1q-20 0 -58 2q25 59 30 101q53 -5 102 -6q-12 -54 -34 -96z" />
    <glyph glyph-name="zdotaccent" unicode="&#x17c;" horiz-adv-x="638" 
d="M396 67h9q42 0 68 19t37 67q74 -2 120 -4q-15 -87 -40 -149h-571q135 242 296 430q-24 5 -66 5t-76 -25.5t-43 -67.5q-77 5 -98 7l31 151h557q-177 -192 -308 -423q52 -10 84 -10zM351 576l-40 -1q-20 0 -58 2q25 59 30 101q53 -5 102 -6q-12 -54 -34 -96z" />
    <glyph glyph-name="Zcaron" unicode="&#x17d;" horiz-adv-x="638" 
d="M396 67h9q42 0 68 19t37 67q74 -2 120 -4q-15 -87 -40 -149h-571q135 242 296 430q-24 5 -66 5t-76 -25.5t-43 -67.5q-77 5 -98 7l31 151h557q-177 -192 -308 -423q52 -10 84 -10zM294 554l-90 115h32l82 -62l83 62h32l-90 -115h-49z" />
    <glyph glyph-name="zcaron" unicode="&#x17e;" horiz-adv-x="638" 
d="M396 67h9q42 0 68 19t37 67q74 -2 120 -4q-15 -87 -40 -149h-571q135 242 296 430q-24 5 -66 5t-76 -25.5t-43 -67.5q-77 5 -98 7l31 151h557q-177 -192 -308 -423q52 -10 84 -10zM294 554l-90 115h32l82 -62l83 62h32l-90 -115h-49z" />
    <glyph glyph-name="florin" unicode="&#x192;" horiz-adv-x="565" 
d="M435 223q2 -68 2 -114.5t-3 -106.5q-38 -35 -73 -54.5t-45 -25t-45 -21t-36 -16.5q-128 10 -216 45q2 67 6 121q89 -65 179 -96q13 131 17 269q-60 -2 -90 -4v53l91 -3q0 138 -6 229q84 34 172 49q83 -5 159 -29q0 -65 -5 -106q-60 57 -133 83q17 -112 24 -225q26 0 80 2
v-53z" />
    <glyph glyph-name="uni0218" unicode="&#x218;" horiz-adv-x="577" 
d="M112 499q91 24 203 24t219 -24q-15 -84 -26 -119l-110 -5q8 26 8 45.5t-18.5 27.5t-71.5 8t-96 -11q28 -47 73 -80t86.5 -50t92 -51t86.5 -81q-18 -97 -63 -182q-69 -21 -197 -24h-36q-153 0 -243 24q14 89 29 131l110 5q-9 -27 -9 -45q0 -48 71.5 -48t128.5 11
q-32 40 -157 135q-40 31 -80 83.5t-57 113.5q28 64 57 112zM194 -33h165q-21 -111 -69 -182q-30 4 -46 8q21 39 23 72q-62 0 -95 6q20 45 22 96z" />
    <glyph glyph-name="uni0219" unicode="&#x219;" horiz-adv-x="577" 
d="M112 499q91 24 203 24t219 -24q-15 -84 -26 -119l-110 -5q8 26 8 45.5t-18.5 27.5t-71.5 8t-96 -11q28 -47 73 -80t86.5 -50t92 -51t86.5 -81q-18 -97 -63 -182q-69 -21 -197 -24h-36q-153 0 -243 24q14 89 29 131l110 5q-9 -27 -9 -45q0 -48 71.5 -48t128.5 11
q-32 40 -157 135q-40 31 -80 83.5t-57 113.5q28 64 57 112zM194 -33h165q-21 -111 -69 -182q-30 4 -46 8q21 39 23 72q-62 0 -95 6q20 45 22 96z" />
    <glyph glyph-name="uni021A" unicode="&#x21a;" horiz-adv-x="705" 
d="M472 435q-26 -158 -26 -258t8 -177h-218q-34 159 -34 342q0 31 2 93q-85 -25 -104 -115l-99 6l36 174h665q-20 -110 -46 -180l-101 6q4 16 4 32q0 39 -24 58t-63 19zM472 435q39 0 63 -19t24 -58q0 -16 -4 -32l101 -6q26 70 46 180h-665l-36 -174l99 -6q19 90 104 115
q-2 -62 -2 -93q0 -183 34 -342h218q-8 77 -8 177t26 258zM272 -33h165q-21 -111 -69 -182q-30 4 -46 8q21 39 23 72q-62 0 -95 6q20 45 22 96z" />
    <glyph glyph-name="uni021B" unicode="&#x21b;" horiz-adv-x="705" 
d="M472 435q-26 -158 -26 -258t8 -177h-218q-34 159 -34 342q0 31 2 93q-85 -25 -104 -115l-99 6l36 174h665q-20 -110 -46 -180l-101 6q4 16 4 32q0 39 -24 58t-63 19zM472 435q39 0 63 -19t24 -58q0 -16 -4 -32l101 -6q26 70 46 180h-665l-36 -174l99 -6q19 90 104 115
q-2 -62 -2 -93q0 -183 34 -342h218q-8 77 -8 177t26 258zM272 -33h165q-21 -111 -69 -182q-30 4 -46 8q21 39 23 72q-62 0 -95 6q20 45 22 96z" />
    <glyph glyph-name="circumflex" unicode="&#x2c6;" horiz-adv-x="261" 
d="M17 558l90 115h49l90 -115h-32l-83 62l-82 -62h-32z" />
    <glyph glyph-name="caron" unicode="&#x2c7;" horiz-adv-x="261" 
d="M107 554l-90 115h32l82 -62l83 62h32l-90 -115h-49z" />
    <glyph glyph-name="breve" unicode="&#x2d8;" horiz-adv-x="303" 
d="M114 615q34 -22 82 -22t85 33q2 0 -9 -19.5t-37 -40.5q-33 -28 -87.5 -28t-104.5 31l-14 8q5 30 18.5 66.5t14.5 36.5z" />
    <glyph glyph-name="dotaccent" unicode="&#x2d9;" horiz-adv-x="150" 
d="M109 576l-40 -1q-20 0 -58 2q25 59 30 101q53 -5 102 -6q-12 -54 -34 -96z" />
    <glyph glyph-name="ring" unicode="&#x2da;" horiz-adv-x="194" 
d="M52 558q-29 22 -29 48.5t28.5 48t62.5 21.5t46.5 -15.5t12.5 -40t-27 -46t-63 -21.5q-14 0 -31 5zM78 624q0 -42 31 -56q10 13 10 33q0 40 -33 55q-8 -16 -8 -32z" />
    <glyph glyph-name="ogonek" unicode="&#x2db;" horiz-adv-x="176" 
d="M81 -96q0 -40 35 -40q18 0 38 18q2 -10 5 -21q-26 -35 -63.5 -35t-58.5 21t-21 53t28 63.5t60 47.5h44q-67 -45 -67 -107z" />
    <glyph glyph-name="tilde" unicode="&#x2dc;" horiz-adv-x="311" 
d="M243.5 586.5q-20.5 -11.5 -50 -11.5t-63.5 20.5t-50 20.5q-37 0 -66 -33l13 40q12 14 30.5 25.5t40 11.5t52 -11t52.5 -11q54 0 99 47q-4 -8 -14 -37t-16.5 -39.5t-27 -22z" />
    <glyph glyph-name="hungarumlaut" unicode="&#x2dd;" horiz-adv-x="410" 
d="M123 680l111 -14q-14 -27 -39.5 -50t-48.5 -36t-60 -30h-66q72 47 103 130zM284 680l111 -14q-14 -27 -39.5 -50t-48.5 -36t-60 -30h-66q72 47 103 130z" />
    <glyph glyph-name="uni0401" unicode="&#x401;" horiz-adv-x="643" 
d="M395 299l92 -6q13 0 20 1l-46 -88h-9q-19 0 -53 10.5t-48 10.5q-40 0 -63 -53q-5 -50 -6 -97q45 -11 87 -11t67 19.5t36 67.5l117 -4q-16 -93 -39 -149h-477q-19 128 -19 263.5t13 236.5h521q-17 -103 -31 -152q-58 -3 -105 -4q8 23 8 43q0 47 -71 47h-9q-19 0 -49 -5
q-21 -87 -32 -167q39 37 96 37zM278 576l-40 -1q-20 0 -58 2q25 59 30 101q53 -5 102 -6q-12 -54 -34 -96zM457 576l-41 -1q-19 0 -57 2q24 61 30 101q52 -5 102 -6q-14 -56 -34 -96z" />
    <glyph glyph-name="uni0402" unicode="&#x402;" horiz-adv-x="774" 
d="M757 208l1 -43q0 -144 -31 -234q-85 -59 -191 -99q-79 18 -147 44q0 48 5 110q62 -56 118 -84q25 91 25 216q0 38 -3 79q-43 23 -79 26q-2 -52 -2 -104t7 -119h-218q-34 160 -34 341q0 31 2 93q-84 -23 -103 -114q-80 5 -99 7l36 173h664q-19 -107 -45 -180q-54 3 -102 7
q4 16 4 32q0 38 -24 56.5t-63 18.5q-12 -69 -18 -141q92 -11 160 -30t137 -55z" />
    <glyph glyph-name="uni0403" unicode="&#x403;" horiz-adv-x="603" 
d="M306 680l111 -14q-14 -27 -39.5 -50t-48.5 -36t-60 -30h-66q72 47 103 130zM468 387q0 48 -72 48q-27 0 -60 -6q-50 -205 -50 -364q0 -44 2 -65h-217q-20 135 -20 268.5t14 231.5h535q-17 -98 -32 -152q-51 -1 -108 -4q8 23 8 43z" />
    <glyph glyph-name="uni0404" unicode="&#x404;" horiz-adv-x="617" 
d="M461 241l-90 9q-47 0 -74 -51q31 -75 118 -126q89 58 165 152q4 -55 6 -122q-48 -38 -86.5 -61t-108 -43.5t-149.5 -20.5h-23q-90 39 -141.5 115t-51.5 160q0 112 92.5 191t267.5 79q92 0 205 -25q-18 -71 -40 -120q-60 -4 -130 -6q10 28 17 66q-35 6 -68.5 6t-77.5 -11
q-16 -67 -16 -105t3 -59q25 38 56 51t73 13l87 -3q19 0 28 1l-49 -89z" />
    <glyph glyph-name="uni0405" unicode="&#x405;" horiz-adv-x="635" 
d="M423 440q-40 6 -85.5 6t-88.5 -6q27 -46 64 -75t93.5 -57.5t92 -52.5t78.5 -79t54 -115q-48 -62 -127 -109.5t-162 -63.5q-56 5 -141.5 31.5t-128.5 26.5t-86 -27q18 51 59 128h8q64 0 120.5 -20t103 -40t75 -20t41.5 4q0 66 -41 109q-22 23 -37.5 35.5t-47.5 34.5
l-17 12q-68 47 -112 95.5t-64 119.5q32 71 63 123q95 23 197 23h44q86 0 197 -24q-16 -66 -39 -119q-84 -6 -130 -6q9 23 17 66z" />
    <glyph glyph-name="uni0406" unicode="&#x406;" horiz-adv-x="396" 
d="M341 500v-27q0 -264 -33 -473h-240q19 92 19 212.5t-16 287.5h270z" />
    <glyph glyph-name="uni0407" unicode="&#x407;" horiz-adv-x="396" 
d="M332 398q0 -209 -34 -398h-227q14 107 14 235.5t-19 264.5h264q2 -68 2 -102zM71 678q53 -5 104 -6q-12 -53 -35 -97q-67 0 -100 1q25 60 31 102zM254 678q53 -5 105 -6q-13 -54 -35 -97q-67 0 -101 1q25 60 31 102z" />
    <glyph glyph-name="uni0408" unicode="&#x408;" horiz-adv-x="531" 
d="M192 -45q7 78 7 215.5t-23 329.5h270q2 -38 2 -117q0 -212 -28 -383q-39 -37 -72 -54.5t-45 -24t-43 -20t-37 -16.5q-128 10 -218 45q2 66 6 122q93 -67 181 -97z" />
    <glyph glyph-name="uni0409" unicode="&#x409;" horiz-adv-x="964" 
d="M383 242q0 23 2 67q-60 -38 -88 -103t-28 -138q0 -36 6 -68h-260q12 143 44 244q209 59 337 176q5 38 16 80h247q-16 -93 -21 -170q176 -20 310 -88q-3 -139 -31 -242h-510q-24 100 -24 242zM636 261q0 -105 25 -194q53 66 65 167q-42 23 -90 27z" />
    <glyph glyph-name="uni040A" unicode="&#x40a;" horiz-adv-x="990" 
d="M674 500q2 -12 2 -85t-2 -85q176 -20 308 -88q-8 -140 -72 -241h-510q18 131 21 254q-52 32 -116 39q-6 -147 -32 -293h-227q14 97 14 228.5t-18 270.5h263q2 -60 2 -89v-32q68 -23 115 -49q0 92 -7 170h259zM671 261q-8 -103 -22 -194q41 28 73 74t38 94q-44 22 -89 26z
" />
    <glyph glyph-name="uni040B" unicode="&#x40b;" horiz-adv-x="838" 
d="M703 254q32 0 49 1q54 -113 67 -255h-255q0 154 -40 190q-19 17 -59 26q-1 -22 -1 -84t7 -132h-218q-34 160 -34 342q0 31 2 93q-86 -25 -103 -115l-99 6l35 174h665q-17 -100 -45 -180l-102 6q4 16 4 32q0 39 -24 58t-63 19q-12 -71 -18 -143q109 -38 232 -38z" />
    <glyph glyph-name="uni040C" unicode="&#x40c;" horiz-adv-x="707" 
d="M570 507h33q64 0 95 15q-44 -65 -85 -113h-16q-51 0 -99 16q-68 -56 -109 -149q106 -27 236 -32q30 -76 41 -244h-259q-17 74 -51.5 136.5t-71.5 85.5q-7 -82 -7 -132t3 -90h-220q-19 147 -19 248.5t15 251.5h278q-30 -124 -41 -208q45 74 94.5 124.5t117.5 85.5
q26 5 65 5zM354 680l111 -14q-14 -27 -39.5 -50t-48.5 -36t-60 -30h-66q72 47 103 130z" />
    <glyph glyph-name="uni040E" unicode="&#x40e;" horiz-adv-x="732" 
d="M362 615q35 -22 82.5 -22t85.5 33q2 0 -9 -19.5t-37 -40.5q-33 -28 -87.5 -28t-104.5 31l-14 8q5 30 18.5 66.5t14.5 36.5zM704 481q-34 -8 -57 -8t-44 3q-31 -37 -56 -99t-37.5 -111t-27.5 -120q-76 -362 -152 -514q-50 -15 -124 -29q100 171 162 397h-207
q-79 256 -82 500h292q-21 -93 -21 -197.5t34 -238.5q7 27 24 94.5t25 96.5t24.5 82t30 79.5t33.5 59.5q36 59 95 80q17 5 69 10.5t75 20.5q-27 -62 -56 -106z" />
    <glyph glyph-name="uni040F" unicode="&#x40f;" horiz-adv-x="652" 
d="M610 500q4 -64 4 -181.5t-15 -255.5q-92 -57 -219 -63q-4 -39 -16 -95q-6 -1 -34.5 -1t-46.5 7q9 40 11 91q-138 9 -233 61q-12 108 -12 201.5t14 235.5h258q-40 -214 -40 -401q43 -36 116.5 -36t115.5 27q2 56 2 83q0 154 -27 327h122z" />
    <glyph glyph-name="uni0410" unicode="&#x410;" horiz-adv-x="767" 
d="M690 8v-8h-232q-4 57 -17 118q-62 -63 -140 -118h-233q-7 41 -7 108.5t20 135.5q72 21 138.5 71t96.5 108q-27 42 -57 77h332q99 -215 99 -492zM423 191q-26 89 -68 168q-47 -138 -54 -261q72 37 122 93z" />
    <glyph glyph-name="uni0411" unicode="&#x411;" horiz-adv-x="706" 
d="M305 66q69 0 112 11q-14 103 -102 173q-10 -89 -10 -184zM53 304q0 102 19 196h599q-14 -70 -32 -121q-24 -1 -69.5 -2t-69.5 -2q11 34 12 60q-103 0 -169 -6q-8 -36 -20 -110q204 -25 316 -99q-12 -127 -43 -220h-502q-41 144 -41 304z" />
    <glyph glyph-name="uni0412" unicode="&#x412;" horiz-adv-x="695" 
d="M322 65q68 0 111 11q-18 111 -102 165q-9 -89 -9 -176zM70 300q0 105 19 200h555q-45 -140 -172 -203q115 -41 184 -114q-9 -93 -43 -183h-503q-40 139 -40 300zM339 310q49 13 91 45t60 79q-80 0 -130 -5q-12 -58 -21 -119z" />
    <glyph glyph-name="uni0413" unicode="&#x413;" horiz-adv-x="603" 
d="M468 387q0 48 -72 48q-27 0 -60 -6q-50 -205 -50 -364q0 -44 2 -65h-217q-20 135 -20 268.5t14 231.5h535q-17 -98 -32 -152q-51 -1 -108 -4q8 23 8 43z" />
    <glyph glyph-name="uni0414" unicode="&#x414;" horiz-adv-x="743" 
d="M594 -62q0 62 -83 62h-294q-84 0 -84 -91q0 -15 1 -23q-57 1 -90 3q-21 68 -38 188q21 -2 63 -4q0 109 19 171q69 20 125.5 69t86.5 110q-27 42 -57 77h331q87 -185 98 -431l68 -3q-19 -105 -46 -181l-110 6q10 26 10 47zM286 131q0 -30 4 -54q65 -10 136 -11
q-19 159 -87 290q-53 -125 -53 -225z" />
    <glyph glyph-name="uni0415" unicode="&#x415;" horiz-adv-x="671" 
d="M415 299l94 -6q14 0 21 1l-47 -88h-9q-19 0 -54 10.5t-50 10.5q-41 0 -65 -53q-4 -49 -6 -98q52 -10 82 -10h9q43 0 68.5 19t36.5 68l120 -5q-15 -86 -40 -148h-491q-20 135 -20 268t14 232h536q-18 -108 -32 -152q-59 -3 -108 -4q8 23 8 43q0 48 -72 48q-27 0 -60 -6
q-22 -95 -34 -167q40 37 99 37z" />
    <glyph glyph-name="uni0416" unicode="&#x416;" horiz-adv-x="1049" 
d="M95 406l-15 1q-40 50 -80 114q31 -16 96 -16h32q43 0 64 -4q67 -35 113 -84.5t88 -122.5q2 103 12 206h276q-19 -74 -41 -207q44 73 93 123t118 85q21 4 64 4h32q64 0 97 16q-4 -5 -16.5 -24.5t-21 -32t-20.5 -27.5q-25 -31 -42 -31q-46 0 -100 18q-70 -59 -108 -148
q109 -26 235 -31q31 -73 42 -245h-259q-15 73 -50.5 136t-71.5 87q-7 -67 -7 -136t2 -87h-218q-14 95 -16 223q-43 -27 -78.5 -88.5t-35.5 -134.5h-258q6 165 41 245q129 5 235 32q-35 89 -101 147q-57 -18 -101 -18z" />
    <glyph glyph-name="uni0417" unicode="&#x417;" horiz-adv-x="622" 
d="M385 417l-1 23q-21 6 -72.5 6t-70.5 -6q7 -37 17 -67q-70 2 -129 6q-22 49 -40 120q108 24 218 24q233 0 233 -73q0 -11 -7 -27q-45 -86 -98 -137q80 -21 123.5 -81.5t52.5 -144.5q-47 -62 -126.5 -109t-162.5 -63q-56 5 -141.5 31t-129 26t-86.5 -27q22 60 60 128h14
q62 0 117.5 -20t101 -40t75.5 -20t36.5 7t6.5 43.5t-16 94.5q-37 118 -79 120q-55 -15 -71.5 -15t-19.5 1q18 37 48 89h31q58 0 94 -5q22 57 22 116z" />
    <glyph glyph-name="uni0418" unicode="&#x418;" horiz-adv-x="775" 
d="M76 0q13 100 13 236.5t-18 263.5h264q1 -18 1 -96t-18 -207q80 73 143 172q-1 62 -11 131h259q2 -60 2 -90q0 -194 -38 -410h-239q20 134 26 242q-56 -87 -184 -242h-200z" />
    <glyph glyph-name="uni0419" unicode="&#x419;" horiz-adv-x="775" 
d="M362 615q35 -22 82.5 -22t85.5 33q2 0 -9 -19.5t-37 -40.5q-33 -28 -89 -28h-5q-48 0 -98 31l-14 8q5 30 18.5 66.5t14.5 36.5zM76 0q13 100 13 236.5t-18 263.5h264q1 -18 1 -96t-18 -207q80 73 143 172q-1 62 -11 131h259q2 -60 2 -90q0 -194 -38 -410h-239
q20 134 26 242q-56 -87 -184 -242h-200z" />
    <glyph glyph-name="uni041A" unicode="&#x41a;" horiz-adv-x="707" 
d="M570 507h33q64 0 95 15q-44 -65 -85 -113h-16q-51 0 -99 16q-68 -56 -109 -149q106 -27 236 -32q30 -76 41 -244h-259q-17 74 -51.5 136.5t-71.5 85.5q-7 -82 -7 -132t3 -90h-220q-19 147 -19 248.5t15 251.5h278q-30 -124 -41 -208q45 74 94.5 124.5t117.5 85.5
q26 5 65 5z" />
    <glyph glyph-name="uni041B" unicode="&#x41b;" horiz-adv-x="705" 
d="M665 0h-231q-18 201 -102 357q-54 -123 -54 -226q0 -70 26 -131h-260q-7 41 -7 110t19 134q73 21 140 71.5t96 107.5q-22 35 -57 77h331q99 -213 99 -500z" />
    <glyph glyph-name="uni041C" unicode="&#x41c;" horiz-adv-x="1052" 
d="M657 454q0 27 -8 46h285q36 -96 53.5 -235t18.5 -265h-231q-7 180 -59 347q-87 -170 -94 -347h-196q-26 196 -100 348q-54 -127 -54 -236q0 -59 14 -112h-243q-7 41 -7 108.5t20 135.5q71 21 136.5 69t96.5 105q-26 43 -55 82h316q38 -103 57 -224q50 93 50 178z" />
    <glyph glyph-name="uni041D" unicode="&#x41d;" horiz-adv-x="740" 
d="M699 417q0 -196 -38 -417h-239q16 118 21 254q-52 32 -116 39q-6 -147 -32 -293h-227q13 98 13 234.5t-18 265.5h264q2 -41 2 -122q58 -18 115 -49q0 93 -7 171h260q2 -56 2 -83z" />
    <glyph glyph-name="uni041E" unicode="&#x41e;" horiz-adv-x="658" 
d="M123 3q-89 114 -89 234t100 203t256 83q83 0 165 -25q72 -91 72 -195q0 -131 -107 -228t-259 -97q-65 0 -138 25zM275 436q-35 -60 -35 -141t35.5 -149.5t97.5 -98.5q47 60 47 139t-38.5 147t-106.5 103z" />
    <glyph glyph-name="uni041F" unicode="&#x41f;" horiz-adv-x="740" 
d="M679 500l2 -85q0 -195 -38 -415h-239q23 163 23 324q0 56 -3 111h-17q-57 0 -95 -6v-32q0 -201 -34 -397h-228q14 107 14 234t-18 266h633z" />
    <glyph glyph-name="uni0420" unicode="&#x420;" horiz-adv-x="665" 
d="M294 125q0 -57 5 -125h-220q-41 159 -41 338q0 91 11 162h542q29 -113 32 -269q-148 -66 -329 -86v-20zM295 214q64 8 107 32q-16 106 -86 188q-16 -99 -21 -220z" />
    <glyph glyph-name="uni0421" unicode="&#x421;" horiz-adv-x="632" 
d="M449 439q-35 6 -67.5 6t-78.5 -11q-15 -63 -15 -123q0 -155 138 -238q92 61 166 152q3 -40 5 -122q-74 -58 -151 -91t-192 -33h-23q-90 39 -141.5 115t-51.5 160q0 112 92 190.5t267 78.5q98 0 205 -25q-16 -63 -40 -119q-63 -6 -130 -6q10 28 17 66z" />
    <glyph glyph-name="uni0422" unicode="&#x422;" horiz-adv-x="705" 
d="M472 435q-26 -158 -26 -258t8 -177h-218q-34 159 -34 342q0 31 2 93q-85 -25 -104 -115l-99 6l36 174h665q-20 -110 -46 -180l-101 6q4 16 4 32q0 39 -24 58t-63 19z" />
    <glyph glyph-name="uni0423" unicode="&#x423;" horiz-adv-x="732" 
d="M704 481q-34 -8 -57 -8t-44 3q-31 -37 -56 -99t-37.5 -111t-27.5 -120q-76 -362 -152 -514q-50 -15 -124 -29q100 171 162 397h-207q-79 256 -82 500h292q-21 -93 -21 -197.5t34 -238.5q7 27 24 94.5t25 96.5t24.5 82t30 79.5t33.5 59.5q36 59 95 80q17 5 69 10.5
t75 20.5q-27 -62 -56 -106z" />
    <glyph glyph-name="uni0424" unicode="&#x424;" horiz-adv-x="879" 
d="M20 276q0 125 44 224h220q-10 74 -17 111q192 -32 288 -49q1 -11 3 -31.5t2 -30.5h265q34 -83 34 -179q0 -40 -8 -96q-116 -57 -285 -74q-3 -76 -9 -151h-253q5 85 5 151q-171 17 -287 74q-2 34 -2 51zM293 432q-26 -34 -48 -88t-30 -103q39 -15 93 -20q-3 105 -15 211z
M567 274v-53q55 5 91 20q-15 87 -94 191q3 -80 3 -158z" />
    <glyph glyph-name="uni0425" unicode="&#x425;" horiz-adv-x="702" 
d="M675 481q-32 -8 -55.5 -8t-44.5 3q-59 -42 -142 -137q121 -189 193 -339h-249q-41 88 -82 159q-111 -158 -171 -280q-20 -5 -59 -13.5t-56 -12.5q84 150 251 364q-103 161 -233 283h311q23 -49 64 -112q8 9 31 36.5t36 41.5t35 34q40 39 84 55q17 5 69 10.5t75 20.5
q-24 -55 -57 -105z" />
    <glyph glyph-name="uni0426" unicode="&#x426;" horiz-adv-x="750" 
d="M515 0h-460q14 97 14 229t-18 271h264q2 -68 2 -102q0 -169 -22 -322q47 -11 122 -11q15 135 15 238t-8 197h260q2 -58 2 -86q0 -168 -27 -344q45 -4 85 -5q-17 -100 -45 -180l-110 6q10 26 10 47q0 62 -84 62z" />
    <glyph glyph-name="uni0427" unicode="&#x427;" horiz-adv-x="725" 
d="M409 218q-4 53 -4 129.5t7 152.5h276q-37 -185 -37 -354q0 -79 7 -146h-219q-15 77 -22 138q-50 32 -172 32q-58 0 -114 -7q-68 153 -90 337h255q0 -259 113 -282z" />
    <glyph glyph-name="uni0428" unicode="&#x428;" horiz-adv-x="1073" 
d="M1022 417q0 -197 -38 -417h-925q13 98 13 234.5t-18 265.5h264q2 -68 2 -102q0 -168 -22 -321q47 -11 121 -11q6 77 6 192t-18 242h264q1 -17 1 -51q0 -190 -38 -373q50 -10 119 -10q14 128 14 240.5t-7 193.5h260q2 -60 2 -83z" />
    <glyph glyph-name="uni0429" unicode="&#x429;" horiz-adv-x="1054" 
d="M825 0h-793q14 97 14 229t-18 271h264q2 -68 2 -103q0 -168 -22 -321q47 -11 120 -11q7 71 7 183.5t-18 251.5h263q1 -18 1 -57q0 -179 -38 -367q47 -11 120 -11q14 126 14 233.5t-8 201.5h260q2 -58 2 -87q0 -167 -27 -343q46 -4 86 -5q-19 -103 -46 -180l-110 6
q10 26 10 47q0 62 -83 62z" />
    <glyph glyph-name="uni042A" unicode="&#x42a;" horiz-adv-x="758" 
d="M198 0q-24 100 -24 223t14 212q-37 -11 -54.5 -30.5t-24.5 -60.5l-99 6l31 150h408q-16 -93 -21 -170q179 -20 310 -88q-3 -139 -31 -242h-509zM426 261q0 -105 25 -194q52 66 66 168q-46 22 -91 26z" />
    <glyph glyph-name="uni042B" unicode="&#x42b;" horiz-adv-x="955" 
d="M63 0q-23 96 -23 250t28 250h247q-16 -95 -21 -171q175 -20 311 -88q-3 -133 -32 -241h-510zM292 260q0 -106 25 -194q52 64 66 167q-44 23 -91 27zM915 398q0 -209 -34 -398h-227q13 98 13 234.5t-18 265.5h264q2 -68 2 -102z" />
    <glyph glyph-name="uni042C" unicode="&#x42c;" horiz-adv-x="629" 
d="M77 0q-24 100 -24 250.5t29 249.5h246q-16 -93 -21 -170q175 -20 311 -88q-3 -134 -31 -242h-510zM305 261q0 -105 25 -194q53 66 66 167q-44 23 -91 27z" />
    <glyph glyph-name="uni042D" unicode="&#x42d;" horiz-adv-x="640" 
d="M150 330l87 3q42 0 73 -13t56 -51q3 21 3 59t-16 105q-44 11 -77.5 11t-68.5 -6q7 -38 17 -66q-70 2 -130 6q-22 49 -40 120q113 25 205 25q175 0 267.5 -79t92.5 -191q0 -84 -51.5 -160t-141.5 -115h-23q-80 0 -149.5 20.5t-108 43.5t-86.5 61q2 67 6 122
q76 -94 165 -152q87 51 118 126q-27 51 -74 51l-90 -9l-13 1l-49 89q9 -1 28 -1z" />
    <glyph glyph-name="uni042E" unicode="&#x42e;" horiz-adv-x="961" 
d="M40 0q14 106 14 235t-19 265h264q2 -38 2 -105.5t-1 -97.5q44 0 75 -4q25 108 123 169t218 61q76 0 160 -25q71 -91 71 -196q0 -129 -104.5 -226.5t-253.5 -97.5q-61 0 -135 24q-85 110 -87 226q-49 0 -71 -1q-9 -111 -29 -227h-227zM568 291q0 -78 35.5 -144.5
t95.5 -95.5q45 59 45 136t-37.5 143.5t-103.5 99.5q-35 -61 -35 -139z" />
    <glyph glyph-name="uni042F" unicode="&#x42f;" horiz-adv-x="656" 
d="M69 321q0 79 22 179h522q14 -106 14 -230.5t-29 -269.5h-218q6 70 6 121.5t-1 68.5q-85 -36 -106 -190h-258q8 113 41 197q118 5 207 28q-116 24 -200 67v29zM364 433q-53 -68 -71 -134q34 -31 89 -39q-6 85 -18 173z" />
    <glyph glyph-name="uni0430" unicode="&#x430;" horiz-adv-x="767" 
d="M690 8v-8h-232q-4 57 -17 118q-62 -63 -140 -118h-233q-7 41 -7 108.5t20 135.5q72 21 138.5 71t96.5 108q-27 42 -57 77h332q99 -215 99 -492zM423 191q-26 89 -68 168q-47 -138 -54 -261q72 37 122 93z" />
    <glyph glyph-name="uni0431" unicode="&#x431;" horiz-adv-x="706" 
d="M305 66q69 0 112 11q-14 103 -102 173q-10 -89 -10 -184zM53 304q0 102 19 196h599q-14 -70 -32 -121q-24 -1 -69.5 -2t-69.5 -2q11 34 12 60q-103 0 -169 -6q-8 -36 -20 -110q204 -25 316 -99q-12 -127 -43 -220h-502q-41 144 -41 304z" />
    <glyph glyph-name="uni0432" unicode="&#x432;" horiz-adv-x="695" 
d="M322 65q68 0 111 11q-18 111 -102 165q-9 -89 -9 -176zM70 300q0 105 19 200h555q-45 -140 -172 -203q115 -41 184 -114q-9 -93 -43 -183h-503q-40 139 -40 300zM339 310q49 13 91 45t60 79q-80 0 -130 -5q-12 -58 -21 -119z" />
    <glyph glyph-name="uni0433" unicode="&#x433;" horiz-adv-x="603" 
d="M468 387q0 48 -72 48q-27 0 -60 -6q-50 -205 -50 -364q0 -44 2 -65h-217q-20 135 -20 268.5t14 231.5h535q-17 -98 -32 -152q-51 -1 -108 -4q8 23 8 43z" />
    <glyph glyph-name="uni0434" unicode="&#x434;" horiz-adv-x="743" 
d="M594 -62q0 62 -83 62h-294q-84 0 -84 -91q0 -15 1 -23q-57 1 -90 3q-21 68 -38 188q21 -2 63 -4q0 109 19 171q69 20 125.5 69t86.5 110q-27 42 -57 77h331q87 -185 98 -431l68 -3q-19 -105 -46 -181l-110 6q10 26 10 47zM286 131q0 -30 4 -54q65 -10 136 -11
q-19 159 -87 290q-53 -125 -53 -225z" />
    <glyph glyph-name="uni0435" unicode="&#x435;" horiz-adv-x="671" 
d="M415 299l94 -6q14 0 21 1l-47 -88h-9q-19 0 -54 10.5t-50 10.5q-41 0 -65 -53q-4 -49 -6 -98q52 -10 82 -10h9q43 0 68.5 19t36.5 68l120 -5q-15 -86 -40 -148h-491q-20 135 -20 268t14 232h536q-18 -108 -32 -152q-59 -3 -108 -4q8 23 8 43q0 48 -72 48q-27 0 -60 -6
q-22 -95 -34 -167q40 37 99 37z" />
    <glyph glyph-name="uni0436" unicode="&#x436;" horiz-adv-x="1049" 
d="M147 -1l-126 1q8 163 41 245q131 6 235 32q-36 91 -101 147q-56 -18 -101 -18q-17 0 -35 24t-24 34q-31 47 -36 57q33 -16 93 -16t105.5 -15.5t81 -47.5t60.5 -65.5t53 -82.5q1 102 12 206h276q-25 -100 -41 -207q44 73 93 123t118 85q22 5 55 5l47 -1q58 0 91 16
q-3 -4 -11 -17t-13.5 -21.5t-14.5 -21.5t-16.5 -21.5t-15.5 -17.5q-16 -16 -29 -16q-46 0 -100 18q-68 -56 -108 -148q109 -26 235 -31q32 -79 42 -245h-259q-16 74 -51 137t-71 86q-7 -67 -7 -131.5t2 -91.5h-218q-14 105 -16 223q-42 -27 -78 -88t-36 -131q0 -5 -132 -5z
" />
    <glyph glyph-name="uni0437" unicode="&#x437;" horiz-adv-x="622" 
d="M385 417l-1 23q-21 6 -72.5 6t-70.5 -6q7 -37 17 -67q-70 2 -129 6q-22 49 -40 120q108 24 218 24q233 0 233 -73q0 -11 -7 -27q-45 -86 -98 -137q80 -21 123.5 -81.5t52.5 -144.5q-47 -62 -126.5 -109t-162.5 -63q-56 5 -141.5 31t-128 26t-87.5 -27q45 128 74 128
q62 0 117.5 -20t101 -40t76 -20t36.5 7.5t6 32.5q0 71 -31.5 148t-63.5 77q-55 -15 -71.5 -15t-19.5 1q18 37 48 89h31q58 0 94 -5q22 57 22 116z" />
    <glyph glyph-name="uni0438" unicode="&#x438;" horiz-adv-x="775" 
d="M76 0q13 100 13 236.5t-18 263.5h264q1 -18 1 -96t-18 -207q80 73 143 172q-1 62 -11 131h259q2 -60 2 -90q0 -194 -38 -410h-239q20 134 26 242q-56 -87 -184 -242h-200z" />
    <glyph glyph-name="uni0439" unicode="&#x439;" horiz-adv-x="775" 
d="M362 615q35 -22 82.5 -22t85.5 33q2 0 -9 -19.5t-37 -40.5q-33 -28 -89 -28h-5q-48 0 -98 31l-14 8q5 30 18.5 66.5t14.5 36.5zM76 0q13 100 13 236.5t-18 263.5h264q1 -18 1 -96t-18 -207q80 73 143 172q-1 62 -11 131h259q2 -60 2 -90q0 -194 -38 -410h-239
q20 134 26 242q-56 -87 -184 -242h-200z" />
    <glyph glyph-name="uni043A" unicode="&#x43a;" horiz-adv-x="707" 
d="M570 507h33q64 0 95 15q-44 -65 -85 -113h-16q-51 0 -99 16q-68 -56 -109 -149q106 -27 236 -32q30 -76 41 -244h-259q-17 74 -51.5 136.5t-71.5 85.5q-7 -82 -7 -132t3 -90h-220q-19 147 -19 248.5t15 251.5h278q-30 -124 -41 -208q45 74 94.5 124.5t117.5 85.5
q26 5 65 5z" />
    <glyph glyph-name="uni043B" unicode="&#x43b;" horiz-adv-x="705" 
d="M665 0h-231q-18 201 -102 357q-54 -123 -54 -226q0 -70 26 -131h-260q-7 41 -7 110t19 134q73 21 140 71.5t96 107.5q-22 35 -57 77h331q99 -213 99 -500z" />
    <glyph glyph-name="uni043C" unicode="&#x43c;" horiz-adv-x="1052" 
d="M657 454q0 25 -8 46h285q36 -98 54 -238t18 -262h-231q-7 186 -59 347q-88 -172 -94 -347h-196q-25 196 -100 348q-54 -128 -54 -236q0 -62 14 -112h-243q-7 41 -7 108.5t20 135.5q70 21 135.5 69t97.5 105q-20 34 -55 82h316q38 -103 57 -224q50 90 50 178z" />
    <glyph glyph-name="uni043D" unicode="&#x43d;" horiz-adv-x="740" 
d="M699 417q0 -196 -38 -417h-239q16 118 21 254q-52 32 -116 39q-6 -147 -32 -293h-227q13 98 13 234.5t-18 265.5h264q2 -41 2 -122q58 -18 115 -49q0 93 -7 171h260q2 -56 2 -83z" />
    <glyph glyph-name="uni043E" unicode="&#x43e;" horiz-adv-x="658" 
d="M123 3q-89 114 -89 234t100 203t256 83q83 0 165 -25q72 -91 72 -195q0 -131 -107 -228t-259 -97q-65 0 -138 25zM275 436q-35 -60 -35 -141t35.5 -149.5t97.5 -98.5q47 60 47 139t-38.5 147t-106.5 103z" />
    <glyph glyph-name="uni043F" unicode="&#x43f;" horiz-adv-x="740" 
d="M679 500l2 -85q0 -195 -38 -415h-239q23 163 23 324q0 56 -3 111h-17q-57 0 -95 -6v-32q0 -201 -34 -397h-228q14 107 14 234t-18 266h633z" />
    <glyph glyph-name="uni0440" unicode="&#x440;" horiz-adv-x="665" 
d="M294 125q0 -57 5 -125h-220q-41 159 -41 338q0 91 11 162h542q29 -113 32 -269q-148 -66 -329 -86v-20zM295 214q64 8 107 32q-16 106 -86 188q-16 -99 -21 -220z" />
    <glyph glyph-name="uni0441" unicode="&#x441;" horiz-adv-x="632" 
d="M449 439q-35 6 -67.5 6t-78.5 -11q-15 -63 -15 -123q0 -155 138 -238q92 61 166 152q3 -40 5 -122q-74 -58 -151 -91t-192 -33h-23q-90 39 -141.5 115t-51.5 160q0 112 92 190.5t267 78.5q98 0 205 -25q-16 -63 -40 -119q-63 -6 -130 -6q10 28 17 66z" />
    <glyph glyph-name="uni0442" unicode="&#x442;" horiz-adv-x="705" 
d="M472 435q-26 -158 -26 -258t8 -177h-218q-34 159 -34 342q0 31 2 93q-85 -25 -104 -115l-99 6l36 174h665q-20 -110 -46 -180l-101 6q4 16 4 32q0 39 -24 58t-63 19z" />
    <glyph glyph-name="uni0443" unicode="&#x443;" horiz-adv-x="683" 
d="M655 481q-34 -8 -57 -8t-44 3q-31 -37 -56 -99t-37.5 -111t-27.5 -120q-76 -362 -152 -514q-50 -15 -124 -29q100 171 162 397h-207q-79 256 -82 500h292q-21 -93 -21 -197.5t34 -238.5q7 27 24 94.5t25 96.5t24.5 82t30 79.5t33.5 59.5q36 59 95 80q17 5 69 10.5
t75 20.5q-27 -62 -56 -106z" />
    <glyph glyph-name="uni0444" unicode="&#x444;" horiz-adv-x="910" 
d="M44 276q0 125 44 224h220q-5 37 -17 111q192 -32 288 -49q1 -11 3 -31.5t2 -30.5h265q34 -87 34 -179q0 -42 -8 -96q-122 -59 -285 -74q-3 -76 -9 -151h-253q5 83 5 151q-165 15 -287 74q-2 34 -2 51zM317 432q-26 -32 -48 -87.5t-30 -103.5q37 -15 93 -20
q-3 104 -15 211zM591 274v-53q55 5 91 20q-7 44 -35.5 98.5t-58.5 92.5q3 -80 3 -158z" />
    <glyph glyph-name="uni0445" unicode="&#x445;" horiz-adv-x="702" 
d="M675 481q-32 -8 -55.5 -8t-44.5 3q-59 -42 -142 -137q121 -189 193 -339h-249q-41 88 -82 159q-111 -158 -171 -280q-20 -5 -59 -13.5t-56 -12.5q84 150 251 364q-103 161 -233 283h311q23 -49 64 -112q8 9 31 36.5t36 41.5t35 34q40 39 84 55q17 5 69 10.5t75 20.5
q-24 -55 -57 -105z" />
    <glyph glyph-name="uni0446" unicode="&#x446;" horiz-adv-x="750" 
d="M515 0h-460q14 97 14 229t-18 271h264q2 -68 2 -102q0 -169 -22 -322q47 -11 122 -11q15 135 15 238t-8 197h260q2 -58 2 -86q0 -168 -27 -344q45 -4 85 -5q-17 -100 -45 -180l-110 6q10 26 10 47q0 62 -84 62z" />
    <glyph glyph-name="uni0447" unicode="&#x447;" horiz-adv-x="725" 
d="M409 218q-4 53 -4 129.5t7 152.5h276q-37 -185 -37 -354q0 -79 7 -146h-219q-15 77 -22 138q-50 32 -172 32q-58 0 -114 -7q-68 153 -90 337h255q0 -259 113 -282z" />
    <glyph glyph-name="uni0448" unicode="&#x448;" horiz-adv-x="1073" 
d="M1022 417q0 -197 -38 -417h-925q13 98 13 234.5t-18 265.5h264q2 -68 2 -102q0 -168 -22 -321q47 -11 121 -11q6 77 6 192t-18 242h264q1 -17 1 -51q0 -190 -38 -373q50 -10 119 -10q14 128 14 240.5t-7 193.5h260q2 -60 2 -83z" />
    <glyph glyph-name="uni0449" unicode="&#x449;" horiz-adv-x="1054" 
d="M825 0h-793q14 97 14 229t-18 271h264q2 -68 2 -103q0 -168 -22 -321q47 -11 120 -11q7 71 7 183.5t-18 251.5h263q1 -18 1 -57q0 -179 -38 -367q47 -11 120 -11q14 126 14 233.5t-8 201.5h260q2 -58 2 -87q0 -167 -27 -343q46 -4 86 -5q-19 -103 -46 -180l-110 6
q10 26 10 47q0 62 -83 62z" />
    <glyph glyph-name="uni044A" unicode="&#x44a;" horiz-adv-x="758" 
d="M198 0q-24 100 -24 223t14 212q-37 -11 -54.5 -30.5t-24.5 -60.5l-99 6l31 150h408q-16 -93 -21 -170q179 -20 310 -88q-3 -139 -31 -242h-509zM426 261q0 -105 25 -194q52 66 66 168q-46 22 -91 26z" />
    <glyph glyph-name="uni044B" unicode="&#x44b;" horiz-adv-x="955" 
d="M63 0q-23 96 -23 250t28 250h247q-16 -95 -21 -171q175 -20 311 -88q-3 -133 -32 -241h-510zM292 260q0 -106 25 -194q52 64 66 167q-44 23 -91 27zM915 398q0 -209 -34 -398h-227q13 98 13 234.5t-18 265.5h264q2 -68 2 -102z" />
    <glyph glyph-name="uni044C" unicode="&#x44c;" horiz-adv-x="629" 
d="M77 0q-24 100 -24 250.5t29 249.5h246q-16 -93 -21 -170q175 -20 311 -88q-3 -134 -31 -242h-510zM305 261q0 -105 25 -194q53 66 66 167q-44 23 -91 27z" />
    <glyph glyph-name="uni044D" unicode="&#x44d;" horiz-adv-x="640" 
d="M150 330l87 3q42 0 73 -13t56 -51q3 21 3 59t-16 105q-44 11 -77.5 11t-68.5 -6q7 -38 17 -66q-70 2 -130 6q-22 49 -40 120q113 25 205 25q175 0 267.5 -79t92.5 -191q0 -84 -51.5 -160t-141.5 -115h-23q-80 0 -149.5 20.5t-108 43.5t-86.5 61q2 67 6 122
q76 -94 165 -152q87 51 118 126q-27 51 -74 51l-90 -9l-13 1l-49 89q9 -1 28 -1z" />
    <glyph glyph-name="uni044E" unicode="&#x44e;" horiz-adv-x="961" 
d="M40 0q14 106 14 235t-19 265h264q2 -38 2 -105.5t-1 -97.5q44 0 75 -4q25 108 123 169t218 61q76 0 160 -25q71 -91 71 -196q0 -129 -104.5 -226.5t-253.5 -97.5q-61 0 -135 24q-85 110 -87 226q-49 0 -71 -1q-9 -111 -29 -227h-227zM568 291q0 -78 35.5 -144.5
t95.5 -95.5q45 59 45 136t-37.5 143.5t-103.5 99.5q-35 -61 -35 -139z" />
    <glyph glyph-name="uni044F" unicode="&#x44f;" horiz-adv-x="656" 
d="M69 321q0 79 22 179h522q14 -106 14 -230.5t-29 -269.5h-218q6 70 6 121.5t-1 68.5q-85 -36 -106 -190h-258q8 113 41 197q118 5 207 28q-116 24 -200 67v29zM364 433q-53 -68 -71 -134q34 -31 89 -39q-6 85 -18 173z" />
    <glyph glyph-name="uni0451" unicode="&#x451;" horiz-adv-x="643" 
d="M395 299l92 -6q13 0 20 1l-46 -88h-9q-19 0 -53 10.5t-48 10.5q-40 0 -63 -53q-5 -50 -6 -97q45 -11 87 -11t67 19.5t36 67.5l117 -4q-16 -93 -39 -149h-477q-19 128 -19 263.5t13 236.5h521q-17 -103 -31 -152q-58 -3 -105 -4q8 23 8 43q0 47 -71 47h-9q-19 0 -49 -5
q-21 -87 -32 -167q39 37 96 37zM278 576l-40 -1q-20 0 -58 2q25 59 30 101q53 -5 102 -6q-12 -54 -34 -96zM457 576l-41 -1q-19 0 -57 2q24 61 30 101q52 -5 102 -6q-14 -56 -34 -96z" />
    <glyph glyph-name="uni0452" unicode="&#x452;" horiz-adv-x="774" 
d="M757 208l1 -43q0 -144 -31 -234q-85 -59 -191 -99q-79 18 -147 44q0 48 5 110q62 -56 118 -84q25 91 25 216q0 38 -3 79q-43 23 -79 26q-2 -52 -2 -104t7 -119h-218q-34 160 -34 341q0 31 2 93q-84 -23 -103 -114q-80 5 -99 7l36 173h664q-19 -107 -45 -180q-54 3 -102 7
q4 16 4 32q0 38 -24 56.5t-63 18.5q-12 -69 -18 -141q92 -11 160 -30t137 -55z" />
    <glyph glyph-name="uni0453" unicode="&#x453;" horiz-adv-x="603" 
d="M306 680l111 -14q-14 -27 -39.5 -50t-48.5 -36t-60 -30h-66q72 47 103 130zM468 387q0 48 -72 48q-27 0 -60 -6q-50 -205 -50 -364q0 -44 2 -65h-217q-20 135 -20 268.5t14 231.5h535q-17 -98 -32 -152q-51 -1 -108 -4q8 23 8 43z" />
    <glyph glyph-name="uni0454" unicode="&#x454;" horiz-adv-x="617" 
d="M461 241l-90 9q-47 0 -74 -51q31 -75 118 -126q89 58 165 152q4 -55 6 -122q-48 -38 -86.5 -61t-108 -43.5t-149.5 -20.5h-23q-90 39 -141.5 115t-51.5 160q0 112 92.5 191t267.5 79q92 0 205 -25q-18 -71 -40 -120q-60 -4 -130 -6q10 28 17 66q-35 6 -68.5 6t-77.5 -11
q-16 -67 -16 -105t3 -59q25 38 56 51t73 13l87 -3q19 0 28 1l-49 -89z" />
    <glyph glyph-name="uni0455" unicode="&#x455;" horiz-adv-x="635" 
d="M423 440q-40 6 -85.5 6t-88.5 -6q27 -46 64 -75t93.5 -57.5t92 -52.5t78.5 -79t54 -115q-48 -62 -127 -109.5t-162 -63.5q-56 5 -141.5 31.5t-128.5 26.5t-86 -27q18 51 59 128h8q64 0 120.5 -20t103 -40t75 -20t41.5 4q0 66 -41 109q-22 23 -37.5 35.5t-47.5 34.5
l-17 12q-68 47 -112 95.5t-64 119.5q32 71 63 123q95 23 197 23h44q86 0 197 -24q-16 -66 -39 -119q-84 -6 -130 -6q9 23 17 66z" />
    <glyph glyph-name="uni0456" unicode="&#x456;" horiz-adv-x="396" 
d="M341 500v-27q0 -264 -33 -473h-240q19 92 19 212.5t-16 287.5h270z" />
    <glyph glyph-name="uni0457" unicode="&#x457;" horiz-adv-x="396" 
d="M332 398q0 -209 -34 -398h-227q14 107 14 235.5t-19 264.5h264q2 -68 2 -102zM71 678q53 -5 104 -6q-12 -53 -35 -97q-67 0 -100 1q25 60 31 102zM254 678q53 -5 105 -6q-13 -54 -35 -97q-67 0 -101 1q25 60 31 102z" />
    <glyph glyph-name="uni0458" unicode="&#x458;" horiz-adv-x="531" 
d="M192 -45q7 78 7 215.5t-23 329.5h270q2 -38 2 -117q0 -212 -28 -383q-39 -37 -72 -54.5t-45 -24t-43 -20t-37 -16.5q-128 10 -218 45q2 66 6 122q93 -67 181 -97z" />
    <glyph glyph-name="uni0459" unicode="&#x459;" horiz-adv-x="964" 
d="M383 242q0 23 2 67q-60 -38 -88 -103t-28 -138q0 -36 6 -68h-260q12 143 44 244q209 59 337 176q5 38 16 80h247q-16 -93 -21 -170q176 -20 310 -88q-3 -139 -31 -242h-510q-24 100 -24 242zM636 261q0 -105 25 -194q53 66 65 167q-42 23 -90 27z" />
    <glyph glyph-name="uni045A" unicode="&#x45a;" horiz-adv-x="990" 
d="M674 500q2 -12 2 -85t-2 -85q176 -20 308 -88q-8 -140 -72 -241h-510q18 131 21 254q-52 32 -116 39q-6 -147 -32 -293h-227q14 97 14 228.5t-18 270.5h263q2 -60 2 -89v-32q68 -23 115 -49q0 92 -7 170h259zM671 261q-8 -103 -22 -194q41 28 73 74t38 94q-44 22 -89 26z
" />
    <glyph glyph-name="uni045B" unicode="&#x45b;" horiz-adv-x="838" 
d="M703 254q32 0 49 1q54 -113 67 -255h-255q0 154 -40 190q-19 17 -59 26q-1 -22 -1 -84t7 -132h-218q-34 160 -34 342q0 31 2 93q-86 -25 -103 -115l-99 6l35 174h665q-17 -100 -45 -180l-102 6q4 16 4 32q0 39 -24 58t-63 19q-12 -71 -18 -143q109 -38 232 -38z" />
    <glyph glyph-name="uni045C" unicode="&#x45c;" horiz-adv-x="707" 
d="M570 507h33q64 0 95 15q-44 -65 -85 -113h-16q-51 0 -99 16q-68 -56 -109 -149q106 -27 236 -32q30 -76 41 -244h-259q-17 74 -51.5 136.5t-71.5 85.5q-7 -82 -7 -132t3 -90h-220q-19 147 -19 248.5t15 251.5h278q-30 -124 -41 -208q45 74 94.5 124.5t117.5 85.5
q26 5 65 5zM354 680l111 -14q-14 -27 -39.5 -50t-48.5 -36t-60 -30h-66q72 47 103 130z" />
    <glyph glyph-name="uni045E" unicode="&#x45e;" horiz-adv-x="732" 
d="M362 615q35 -22 82.5 -22t85.5 33q2 0 -9 -19.5t-37 -40.5q-33 -28 -87.5 -28t-104.5 31l-14 8q5 30 18.5 66.5t14.5 36.5zM704 481q-34 -8 -57 -8t-44 3q-31 -37 -56 -99t-37.5 -111t-27.5 -120q-76 -362 -152 -514q-50 -15 -124 -29q100 171 162 397h-207
q-79 256 -82 500h292q-21 -93 -21 -197.5t34 -238.5q7 27 24 94.5t25 96.5t24.5 82t30 79.5t33.5 59.5q36 59 95 80q17 5 69 10.5t75 20.5q-27 -62 -56 -106z" />
    <glyph glyph-name="uni045F" unicode="&#x45f;" horiz-adv-x="652" 
d="M610 500q4 -64 4 -181.5t-15 -255.5q-92 -57 -219 -63q-4 -39 -16 -95q-6 -1 -34.5 -1t-46.5 7q9 40 11 91q-138 9 -233 61q-12 108 -12 201.5t14 235.5h258q-40 -214 -40 -401q43 -36 116.5 -36t115.5 27q2 56 2 83q0 154 -27 327h122z" />
    <glyph glyph-name="uni0490" unicode="&#x490;" horiz-adv-x="595" 
d="M402 500q79 0 99 87q52 -1 108 -4q-15 -88 -40 -148h-183q-31 0 -60 -5q-50 -214 -50 -367q0 -42 2 -63h-217q-20 135 -20 268.5t14 231.5h347z" />
    <glyph glyph-name="uni0491" unicode="&#x491;" horiz-adv-x="595" 
d="M402 500q79 0 99 87q52 -1 108 -4q-15 -88 -40 -148h-183q-31 0 -60 -5q-50 -214 -50 -367q0 -42 2 -63h-217q-20 135 -20 268.5t14 231.5h347z" />
    <glyph glyph-name="uni1E02" unicode="&#x1e02;" horiz-adv-x="695" 
d="M322 65q68 0 111 11q-18 111 -102 165q-9 -89 -9 -176zM70 300q0 105 19 200h555q-45 -140 -172 -203q115 -41 184 -114q-9 -93 -43 -183h-503q-40 139 -40 300zM339 310q49 13 91 45t60 79q-80 0 -130 -5q-12 -58 -21 -119zM379 576l-40 -1q-20 0 -58 2q25 59 30 101
q53 -5 102 -6q-12 -54 -34 -96z" />
    <glyph glyph-name="uni1E03" unicode="&#x1e03;" horiz-adv-x="695" 
d="M322 65q68 0 111 11q-18 111 -102 165q-9 -89 -9 -176zM70 300q0 105 19 200h555q-45 -140 -172 -203q115 -41 184 -114q-9 -93 -43 -183h-503q-40 139 -40 300zM339 310q49 13 91 45t60 79q-80 0 -130 -5q-12 -58 -21 -119zM379 576l-40 -1q-20 0 -58 2q25 59 30 101
q53 -5 102 -6q-12 -54 -34 -96z" />
    <glyph glyph-name="uni1E0A" unicode="&#x1e0a;" horiz-adv-x="718" 
d="M315 523q193 0 314 -48q43 -86 43 -174q0 -113 -77 -196q-112 -119 -303 -119q-66 0 -179 15q-39 201 -39 371q0 59 6 128q161 23 235 23zM345 448q-18 -188 -18 -269.5t3 -132.5q54 29 84.5 97.5t30.5 139t-25.5 115.5t-74.5 50zM391 576l-40 -1q-20 0 -58 2
q25 59 30 101q53 -5 102 -6q-12 -54 -34 -96z" />
    <glyph glyph-name="uni1E0B" unicode="&#x1e0b;" horiz-adv-x="718" 
d="M315 523q193 0 314 -48q43 -86 43 -174q0 -113 -77 -196q-112 -119 -303 -119q-66 0 -179 15q-39 201 -39 371q0 59 6 128q161 23 235 23zM345 448q-18 -188 -18 -269.5t3 -132.5q54 29 84.5 97.5t30.5 139t-25.5 115.5t-74.5 50zM391 576l-40 -1q-20 0 -58 2
q25 59 30 101q53 -5 102 -6q-12 -54 -34 -96z" />
    <glyph glyph-name="uni1E1E" unicode="&#x1e1e;" horiz-adv-x="619" 
d="M413 284l95 -6q13 0 20 1l-47 -88h-9q-19 0 -54 10.5t-50 10.5q-39 0 -63 -51q-5 -57 -5 -90t2 -71h-217q-19 128 -19 264.5t14 234.5h534q-18 -108 -32 -151l-108 -5q9 25 9 43q0 48 -73 48q-32 0 -59 -5q-22 -89 -36 -182q40 37 98 37zM341 576l-40 -1q-20 0 -58 2
q25 59 30 101q53 -5 102 -6q-12 -54 -34 -96z" />
    <glyph glyph-name="uni1E1F" unicode="&#x1e1f;" horiz-adv-x="619" 
d="M413 284l95 -6q13 0 20 1l-47 -88h-9q-19 0 -54 10.5t-50 10.5q-39 0 -63 -51q-5 -57 -5 -90t2 -71h-217q-19 128 -19 264.5t14 234.5h534q-18 -108 -32 -151l-108 -5q9 25 9 43q0 48 -73 48q-32 0 -59 -5q-22 -89 -36 -182q40 37 98 37zM341 576l-40 -1q-20 0 -58 2
q25 59 30 101q53 -5 102 -6q-12 -54 -34 -96z" />
    <glyph glyph-name="uni1E40" unicode="&#x1e40;" horiz-adv-x="1052" 
d="M657 454q0 27 -8 46h285q36 -96 53.5 -235t18.5 -265h-231q-7 180 -59 347q-87 -170 -94 -347h-196q-26 196 -100 348q-54 -127 -54 -236q0 -59 14 -112h-243q-7 41 -7 108.5t20 135.5q71 21 136.5 69t96.5 105q-26 43 -55 82h316q38 -103 57 -224q50 93 50 178zM558 576
l-40 -1q-20 0 -58 2q25 59 30 101q53 -5 102 -6q-12 -54 -34 -96z" />
    <glyph glyph-name="uni1E41" unicode="&#x1e41;" horiz-adv-x="1052" 
d="M657 454q0 27 -8 46h285q36 -96 53.5 -235t18.5 -265h-231q-7 180 -59 347q-87 -170 -94 -347h-196q-26 196 -100 348q-54 -127 -54 -236q0 -59 14 -112h-243q-7 41 -7 108.5t20 135.5q71 21 136.5 69t96.5 105q-26 43 -55 82h316q38 -103 57 -224q50 93 50 178zM558 576
l-40 -1q-20 0 -58 2q25 59 30 101q53 -5 102 -6q-12 -54 -34 -96z" />
    <glyph glyph-name="uni1E56" unicode="&#x1e56;" horiz-adv-x="665" 
d="M294 125q0 -57 5 -125h-220q-41 159 -41 338q0 91 11 162h542q29 -113 32 -269q-148 -66 -329 -86v-20zM295 214q64 8 107 32q-16 106 -86 188q-16 -99 -21 -220zM364 576l-40 -1q-20 0 -58 2q25 59 30 101q53 -5 102 -6q-12 -54 -34 -96z" />
    <glyph glyph-name="uni1E57" unicode="&#x1e57;" horiz-adv-x="665" 
d="M294 125q0 -57 5 -125h-220q-41 159 -41 338q0 91 11 162h542q29 -113 32 -269q-148 -66 -329 -86v-20zM295 214q64 8 107 32q-16 106 -86 188q-16 -99 -21 -220zM364 576l-40 -1q-20 0 -58 2q25 59 30 101q53 -5 102 -6q-12 -54 -34 -96z" />
    <glyph glyph-name="uni1E60" unicode="&#x1e60;" horiz-adv-x="635" 
d="M423 440q-40 6 -85.5 6t-88.5 -6q27 -46 64 -75t93.5 -57.5t92 -52.5t78.5 -79t54 -115q-48 -62 -127 -109.5t-162 -63.5q-56 5 -141.5 31.5t-128.5 26.5t-86 -27q18 51 59 128h8q64 0 120.5 -20t103 -40t75 -20t41.5 4q0 66 -41 109q-22 23 -37.5 35.5t-47.5 34.5
l-17 12q-68 47 -112 95.5t-64 119.5q32 71 63 123q95 23 197 23h44q86 0 197 -24q-16 -66 -39 -119q-84 -6 -130 -6q9 23 17 66zM349 576l-40 -1q-20 0 -58 2q25 59 30 101q53 -5 102 -6q-12 -54 -34 -96z" />
    <glyph glyph-name="uni1E61" unicode="&#x1e61;" horiz-adv-x="635" 
d="M423 440q-40 6 -85.5 6t-88.5 -6q27 -46 64 -75t93.5 -57.5t92 -52.5t78.5 -79t54 -115q-48 -62 -127 -109.5t-162 -63.5q-56 5 -141.5 31.5t-128.5 26.5t-86 -27q18 51 59 128h8q64 0 120.5 -20t103 -40t75 -20t41.5 4q0 66 -41 109q-22 23 -37.5 35.5t-47.5 34.5
l-17 12q-68 47 -112 95.5t-64 119.5q32 71 63 123q95 23 197 23h44q86 0 197 -24q-16 -66 -39 -119q-84 -6 -130 -6q9 23 17 66zM349 576l-40 -1q-20 0 -58 2q25 59 30 101q53 -5 102 -6q-12 -54 -34 -96z" />
    <glyph glyph-name="uni1E6A" unicode="&#x1e6a;" horiz-adv-x="705" 
d="M472 435q-26 -158 -26 -258t8 -177h-218q-34 159 -34 342q0 31 2 93q-85 -25 -104 -115l-99 6l36 174h665q-20 -110 -46 -180l-101 6q4 16 4 32q0 39 -24 58t-63 19zM384 576l-40 -1q-20 0 -58 2q25 59 30 101q53 -5 102 -6q-12 -54 -34 -96z" />
    <glyph glyph-name="uni1E6B" unicode="&#x1e6b;" horiz-adv-x="705" 
d="M472 435q-26 -158 -26 -258t8 -177h-218q-34 159 -34 342q0 31 2 93q-85 -25 -104 -115l-99 6l36 174h665q-20 -110 -46 -180l-101 6q4 16 4 32q0 39 -24 58t-63 19zM384 576l-40 -1q-20 0 -58 2q25 59 30 101q53 -5 102 -6q-12 -54 -34 -96z" />
    <glyph glyph-name="Wgrave" unicode="&#x1e80;" horiz-adv-x="1040" 
d="M419 354q0 67 -17 146h238q16 -198 94 -357q51 94 51 203q0 78 -24 154h268q1 -15 1 -44q0 -128 -34 -212q-89 -26 -148 -69t-59 -88.5t41 -86.5h-252q-62 92 -105 213q-33 -75 -33 -126.5t29 -86.5h-251q-77 102 -131 236t-73 264h266q17 -215 88 -357q51 87 51 211z
M524 680q31 -83 103 -130h-66q-37 17 -60 30t-48.5 36t-39.5 50z" />
    <glyph glyph-name="wgrave" unicode="&#x1e81;" horiz-adv-x="1040" 
d="M419 354q0 67 -17 146h238q16 -198 94 -357q51 94 51 203q0 78 -24 154h268q1 -15 1 -44q0 -128 -34 -212q-89 -26 -148 -69t-59 -88.5t41 -86.5h-252q-62 92 -105 213q-33 -75 -33 -126.5t29 -86.5h-251q-77 102 -131 236t-73 264h266q17 -215 88 -357q51 87 51 211z
M524 680q31 -83 103 -130h-66q-37 17 -60 30t-48.5 36t-39.5 50z" />
    <glyph glyph-name="Wacute" unicode="&#x1e82;" horiz-adv-x="1040" 
d="M785 346q0 78 -24 154h268q1 -15 1 -44q0 -128 -34 -212q-89 -26 -148 -69t-59 -88.5t41 -86.5h-252q-62 92 -105 213q-33 -75 -33 -126.5t29 -86.5h-251q-77 102 -131 236t-73 264h266q17 -215 88 -357q51 87 51 211q0 67 -17 146h238q16 -198 94 -357q51 94 51 203z
M516 680l111 -14q-14 -27 -39.5 -50t-48.5 -36t-60 -30h-66q72 47 103 130z" />
    <glyph glyph-name="wacute" unicode="&#x1e83;" horiz-adv-x="1040" 
d="M785 346q0 78 -24 154h268q1 -15 1 -44q0 -128 -34 -212q-89 -26 -148 -69t-59 -88.5t41 -86.5h-252q-62 92 -105 213q-33 -75 -33 -126.5t29 -86.5h-251q-77 102 -131 236t-73 264h266q17 -215 88 -357q51 87 51 211q0 67 -17 146h238q16 -198 94 -357q51 94 51 203z
M516 680l111 -14q-14 -27 -39.5 -50t-48.5 -36t-60 -30h-66q72 47 103 130z" />
    <glyph glyph-name="Wdieresis" unicode="&#x1e84;" horiz-adv-x="1040" 
d="M785 346q0 78 -24 154h268q1 -15 1 -44q0 -128 -34 -212q-89 -26 -148 -69t-59 -88.5t41 -86.5h-252q-62 92 -105 213q-33 -75 -33 -126.5t29 -86.5h-251q-77 102 -131 236t-73 264h266q17 -215 88 -357q51 87 51 211q0 67 -17 146h238q16 -198 94 -357q51 94 51 203z
M462 576l-40 -1q-20 0 -58 2q25 59 30 101q53 -5 102 -6q-12 -54 -34 -96zM641 576l-41 -1q-19 0 -57 2q24 61 30 101q52 -5 102 -6q-14 -56 -34 -96z" />
    <glyph glyph-name="wdieresis" unicode="&#x1e85;" horiz-adv-x="1040" 
d="M785 346q0 78 -24 154h268q1 -15 1 -44q0 -128 -34 -212q-89 -26 -148 -69t-59 -88.5t41 -86.5h-252q-62 92 -105 213q-33 -75 -33 -126.5t29 -86.5h-251q-77 102 -131 236t-73 264h266q17 -215 88 -357q51 87 51 211q0 67 -17 146h238q16 -198 94 -357q51 94 51 203z
M462 576l-40 -1q-20 0 -58 2q25 59 30 101q53 -5 102 -6q-12 -54 -34 -96zM641 576l-41 -1q-19 0 -57 2q24 61 30 101q52 -5 102 -6q-14 -56 -34 -96z" />
    <glyph glyph-name="Ygrave" unicode="&#x1ef2;" horiz-adv-x="732" 
d="M384 64q7 27 24 94.5t25 96.5t24.5 82t30 79.5t33.5 59.5t43.5 51.5t46 26t74.5 13t75 20.5q-27 -62 -56 -106q-34 -8 -57 -8t-44 3q-31 -37 -56 -99t-37.5 -111t-27.5 -120q-76 -362 -152 -514q-50 -15 -124 -29q100 171 162 397h-207q-79 256 -82 500h292
q-21 -93 -21 -197.5t34 -238.5zM370 680q31 -83 103 -130h-66q-37 17 -60 30t-48.5 36t-39.5 50z" />
    <glyph glyph-name="ygrave" unicode="&#x1ef3;" horiz-adv-x="732" 
d="M384 64q7 27 24 94.5t25 96.5t24.5 82t30 79.5t33.5 59.5t43.5 51.5t46 26t74.5 13t75 20.5q-27 -62 -56 -106q-34 -8 -57 -8t-44 3q-31 -37 -56 -99t-37.5 -111t-27.5 -120q-76 -362 -152 -514q-50 -15 -124 -29q100 171 162 397h-207q-79 256 -82 500h292
q-21 -93 -21 -197.5t34 -238.5zM370 680q31 -83 103 -130h-66q-37 17 -60 30t-48.5 36t-39.5 50z" />
    <glyph glyph-name="endash" unicode="&#x2013;" horiz-adv-x="377" 
d="M50 223q77 -5 138.5 -5t138.5 5v-67q-69 6 -138.5 6t-138.5 -6v67z" />
    <glyph glyph-name="emdash" unicode="&#x2014;" horiz-adv-x="597" 
d="M50 223q138 -5 248.5 -5t248.5 5v-67q-143 7 -247.5 7t-249.5 -7v67z" />
    <glyph glyph-name="quoteleft" unicode="&#x2018;" horiz-adv-x="192" 
d="M35 431h-32q16 100 68 176q16 -2 46 -8q-22 -40 -22 -72q61 0 94 -6q-20 -43 -22 -100q-56 10 -132 10z" />
    <glyph glyph-name="quoteright" unicode="&#x2019;" horiz-adv-x="193" 
d="M25 599q62 -11 165 -11q-19 -101 -69 -175q-30 4 -46 8q21 39 23 72q-62 0 -95 6q20 45 22 100z" />
    <glyph glyph-name="quotesinglbase" unicode="&#x201a;" horiz-adv-x="215" 
d="M112 -6q-63 0 -96 6q20 45 22 102q62 -11 168 -11q-18 -99 -70 -179q-25 3 -47 9q23 39 23 73z" />
    <glyph glyph-name="quotedblleft" unicode="&#x201c;" horiz-adv-x="399" 
d="M35 434h-32q16 100 68 176q16 -2 46 -8q-22 -40 -22 -72q61 0 94 -6q-20 -43 -22 -100q-56 10 -132 10zM242 434h-32q16 100 68 176q16 -2 46 -8q-22 -40 -22 -72q61 0 94 -6q-20 -43 -22 -100q-56 10 -132 10z" />
    <glyph glyph-name="quotedblright" unicode="&#x201d;" horiz-adv-x="402" 
d="M25 599q62 -11 165 -11q-19 -101 -69 -175q-30 4 -46 8q21 39 23 72q-62 0 -95 6q20 45 22 100zM234 599q62 -11 165 -11q-19 -101 -69 -175q-30 4 -46 8q21 39 23 72q-62 0 -95 6q20 45 22 100z" />
    <glyph glyph-name="quotedblbase" unicode="&#x201e;" horiz-adv-x="443" 
d="M112 -6q-63 0 -96 6q20 45 22 102q62 -11 168 -11q-18 -99 -70 -179q-25 3 -47 9q23 39 23 73zM336 -6q-63 0 -96 6q20 45 22 102q62 -11 168 -11q-18 -99 -70 -179q-25 3 -47 9q23 39 23 73z" />
    <glyph glyph-name="dagger" unicode="&#x2020;" horiz-adv-x="418" 
d="M232 360q-1 -39 -1 -173t7 -301h-67q4 158 4 474q-78 -2 -156 -6v67q87 -5 155 -5l-3 189h67q-4 -126 -5 -189q104 2 156 5v-67q-78 5 -157 6z" />
    <glyph glyph-name="daggerdbl" unicode="&#x2021;" horiz-adv-x="403" 
d="M171 243l-1 117q-78 -2 -156 -6v67q87 -5 155 -5l-3 189h67q-4 -126 -5 -189q104 2 156 5v-67q-78 5 -157 6q-1 -39 -1 -117t1 -117q70 0 157 5v-68q-69 5 -156 7q1 -59 5 -184h-67q1 62 3 184q-86 -2 -155 -7v68q87 -5 156 -5z" />
    <glyph glyph-name="bullet" unicode="&#x2022;" horiz-adv-x="178" 
d="M30.5 318q25.5 25 61 25t60.5 -25t25 -60.5t-25 -61t-60.5 -25.5t-61 25.5t-25.5 61t25.5 60.5z" />
    <glyph glyph-name="ellipsis" unicode="&#x2026;" horiz-adv-x="657" 
d="M173 -5q-11 -1 -63.5 -1t-91.5 6q20 46 22 102q57 -10 168 -10q-14 -56 -35 -97zM392 -5q-11 -1 -63.5 -1t-91.5 6q20 46 22 102q57 -10 168 -10q-14 -56 -35 -97zM611 -5q-11 -1 -63.5 -1t-91.5 6q20 46 22 102q57 -10 168 -10q-14 -56 -35 -97z" />
    <glyph glyph-name="perthousand" unicode="&#x2030;" horiz-adv-x="839" 
d="M372 204q-7 -28 -7 -60.5t14.5 -71t37.5 -53.5q11 25 11 60.5t-15 71.5t-41 53zM124 -36l-40 23q159 263 319 552l40 -23q-173 -282 -319 -552zM115 476q-7 -28 -7 -61t14.5 -71.5t37.5 -53.5q11 25 11 60.5t-15 71.5t-41 54zM45 268q-41 56 -41 113.5t47 97t121 39.5
q33 0 69 -9q34 -44 34 -101.5t-48 -104t-118 -46.5q-29 0 -64 11zM303 -4q-41 54 -41 112.5t47.5 98.5t121.5 40q32 0 68 -9q34 -46 34 -102t-49 -103t-119 -47q-32 0 -62 10zM672 204q-7 -28 -7 -60.5t14.5 -71t37.5 -53.5q11 25 11 60.5t-15 71.5t-41 53zM603 -4
q-41 54 -41 112.5t47.5 98.5t121.5 40q32 0 68 -9q34 -46 34 -102t-49 -103t-119 -47q-32 0 -62 10z" />
    <glyph glyph-name="guilsinglleft" unicode="&#x2039;" horiz-adv-x="198" 
d="M113 23l-109 221l109 221h82l-76 -221l76 -221h-82z" />
    <glyph glyph-name="guilsinglright" unicode="&#x203a;" horiz-adv-x="198" 
d="M195 244l-109 -221h-82l76 221l-76 221h82z" />
    <glyph glyph-name="uni203E" unicode="&#x203e;" horiz-adv-x="377" 
d="M50 499q77 -5 138.5 -5t138.5 5v-67q-69 6 -138.5 6t-138.5 -6v67z" />
    <glyph glyph-name="Euro" unicode="&#x20ac;" horiz-adv-x="650" 
d="M25 334q43 0 63 -2q29 85 117 138t232 53q96 0 203 -24q-17 -71 -40 -121q-53 -5 -130 -7q10 32 17 68q-37 5 -71 5t-75 -10q-12 -57 -15 -103q94 0 187 3l-17 -55q-115 4 -169 5q1 -27 9 -53q80 0 143 3l-18 -54q-105 3 -107 3q32 -63 110 -111q90 58 166 153
q5 -58 6 -123q-77 -60 -158 -92t-209 -32q-71 30 -118.5 84.5t-65.5 120.5q-26 -1 -80 -3l20 54l52 -2l-1 22q0 8 2 28q-37 0 -73 -3z" />
    <glyph glyph-name="uni2116" unicode="&#x2116;" horiz-adv-x="1007" 
d="M652 500q6 -104 6 -225.5t-11 -273.5h-95q-192 103 -355 283q7 -74 7 -149.5t-5 -133.5h-116q20 125 20 229t-10 164q-37 53 -63 106h283q42 -72 114.5 -148t137.5 -120v17q0 134 -33 251h120zM699 228q75 -5 136 -5t141 5v-67q-72 6 -141 6t-136 -6v67zM743 267
q-41 56 -41 113.5t47 97t121 39.5q33 0 69 -9q34 -46 34 -102t-48.5 -103t-118.5 -47q-28 0 -63 11zM813 475q-7 -22 -7 -58.5t14.5 -74.5t37.5 -53q11 25 11 60.5t-15 71.5t-41 54z" />
    <glyph glyph-name="trademark" unicode="&#x2122;" horiz-adv-x="877" 
d="M356 410l-51 4q2 12 2 17q0 37 -43 37q-12 -74 -12 -127.5t3 -89.5h-109q-17 81 -17 141.5t1 75.5q-41 -12 -51 -58h-10q-30 2 -40 4l18 86h332q-10 -53 -23 -90zM351 373q35 10 67.5 34t48.5 52q-13 23 -27 41h158q19 -52 28 -111q25 45 25 88q0 15 -4 23h143
q34 -93 36 -249h-116q-3 86 -29 173q-44 -85 -48 -173h-98q-12 97 -49 174q-27 -64 -27 -105.5t7 -68.5h-121q-4 21 -4 55t10 67z" />
    <glyph glyph-name="minus" unicode="&#x2212;" horiz-adv-x="377" 
d="M50 289q77 -5 138.5 -5t138.5 5v-67q-69 6 -138.5 6t-138.5 -6v67z" />
    </font>
</defs>
</svg>
