<?xml version="1.0" standalone="no"?>
<!DOCTYPE svg PUBLIC "-//W3C//DTD SVG 1.1//EN" "http://www.w3.org/Graphics/SVG/1.1/DTD/svg11.dtd" >
<svg xmlns="http://www.w3.org/2000/svg" xmlns:xlink="http://www.w3.org/1999/xlink" version="1.1">
<metadata>
Created by FontForge 20201107 at Wed Dec  8 19:05:24 2021
 By Jimmy Wärting
Copyright 2015 The Alumni Sans Project Authors (https://github.com/googlefonts/alumni)
</metadata>
<defs>
<font id="AlumniSans-Black" horiz-adv-x="0" >
  <font-face 
    font-family="Alumni Sans Black"
    font-weight="900"
    font-stretch="normal"
    units-per-em="1000"
    panose-1="0 0 0 0 0 0 0 0 0 0"
    ascent="800"
    descent="-200"
    x-height="495"
    cap-height="591"
    bbox="-115 -302 1009 899"
    underline-thickness="50"
    underline-position="-125"
    unicode-range="U+000D-FB02"
  />
<missing-glyph horiz-adv-x="437" 
d="M58 0l-8 9v611l8 10h320l9 -9v-613l-9 -8h-320zM50 9l301 612h36l-301 -612h-36zM351 9l-301 612h36l301 -612h-36zM124 88h189v453h-189v-453z" />
    <glyph glyph-name="f_f" unicode="ff" horiz-adv-x="481" 
d="M37 0v389h-32v87h32v36q0 59 38.5 88.5t110.5 29.5q53 0 86 -7t50 -13l-28 -61q-10 4 -32 6t-36 2q-18 0 -25.5 -10t-7.5 -29v-42h52v36q0 56 34.5 87t100.5 31q40 0 67 -1.5t34 -3.5v-71q-7 2 -19.5 2.5t-27.5 0.5q-19 0 -26 -10.5t-7 -28.5v-42h80v-87h-80v-389h-156
v389h-52v-389h-156z" />
    <glyph glyph-name="f_f_i" unicode="ffi" horiz-adv-x="642" 
d="M37 0v389h-32v87h32v36q0 52 34 85t113 33q39 0 76 -5t62 -15l-28 -59q-9 3 -27 4.5t-38 1.5q-22 0 -29 -10.5t-7 -33.5v-37h52v36q0 51 23.5 76.5t61.5 33.5t81 8q53 0 89 -6.5t60 -14.5v-70q-21 8 -49 12.5t-56 4.5q-24 0 -35.5 -6.5t-15 -16.5t-3.5 -20v-37h216v-476
h-156v389h-60v-389h-156v389h-52v-389h-156z" />
    <glyph glyph-name="f_f_l" unicode="ffl" horiz-adv-x="667" 
d="M37 -2v391h-32v87h32v36q0 60 39.5 89t100.5 29q49 0 85.5 -7.5t59.5 -12.5l-28 -63q-9 3 -30.5 6.5t-34.5 3.5q-22 0 -29 -10.5t-7 -33.5v-37h52v36q0 52 36 85t125 33q42 0 86 -3t83.5 -7.5t66.5 -10.5v-611h-156v588l42 -38q-20 5 -42 7t-31 2q-34 0 -44 -11.5
t-10 -32.5v-39h60v-87h-60v-389h-156v391h-52v-391h-156z" />
    <glyph glyph-name="fi" unicode="fi" horiz-adv-x="434" 
d="M37 0v389h-32v87h32v36q0 68 45 93t131 25q57 0 96 -6.5t63 -14.5l-10 -70q-19 8 -46.5 12.5t-58.5 4.5t-47.5 -11.5t-16.5 -31.5v-37h216v-476h-156v389h-60v-389h-156z" />
    <glyph glyph-name="fl" unicode="fl" horiz-adv-x="459" 
d="M37 0v389h-32v87h32v36q0 65 38 91.5t136 26.5q35 0 76.5 -3t80.5 -7.5t66 -10.5v-609h-156v586l42 -38q-20 5 -42 7t-31 2q-34 0 -44 -11.5t-10 -32.5v-37h60v-87h-60v-389h-156z" />
    <glyph glyph-name=".notdef" horiz-adv-x="437" 
d="M58 0l-8 9v611l8 10h320l9 -9v-613l-9 -8h-320zM50 9l301 612h36l-301 -612h-36zM351 9l-301 612h36l301 -612h-36zM124 88h189v453h-189v-453z" />
    <glyph glyph-name="NULL" horiz-adv-x="600" 
 />
    <glyph glyph-name="CR" unicode="&#xd;" horiz-adv-x="600" 
 />
    <glyph glyph-name="space" unicode=" " horiz-adv-x="150" 
 />
    <glyph glyph-name="uni00A0" unicode="&#xa0;" horiz-adv-x="150" 
 />
    <glyph glyph-name="A" unicode="A" horiz-adv-x="409" 
d="M3 0l85 591h235l83 -591h-179l-8 86h-37l-6 -86h-173zM183 163h36l-18 303z" />
    <glyph glyph-name="uni0410" unicode="&#x410;" horiz-adv-x="409" 
d="M3 0l85 591h235l83 -591h-179l-8 86h-37l-6 -86h-173zM183 163h36l-18 303z" />
    <glyph glyph-name="AE" unicode="&#xc6;" horiz-adv-x="567" 
d="M-5 0l157 591h386v-111h-149l2 -115h134v-125h-132l2 -132h155v-108h-331l2 86h-37l-16 -86h-173zM195 163h36l17 278l2 25l-5 -25z" />
    <glyph glyph-name="AEacute" unicode="&#x1fc;" horiz-adv-x="567" 
d="M-5 0l157 591h386v-111h-149l2 -115h134v-125h-132l2 -132h155v-108h-331l2 86h-37l-16 -86h-173zM195 163h36l17 278l2 25l-5 -25zM287 635l77 103h138l-130 -103h-85z" />
    <glyph glyph-name="Aacute" unicode="&#xc1;" horiz-adv-x="409" 
d="M3 0l85 591h235l83 -591h-179l-8 86h-37l-6 -86h-173zM183 163h36l-18 303zM135 635l77 103h138l-130 -103h-85z" />
    <glyph glyph-name="Abreve" unicode="&#x102;" horiz-adv-x="409" 
d="M3 0l85 591h235l83 -591h-179l-8 86h-37l-6 -86h-173zM183 163h36l-18 303zM203 631q-53 0 -79.5 18.5t-35 44t-8.5 45.5h82q0 -18 13 -27t29 -9q17 0 29.5 8.5t13.5 27.5h83q0 -30 -13 -54.5t-40.5 -39t-73.5 -14.5z" />
    <glyph glyph-name="uni1EAE" unicode="&#x1eae;" horiz-adv-x="409" 
d="M3 0l85 591h235l83 -591h-179l-8 86h-37l-6 -86h-173zM183 163h36l-18 303zM204 625q-45 0 -66 15t-27 35t-6 36h80q-2 -7 5.5 -11.5t14.5 -4.5q6 0 13.5 4t6.5 12h81q1 -39 -23 -62.5t-79 -23.5zM153 734l41 81h133l-86 -81h-88z" />
    <glyph glyph-name="uni1EB6" unicode="&#x1eb6;" horiz-adv-x="409" 
d="M3 0l85 591h235l83 -591h-179l-8 86h-37l-6 -86h-173zM183 163h36l-18 303zM204 -147q-25 0 -42 17t-17 40q0 24 17 41t42 17t43 -17t18 -41q0 -23 -18 -40t-43 -17zM203 631q-53 0 -79.5 18.5t-35 44t-8.5 45.5h82q0 -18 13 -27t29 -9q17 0 29.5 8.5t13.5 27.5h83
q0 -30 -13 -54.5t-40.5 -39t-73.5 -14.5z" />
    <glyph glyph-name="uni1EB0" unicode="&#x1eb0;" horiz-adv-x="409" 
d="M3 0l85 591h235l83 -591h-179l-8 86h-37l-6 -86h-173zM183 163h36l-18 303zM203 625q-45 0 -66 15t-26.5 35t-5.5 36h79q-1 -9 7 -12.5t13 -3.5q7 0 14 4t7 12h80q2 -39 -23 -62.5t-79 -23.5zM179 734l-86 81h133l41 -81h-88z" />
    <glyph glyph-name="uni1EB2" unicode="&#x1eb2;" horiz-adv-x="409" 
d="M3 0l85 591h235l83 -591h-179l-8 86h-37l-6 -86h-173zM183 163h36l-18 303zM204 625q-45 0 -66 15t-27 35t-6 36h80q-2 -7 5.5 -11.5t14.5 -4.5q6 0 13.5 4t6.5 12h81q1 -39 -23 -62.5t-79 -23.5zM163 733v3q0 11 8 17t16 10.5t8 10.5v6q0 7 -1.5 8.5t-3.5 1.5t-4 -3
t-2 -8l-60 8q1 26 17.5 40t54.5 14q44 0 61 -9.5t17 -47.5v-4q0 -16 -7.5 -22t-15 -9t-7.5 -11v-5h-81z" />
    <glyph glyph-name="uni1EB4" unicode="&#x1eb4;" horiz-adv-x="409" 
d="M3 0l85 591h235l83 -591h-179l-8 86h-37l-6 -86h-173zM183 163h36l-18 303zM203 625q-45 0 -66 15t-27 35t-6 36h80q-1 -7 6 -11.5t14 -4.5t14 4t7 12h80q2 -39 -23 -62.5t-79 -23.5zM243 727q-13 0 -25.5 5.5t-25.5 11.5q-10 5 -17 7.5t-18 2.5q-9 0 -13.5 -8.5
t-3.5 -17.5h-38q-1 41 15.5 67t41.5 26q13 0 25.5 -3.5t22.5 -8.5q11 -4 19.5 -8t17.5 -4q12 0 15.5 7t4.5 14h43q1 -31 -10.5 -51.5t-26.5 -30t-27 -9.5z" />
    <glyph glyph-name="uni01CD" unicode="&#x1cd;" horiz-adv-x="409" 
d="M3 0l85 591h235l83 -591h-179l-8 86h-37l-6 -86h-173zM183 163h36l-18 303zM163 632l-101 109h107l37 -33l37 32h105l-102 -108h-83z" />
    <glyph glyph-name="Acircumflex" unicode="&#xc2;" horiz-adv-x="409" 
d="M3 0l85 591h235l83 -591h-179l-8 86h-37l-6 -86h-173zM183 163h36l-18 303zM62 632l101 109h83l102 -108h-105l-37 32l-37 -33h-107z" />
    <glyph glyph-name="uni1EA4" unicode="&#x1ea4;" horiz-adv-x="409" 
d="M3 0l85 591h235l83 -591h-179l-8 86h-37l-6 -86h-173zM183 163h36l-18 303zM91 625l74 93h79l75 -93h-87l-26 32l-26 -32h-89zM318 690l41 81h133l-86 -81h-88z" />
    <glyph glyph-name="uni1EAC" unicode="&#x1eac;" horiz-adv-x="409" 
d="M3 0l85 591h235l83 -591h-179l-8 86h-37l-6 -86h-173zM183 163h36l-18 303zM204 -147q-25 0 -42 17t-17 40q0 24 17 41t42 17t43 -17t18 -41q0 -23 -18 -40t-43 -17zM62 632l101 109h83l102 -108h-105l-37 32l-37 -33h-107z" />
    <glyph glyph-name="uni1EA6" unicode="&#x1ea6;" horiz-adv-x="409" 
d="M3 0l85 591h235l83 -591h-179l-8 86h-37l-6 -86h-173zM183 163h36l-18 303zM91 625l74 93h79l75 -93h-87l-26 32l-26 -32h-89zM342 688l-86 81h133l41 -81h-88z" />
    <glyph glyph-name="uni1EA8" unicode="&#x1ea8;" horiz-adv-x="409" 
d="M3 0l85 591h235l83 -591h-179l-8 86h-37l-6 -86h-173zM183 163h36l-18 303zM91 625l74 93h79l75 -93h-87l-26 32l-26 -32h-89zM316 682v3q0 11 8 17t16 10.5t8 10.5v6q0 7 -1.5 8.5t-3.5 1.5q-6 0 -6 -11l-60 8q1 26 17.5 40t54.5 14q44 0 61 -9.5t17 -47.5v-4
q0 -16 -7.5 -22t-15 -9t-7.5 -11v-5h-81z" />
    <glyph glyph-name="uni1EAA" unicode="&#x1eaa;" horiz-adv-x="409" 
d="M3 0l85 591h235l83 -591h-179l-8 86h-37l-6 -86h-173zM183 163h36l-18 303zM91 625l74 93h79l75 -93h-87l-26 32l-26 -32h-89zM244 737q-13 0 -26 6t-23 10q-10 5 -19 7.5t-17 2.5q-9 0 -13.5 -8t-4.5 -17h-37q-1 41 15 66.5t42 25.5q13 0 26 -3.5t23 -8.5
q9 -4 17.5 -7.5t17.5 -3.5q13 0 16.5 7t4.5 13h43q1 -30 -10.5 -50t-26.5 -30t-28 -10z" />
    <glyph glyph-name="uni0200" unicode="&#x200;" horiz-adv-x="409" 
d="M3 0l85 591h235l83 -591h-179l-8 86h-37l-6 -86h-173zM183 163h36l-18 303zM291 646h-59l-65 106h116zM178 646h-69l-75 106h116z" />
    <glyph glyph-name="Adieresis" unicode="&#xc4;" horiz-adv-x="409" 
d="M3 0l85 591h235l83 -591h-179l-8 86h-37l-6 -86h-173zM183 163h36l-18 303zM136 630q-26 0 -43 16.5t-17 40.5t17 40t43 16q25 0 41.5 -16t16.5 -40t-16.5 -40.5t-41.5 -16.5zM275 630q-26 0 -43 16.5t-17 40.5t17 40t43 16q25 0 41.5 -16t16.5 -40t-16.5 -40.5
t-41.5 -16.5z" />
    <glyph glyph-name="uni1EA0" unicode="&#x1ea0;" horiz-adv-x="409" 
d="M3 0l85 591h235l83 -591h-179l-8 86h-37l-6 -86h-173zM183 163h36l-18 303zM204 -147q-25 0 -42 17t-17 40q0 24 17 41t42 17t43 -17t18 -41q0 -23 -18 -40t-43 -17z" />
    <glyph glyph-name="Agrave" unicode="&#xc0;" horiz-adv-x="409" 
d="M3 0l85 591h235l83 -591h-179l-8 86h-37l-6 -86h-173zM183 163h36l-18 303zM176 635l-119 98h141l73 -98h-95z" />
    <glyph glyph-name="uni1EA2" unicode="&#x1ea2;" horiz-adv-x="409" 
d="M3 0l85 591h235l83 -591h-179l-8 86h-37l-6 -86h-173zM183 163h36l-18 303zM161 628v9q0 15 10 23t20 14.5t10 17.5v7q0 6 -2 12.5t-9 6.5q-11 0 -11 -20l-67 10q2 32 23 48t62 16q45 0 68 -11.5t23 -58.5v-4q0 -23 -11.5 -31.5t-22.5 -13t-11 -16.5v-9h-82z" />
    <glyph glyph-name="uni0202" unicode="&#x202;" horiz-adv-x="409" 
d="M207 754q54 0 80 -18.5t34.5 -43.5t8.5 -46h-82q0 18 -13 27t-29 9t-29 -8.5t-14 -27.5h-83q0 30 13 54.5t41 39t73 14.5zM3 0l85 591h235l83 -591h-179l-8 86h-37l-6 -86h-173zM183 163h36l-18 303z" />
    <glyph glyph-name="Amacron" unicode="&#x100;" horiz-adv-x="409" 
d="M3 0l85 591h235l83 -591h-179l-8 86h-37l-6 -86h-173zM183 163h36l-18 303zM94 642v77h222v-77h-222z" />
    <glyph glyph-name="Aogonek" unicode="&#x104;" horiz-adv-x="409" 
d="M3 0l85 591h235l83 -591h-179l-8 86h-37l-6 -86h-173zM183 163h36l-18 303zM350 -151q-43 0 -68 21.5t-25 46.5q0 28 24.5 54.5t65.5 30.5l59 -2q-27 -7 -39 -25.5t-12 -35.5q0 -18 12.5 -28t24.5 -10q7 0 11.5 1.5t6.5 1.5l17 -37q-5 -3 -22 -10.5t-55 -7.5z" />
    <glyph glyph-name="Aring" unicode="&#xc5;" horiz-adv-x="409" 
d="M3 0l85 591h235l83 -591h-179l-8 86h-37l-6 -86h-173zM183 163h36l-18 303zM205 600q-40 0 -66.5 25.5t-26.5 61.5q0 38 26.5 63.5t66.5 25.5q38 0 65.5 -26t27.5 -63q0 -36 -27.5 -61.5t-65.5 -25.5zM205 659q13 0 22 8t9 20q0 14 -9 22.5t-22 8.5t-22 -8.5t-9 -22.5
q0 -12 9 -20t22 -8z" />
    <glyph glyph-name="Aringacute" unicode="&#x1fa;" horiz-adv-x="409" 
d="M3 0l85 591h235l83 -591h-179l-8 86h-37l-6 -86h-173zM183 163h36l-18 303zM205 596q-40 0 -66.5 25.5t-26.5 61.5q0 38 26.5 63.5t66.5 25.5q38 0 65.5 -26t27.5 -63q0 -36 -27.5 -61.5t-65.5 -25.5zM205 655q13 0 22 8t9 20q0 14 -9 22.5t-22 8.5t-22 -8.5t-9 -22.5
q0 -12 9 -20t22 -8zM165 796l77 103h138l-130 -103h-85z" />
    <glyph glyph-name="Atilde" unicode="&#xc3;" horiz-adv-x="409" 
d="M3 0l85 591h235l83 -591h-179l-8 86h-37l-6 -86h-173zM183 163h36l-18 303zM249 635q-17 0 -32 7t-29 14q-12 7 -23.5 11.5t-23.5 4.5q-13 0 -20 -10.5t-8 -25.5h-41q0 47 19.5 76t51.5 29q18 0 33 -5.5t28 -12.5q12 -6 23.5 -11t22.5 -5q16 0 22.5 9.5t8.5 21.5h46
q0 -34 -12.5 -57t-30.5 -34.5t-35 -11.5z" />
    <glyph glyph-name="B" unicode="B" horiz-adv-x="401" 
d="M25 0v591h232q62 0 90.5 -28.5t28.5 -72.5v-64q0 -25 -7 -46.5t-23 -36.5q-10 -10 -25 -16.5t-32 -8.5v-2q14 0 27.5 -4t29.5 -15q18 -13 29 -36.5t11 -58.5v-77q0 -47 -17 -74.5t-49 -39t-77 -11.5h-218zM185 81h20q7 0 11 4.5t6.5 16t2.5 32.5v63q0 33 -5 42.5t-16 9.5
h-19v-168zM185 348h16q9 0 16 11.5t7 48.5v53q0 26 -5 36t-16 10h-18v-159z" />
    <glyph glyph-name="uni0411" unicode="&#x411;" horiz-adv-x="391" 
d="M25 0v591h311v-111h-155v-44h79q25 0 50.5 -7.5t43 -31t17.5 -73.5v-163q0 -57 -10.5 -89.5t-29 -47.5t-43 -19.5t-53.5 -4.5h-210zM198 80q6 0 9.5 2.5t5.5 9.5t2 18v201q0 12 -2 18.5t-5.5 9t-9.5 2.5h-17v-261h17z" />
    <glyph glyph-name="C" unicode="C" horiz-adv-x="395" 
d="M202 -12q-54 0 -95 13t-64 53t-23 119v292q0 50 23 79.5t64 42.5t95 13q55 0 94 -13t60 -42.5t21 -79.5v-138h-159v146q0 12 -2 18.5t-5.5 9t-8.5 2.5t-8.5 -2.5t-5.5 -9t-2 -18.5v-363q0 -11 2 -18t5.5 -9.5t8.5 -2.5t8.5 2.5t5.5 9.5t2 18v138h159v-74q0 -80 -21 -120
t-60 -53t-94 -13z" />
    <glyph glyph-name="Cacute" unicode="&#x106;" horiz-adv-x="395" 
d="M202 -12q-54 0 -95 13t-64 53t-23 119v292q0 50 23 79.5t64 42.5t95 13q55 0 94 -13t60 -42.5t21 -79.5v-138h-159v146q0 12 -2 18.5t-5.5 9t-8.5 2.5t-8.5 -2.5t-5.5 -9t-2 -18.5v-363q0 -11 2 -18t5.5 -9.5t8.5 -2.5t8.5 2.5t5.5 9.5t2 18v138h159v-74q0 -80 -21 -120
t-60 -53t-94 -13zM128 635l77 103h138l-130 -103h-85z" />
    <glyph glyph-name="Ccaron" unicode="&#x10c;" horiz-adv-x="395" 
d="M202 -12q-54 0 -95 13t-64 53t-23 119v292q0 50 23 79.5t64 42.5t95 13q55 0 94 -13t60 -42.5t21 -79.5v-138h-159v146q0 12 -2 18.5t-5.5 9t-8.5 2.5t-8.5 -2.5t-5.5 -9t-2 -18.5v-363q0 -11 2 -18t5.5 -9.5t8.5 -2.5t8.5 2.5t5.5 9.5t2 18v138h159v-74q0 -80 -21 -120
t-60 -53t-94 -13zM156 632l-101 109h107l37 -33l37 32h105l-102 -108h-83z" />
    <glyph glyph-name="Ccedilla" unicode="&#xc7;" horiz-adv-x="395" 
d="M202 -12q-54 0 -95 13t-64 53t-23 119v292q0 50 23 79.5t64 42.5t95 13q55 0 94 -13t60 -42.5t21 -79.5v-138h-159v146q0 12 -2 18.5t-5.5 9t-8.5 2.5t-8.5 -2.5t-5.5 -9t-2 -18.5v-363q0 -11 2 -18t5.5 -9.5t8.5 -2.5t8.5 2.5t5.5 9.5t2 18v138h159v-74q0 -80 -21 -120
t-60 -53t-94 -13zM193 -174q-22 0 -41 8.5t-26 12.5l18 47q7 -6 19.5 -10.5t22.5 -4.5q13 0 20 6.5t7 18.5q0 8 -5 12t-12 4q-6 0 -9.5 -2t-5.5 -4l-41 22l31 64h56l-26 -53l-7 4q6 3 16 6.5t24 3.5q30 0 46.5 -19t16.5 -41q0 -30 -27 -52.5t-77 -22.5z" />
    <glyph glyph-name="Ccircumflex" unicode="&#x108;" horiz-adv-x="395" 
d="M202 -12q-54 0 -95 13t-64 53t-23 119v292q0 50 23 79.5t64 42.5t95 13q55 0 94 -13t60 -42.5t21 -79.5v-138h-159v146q0 12 -2 18.5t-5.5 9t-8.5 2.5t-8.5 -2.5t-5.5 -9t-2 -18.5v-363q0 -11 2 -18t5.5 -9.5t8.5 -2.5t8.5 2.5t5.5 9.5t2 18v138h159v-74q0 -80 -21 -120
t-60 -53t-94 -13zM55 632l101 109h83l102 -108h-105l-37 32l-37 -33h-107z" />
    <glyph glyph-name="Cdotaccent" unicode="&#x10a;" horiz-adv-x="395" 
d="M202 -12q-54 0 -95 13t-64 53t-23 119v292q0 50 23 79.5t64 42.5t95 13q55 0 94 -13t60 -42.5t21 -79.5v-138h-159v146q0 12 -2 18.5t-5.5 9t-8.5 2.5t-8.5 -2.5t-5.5 -9t-2 -18.5v-363q0 -11 2 -18t5.5 -9.5t8.5 -2.5t8.5 2.5t5.5 9.5t2 18v138h159v-74q0 -80 -21 -120
t-60 -53t-94 -13zM197 633q-28 0 -48.5 19.5t-20.5 46.5q0 28 20.5 47.5t48.5 19.5q29 0 50 -19.5t21 -46.5q0 -28 -21 -47.5t-50 -19.5z" />
    <glyph glyph-name="uni0427" unicode="&#x427;" horiz-adv-x="394" 
d="M210 0v158q-8 -8 -31.5 -16t-48.5 -8q-44 0 -68 14.5t-33 44t-9 72.5v326h156v-325q0 -14 4.5 -21t12.5 -7q4 0 9 0.5t8 2.5v350h159v-591h-159z" />
    <glyph glyph-name="D" unicode="D" horiz-adv-x="402" 
d="M25 0v591h232q44 0 71.5 -13t40.5 -35.5t13 -52.5v-365q0 -47 -18 -74.5t-51 -39t-80 -11.5h-208zM191 80h15q8 0 12.5 6.5t4.5 23.5v363q0 17 -4.5 23.5t-12.5 6.5h-15v-423z" />
    <glyph glyph-name="uni01C4" unicode="&#x1c4;" horiz-adv-x="710" 
d="M25 0v591h232q44 0 71.5 -13t40.5 -35.5t13 -52.5v-365q0 -47 -18 -74.5t-51 -39t-80 -11.5h-208zM191 80h15q8 0 12.5 6.5t4.5 23.5v363q0 17 -4.5 23.5t-12.5 6.5h-15v-423zM412 0v98l107 382h-97v111h278v-75l-115 -405h115v-111h-288zM523 632l-101 109h107l37 -33
l37 32h105l-102 -108h-83z" />
    <glyph glyph-name="Dcaron" unicode="&#x10e;" horiz-adv-x="402" 
d="M25 0v591h232q44 0 71.5 -13t40.5 -35.5t13 -52.5v-365q0 -47 -18 -74.5t-51 -39t-80 -11.5h-208zM191 80h15q8 0 12.5 6.5t4.5 23.5v363q0 17 -4.5 23.5t-12.5 6.5h-15v-423zM159 632l-101 109h107l37 -33l37 32h105l-102 -108h-83z" />
    <glyph glyph-name="Dcroat" unicode="&#x110;" horiz-adv-x="446" 
d="M47 0v591h254q44 0 71.5 -13t40.5 -35.5t13 -52.5v-365q0 -47 -18 -74.5t-51 -39t-80 -11.5h-230zM7 246v89h229v-89h-229zM213 80h25q17 0 23 6.5t6 23.5v363q0 17 -6 23.5t-23 6.5h-25v-423z" />
    <glyph glyph-name="uni0414" unicode="&#x414;" horiz-adv-x="640" 
d="M20 -119v219h57q17 2 33.5 25.5t20.5 51.5q5 34 11 80t11.5 96.5t9.5 98t6.5 84.5t2.5 55h339v-491h109v-219h-129v87h-342v-87h-129zM260 100h95v380h-35q-7 -71 -13 -143t-13 -143q-3 -29 -11 -57.5t-23 -36.5z" />
    <glyph glyph-name="uni0414.loclBGR" horiz-adv-x="640" 
d="M20 -119v219h57q17 2 33.5 25.5t20.5 51.5q5 34 11 80t11.5 96.5t9.5 98t6.5 84.5t2.5 55h339v-491h109v-219h-129v87h-342v-87h-129zM260 100h95v380h-35q-7 -71 -13 -143t-13 -143q-3 -29 -11 -57.5t-23 -36.5z" />
    <glyph glyph-name="uni0394" unicode="&#x394;" horiz-adv-x="578" 
d="M20 0l191 585h160l187 -585h-538zM201 118h167l-84 282z" />
    <glyph glyph-name="uni0402" unicode="&#x402;" horiz-adv-x="480" 
d="M93 0v480h-85v111h329v-111h-85v-115q9 15 35.5 28t61.5 13q25 0 50.5 -7.5t43 -31t17.5 -73.5v-140q0 -57 -10.5 -88.5t-29 -45.5t-43 -17t-53.5 -3q-14 0 -33 4.5t-28 9.5v68q5 -1 12 -1.5t12 -0.5q8 0 12.5 6.5t4.5 23.5v171q0 17 -5.5 23.5t-20.5 6.5
q-10 0 -15.5 -2.5t-10.5 -7.5v-301h-159z" />
    <glyph glyph-name="uni01C5" unicode="&#x1c5;" horiz-adv-x="710" 
d="M25 0v591h232q44 0 71.5 -13t40.5 -35.5t13 -52.5v-365q0 -47 -18 -74.5t-51 -39t-80 -11.5h-208zM191 80h15q8 0 12.5 6.5t4.5 23.5v363q0 17 -4.5 23.5t-12.5 6.5h-15v-423zM409 0v60l118 336h-103v99h279v-66l-112 -324h112v-105h-294zM514 545l-99 116h102l40 -42
l40 42h100l-100 -116h-83z" />
    <glyph glyph-name="uni0405" unicode="&#x405;" horiz-adv-x="405" 
d="M199 -8q-59 0 -100.5 14.5t-63 53t-21.5 109.5v37h83.5h83.5v-51q0 -27 2.5 -40.5t7 -18t11.5 -4.5q11 0 15.5 10.5t4.5 44.5q0 32 -10 47t-33.5 25t-63.5 27q-37 17 -58 40.5t-29.5 57t-8.5 78.5q0 63 16.5 100.5t56.5 54t110 16.5q90 0 136 -35.5t46 -108.5v-76h-79.5
h-79.5v26q0 41 -2.5 54.5t-18.5 13.5q-13 0 -16.5 -9t-3.5 -31q0 -29 11.5 -44t30.5 -22.5t40 -15.5q44 -16 71.5 -33.5t40.5 -49t13 -91.5q0 -67 -23 -106.5t-66 -56t-103 -16.5z" />
    <glyph glyph-name="uni040F" unicode="&#x40f;" horiz-adv-x="421" 
d="M161 -99v99h-136v591h166v-480h39v480h166v-591h-136v-99h-99z" />
    <glyph glyph-name="E" unicode="E" horiz-adv-x="328" 
d="M25 0v591h286v-111h-120v-115h110v-125h-110v-132h120v-108h-286z" />
    <glyph glyph-name="uni0404" unicode="&#x404;" horiz-adv-x="397" 
d="M202 -12q-54 0 -95 13t-64 53t-23 119v292q0 50 23 79.5t64 42.5t95 13q55 0 94 -13t60 -42.5t21 -79.5v-89h-159v93q0 12 -2 18.5t-5.5 9t-8.5 2.5t-9 -2.5t-5.5 -9t-1.5 -18.5v-134h116v-105h-116v-117q0 -11 1.5 -18t5.5 -9.5t9 -2.5t8.5 2.5t5.5 9.5t2 18v80h159v-19
q0 -80 -21 -120t-60 -53t-94 -13z" />
    <glyph glyph-name="Eacute" unicode="&#xc9;" horiz-adv-x="328" 
d="M25 0v591h286v-111h-120v-115h110v-125h-110v-132h120v-108h-286zM97 635l77 103h138l-130 -103h-85z" />
    <glyph glyph-name="Ebreve" unicode="&#x114;" horiz-adv-x="328" 
d="M25 0v591h286v-111h-120v-115h110v-125h-110v-132h120v-108h-286zM165 631q-53 0 -79.5 18.5t-35 44t-8.5 45.5h82q0 -18 13 -27t29 -9q17 0 29.5 8.5t13.5 27.5h83q0 -30 -13 -54.5t-40.5 -39t-73.5 -14.5z" />
    <glyph glyph-name="Ecaron" unicode="&#x11a;" horiz-adv-x="328" 
d="M25 0v591h286v-111h-120v-115h110v-125h-110v-132h120v-108h-286zM125 632l-101 109h107l37 -33l37 32h105l-102 -108h-83z" />
    <glyph glyph-name="Ecircumflex" unicode="&#xca;" horiz-adv-x="328" 
d="M25 0v591h286v-111h-120v-115h110v-125h-110v-132h120v-108h-286zM24 632l101 109h83l102 -108h-105l-37 32l-37 -33h-107z" />
    <glyph glyph-name="uni1EBE" unicode="&#x1ebe;" horiz-adv-x="328" 
d="M25 0v591h286v-111h-120v-115h110v-125h-110v-132h120v-108h-286zM53 625l74 93h79l75 -93h-87l-26 32l-26 -32h-89zM280 690l41 81h133l-86 -81h-88z" />
    <glyph glyph-name="uni1EC6" unicode="&#x1ec6;" horiz-adv-x="328" 
d="M25 0v591h286v-111h-120v-115h110v-125h-110v-132h120v-108h-286zM163 -147q-25 0 -42 17t-17 40q0 24 17 41t42 17t43 -17t18 -41q0 -23 -18 -40t-43 -17zM24 632l101 109h83l102 -108h-105l-37 32l-37 -33h-107z" />
    <glyph glyph-name="uni1EC0" unicode="&#x1ec0;" horiz-adv-x="328" 
d="M25 0v591h286v-111h-120v-115h110v-125h-110v-132h120v-108h-286zM53 625l74 93h79l75 -93h-87l-26 32l-26 -32h-89zM304 688l-86 81h133l41 -81h-88z" />
    <glyph glyph-name="uni1EC2" unicode="&#x1ec2;" horiz-adv-x="328" 
d="M25 0v591h286v-111h-120v-115h110v-125h-110v-132h120v-108h-286zM53 625l74 93h79l75 -93h-87l-26 32l-26 -32h-89zM278 682v3q0 11 8 17t16 10.5t8 10.5v6q0 7 -1.5 8.5t-3.5 1.5q-6 0 -6 -11l-60 8q1 26 17.5 40t54.5 14q44 0 61 -9.5t17 -47.5v-4q0 -16 -7.5 -22
t-15 -9t-7.5 -11v-5h-81z" />
    <glyph glyph-name="uni1EC4" unicode="&#x1ec4;" horiz-adv-x="328" 
d="M25 0v591h286v-111h-120v-115h110v-125h-110v-132h120v-108h-286zM53 625l74 93h79l75 -93h-87l-26 32l-26 -32h-89zM206 737q-13 0 -26 6t-23 10q-10 5 -19 7.5t-17 2.5q-9 0 -13.5 -8t-4.5 -17h-37q-1 41 15 66.5t42 25.5q13 0 26 -3.5t23 -8.5q9 -4 17.5 -7.5
t17.5 -3.5q13 0 16.5 7t4.5 13h43q1 -30 -10.5 -50t-26.5 -30t-28 -10z" />
    <glyph glyph-name="uni0204" unicode="&#x204;" horiz-adv-x="328" 
d="M25 0v591h286v-111h-120v-115h110v-125h-110v-132h120v-108h-286zM253 646h-59l-65 106h116zM140 646h-69l-75 106h116z" />
    <glyph glyph-name="Edieresis" unicode="&#xcb;" horiz-adv-x="328" 
d="M25 0v591h286v-111h-120v-115h110v-125h-110v-132h120v-108h-286zM98 630q-26 0 -43 16.5t-17 40.5t17 40t43 16q25 0 41.5 -16t16.5 -40t-16.5 -40.5t-41.5 -16.5zM237 630q-26 0 -43 16.5t-17 40.5t17 40t43 16q25 0 41.5 -16t16.5 -40t-16.5 -40.5t-41.5 -16.5z" />
    <glyph glyph-name="Edotaccent" unicode="&#x116;" horiz-adv-x="328" 
d="M25 0v591h286v-111h-120v-115h110v-125h-110v-132h120v-108h-286zM166 633q-28 0 -48.5 19.5t-20.5 46.5q0 28 20.5 47.5t48.5 19.5q29 0 50 -19.5t21 -46.5q0 -28 -21 -47.5t-50 -19.5z" />
    <glyph glyph-name="uni1EB8" unicode="&#x1eb8;" horiz-adv-x="328" 
d="M25 0v591h286v-111h-120v-115h110v-125h-110v-132h120v-108h-286zM163 -147q-25 0 -42 17t-17 40q0 24 17 41t42 17t43 -17t18 -41q0 -23 -18 -40t-43 -17z" />
    <glyph glyph-name="uni0424" unicode="&#x424;" horiz-adv-x="568" 
d="M206 -39v115h-42q-70 0 -109.5 27t-39.5 98v201q0 45 29.5 73t95.5 28h66v88h156v-88h66q66 0 95.5 -28t29.5 -73v-201q0 -71 -39.5 -98t-109.5 -27h-42v-115h-156zM191 156h15v130v129h-15q-8 0 -12.5 -6.5t-4.5 -23.5v-199q0 -17 4.5 -23.5t12.5 -6.5zM362 156h15
q8 0 12.5 6.5t4.5 23.5v199q0 17 -4.5 23.5t-12.5 6.5h-15v-129v-130z" />
    <glyph glyph-name="uni0424.loclBGR" horiz-adv-x="568" 
d="M206 -39v115h-42q-70 0 -109.5 27t-39.5 98v201q0 45 29.5 73t95.5 28h66v88h156v-88h66q66 0 95.5 -28t29.5 -73v-201q0 -71 -39.5 -98t-109.5 -27h-42v-115h-156zM191 156h15v130v129h-15q-8 0 -12.5 -6.5t-4.5 -23.5v-199q0 -17 4.5 -23.5t12.5 -6.5zM362 156h15
q8 0 12.5 6.5t4.5 23.5v199q0 17 -4.5 23.5t-12.5 6.5h-15v-129v-130z" />
    <glyph glyph-name="Egrave" unicode="&#xc8;" horiz-adv-x="328" 
d="M25 0v591h286v-111h-120v-115h110v-125h-110v-132h120v-108h-286zM138 635l-119 98h141l73 -98h-95z" />
    <glyph glyph-name="uni1EBA" unicode="&#x1eba;" horiz-adv-x="328" 
d="M25 0v591h286v-111h-120v-115h110v-125h-110v-132h120v-108h-286zM123 628v9q0 15 10 23t20 14.5t10 17.5v7q0 6 -2 12.5t-9 6.5q-11 0 -11 -20l-67 10q2 32 23 48t62 16q45 0 68 -11.5t23 -58.5v-4q0 -23 -11.5 -31.5t-22.5 -13t-11 -16.5v-9h-82z" />
    <glyph glyph-name="uni0206" unicode="&#x206;" horiz-adv-x="328" 
d="M169 754q54 0 80 -18.5t34.5 -43.5t8.5 -46h-82q0 18 -13 27t-29 9t-29 -8.5t-14 -27.5h-83q0 30 13 54.5t40.5 39t73.5 14.5zM25 0v591h286v-111h-120v-115h110v-125h-110v-132h120v-108h-286z" />
    <glyph glyph-name="uni041B" unicode="&#x41b;" horiz-adv-x="466" 
d="M5 0v79q18 0 36 24.5t20 52.5l32 435h348v-591h-159v480h-33l-29 -364q-2 -21 -4 -41.5t-11.5 -37.5t-31.5 -27t-64 -10h-104z" />
    <glyph glyph-name="uni041B.loclBGR" horiz-adv-x="466" 
d="M5 0v79q18 0 36 24.5t20 52.5l32 435h348v-591h-159v480h-33l-29 -364q-2 -21 -4 -41.5t-11.5 -37.5t-31.5 -27t-64 -10h-104z" />
    <glyph glyph-name="uni041C" unicode="&#x41c;" horiz-adv-x="540" 
d="M25 0v591h202l43 -302l43 302h202v-591h-139v412l-53 -412h-106l-53 412v-412h-139z" />
    <glyph glyph-name="Emacron" unicode="&#x112;" horiz-adv-x="328" 
d="M25 0v591h286v-111h-120v-115h110v-125h-110v-132h120v-108h-286zM56 642v77h222v-77h-222z" />
    <glyph glyph-name="uni041D" unicode="&#x41d;" horiz-adv-x="404" 
d="M25 0v591h159v-229h36v229h159v-591h-159v245h-36v-245h-159z" />
    <glyph glyph-name="Eng" unicode="&#x14a;" horiz-adv-x="400" 
d="M214 -196h-27t-27 1v108h29q29 0 38 9t9 39v41l-72 243v-245h-139l1 591h138l71 -275l1 275h139l-1 -627q0 -64 -16 -98.5t-51.5 -48t-92.5 -13.5z" />
    <glyph glyph-name="Eogonek" unicode="&#x118;" horiz-adv-x="328" 
d="M25 0v591h286v-111h-120v-115h110v-125h-110v-132h120v-108h-286zM231 -151q-43 0 -68 21.5t-25 46.5q0 28 24.5 54.5t65.5 30.5l59 -2q-27 -7 -39 -25.5t-12 -35.5q0 -18 12.5 -28t24.5 -10q7 0 11.5 1.5t6.5 1.5l17 -37q-5 -3 -22 -10.5t-55 -7.5z" />
    <glyph glyph-name="uni0420" unicode="&#x420;" horiz-adv-x="398" 
d="M25 0v591h232q66 0 95.5 -28.5t29.5 -72.5v-98q0 -44 -10 -82.5t-35.5 -62t-71.5 -23.5h-74v-224h-166zM191 310h12q11 0 16 21.5t5 76.5v10q0 49 -2.5 69t-15.5 20h-15v-197z" />
    <glyph glyph-name="uni042D" unicode="&#x42d;" horiz-adv-x="402" 
d="M195 -12q-54 0 -93.5 13t-60.5 53t-21 120v19h159v-80q0 -11 2 -18t6 -9.5t8 -2.5q6 0 9.5 2.5t5 9.5t1.5 18v117h-116v105h116v134q0 12 -1.5 18.5t-5 9t-9.5 2.5q-4 0 -8 -2.5t-6 -9t-2 -18.5v-93h-159v89q0 50 21 79.5t60.5 42.5t93.5 13q55 0 95.5 -13t63.5 -42.5
t23 -79.5v-292q0 -79 -23 -119t-63.5 -53t-95.5 -13z" />
    <glyph glyph-name="uni0421" unicode="&#x421;" horiz-adv-x="395" 
d="M202 -12q-54 0 -95 13t-64 53t-23 119v292q0 50 23 79.5t64 42.5t95 13q55 0 94 -13t60 -42.5t21 -79.5v-138h-159v146q0 12 -2 18.5t-5.5 9t-8.5 2.5t-8.5 -2.5t-5.5 -9t-2 -18.5v-363q0 -11 2 -18t5.5 -9.5t8.5 -2.5t8.5 2.5t5.5 9.5t2 18v138h159v-74q0 -80 -21 -120
t-60 -53t-94 -13z" />
    <glyph glyph-name="Eth" unicode="&#xd0;" horiz-adv-x="446" 
d="M47 0v591h254q44 0 71.5 -13t40.5 -35.5t13 -52.5v-365q0 -47 -18 -74.5t-51 -39t-80 -11.5h-230zM7 246v89h229v-89h-229zM213 80h25q17 0 23 6.5t6 23.5v363q0 17 -6 23.5t-23 6.5h-25v-423z" />
    <glyph glyph-name="uni1EBC" unicode="&#x1ebc;" horiz-adv-x="328" 
d="M25 0v591h286v-111h-120v-115h110v-125h-110v-132h120v-108h-286zM211 635q-17 0 -32 7t-29 14q-12 7 -23.5 11.5t-23.5 4.5q-13 0 -20 -10.5t-8 -25.5h-41q0 47 19.5 76t51.5 29q18 0 33 -5.5t28 -12.5q12 -6 23.5 -11t22.5 -5q16 0 22.5 9.5t8.5 21.5h46
q0 -34 -12.5 -57t-30.5 -34.5t-35 -11.5z" />
    <glyph glyph-name="F" unicode="F" horiz-adv-x="326" 
d="M25 0v591h286v-111h-120v-115h110v-125h-110v-240h-166z" />
    <glyph glyph-name="G" unicode="G" horiz-adv-x="395" 
d="M149 -10q-31 0 -60.5 11.5t-49 46.5t-19.5 103v312q0 50 22 79.5t61.5 42.5t92.5 13t94 -13t64 -42.5t23 -79.5v-90h-154v100q0 12 -3 18.5t-7.5 9t-11.5 2.5q-6 0 -11 -2.5t-8 -9t-3 -18.5v-363q0 -11 3 -18t8 -9.5t11 -2.5q10 0 16 6.5t6 23.5v112h-25v89h179v-311
h-120l-8 38v0v0q-7 -15 -30 -31.5t-70 -16.5z" />
    <glyph glyph-name="Gbreve" unicode="&#x11e;" horiz-adv-x="395" 
d="M149 -10q-31 0 -60.5 11.5t-49 46.5t-19.5 103v312q0 50 22 79.5t61.5 42.5t92.5 13t94 -13t64 -42.5t23 -79.5v-90h-154v100q0 12 -3 18.5t-7.5 9t-11.5 2.5q-6 0 -11 -2.5t-8 -9t-3 -18.5v-363q0 -11 3 -18t8 -9.5t11 -2.5q10 0 16 6.5t6 23.5v112h-25v89h179v-311
h-120l-8 38v0v0q-7 -15 -30 -31.5t-70 -16.5zM196 631q-53 0 -79.5 18.5t-35 44t-8.5 45.5h82q0 -18 13 -27t29 -9q17 0 29.5 8.5t13.5 27.5h83q0 -30 -13 -54.5t-40.5 -39t-73.5 -14.5z" />
    <glyph glyph-name="Gcaron" unicode="&#x1e6;" horiz-adv-x="395" 
d="M149 -10q-31 0 -60.5 11.5t-49 46.5t-19.5 103v312q0 50 22 79.5t61.5 42.5t92.5 13t94 -13t64 -42.5t23 -79.5v-90h-154v100q0 12 -3 18.5t-7.5 9t-11.5 2.5q-6 0 -11 -2.5t-8 -9t-3 -18.5v-363q0 -11 3 -18t8 -9.5t11 -2.5q10 0 16 6.5t6 23.5v112h-25v89h179v-311
h-120l-8 38v0v0q-7 -15 -30 -31.5t-70 -16.5zM156 632l-101 109h107l37 -33l37 32h105l-102 -108h-83z" />
    <glyph glyph-name="Gcircumflex" unicode="&#x11c;" horiz-adv-x="395" 
d="M149 -10q-31 0 -60.5 11.5t-49 46.5t-19.5 103v312q0 50 22 79.5t61.5 42.5t92.5 13t94 -13t64 -42.5t23 -79.5v-90h-154v100q0 12 -3 18.5t-7.5 9t-11.5 2.5q-6 0 -11 -2.5t-8 -9t-3 -18.5v-363q0 -11 3 -18t8 -9.5t11 -2.5q10 0 16 6.5t6 23.5v112h-25v89h179v-311
h-120l-8 38v0v0q-7 -15 -30 -31.5t-70 -16.5zM55 632l101 109h83l102 -108h-105l-37 32l-37 -33h-107z" />
    <glyph glyph-name="uni0122" unicode="&#x122;" horiz-adv-x="395" 
d="M149 -10q-31 0 -60.5 11.5t-49 46.5t-19.5 103v312q0 50 22 79.5t61.5 42.5t92.5 13t94 -13t64 -42.5t23 -79.5v-90h-154v100q0 12 -3 18.5t-7.5 9t-11.5 2.5q-6 0 -11 -2.5t-8 -9t-3 -18.5v-363q0 -11 3 -18t8 -9.5t11 -2.5q10 0 16 6.5t6 23.5v112h-25v89h179v-311
h-120l-8 38v0v0q-7 -15 -30 -31.5t-70 -16.5zM133 -211q17 24 26 43t9 31q0 8 -8.5 14t-16.5 15t-8 24q0 18 17.5 33t45.5 15q29 0 47.5 -15.5t18.5 -39.5q0 -15 -11 -37.5t-26.5 -44.5t-31.5 -38h-62z" />
    <glyph glyph-name="Gdotaccent" unicode="&#x120;" horiz-adv-x="395" 
d="M149 -10q-31 0 -60.5 11.5t-49 46.5t-19.5 103v312q0 50 22 79.5t61.5 42.5t92.5 13t94 -13t64 -42.5t23 -79.5v-90h-154v100q0 12 -3 18.5t-7.5 9t-11.5 2.5q-6 0 -11 -2.5t-8 -9t-3 -18.5v-363q0 -11 3 -18t8 -9.5t11 -2.5q10 0 16 6.5t6 23.5v112h-25v89h179v-311
h-120l-8 38v0v0q-7 -15 -30 -31.5t-70 -16.5zM197 633q-28 0 -48.5 19.5t-20.5 46.5q0 28 20.5 47.5t48.5 19.5q29 0 50 -19.5t21 -46.5q0 -28 -21 -47.5t-50 -19.5z" />
    <glyph glyph-name="uni0413" unicode="&#x413;" horiz-adv-x="321" 
d="M25 0v591h286v-111h-120v-480h-166z" />
    <glyph glyph-name="uni1E9E" unicode="&#x1e9e;" horiz-adv-x="499" 
d="M58 -25v574q0 20 14.5 30t57.5 13.5t126 3.5q97 0 148.5 -21.5t51.5 -76.5v-60q0 -42 -26.5 -68t-58.5 -28v-4q24 -2 47.5 -13t39.5 -31t16 -50v-123q0 -52 -23.5 -78t-66 -34.5t-99.5 -8.5h-44v78h20q19 0 27 8t10.5 31t2.5 69v53q0 16 -2 28t-11 19t-32 7h-18l1 80h37
q17 0 21.5 16.5t4.5 45.5v13q0 41 -5.5 58t-38.5 17q-18 0 -27.5 -1t-13 -4.5t-3.5 -10.5l1 -532h-157z" />
    <glyph glyph-name="uni0403" unicode="&#x403;" horiz-adv-x="321" 
d="M25 0v591h286v-111h-120v-480h-166zM91 635l77 103h138l-130 -103h-85z" />
    <glyph glyph-name="H" unicode="H" horiz-adv-x="404" 
d="M25 0v591h159v-229h36v229h159v-591h-159v245h-36v-245h-159z" />
    <glyph glyph-name="uni0425" unicode="&#x425;" horiz-adv-x="404" 
d="M5 0l81 307l-79 284h159l35 -155l29 155h169l-77 -284l75 -307h-159l-35 154l-29 -154h-169z" />
    <glyph glyph-name="uni042A" unicode="&#x42a;" horiz-adv-x="425" 
d="M54 0v480h-49v111h205v-155h79q25 0 50.5 -7.5t43 -31t17.5 -73.5v-163q0 -57 -10.5 -89.5t-29 -47.5t-43 -19.5t-53.5 -4.5h-210zM210 80h18q7 0 10.5 5t4.5 23t1 58v125q0 20 -1 30.5t-4.5 15t-11.5 4.5h-17v-261z" />
    <glyph glyph-name="Hbar" unicode="&#x126;" horiz-adv-x="404" 
d="M25 0v591h159v-229h36v229h159v-591h-159v245h-36v-245h-159zM0 435v72h406v-72h-406z" />
    <glyph glyph-name="Hcircumflex" unicode="&#x124;" horiz-adv-x="404" 
d="M25 0v591h159v-229h36v229h159v-591h-159v245h-36v-245h-159zM59 632l101 109h83l102 -108h-105l-37 32l-37 -33h-107z" />
    <glyph glyph-name="I" unicode="I" horiz-adv-x="209" 
d="M25 0v591h159v-591h-159z" />
    <glyph glyph-name="uni0406" unicode="&#x406;" horiz-adv-x="209" 
d="M25 0v591h159v-591h-159z" />
    <glyph glyph-name="uni042F" unicode="&#x42f;" horiz-adv-x="424" 
d="M399 0h-166v237h-3q-4 0 -7 -11.5t-7 -31.5l-34 -194h-177l52 204q9 36 22.5 51.5t48.5 22.5v2q-53 6 -73.5 41.5t-20.5 78.5v90q0 44 29.5 72.5t95.5 28.5h240v-591zM233 347v160h-19q-13 0 -18.5 -9.5t-5.5 -36.5v-65q0 -27 7 -38t20 -11h16z" />
    <glyph glyph-name="Iacute" unicode="&#xcd;" horiz-adv-x="209" 
d="M25 0v591h159v-591h-159zM35 635l77 103h138l-130 -103h-85z" />
    <glyph glyph-name="Ibreve" unicode="&#x12c;" horiz-adv-x="209" 
d="M25 0v591h159v-591h-159zM103 631q-53 0 -79.5 18.5t-35 44t-8.5 45.5h82q0 -18 13 -27t29 -9q17 0 29.5 8.5t13.5 27.5h83q0 -30 -13 -54.5t-40.5 -39t-73.5 -14.5z" />
    <glyph glyph-name="uni01CF" unicode="&#x1cf;" horiz-adv-x="209" 
d="M25 0v591h159v-591h-159zM63 632l-101 109h107l37 -33l37 32h105l-102 -108h-83z" />
    <glyph glyph-name="Icircumflex" unicode="&#xce;" horiz-adv-x="209" 
d="M25 0v591h159v-591h-159zM-38 632l101 109h83l102 -108h-105l-37 32l-37 -33h-107z" />
    <glyph glyph-name="uni0208" unicode="&#x208;" horiz-adv-x="209" 
d="M25 0v591h159v-591h-159zM191 646h-59l-65 106h116zM78 646h-69l-75 106h116z" />
    <glyph glyph-name="Idieresis" unicode="&#xcf;" horiz-adv-x="209" 
d="M25 0v591h159v-591h-159zM36 630q-26 0 -43 16.5t-17 40.5t17 40t43 16q25 0 41.5 -16t16.5 -40t-16.5 -40.5t-41.5 -16.5zM175 630q-26 0 -43 16.5t-17 40.5t17 40t43 16q25 0 41.5 -16t16.5 -40t-16.5 -40.5t-41.5 -16.5z" />
    <glyph glyph-name="Idotaccent" unicode="&#x130;" horiz-adv-x="209" 
d="M25 0v591h159v-591h-159zM104 633q-28 0 -48.5 19.5t-20.5 46.5q0 28 20.5 47.5t48.5 19.5q29 0 50 -19.5t21 -46.5q0 -28 -21 -47.5t-50 -19.5z" />
    <glyph glyph-name="uni1ECA" unicode="&#x1eca;" horiz-adv-x="209" 
d="M25 0v591h159v-591h-159zM104 -147q-25 0 -42 17t-17 40q0 24 17 41t42 17t43 -17t18 -41q0 -23 -18 -40t-43 -17z" />
    <glyph glyph-name="uni0415" unicode="&#x415;" horiz-adv-x="328" 
d="M25 0v591h286v-111h-120v-115h110v-125h-110v-132h120v-108h-286z" />
    <glyph glyph-name="uni0400" unicode="&#x400;" horiz-adv-x="328" 
d="M25 0v591h286v-111h-120v-115h110v-125h-110v-132h120v-108h-286zM141 635l-119 98h141l73 -98h-95z" />
    <glyph glyph-name="Igrave" unicode="&#xcc;" horiz-adv-x="209" 
d="M25 0v591h159v-591h-159zM76 635l-119 98h141l73 -98h-95z" />
    <glyph glyph-name="uni1EC8" unicode="&#x1ec8;" horiz-adv-x="209" 
d="M25 0v591h159v-591h-159zM61 628v9q0 15 10 23t20 14.5t10 17.5v7q0 6 -2 12.5t-9 6.5q-11 0 -11 -20l-67 10q2 32 23 48t62 16q45 0 68 -11.5t23 -58.5v-4q0 -23 -11.5 -31.5t-22.5 -13t-11 -16.5v-9h-82z" />
    <glyph glyph-name="uni0418" unicode="&#x418;" horiz-adv-x="399" 
d="M25 0v591h139v-275l72 275h138v-591h-139v245l-73 -245h-137z" />
    <glyph glyph-name="uni040D" unicode="&#x40d;" horiz-adv-x="399" 
d="M25 0v591h139v-275l72 275h138v-591h-139v245l-73 -245h-137zM171 635l-119 98h141l73 -98h-95z" />
    <glyph glyph-name="uni020A" unicode="&#x20a;" horiz-adv-x="209" 
d="M107 754q54 0 80 -18.5t34.5 -43.5t8.5 -46h-82q0 18 -13 27t-29 9t-29 -8.5t-14 -27.5h-83q0 30 13 54.5t41 39t73 14.5zM25 0v591h159v-591h-159z" />
    <glyph glyph-name="uni0419" unicode="&#x419;" horiz-adv-x="399" 
d="M25 0v591h139v-275l72 275h138v-591h-139v245l-73 -245h-137zM198 631q-53 0 -79.5 18.5t-35 44t-8.5 45.5h82q0 -18 13 -27t29 -9q17 0 29.5 8.5t13.5 27.5h83q0 -30 -13 -54.5t-40.5 -39t-73.5 -14.5z" />
    <glyph glyph-name="Imacron" unicode="&#x12a;" horiz-adv-x="209" 
d="M25 0v591h159v-591h-159zM-6 642v77h222v-77h-222z" />
    <glyph glyph-name="uni0401" unicode="&#x401;" horiz-adv-x="328" 
d="M25 0v591h286v-111h-120v-115h110v-125h-110v-132h120v-108h-286zM101 630q-26 0 -43 16.5t-17 40.5t17 40t43 16q25 0 41.5 -16t16.5 -40t-16.5 -40.5t-41.5 -16.5zM240 630q-26 0 -43 16.5t-17 40.5t17 40t43 16q25 0 41.5 -16t16.5 -40t-16.5 -40.5t-41.5 -16.5z" />
    <glyph glyph-name="Iogonek" unicode="&#x12e;" horiz-adv-x="209" 
d="M25 0v591h159v-591h-159zM128 -151q-43 0 -68 21.5t-25 46.5q0 28 24.5 54.5t65.5 30.5l59 -2q-27 -7 -39 -25.5t-12 -35.5q0 -18 12.5 -28t24.5 -10q7 0 11.5 1.5t6.5 1.5l17 -37q-5 -3 -22 -10.5t-55 -7.5z" />
    <glyph glyph-name="Itilde" unicode="&#x128;" horiz-adv-x="209" 
d="M25 0v591h159v-591h-159zM149 635q-17 0 -32 7t-29 14q-12 7 -23.5 11.5t-23.5 4.5q-13 0 -20 -10.5t-8 -25.5h-41q0 47 19.5 76t51.5 29q18 0 33 -5.5t28 -12.5q12 -6 23.5 -11t22.5 -5q16 0 22.5 9.5t8.5 21.5h46q0 -34 -12.5 -57t-30.5 -34.5t-35 -11.5z" />
    <glyph glyph-name="uni042E" unicode="&#x42e;" horiz-adv-x="602" 
d="M402 -12q-54 0 -95 13t-64 53t-23 119v72h-36v-245h-159v591h159v-229h36v103q0 50 23 79.5t64 42.5t95 13q55 0 94 -13t60 -42.5t21 -79.5v-291q0 -80 -21 -120t-60 -53t-94 -13zM402 80q5 0 8.5 2.5t5.5 9.5t2 18v363q0 12 -2 18.5t-5.5 9t-8.5 2.5t-9 -2.5t-5.5 -9
t-1.5 -18.5v-363q0 -11 1.5 -18t5.5 -9.5t9 -2.5z" />
    <glyph glyph-name="J" unicode="J" horiz-adv-x="264" 
d="M59 -1h-27t-27 1v108h29q29 0 37.5 9.5t8.5 38.5v435h159v-432q0 -63 -18.5 -98t-58 -48.5t-103.5 -13.5z" />
    <glyph glyph-name="Jcircumflex" unicode="&#x134;" horiz-adv-x="264" 
d="M59 -1h-27t-27 1v108h29q29 0 37.5 9.5t8.5 38.5v435h159v-432q0 -63 -18.5 -98t-58 -48.5t-103.5 -13.5zM18 632l101 109h83l102 -108h-105l-37 32l-37 -33h-107z" />
    <glyph glyph-name="uni0408" unicode="&#x408;" horiz-adv-x="264" 
d="M59 -1h-27t-27 1v108h29q29 0 37.5 9.5t8.5 38.5v435h159v-432q0 -63 -18.5 -98t-58 -48.5t-103.5 -13.5z" />
    <glyph glyph-name="K" unicode="K" horiz-adv-x="439" 
d="M263 0l-81 306l81 285h169l-96 -284l98 -307h-171zM25 0v591h159v-591h-159z" />
    <glyph glyph-name="uni041A" unicode="&#x41a;" horiz-adv-x="468" 
d="M25 0v591h159v-247h38l70 247h169l-96 -284l98 -307h-171l-64 240h-44v-240h-159z" />
    <glyph glyph-name="uni0136" unicode="&#x136;" horiz-adv-x="439" 
d="M263 0l-81 306l81 285h169l-96 -284l98 -307h-171zM25 0v591h159v-591h-159zM153 -211q17 24 26 43t9 31q0 8 -8.5 14t-16.5 15t-8 24q0 18 17.5 33t45.5 15q29 0 47.5 -15.5t18.5 -39.5q0 -15 -11 -37.5t-26.5 -44.5t-31.5 -38h-62z" />
    <glyph glyph-name="uni040C" unicode="&#x40c;" horiz-adv-x="468" 
d="M25 0v591h159v-247h38l70 247h169l-96 -284l98 -307h-171l-64 240h-44v-240h-159zM164 635l77 103h138l-130 -103h-85z" />
    <glyph glyph-name="L" unicode="L" horiz-adv-x="301" 
d="M25 0v591h157v-483h109v-108h-266z" />
    <glyph glyph-name="uni01C7" unicode="&#x1c7;" horiz-adv-x="565" 
d="M25 0v591h157v-483h109v-108h-266zM360 -1h-27t-27 1v108h29q29 0 37.5 9.5t8.5 38.5v435h159v-432q0 -63 -18.5 -98t-58 -48.5t-103.5 -13.5z" />
    <glyph glyph-name="Lacute" unicode="&#x139;" horiz-adv-x="301" 
d="M25 0v591h157v-483h109v-108h-266zM81 635l77 103h138l-130 -103h-85z" />
    <glyph glyph-name="Lcaron" unicode="&#x13d;" horiz-adv-x="329" 
d="M25 0v591h157v-483h109v-108h-266zM217 446l28 161h92l-67 -161h-53z" />
    <glyph glyph-name="uni013B" unicode="&#x13b;" horiz-adv-x="301" 
d="M25 0v591h157v-483h109v-108h-266zM88 -211q17 24 26 43t9 31q0 8 -8.5 14t-16.5 15t-8 24q0 18 17.5 33t45.5 15q29 0 47.5 -15.5t18.5 -39.5q0 -15 -11 -37.5t-26.5 -44.5t-31.5 -38h-62z" />
    <glyph glyph-name="Ldot" unicode="&#x13f;" horiz-adv-x="301" 
d="M25 0v591h157v-483h109v-108h-266zM336 215q-31 0 -53.5 21.5t-22.5 51.5q0 31 22.5 52.5t53.5 21.5q32 0 55 -21.5t23 -52.5q0 -30 -23 -51.5t-55 -21.5z" />
    <glyph glyph-name="uni01C8" unicode="&#x1c8;" horiz-adv-x="503" 
d="M25 0v591h157v-483h109v-108h-266zM281 -113q-8 1 -24.5 2t-21.5 2v81q11 0 25.5 0.5t21.5 1.5q23 2 33.5 16.5t10.5 29.5v475h156v-426q0 -79 -29 -120t-74.5 -54t-97.5 -8zM401 545q-28 0 -48.5 19.5t-20.5 46.5q0 28 20.5 47.5t48.5 19.5q29 0 50 -19.5t21 -46.5
q0 -28 -21 -47.5t-50 -19.5z" />
    <glyph glyph-name="uni0409" unicode="&#x409;" horiz-adv-x="653" 
d="M5 0v79q18 0 36 24.5t20 52.5l32 435h348v-591h-159v480h-33l-29 -364q-2 -21 -4 -41.5t-11.5 -37.5t-31.5 -27t-64 -10h-104zM442 80h18q7 0 10.5 5t4.5 23t1 58v125q0 20 -1 30.5t-4.5 15t-11.5 4.5h-17v-261zM282 0v591h156v-155h79q25 0 50.5 -7.5t43 -31t17.5 -73.5
v-163q0 -57 -10.5 -89.5t-29 -47.5t-43 -19.5t-53.5 -4.5h-210z" />
    <glyph glyph-name="Lslash" unicode="&#x141;" horiz-adv-x="343" 
d="M67 0v155l-52 -23v64l52 23v366h157v-296l61 27v-63l-61 -28v-117h109v-108h-266z" />
    <glyph glyph-name="M" unicode="M" horiz-adv-x="540" 
d="M25 0v591h202l43 -302l43 302h202v-591h-139v412l-53 -412h-106l-53 412v-412h-139z" />
    <glyph glyph-name="N" unicode="N" horiz-adv-x="399" 
d="M25 0v591h138l72 -275v275h139v-591h-137l-73 245v-245h-139z" />
    <glyph glyph-name="uni01CA" unicode="&#x1ca;" horiz-adv-x="663" 
d="M25 0v591h138l72 -275v275h139v-591h-137l-73 245v-245h-139zM458 -1h-27t-27 1v108h29q29 0 37.5 9.5t8.5 38.5v435h159v-432q0 -63 -18.5 -98t-58 -48.5t-103.5 -13.5z" />
    <glyph glyph-name="Nacute" unicode="&#x143;" horiz-adv-x="399" 
d="M25 0v591h138l72 -275v275h139v-591h-137l-73 245v-245h-139zM133 635l77 103h138l-130 -103h-85z" />
    <glyph glyph-name="Ncaron" unicode="&#x147;" horiz-adv-x="399" 
d="M25 0v591h138l72 -275v275h139v-591h-137l-73 245v-245h-139zM161 632l-101 109h107l37 -33l37 32h105l-102 -108h-83z" />
    <glyph glyph-name="uni0145" unicode="&#x145;" horiz-adv-x="399" 
d="M25 0v591h138l72 -275v275h139v-591h-137l-73 245v-245h-139zM133 -211q17 24 26 43t9 31q0 8 -8.5 14t-16.5 15t-8 24q0 18 17.5 33t45.5 15q29 0 47.5 -15.5t18.5 -39.5q0 -15 -11 -37.5t-26.5 -44.5t-31.5 -38h-62z" />
    <glyph glyph-name="uni01CB" unicode="&#x1cb;" horiz-adv-x="601" 
d="M25 0v591h138l72 -275v275h139v-591h-137l-73 245v-245h-139zM379 -113q-8 1 -24.5 2t-21.5 2v81q11 0 25.5 0.5t21.5 1.5q23 2 33.5 16.5t10.5 29.5v475h156v-426q0 -79 -29 -120t-74.5 -54t-97.5 -8zM499 545q-28 0 -48.5 19.5t-20.5 46.5q0 28 20.5 47.5t48.5 19.5
q29 0 50 -19.5t21 -46.5q0 -28 -21 -47.5t-50 -19.5z" />
    <glyph glyph-name="uni040A" unicode="&#x40a;" horiz-adv-x="589" 
d="M25 0v591h159v-229h36v229h159v-155h79q25 0 50.5 -7.5t43 -31t17.5 -73.5v-163q0 -57 -10.5 -89.5t-29 -47.5t-43 -19.5t-53.5 -4.5h-213v245h-36v-245h-159zM379 81h18q7 0 10.5 4.5t4.5 22t1 54.5v100q0 36 -1 53t-4.5 21.5t-11.5 4.5h-17v-260z" />
    <glyph glyph-name="Ntilde" unicode="&#xd1;" horiz-adv-x="399" 
d="M25 0v591h138l72 -275v275h139v-591h-137l-73 245v-245h-139zM247 635q-17 0 -32 7t-29 14q-12 7 -23.5 11.5t-23.5 4.5q-13 0 -20 -10.5t-8 -25.5h-41q0 47 19.5 76t51.5 29q18 0 33 -5.5t28 -12.5q12 -6 23.5 -11t22.5 -5q16 0 22.5 9.5t8.5 21.5h46q0 -34 -12.5 -57
t-30.5 -34.5t-35 -11.5z" />
    <glyph glyph-name="O" unicode="O" horiz-adv-x="397" 
d="M197 -12q-53 0 -93 13t-62 53t-22 119v292q0 50 22 79.5t62 42.5t93 13t93.5 -13t63.5 -42.5t23 -79.5v-291q0 -80 -23 -120t-63.5 -53t-93.5 -13zM197 80q6 0 11 3.5t7.5 10.5t2.5 16v363q0 9 -2.5 16t-7.5 10.5t-11 3.5t-10.5 -3.5t-7.5 -10.5t-3 -16v-363q0 -9 3 -16
t7.5 -10.5t10.5 -3.5z" />
    <glyph glyph-name="uni041E" unicode="&#x41e;" horiz-adv-x="397" 
d="M197 -12q-53 0 -93 13t-62 53t-22 119v292q0 50 22 79.5t62 42.5t93 13t93.5 -13t63.5 -42.5t23 -79.5v-291q0 -80 -23 -120t-63.5 -53t-93.5 -13zM197 80q6 0 11 3.5t7.5 10.5t2.5 16v363q0 9 -2.5 16t-7.5 10.5t-11 3.5t-10.5 -3.5t-7.5 -10.5t-3 -16v-363q0 -9 3 -16
t7.5 -10.5t10.5 -3.5z" />
    <glyph glyph-name="OE" unicode="&#x152;" horiz-adv-x="542" 
d="M197 -12q-53 0 -93 13t-62 53t-22 119v292q0 50 22 79.5t62 42.5t93 13q47 0 83 -13t56.5 -42.5t20.5 -79.5v-291q0 -80 -20.5 -120t-56.5 -53t-83 -13zM197 80q6 0 11 3.5t7.5 10.5t2.5 16v363q0 9 -2.5 16t-7.5 10.5t-11 3.5t-10.5 -3.5t-7.5 -10.5t-3 -16v-363
q0 -9 3 -16t7.5 -10.5t10.5 -3.5zM219 0v591h306v-111h-148v-115h138v-125h-138v-132h148v-108h-306z" />
    <glyph glyph-name="Oacute" unicode="&#xd3;" horiz-adv-x="397" 
d="M197 -12q-53 0 -93 13t-62 53t-22 119v292q0 50 22 79.5t62 42.5t93 13t93.5 -13t63.5 -42.5t23 -79.5v-291q0 -80 -23 -120t-63.5 -53t-93.5 -13zM197 80q6 0 11 3.5t7.5 10.5t2.5 16v363q0 9 -2.5 16t-7.5 10.5t-11 3.5t-10.5 -3.5t-7.5 -10.5t-3 -16v-363q0 -9 3 -16
t7.5 -10.5t10.5 -3.5zM129 635l77 103h138l-130 -103h-85z" />
    <glyph glyph-name="Obreve" unicode="&#x14e;" horiz-adv-x="397" 
d="M197 -12q-53 0 -93 13t-62 53t-22 119v292q0 50 22 79.5t62 42.5t93 13t93.5 -13t63.5 -42.5t23 -79.5v-291q0 -80 -23 -120t-63.5 -53t-93.5 -13zM197 80q6 0 11 3.5t7.5 10.5t2.5 16v363q0 9 -2.5 16t-7.5 10.5t-11 3.5t-10.5 -3.5t-7.5 -10.5t-3 -16v-363q0 -9 3 -16
t7.5 -10.5t10.5 -3.5zM197 631q-53 0 -79.5 18.5t-35 44t-8.5 45.5h82q0 -18 13 -27t29 -9q17 0 29.5 8.5t13.5 27.5h83q0 -30 -13 -54.5t-40.5 -39t-73.5 -14.5z" />
    <glyph glyph-name="uni01D1" unicode="&#x1d1;" horiz-adv-x="397" 
d="M197 -12q-53 0 -93 13t-62 53t-22 119v292q0 50 22 79.5t62 42.5t93 13t93.5 -13t63.5 -42.5t23 -79.5v-291q0 -80 -23 -120t-63.5 -53t-93.5 -13zM197 80q6 0 11 3.5t7.5 10.5t2.5 16v363q0 9 -2.5 16t-7.5 10.5t-11 3.5t-10.5 -3.5t-7.5 -10.5t-3 -16v-363q0 -9 3 -16
t7.5 -10.5t10.5 -3.5zM157 632l-101 109h107l37 -33l37 32h105l-102 -108h-83z" />
    <glyph glyph-name="Ocircumflex" unicode="&#xd4;" horiz-adv-x="397" 
d="M197 -12q-53 0 -93 13t-62 53t-22 119v292q0 50 22 79.5t62 42.5t93 13t93.5 -13t63.5 -42.5t23 -79.5v-291q0 -80 -23 -120t-63.5 -53t-93.5 -13zM197 80q6 0 11 3.5t7.5 10.5t2.5 16v363q0 9 -2.5 16t-7.5 10.5t-11 3.5t-10.5 -3.5t-7.5 -10.5t-3 -16v-363q0 -9 3 -16
t7.5 -10.5t10.5 -3.5zM56 632l101 109h83l102 -108h-105l-37 32l-37 -33h-107z" />
    <glyph glyph-name="uni1ED0" unicode="&#x1ed0;" horiz-adv-x="397" 
d="M197 -12q-53 0 -93 13t-62 53t-22 119v292q0 50 22 79.5t62 42.5t93 13t93.5 -13t63.5 -42.5t23 -79.5v-291q0 -80 -23 -120t-63.5 -53t-93.5 -13zM197 80q6 0 11 3.5t7.5 10.5t2.5 16v363q0 9 -2.5 16t-7.5 10.5t-11 3.5t-10.5 -3.5t-7.5 -10.5t-3 -16v-363q0 -9 3 -16
t7.5 -10.5t10.5 -3.5zM85 625l74 93h79l75 -93h-87l-26 32l-26 -32h-89zM312 690l41 81h133l-86 -81h-88z" />
    <glyph glyph-name="uni1ED8" unicode="&#x1ed8;" horiz-adv-x="397" 
d="M197 -12q-53 0 -93 13t-62 53t-22 119v292q0 50 22 79.5t62 42.5t93 13t93.5 -13t63.5 -42.5t23 -79.5v-291q0 -80 -23 -120t-63.5 -53t-93.5 -13zM197 80q6 0 11 3.5t7.5 10.5t2.5 16v363q0 9 -2.5 16t-7.5 10.5t-11 3.5t-10.5 -3.5t-7.5 -10.5t-3 -16v-363q0 -9 3 -16
t7.5 -10.5t10.5 -3.5zM198 -147q-25 0 -42 17t-17 40q0 24 17 41t42 17t43 -17t18 -41q0 -23 -18 -40t-43 -17zM56 632l101 109h83l102 -108h-105l-37 32l-37 -33h-107z" />
    <glyph glyph-name="uni1ED2" unicode="&#x1ed2;" horiz-adv-x="397" 
d="M197 -12q-53 0 -93 13t-62 53t-22 119v292q0 50 22 79.5t62 42.5t93 13t93.5 -13t63.5 -42.5t23 -79.5v-291q0 -80 -23 -120t-63.5 -53t-93.5 -13zM197 80q6 0 11 3.5t7.5 10.5t2.5 16v363q0 9 -2.5 16t-7.5 10.5t-11 3.5t-10.5 -3.5t-7.5 -10.5t-3 -16v-363q0 -9 3 -16
t7.5 -10.5t10.5 -3.5zM85 625l74 93h79l75 -93h-87l-26 32l-26 -32h-89zM336 688l-86 81h133l41 -81h-88z" />
    <glyph glyph-name="uni1ED4" unicode="&#x1ed4;" horiz-adv-x="397" 
d="M197 -12q-53 0 -93 13t-62 53t-22 119v292q0 50 22 79.5t62 42.5t93 13t93.5 -13t63.5 -42.5t23 -79.5v-291q0 -80 -23 -120t-63.5 -53t-93.5 -13zM197 80q6 0 11 3.5t7.5 10.5t2.5 16v363q0 9 -2.5 16t-7.5 10.5t-11 3.5t-10.5 -3.5t-7.5 -10.5t-3 -16v-363q0 -9 3 -16
t7.5 -10.5t10.5 -3.5zM85 625l74 93h79l75 -93h-87l-26 32l-26 -32h-89zM310 682v3q0 11 8 17t16 10.5t8 10.5v6q0 7 -1.5 8.5t-3.5 1.5q-6 0 -6 -11l-60 8q1 26 17.5 40t54.5 14q44 0 61 -9.5t17 -47.5v-4q0 -16 -7.5 -22t-15 -9t-7.5 -11v-5h-81z" />
    <glyph glyph-name="uni1ED6" unicode="&#x1ed6;" horiz-adv-x="397" 
d="M197 -12q-53 0 -93 13t-62 53t-22 119v292q0 50 22 79.5t62 42.5t93 13t93.5 -13t63.5 -42.5t23 -79.5v-291q0 -80 -23 -120t-63.5 -53t-93.5 -13zM197 80q6 0 11 3.5t7.5 10.5t2.5 16v363q0 9 -2.5 16t-7.5 10.5t-11 3.5t-10.5 -3.5t-7.5 -10.5t-3 -16v-363q0 -9 3 -16
t7.5 -10.5t10.5 -3.5zM85 625l74 93h79l75 -93h-87l-26 32l-26 -32h-89zM238 737q-13 0 -26 6t-23 10q-10 5 -19 7.5t-17 2.5q-9 0 -13.5 -8t-4.5 -17h-37q-1 41 15 66.5t42 25.5q13 0 26 -3.5t23 -8.5q9 -4 17.5 -7.5t17.5 -3.5q13 0 16.5 7t4.5 13h43q1 -30 -10.5 -50
t-26.5 -30t-28 -10z" />
    <glyph glyph-name="uni020C" unicode="&#x20c;" horiz-adv-x="397" 
d="M197 -12q-53 0 -93 13t-62 53t-22 119v292q0 50 22 79.5t62 42.5t93 13t93.5 -13t63.5 -42.5t23 -79.5v-291q0 -80 -23 -120t-63.5 -53t-93.5 -13zM197 80q6 0 11 3.5t7.5 10.5t2.5 16v363q0 9 -2.5 16t-7.5 10.5t-11 3.5t-10.5 -3.5t-7.5 -10.5t-3 -16v-363q0 -9 3 -16
t7.5 -10.5t10.5 -3.5zM285 646h-59l-65 106h116zM172 646h-69l-75 106h116z" />
    <glyph glyph-name="Odieresis" unicode="&#xd6;" horiz-adv-x="397" 
d="M197 -12q-53 0 -93 13t-62 53t-22 119v292q0 50 22 79.5t62 42.5t93 13t93.5 -13t63.5 -42.5t23 -79.5v-291q0 -80 -23 -120t-63.5 -53t-93.5 -13zM197 80q6 0 11 3.5t7.5 10.5t2.5 16v363q0 9 -2.5 16t-7.5 10.5t-11 3.5t-10.5 -3.5t-7.5 -10.5t-3 -16v-363q0 -9 3 -16
t7.5 -10.5t10.5 -3.5zM130 630q-26 0 -43 16.5t-17 40.5t17 40t43 16q25 0 41.5 -16t16.5 -40t-16.5 -40.5t-41.5 -16.5zM269 630q-26 0 -43 16.5t-17 40.5t17 40t43 16q25 0 41.5 -16t16.5 -40t-16.5 -40.5t-41.5 -16.5z" />
    <glyph glyph-name="uni022A" unicode="&#x22a;" horiz-adv-x="397" 
d="M197 -12q-53 0 -93 13t-62 53t-22 119v292q0 50 22 79.5t62 42.5t93 13t93.5 -13t63.5 -42.5t23 -79.5v-291q0 -80 -23 -120t-63.5 -53t-93.5 -13zM197 80q6 0 11 3.5t7.5 10.5t2.5 16v363q0 9 -2.5 16t-7.5 10.5t-11 3.5t-10.5 -3.5t-7.5 -10.5t-3 -16v-363q0 -9 3 -16
t7.5 -10.5t10.5 -3.5zM130 630q-26 0 -43 16.5t-17 40.5t17 40t43 16q25 0 41.5 -16t16.5 -40t-16.5 -40.5t-41.5 -16.5zM269 630q-26 0 -43 16.5t-17 40.5t17 40t43 16q25 0 41.5 -16t16.5 -40t-16.5 -40.5t-41.5 -16.5zM88 765v77h222v-77h-222z" />
    <glyph glyph-name="uni0230" unicode="&#x230;" horiz-adv-x="397" 
d="M197 -12q-53 0 -93 13t-62 53t-22 119v292q0 50 22 79.5t62 42.5t93 13t93.5 -13t63.5 -42.5t23 -79.5v-291q0 -80 -23 -120t-63.5 -53t-93.5 -13zM197 80q6 0 11 3.5t7.5 10.5t2.5 16v363q0 9 -2.5 16t-7.5 10.5t-11 3.5t-10.5 -3.5t-7.5 -10.5t-3 -16v-363q0 -9 3 -16
t7.5 -10.5t10.5 -3.5zM198 633q-28 0 -48.5 19.5t-20.5 46.5q0 28 20.5 47.5t48.5 19.5q29 0 50 -19.5t21 -46.5q0 -28 -21 -47.5t-50 -19.5zM87 795v77h222v-77h-222z" />
    <glyph glyph-name="uni1ECC" unicode="&#x1ecc;" horiz-adv-x="397" 
d="M197 -12q-53 0 -93 13t-62 53t-22 119v292q0 50 22 79.5t62 42.5t93 13t93.5 -13t63.5 -42.5t23 -79.5v-291q0 -80 -23 -120t-63.5 -53t-93.5 -13zM197 80q6 0 11 3.5t7.5 10.5t2.5 16v363q0 9 -2.5 16t-7.5 10.5t-11 3.5t-10.5 -3.5t-7.5 -10.5t-3 -16v-363q0 -9 3 -16
t7.5 -10.5t10.5 -3.5zM198 -147q-25 0 -42 17t-17 40q0 24 17 41t42 17t43 -17t18 -41q0 -23 -18 -40t-43 -17z" />
    <glyph glyph-name="Ograve" unicode="&#xd2;" horiz-adv-x="397" 
d="M197 -12q-53 0 -93 13t-62 53t-22 119v292q0 50 22 79.5t62 42.5t93 13t93.5 -13t63.5 -42.5t23 -79.5v-291q0 -80 -23 -120t-63.5 -53t-93.5 -13zM197 80q6 0 11 3.5t7.5 10.5t2.5 16v363q0 9 -2.5 16t-7.5 10.5t-11 3.5t-10.5 -3.5t-7.5 -10.5t-3 -16v-363q0 -9 3 -16
t7.5 -10.5t10.5 -3.5zM170 635l-119 98h141l73 -98h-95z" />
    <glyph glyph-name="uni1ECE" unicode="&#x1ece;" horiz-adv-x="397" 
d="M197 -12q-53 0 -93 13t-62 53t-22 119v292q0 50 22 79.5t62 42.5t93 13t93.5 -13t63.5 -42.5t23 -79.5v-291q0 -80 -23 -120t-63.5 -53t-93.5 -13zM197 80q6 0 11 3.5t7.5 10.5t2.5 16v363q0 9 -2.5 16t-7.5 10.5t-11 3.5t-10.5 -3.5t-7.5 -10.5t-3 -16v-363q0 -9 3 -16
t7.5 -10.5t10.5 -3.5zM155 628v9q0 15 10 23t20 14.5t10 17.5v7q0 6 -2 12.5t-9 6.5q-11 0 -11 -20l-67 10q2 32 23 48t62 16q45 0 68 -11.5t23 -58.5v-4q0 -23 -11.5 -31.5t-22.5 -13t-11 -16.5v-9h-82z" />
    <glyph glyph-name="Ohorn" unicode="&#x1a0;" horiz-adv-x="397" 
d="M197 -12q-53 0 -93 13t-62 53t-22 119v292q0 50 22 79.5t62 42.5t93 13t93.5 -13t63.5 -42.5t23 -79.5v-291q0 -80 -23 -120t-63.5 -53t-93.5 -13zM197 80q6 0 11 3.5t7.5 10.5t2.5 16v363q0 9 -2.5 16t-7.5 10.5t-11 3.5t-10.5 -3.5t-7.5 -10.5t-3 -16v-363q0 -9 3 -16
t7.5 -10.5t10.5 -3.5zM241 525v66h21q42 0 42 47v20h100v-20q0 -63 -40.5 -88t-122.5 -25z" />
    <glyph glyph-name="uni1EDA" unicode="&#x1eda;" horiz-adv-x="397" 
d="M197 -12q-53 0 -93 13t-62 53t-22 119v292q0 50 22 79.5t62 42.5t93 13t93.5 -13t63.5 -42.5t23 -79.5v-291q0 -80 -23 -120t-63.5 -53t-93.5 -13zM197 80q6 0 11 3.5t7.5 10.5t2.5 16v363q0 9 -2.5 16t-7.5 10.5t-11 3.5t-10.5 -3.5t-7.5 -10.5t-3 -16v-363q0 -9 3 -16
t7.5 -10.5t10.5 -3.5zM241 525v66h21q42 0 42 47v20h100v-20q0 -63 -40.5 -88t-122.5 -25zM129 635l77 103h138l-130 -103h-85z" />
    <glyph glyph-name="uni1EE2" unicode="&#x1ee2;" horiz-adv-x="397" 
d="M197 -12q-53 0 -93 13t-62 53t-22 119v292q0 50 22 79.5t62 42.5t93 13t93.5 -13t63.5 -42.5t23 -79.5v-291q0 -80 -23 -120t-63.5 -53t-93.5 -13zM197 80q6 0 11 3.5t7.5 10.5t2.5 16v363q0 9 -2.5 16t-7.5 10.5t-11 3.5t-10.5 -3.5t-7.5 -10.5t-3 -16v-363q0 -9 3 -16
t7.5 -10.5t10.5 -3.5zM241 525v66h21q42 0 42 47v20h100v-20q0 -63 -40.5 -88t-122.5 -25zM198 -147q-25 0 -42 17t-17 40q0 24 17 41t42 17t43 -17t18 -41q0 -23 -18 -40t-43 -17z" />
    <glyph glyph-name="uni1EDC" unicode="&#x1edc;" horiz-adv-x="397" 
d="M197 -12q-53 0 -93 13t-62 53t-22 119v292q0 50 22 79.5t62 42.5t93 13t93.5 -13t63.5 -42.5t23 -79.5v-291q0 -80 -23 -120t-63.5 -53t-93.5 -13zM197 80q6 0 11 3.5t7.5 10.5t2.5 16v363q0 9 -2.5 16t-7.5 10.5t-11 3.5t-10.5 -3.5t-7.5 -10.5t-3 -16v-363q0 -9 3 -16
t7.5 -10.5t10.5 -3.5zM241 525v66h21q42 0 42 47v20h100v-20q0 -63 -40.5 -88t-122.5 -25zM170 635l-119 98h141l73 -98h-95z" />
    <glyph glyph-name="uni1EDE" unicode="&#x1ede;" horiz-adv-x="397" 
d="M197 -12q-53 0 -93 13t-62 53t-22 119v292q0 50 22 79.5t62 42.5t93 13t93.5 -13t63.5 -42.5t23 -79.5v-291q0 -80 -23 -120t-63.5 -53t-93.5 -13zM197 80q6 0 11 3.5t7.5 10.5t2.5 16v363q0 9 -2.5 16t-7.5 10.5t-11 3.5t-10.5 -3.5t-7.5 -10.5t-3 -16v-363q0 -9 3 -16
t7.5 -10.5t10.5 -3.5zM241 525v66h21q42 0 42 47v20h100v-20q0 -63 -40.5 -88t-122.5 -25zM155 628v9q0 15 10 23t20 14.5t10 17.5v7q0 6 -2 12.5t-9 6.5q-11 0 -11 -20l-67 10q2 32 23 48t62 16q45 0 68 -11.5t23 -58.5v-4q0 -23 -11.5 -31.5t-22.5 -13t-11 -16.5v-9h-82z
" />
    <glyph glyph-name="uni1EE0" unicode="&#x1ee0;" horiz-adv-x="397" 
d="M197 -12q-53 0 -93 13t-62 53t-22 119v292q0 50 22 79.5t62 42.5t93 13t93.5 -13t63.5 -42.5t23 -79.5v-291q0 -80 -23 -120t-63.5 -53t-93.5 -13zM197 80q6 0 11 3.5t7.5 10.5t2.5 16v363q0 9 -2.5 16t-7.5 10.5t-11 3.5t-10.5 -3.5t-7.5 -10.5t-3 -16v-363q0 -9 3 -16
t7.5 -10.5t10.5 -3.5zM241 525v66h21q42 0 42 47v20h100v-20q0 -63 -40.5 -88t-122.5 -25zM243 635q-17 0 -32 7t-29 14q-12 7 -23.5 11.5t-23.5 4.5q-13 0 -20 -10.5t-8 -25.5h-41q0 47 19.5 76t51.5 29q18 0 33 -5.5t28 -12.5q12 -6 23.5 -11t22.5 -5q16 0 22.5 9.5
t8.5 21.5h46q0 -34 -12.5 -57t-30.5 -34.5t-35 -11.5z" />
    <glyph glyph-name="Ohungarumlaut" unicode="&#x150;" horiz-adv-x="397" 
d="M197 -12q-53 0 -93 13t-62 53t-22 119v292q0 50 22 79.5t62 42.5t93 13t93.5 -13t63.5 -42.5t23 -79.5v-291q0 -80 -23 -120t-63.5 -53t-93.5 -13zM197 80q6 0 11 3.5t7.5 10.5t2.5 16v363q0 9 -2.5 16t-7.5 10.5t-11 3.5t-10.5 -3.5t-7.5 -10.5t-3 -16v-363q0 -9 3 -16
t7.5 -10.5t10.5 -3.5zM99 631l8 106h116l-65 -106h-59zM212 631l28 106h116l-75 -106h-69z" />
    <glyph glyph-name="uni020E" unicode="&#x20e;" horiz-adv-x="397" 
d="M201 754q54 0 80 -18.5t34.5 -43.5t8.5 -46h-82q0 18 -13 27t-29 9t-29 -8.5t-14 -27.5h-83q0 30 13 54.5t41 39t73 14.5zM197 -12q-53 0 -93 13t-62 53t-22 119v292q0 50 22 79.5t62 42.5t93 13t93.5 -13t63.5 -42.5t23 -79.5v-291q0 -80 -23 -120t-63.5 -53t-93.5 -13z
M197 80q6 0 11 3.5t7.5 10.5t2.5 16v363q0 9 -2.5 16t-7.5 10.5t-11 3.5t-10.5 -3.5t-7.5 -10.5t-3 -16v-363q0 -9 3 -16t7.5 -10.5t10.5 -3.5z" />
    <glyph glyph-name="Omacron" unicode="&#x14c;" horiz-adv-x="397" 
d="M197 -12q-53 0 -93 13t-62 53t-22 119v292q0 50 22 79.5t62 42.5t93 13t93.5 -13t63.5 -42.5t23 -79.5v-291q0 -80 -23 -120t-63.5 -53t-93.5 -13zM197 80q6 0 11 3.5t7.5 10.5t2.5 16v363q0 9 -2.5 16t-7.5 10.5t-11 3.5t-10.5 -3.5t-7.5 -10.5t-3 -16v-363q0 -9 3 -16
t7.5 -10.5t10.5 -3.5zM88 642v77h222v-77h-222z" />
    <glyph glyph-name="uni03A9" unicode="&#x3a9;" horiz-adv-x="600" 
d="M36 0v114l147 -4l-29 17q-22 16 -44.5 39t-37.5 60t-15 94q0 49 12 93t42 78.5t82 54t132 19.5t131 -20.5t79.5 -54.5t40 -76t11.5 -85q0 -61 -16 -100t-38.5 -62.5t-44.5 -39.5l-29 -17l149 4v-114h-252v92q21 19 37 38t26.5 41.5t15.5 51t5 67.5q0 47 -9 87t-34.5 64.5
t-73.5 24.5q-47 0 -73 -24t-36 -64t-10 -89q0 -34 5 -63t15 -53.5t26.5 -44t38.5 -36.5v-92h-253z" />
    <glyph glyph-name="uni01EA" unicode="&#x1ea;" horiz-adv-x="397" 
d="M197 -12q-53 0 -93 13t-62 53t-22 119v292q0 50 22 79.5t62 42.5t93 13t93.5 -13t63.5 -42.5t23 -79.5v-291q0 -80 -23 -120t-63.5 -53t-93.5 -13zM197 80q6 0 11 3.5t7.5 10.5t2.5 16v363q0 9 -2.5 16t-7.5 10.5t-11 3.5t-10.5 -3.5t-7.5 -10.5t-3 -16v-363q0 -9 3 -16
t7.5 -10.5t10.5 -3.5zM215 -151q-43 0 -68 21.5t-25 46.5q0 28 24.5 54.5t65.5 30.5l59 -2q-27 -7 -39 -25.5t-12 -35.5q0 -18 12.5 -28t24.5 -10q7 0 11.5 1.5t6.5 1.5l17 -37q-5 -3 -22 -10.5t-55 -7.5z" />
    <glyph glyph-name="Oslash" unicode="&#xd8;" horiz-adv-x="411" 
d="M9 -37l337 667h67l-338 -667h-66zM207 -12q-54 0 -95 13t-64 53t-23 119v292q0 50 23 79.5t64 42.5t95 13q55 0 94 -13t60 -42.5t21 -79.5v-291q0 -80 -21 -120t-60 -53t-94 -13zM207 80q5 0 8.5 2.5t5.5 9.5t2 18v363q0 12 -2 18.5t-5.5 9t-8.5 2.5t-8.5 -2.5t-5.5 -9
t-2 -18.5v-363q0 -11 2 -18t5.5 -9.5t8.5 -2.5z" />
    <glyph glyph-name="Oslashacute" unicode="&#x1fe;" horiz-adv-x="411" 
d="M9 -37l337 667h67l-338 -667h-66zM207 -12q-54 0 -95 13t-64 53t-23 119v292q0 50 23 79.5t64 42.5t95 13q55 0 94 -13t60 -42.5t21 -79.5v-291q0 -80 -21 -120t-60 -53t-94 -13zM207 80q5 0 8.5 2.5t5.5 9.5t2 18v363q0 12 -2 18.5t-5.5 9t-8.5 2.5t-8.5 -2.5t-5.5 -9
t-2 -18.5v-363q0 -11 2 -18t5.5 -9.5t8.5 -2.5zM136 635l77 103h138l-130 -103h-85z" />
    <glyph glyph-name="Otilde" unicode="&#xd5;" horiz-adv-x="397" 
d="M197 -12q-53 0 -93 13t-62 53t-22 119v292q0 50 22 79.5t62 42.5t93 13t93.5 -13t63.5 -42.5t23 -79.5v-291q0 -80 -23 -120t-63.5 -53t-93.5 -13zM197 80q6 0 11 3.5t7.5 10.5t2.5 16v363q0 9 -2.5 16t-7.5 10.5t-11 3.5t-10.5 -3.5t-7.5 -10.5t-3 -16v-363q0 -9 3 -16
t7.5 -10.5t10.5 -3.5zM243 635q-17 0 -32 7t-29 14q-12 7 -23.5 11.5t-23.5 4.5q-13 0 -20 -10.5t-8 -25.5h-41q0 47 19.5 76t51.5 29q18 0 33 -5.5t28 -12.5q12 -6 23.5 -11t22.5 -5q16 0 22.5 9.5t8.5 21.5h46q0 -34 -12.5 -57t-30.5 -34.5t-35 -11.5z" />
    <glyph glyph-name="uni022C" unicode="&#x22c;" horiz-adv-x="397" 
d="M197 -12q-53 0 -93 13t-62 53t-22 119v292q0 50 22 79.5t62 42.5t93 13t93.5 -13t63.5 -42.5t23 -79.5v-291q0 -80 -23 -120t-63.5 -53t-93.5 -13zM197 80q6 0 11 3.5t7.5 10.5t2.5 16v363q0 9 -2.5 16t-7.5 10.5t-11 3.5t-10.5 -3.5t-7.5 -10.5t-3 -16v-363q0 -9 3 -16
t7.5 -10.5t10.5 -3.5zM243 635q-17 0 -32 7t-29 14q-12 7 -23.5 11.5t-23.5 4.5q-13 0 -20 -10.5t-8 -25.5h-41q0 47 19.5 76t51.5 29q18 0 33 -5.5t28 -12.5q12 -6 23.5 -11t22.5 -5q16 0 22.5 9.5t8.5 21.5h46q0 -34 -12.5 -57t-30.5 -34.5t-35 -11.5zM88 764v77h222v-77
h-222z" />
    <glyph glyph-name="P" unicode="P" horiz-adv-x="398" 
d="M25 0v591h232q66 0 95.5 -28.5t29.5 -72.5v-98q0 -44 -10 -82.5t-35.5 -62t-71.5 -23.5h-74v-224h-166zM191 310h12q11 0 16 21.5t5 76.5v10q0 49 -2.5 69t-15.5 20h-15v-197z" />
    <glyph glyph-name="uni041F" unicode="&#x41f;" horiz-adv-x="415" 
d="M25 0v591h365v-591h-166v480h-33v-480h-166z" />
    <glyph glyph-name="Q" unicode="Q" horiz-adv-x="405" 
d="M281 -129l-68 121h-7h-7q-53 0 -93.5 13t-63 53t-22.5 119v288q0 50 23.5 79.5t65.5 42.5t97 13q56 0 96 -13t61.5 -42.5t21.5 -79.5v-287q0 -61 -13.5 -97.5t-38.5 -56.5l52 -92zM206 84q6 0 10.5 2.5t7 9.5t2.5 18v359q0 12 -2.5 18.5t-7 9t-10.5 2.5t-10.5 -2.5t-7 -9
t-2.5 -18.5v-359q0 -11 2.5 -18t7 -9.5t10.5 -2.5z" />
    <glyph glyph-name="R" unicode="R" horiz-adv-x="424" 
d="M25 0v591h240q66 0 95.5 -28.5t29.5 -72.5v-90q0 -43 -20.5 -78.5t-73.5 -41.5v-2q35 -7 48.5 -22.5t22.5 -51.5l52 -204h-177l-34 194q-4 20 -7 31.5t-7 11.5h-3v-237h-166zM191 347h16q13 0 20 11t7 38v65q0 27 -5.5 36.5t-18.5 9.5h-19v-160z" />
    <glyph glyph-name="Racute" unicode="&#x154;" horiz-adv-x="424" 
d="M25 0v591h240q66 0 95.5 -28.5t29.5 -72.5v-90q0 -43 -20.5 -78.5t-73.5 -41.5v-2q35 -7 48.5 -22.5t22.5 -51.5l52 -204h-177l-34 194q-4 20 -7 31.5t-7 11.5h-3v-237h-166zM191 347h16q13 0 20 11t7 38v65q0 27 -5.5 36.5t-18.5 9.5h-19v-160zM142 635l77 103h138
l-130 -103h-85z" />
    <glyph glyph-name="Rcaron" unicode="&#x158;" horiz-adv-x="424" 
d="M25 0v591h240q66 0 95.5 -28.5t29.5 -72.5v-90q0 -43 -20.5 -78.5t-73.5 -41.5v-2q35 -7 48.5 -22.5t22.5 -51.5l52 -204h-177l-34 194q-4 20 -7 31.5t-7 11.5h-3v-237h-166zM191 347h16q13 0 20 11t7 38v65q0 27 -5.5 36.5t-18.5 9.5h-19v-160zM170 632l-101 109h107
l37 -33l37 32h105l-102 -108h-83z" />
    <glyph glyph-name="uni0156" unicode="&#x156;" horiz-adv-x="424" 
d="M25 0v591h240q66 0 95.5 -28.5t29.5 -72.5v-90q0 -43 -20.5 -78.5t-73.5 -41.5v-2q35 -7 48.5 -22.5t22.5 -51.5l52 -204h-177l-34 194q-4 20 -7 31.5t-7 11.5h-3v-237h-166zM191 347h16q13 0 20 11t7 38v65q0 27 -5.5 36.5t-18.5 9.5h-19v-160zM145 -211q17 24 26 43
t9 31q0 8 -8.5 14t-16.5 15t-8 24q0 18 17.5 33t45.5 15q29 0 47.5 -15.5t18.5 -39.5q0 -15 -11 -37.5t-26.5 -44.5t-31.5 -38h-62z" />
    <glyph glyph-name="uni0210" unicode="&#x210;" horiz-adv-x="424" 
d="M25 0v591h240q66 0 95.5 -28.5t29.5 -72.5v-90q0 -43 -20.5 -78.5t-73.5 -41.5v-2q35 -7 48.5 -22.5t22.5 -51.5l52 -204h-177l-34 194q-4 20 -7 31.5t-7 11.5h-3v-237h-166zM191 347h16q13 0 20 11t7 38v65q0 27 -5.5 36.5t-18.5 9.5h-19v-160zM298 646h-59l-65 106h116
zM185 646h-69l-75 106h116z" />
    <glyph glyph-name="uni0212" unicode="&#x212;" horiz-adv-x="424" 
d="M214 754q54 0 80 -18.5t34.5 -43.5t8.5 -46h-82q0 18 -13 27t-29 9t-29 -8.5t-14 -27.5h-83q0 30 13 54.5t41 39t73 14.5zM25 0v591h240q66 0 95.5 -28.5t29.5 -72.5v-90q0 -43 -20.5 -78.5t-73.5 -41.5v-2q35 -7 48.5 -22.5t22.5 -51.5l52 -204h-177l-34 194
q-4 20 -7 31.5t-7 11.5h-3v-237h-166zM191 347h16q13 0 20 11t7 38v65q0 27 -5.5 36.5t-18.5 9.5h-19v-160z" />
    <glyph glyph-name="S" unicode="S" horiz-adv-x="405" 
d="M199 -8q-59 0 -100.5 14.5t-63 53t-21.5 109.5v37h83.5h83.5v-51q0 -27 2.5 -40.5t7 -18t11.5 -4.5q11 0 15.5 10.5t4.5 44.5q0 32 -10 47t-33.5 25t-63.5 27q-37 17 -58 40.5t-29.5 57t-8.5 78.5q0 63 16.5 100.5t56.5 54t110 16.5q90 0 136 -35.5t46 -108.5v-76h-79.5
h-79.5v26q0 41 -2.5 54.5t-18.5 13.5q-13 0 -16.5 -9t-3.5 -31q0 -29 11.5 -44t30.5 -22.5t40 -15.5q44 -16 71.5 -33.5t40.5 -49t13 -91.5q0 -67 -23 -106.5t-66 -56t-103 -16.5z" />
    <glyph glyph-name="Sacute" unicode="&#x15a;" horiz-adv-x="405" 
d="M199 -8q-59 0 -100.5 14.5t-63 53t-21.5 109.5v37h83.5h83.5v-51q0 -27 2.5 -40.5t7 -18t11.5 -4.5q11 0 15.5 10.5t4.5 44.5q0 32 -10 47t-33.5 25t-63.5 27q-37 17 -58 40.5t-29.5 57t-8.5 78.5q0 63 16.5 100.5t56.5 54t110 16.5q90 0 136 -35.5t46 -108.5v-76h-79.5
h-79.5v26q0 41 -2.5 54.5t-18.5 13.5q-13 0 -16.5 -9t-3.5 -31q0 -29 11.5 -44t30.5 -22.5t40 -15.5q44 -16 71.5 -33.5t40.5 -49t13 -91.5q0 -67 -23 -106.5t-66 -56t-103 -16.5zM133 635l77 103h138l-130 -103h-85z" />
    <glyph glyph-name="Scaron" unicode="&#x160;" horiz-adv-x="405" 
d="M199 -8q-59 0 -100.5 14.5t-63 53t-21.5 109.5v37h83.5h83.5v-51q0 -27 2.5 -40.5t7 -18t11.5 -4.5q11 0 15.5 10.5t4.5 44.5q0 32 -10 47t-33.5 25t-63.5 27q-37 17 -58 40.5t-29.5 57t-8.5 78.5q0 63 16.5 100.5t56.5 54t110 16.5q90 0 136 -35.5t46 -108.5v-76h-79.5
h-79.5v26q0 41 -2.5 54.5t-18.5 13.5q-13 0 -16.5 -9t-3.5 -31q0 -29 11.5 -44t30.5 -22.5t40 -15.5q44 -16 71.5 -33.5t40.5 -49t13 -91.5q0 -67 -23 -106.5t-66 -56t-103 -16.5zM161 632l-101 109h107l37 -33l37 32h105l-102 -108h-83z" />
    <glyph glyph-name="Scedilla" unicode="&#x15e;" horiz-adv-x="405" 
d="M199 -8q-59 0 -100.5 14.5t-63 53t-21.5 109.5v37h83.5h83.5v-51q0 -27 2.5 -40.5t7 -18t11.5 -4.5q11 0 15.5 10.5t4.5 44.5q0 32 -10 47t-33.5 25t-63.5 27q-37 17 -58 40.5t-29.5 57t-8.5 78.5q0 63 16.5 100.5t56.5 54t110 16.5q90 0 136 -35.5t46 -108.5v-76h-79.5
h-79.5v26q0 41 -2.5 54.5t-18.5 13.5q-13 0 -16.5 -9t-3.5 -31q0 -29 11.5 -44t30.5 -22.5t40 -15.5q44 -16 71.5 -33.5t40.5 -49t13 -91.5q0 -67 -23 -106.5t-66 -56t-103 -16.5zM198 -174q-22 0 -41 8.5t-26 12.5l18 47q7 -6 19.5 -10.5t22.5 -4.5q13 0 20 6.5t7 18.5
q0 8 -5 12t-12 4q-6 0 -9.5 -2t-5.5 -4l-41 22l31 64h56l-26 -53l-7 4q6 3 16 6.5t24 3.5q30 0 46.5 -19t16.5 -41q0 -30 -27 -52.5t-77 -22.5z" />
    <glyph glyph-name="uni018F" unicode="&#x18f;" horiz-adv-x="395" 
d="M193 -12q-54 0 -93.5 13t-60.5 53t-21 120v74h159v-138q0 -11 2 -18t6 -9.5t8 -2.5q5 0 8.5 2.5t5.5 9.5t2 18v363q0 12 -2 18.5t-5.5 9t-8.5 2.5q-4 0 -8 -2.5t-6 -9t-2 -18.5v-146h-159v138q0 50 21 79.5t60.5 42.5t93.5 13q55 0 95.5 -13t63.5 -42.5t23 -79.5v-292
q0 -79 -23 -119t-63.5 -53t-95.5 -13zM18 216v73h212v-73h-212z" />
    <glyph glyph-name="Scircumflex" unicode="&#x15c;" horiz-adv-x="405" 
d="M199 -8q-59 0 -100.5 14.5t-63 53t-21.5 109.5v37h83.5h83.5v-51q0 -27 2.5 -40.5t7 -18t11.5 -4.5q11 0 15.5 10.5t4.5 44.5q0 32 -10 47t-33.5 25t-63.5 27q-37 17 -58 40.5t-29.5 57t-8.5 78.5q0 63 16.5 100.5t56.5 54t110 16.5q90 0 136 -35.5t46 -108.5v-76h-79.5
h-79.5v26q0 41 -2.5 54.5t-18.5 13.5q-13 0 -16.5 -9t-3.5 -31q0 -29 11.5 -44t30.5 -22.5t40 -15.5q44 -16 71.5 -33.5t40.5 -49t13 -91.5q0 -67 -23 -106.5t-66 -56t-103 -16.5zM60 632l101 109h83l102 -108h-105l-37 32l-37 -33h-107z" />
    <glyph glyph-name="uni0218" unicode="&#x218;" horiz-adv-x="405" 
d="M199 -8q-59 0 -100.5 14.5t-63 53t-21.5 109.5v37h83.5h83.5v-51q0 -27 2.5 -40.5t7 -18t11.5 -4.5q11 0 15.5 10.5t4.5 44.5q0 32 -10 47t-33.5 25t-63.5 27q-37 17 -58 40.5t-29.5 57t-8.5 78.5q0 63 16.5 100.5t56.5 54t110 16.5q90 0 136 -35.5t46 -108.5v-76h-79.5
h-79.5v26q0 41 -2.5 54.5t-18.5 13.5q-13 0 -16.5 -9t-3.5 -31q0 -29 11.5 -44t30.5 -22.5t40 -15.5q44 -16 71.5 -33.5t40.5 -49t13 -91.5q0 -67 -23 -106.5t-66 -56t-103 -16.5zM136 -211q17 24 26 43t9 31q0 8 -8.5 14t-16.5 15t-8 24q0 18 17.5 33t45.5 15
q29 0 47.5 -15.5t18.5 -39.5q0 -15 -11 -37.5t-26.5 -44.5t-31.5 -38h-62z" />
    <glyph glyph-name="uni0428" unicode="&#x428;" horiz-adv-x="626" 
d="M25 0v591h166v-480h39v480h166v-480h39v480h166v-591h-576z" />
    <glyph glyph-name="uni0429" unicode="&#x429;" horiz-adv-x="698" 
d="M559 -99v99h-534v591h166v-480h39v480h166v-480h39v480h166v-522h82v-168h-124z" />
    <glyph glyph-name="uni042C" unicode="&#x42c;" horiz-adv-x="396" 
d="M25 0v591h156v-155h79q25 0 50.5 -7.5t43 -31t17.5 -73.5v-163q0 -57 -10.5 -89.5t-29 -47.5t-43 -19.5t-53.5 -4.5h-210zM181 80h18q7 0 10.5 5t4.5 23t1 58v125q0 20 -1 30.5t-4.5 15t-11.5 4.5h-17v-261z" />
    <glyph glyph-name="T" unicode="T" horiz-adv-x="345" 
d="M93 0v480h-85v111h329v-111h-85v-480h-159z" />
    <glyph glyph-name="Tbar" unicode="&#x166;" horiz-adv-x="345" 
d="M93 0v480h-85v111h329v-111h-85v-480h-159zM62 331v77h222v-77h-222z" />
    <glyph glyph-name="Tcaron" unicode="&#x164;" horiz-adv-x="345" 
d="M93 0v480h-85v111h329v-111h-85v-480h-159zM131 632l-101 109h107l37 -33l37 32h105l-102 -108h-83z" />
    <glyph glyph-name="uni0162" unicode="&#x162;" horiz-adv-x="345" 
d="M93 0v480h-85v111h329v-111h-85v-480h-159zM168 -174q-22 0 -41 8.5t-26 12.5l18 47q7 -6 19.5 -10.5t22.5 -4.5q13 0 20 6.5t7 18.5q0 8 -5 12t-12 4q-6 0 -9.5 -2t-5.5 -4l-41 22l31 64h56l-26 -53l-7 4q6 3 16 6.5t24 3.5q30 0 46.5 -19t16.5 -41q0 -30 -27 -52.5
t-77 -22.5z" />
    <glyph glyph-name="uni021A" unicode="&#x21a;" horiz-adv-x="345" 
d="M93 0v480h-85v111h329v-111h-85v-480h-159zM106 -211q17 24 26 43t9 31q0 8 -8.5 14t-16.5 15t-8 24q0 18 17.5 33t45.5 15q29 0 47.5 -15.5t18.5 -39.5q0 -15 -11 -37.5t-26.5 -44.5t-31.5 -38h-62z" />
    <glyph glyph-name="uni0422" unicode="&#x422;" horiz-adv-x="345" 
d="M93 0v480h-85v111h329v-111h-85v-480h-159z" />
    <glyph glyph-name="Thorn" unicode="&#xde;" horiz-adv-x="407" 
d="M25 0v591h167v-97h65q66 0 95.5 -28t29.5 -73v-98q0 -45 -10 -83t-35.5 -61.5t-71.5 -23.5h-74v-127h-166zM191 213h12q11 0 16 21.5t5 76.5v10q0 50 -2 69.5t-16 19.5h-15v-197z" />
    <glyph glyph-name="uni0426" unicode="&#x426;" horiz-adv-x="493" 
d="M354 -99v99h-329v591h166v-480h39v480h166v-522h82v-168h-124z" />
    <glyph glyph-name="uni040B" unicode="&#x40b;" horiz-adv-x="464" 
d="M90 0v480h-85v111h329v-111h-85v-71q8 8 31.5 16t48.5 8q44 0 68 -14.5t33 -43.5t9 -73v-302h-156v301q0 10 -2 16t-5.5 9t-9.5 3q-4 0 -9 -0.5t-8 -2.5v-326h-159z" />
    <glyph glyph-name="U" unicode="U" horiz-adv-x="402" 
d="M201 -12q-40 0 -72.5 5.5t-55.5 22.5t-35.5 52t-12.5 95v428h159v-476q0 -11 2 -18t6 -9.5t9 -2.5t9 2.5t6 9.5t2 18v476h159v-427q0 -60 -12.5 -95.5t-35.5 -52.5t-55.5 -22.5t-72.5 -5.5z" />
    <glyph glyph-name="uni0423" unicode="&#x423;" horiz-adv-x="394" 
d="M135 -20q-34 0 -67.5 5t-52.5 10v80q8 -3 18.5 -4.5t20.5 -1.5q16 0 31.5 4t15.5 26q0 10 -2.5 19.5t-5.5 25.5l-88 447h161l36 -343h2l37 343h148l-86 -433q-19 -97 -57.5 -137.5t-110.5 -40.5z" />
    <glyph glyph-name="Uacute" unicode="&#xda;" horiz-adv-x="402" 
d="M201 -12q-40 0 -72.5 5.5t-55.5 22.5t-35.5 52t-12.5 95v428h159v-476q0 -11 2 -18t6 -9.5t9 -2.5t9 2.5t6 9.5t2 18v476h159v-427q0 -60 -12.5 -95.5t-35.5 -52.5t-55.5 -22.5t-72.5 -5.5zM131 635l77 103h138l-130 -103h-85z" />
    <glyph glyph-name="Ubreve" unicode="&#x16c;" horiz-adv-x="402" 
d="M201 -12q-40 0 -72.5 5.5t-55.5 22.5t-35.5 52t-12.5 95v428h159v-476q0 -11 2 -18t6 -9.5t9 -2.5t9 2.5t6 9.5t2 18v476h159v-427q0 -60 -12.5 -95.5t-35.5 -52.5t-55.5 -22.5t-72.5 -5.5zM199 631q-53 0 -79.5 18.5t-35 44t-8.5 45.5h82q0 -18 13 -27t29 -9
q17 0 29.5 8.5t13.5 27.5h83q0 -30 -13 -54.5t-40.5 -39t-73.5 -14.5z" />
    <glyph glyph-name="uni01D3" unicode="&#x1d3;" horiz-adv-x="402" 
d="M201 -12q-40 0 -72.5 5.5t-55.5 22.5t-35.5 52t-12.5 95v428h159v-476q0 -11 2 -18t6 -9.5t9 -2.5t9 2.5t6 9.5t2 18v476h159v-427q0 -60 -12.5 -95.5t-35.5 -52.5t-55.5 -22.5t-72.5 -5.5zM159 632l-101 109h107l37 -33l37 32h105l-102 -108h-83z" />
    <glyph glyph-name="Ucircumflex" unicode="&#xdb;" horiz-adv-x="402" 
d="M201 -12q-40 0 -72.5 5.5t-55.5 22.5t-35.5 52t-12.5 95v428h159v-476q0 -11 2 -18t6 -9.5t9 -2.5t9 2.5t6 9.5t2 18v476h159v-427q0 -60 -12.5 -95.5t-35.5 -52.5t-55.5 -22.5t-72.5 -5.5zM58 632l101 109h83l102 -108h-105l-37 32l-37 -33h-107z" />
    <glyph glyph-name="uni0214" unicode="&#x214;" horiz-adv-x="402" 
d="M201 -12q-40 0 -72.5 5.5t-55.5 22.5t-35.5 52t-12.5 95v428h159v-476q0 -11 2 -18t6 -9.5t9 -2.5t9 2.5t6 9.5t2 18v476h159v-427q0 -60 -12.5 -95.5t-35.5 -52.5t-55.5 -22.5t-72.5 -5.5zM287 646h-59l-65 106h116zM174 646h-69l-75 106h116z" />
    <glyph glyph-name="Udieresis" unicode="&#xdc;" horiz-adv-x="402" 
d="M201 -12q-40 0 -72.5 5.5t-55.5 22.5t-35.5 52t-12.5 95v428h159v-476q0 -11 2 -18t6 -9.5t9 -2.5t9 2.5t6 9.5t2 18v476h159v-427q0 -60 -12.5 -95.5t-35.5 -52.5t-55.5 -22.5t-72.5 -5.5zM132 630q-26 0 -43 16.5t-17 40.5t17 40t43 16q25 0 41.5 -16t16.5 -40
t-16.5 -40.5t-41.5 -16.5zM271 630q-26 0 -43 16.5t-17 40.5t17 40t43 16q25 0 41.5 -16t16.5 -40t-16.5 -40.5t-41.5 -16.5z" />
    <glyph glyph-name="uni01D7" unicode="&#x1d7;" horiz-adv-x="402" 
d="M201 -12q-40 0 -72.5 5.5t-55.5 22.5t-35.5 52t-12.5 95v428h159v-476q0 -11 2 -18t6 -9.5t9 -2.5t9 2.5t6 9.5t2 18v476h159v-427q0 -60 -12.5 -95.5t-35.5 -52.5t-55.5 -22.5t-72.5 -5.5zM132 630q-26 0 -43 16.5t-17 40.5t17 40t43 16q25 0 41.5 -16t16.5 -40
t-16.5 -40.5t-41.5 -16.5zM271 630q-26 0 -43 16.5t-17 40.5t17 40t43 16q25 0 41.5 -16t16.5 -40t-16.5 -40.5t-41.5 -16.5zM131 758l77 103h138l-130 -103h-85z" />
    <glyph glyph-name="uni01D9" unicode="&#x1d9;" horiz-adv-x="402" 
d="M201 -12q-40 0 -72.5 5.5t-55.5 22.5t-35.5 52t-12.5 95v428h159v-476q0 -11 2 -18t6 -9.5t9 -2.5t9 2.5t6 9.5t2 18v476h159v-427q0 -60 -12.5 -95.5t-35.5 -52.5t-55.5 -22.5t-72.5 -5.5zM132 630q-26 0 -43 16.5t-17 40.5t17 40t43 16q25 0 41.5 -16t16.5 -40
t-16.5 -40.5t-41.5 -16.5zM271 630q-26 0 -43 16.5t-17 40.5t17 40t43 16q25 0 41.5 -16t16.5 -40t-16.5 -40.5t-41.5 -16.5zM159 755l-101 109h107l37 -33l37 32h105l-102 -108h-83z" />
    <glyph glyph-name="uni01DB" unicode="&#x1db;" horiz-adv-x="402" 
d="M201 -12q-40 0 -72.5 5.5t-55.5 22.5t-35.5 52t-12.5 95v428h159v-476q0 -11 2 -18t6 -9.5t9 -2.5t9 2.5t6 9.5t2 18v476h159v-427q0 -60 -12.5 -95.5t-35.5 -52.5t-55.5 -22.5t-72.5 -5.5zM132 630q-26 0 -43 16.5t-17 40.5t17 40t43 16q25 0 41.5 -16t16.5 -40
t-16.5 -40.5t-41.5 -16.5zM271 630q-26 0 -43 16.5t-17 40.5t17 40t43 16q25 0 41.5 -16t16.5 -40t-16.5 -40.5t-41.5 -16.5zM172 758l-119 98h141l73 -98h-95z" />
    <glyph glyph-name="uni01D5" unicode="&#x1d5;" horiz-adv-x="402" 
d="M201 -12q-40 0 -72.5 5.5t-55.5 22.5t-35.5 52t-12.5 95v428h159v-476q0 -11 2 -18t6 -9.5t9 -2.5t9 2.5t6 9.5t2 18v476h159v-427q0 -60 -12.5 -95.5t-35.5 -52.5t-55.5 -22.5t-72.5 -5.5zM132 630q-26 0 -43 16.5t-17 40.5t17 40t43 16q25 0 41.5 -16t16.5 -40
t-16.5 -40.5t-41.5 -16.5zM271 630q-26 0 -43 16.5t-17 40.5t17 40t43 16q25 0 41.5 -16t16.5 -40t-16.5 -40.5t-41.5 -16.5zM90 765v77h222v-77h-222z" />
    <glyph glyph-name="uni1EE4" unicode="&#x1ee4;" horiz-adv-x="402" 
d="M201 -12q-40 0 -72.5 5.5t-55.5 22.5t-35.5 52t-12.5 95v428h159v-476q0 -11 2 -18t6 -9.5t9 -2.5t9 2.5t6 9.5t2 18v476h159v-427q0 -60 -12.5 -95.5t-35.5 -52.5t-55.5 -22.5t-72.5 -5.5zM200 -147q-25 0 -42 17t-17 40q0 24 17 41t42 17t43 -17t18 -41q0 -23 -18 -40
t-43 -17z" />
    <glyph glyph-name="Ugrave" unicode="&#xd9;" horiz-adv-x="402" 
d="M201 -12q-40 0 -72.5 5.5t-55.5 22.5t-35.5 52t-12.5 95v428h159v-476q0 -11 2 -18t6 -9.5t9 -2.5t9 2.5t6 9.5t2 18v476h159v-427q0 -60 -12.5 -95.5t-35.5 -52.5t-55.5 -22.5t-72.5 -5.5zM172 635l-119 98h141l73 -98h-95z" />
    <glyph glyph-name="uni1EE6" unicode="&#x1ee6;" horiz-adv-x="402" 
d="M201 -12q-40 0 -72.5 5.5t-55.5 22.5t-35.5 52t-12.5 95v428h159v-476q0 -11 2 -18t6 -9.5t9 -2.5t9 2.5t6 9.5t2 18v476h159v-427q0 -60 -12.5 -95.5t-35.5 -52.5t-55.5 -22.5t-72.5 -5.5zM157 628v9q0 15 10 23t20 14.5t10 17.5v7q0 6 -2 12.5t-9 6.5q-11 0 -11 -20
l-67 10q2 32 23 48t62 16q45 0 68 -11.5t23 -58.5v-4q0 -23 -11.5 -31.5t-22.5 -13t-11 -16.5v-9h-82z" />
    <glyph glyph-name="Uhorn" unicode="&#x1af;" horiz-adv-x="402" 
d="M201 -12q-40 0 -72.5 5.5t-55.5 22.5t-35.5 52t-12.5 95v428h159v-476q0 -11 2 -18t6 -9.5t9 -2.5t9 2.5t6 9.5t2 18v476h159v-427q0 -60 -12.5 -95.5t-35.5 -52.5t-55.5 -22.5t-72.5 -5.5zM251 525v66h21q42 0 42 47v20h100v-20q0 -63 -40.5 -88t-122.5 -25z" />
    <glyph glyph-name="uni1EE8" unicode="&#x1ee8;" horiz-adv-x="402" 
d="M201 -12q-40 0 -72.5 5.5t-55.5 22.5t-35.5 52t-12.5 95v428h159v-476q0 -11 2 -18t6 -9.5t9 -2.5t9 2.5t6 9.5t2 18v476h159v-427q0 -60 -12.5 -95.5t-35.5 -52.5t-55.5 -22.5t-72.5 -5.5zM251 525v66h21q42 0 42 47v20h100v-20q0 -63 -40.5 -88t-122.5 -25zM131 635
l77 103h138l-130 -103h-85z" />
    <glyph glyph-name="uni1EF0" unicode="&#x1ef0;" horiz-adv-x="402" 
d="M201 -12q-40 0 -72.5 5.5t-55.5 22.5t-35.5 52t-12.5 95v428h159v-476q0 -11 2 -18t6 -9.5t9 -2.5t9 2.5t6 9.5t2 18v476h159v-427q0 -60 -12.5 -95.5t-35.5 -52.5t-55.5 -22.5t-72.5 -5.5zM251 525v66h21q42 0 42 47v20h100v-20q0 -63 -40.5 -88t-122.5 -25zM200 -147
q-25 0 -42 17t-17 40q0 24 17 41t42 17t43 -17t18 -41q0 -23 -18 -40t-43 -17z" />
    <glyph glyph-name="uni1EEA" unicode="&#x1eea;" horiz-adv-x="402" 
d="M201 -12q-40 0 -72.5 5.5t-55.5 22.5t-35.5 52t-12.5 95v428h159v-476q0 -11 2 -18t6 -9.5t9 -2.5t9 2.5t6 9.5t2 18v476h159v-427q0 -60 -12.5 -95.5t-35.5 -52.5t-55.5 -22.5t-72.5 -5.5zM251 525v66h21q42 0 42 47v20h100v-20q0 -63 -40.5 -88t-122.5 -25zM172 635
l-119 98h141l73 -98h-95z" />
    <glyph glyph-name="uni1EEC" unicode="&#x1eec;" horiz-adv-x="402" 
d="M201 -12q-40 0 -72.5 5.5t-55.5 22.5t-35.5 52t-12.5 95v428h159v-476q0 -11 2 -18t6 -9.5t9 -2.5t9 2.5t6 9.5t2 18v476h159v-427q0 -60 -12.5 -95.5t-35.5 -52.5t-55.5 -22.5t-72.5 -5.5zM251 525v66h21q42 0 42 47v20h100v-20q0 -63 -40.5 -88t-122.5 -25zM157 628v9
q0 15 10 23t20 14.5t10 17.5v7q0 6 -2 12.5t-9 6.5q-11 0 -11 -20l-67 10q2 32 23 48t62 16q45 0 68 -11.5t23 -58.5v-4q0 -23 -11.5 -31.5t-22.5 -13t-11 -16.5v-9h-82z" />
    <glyph glyph-name="uni1EEE" unicode="&#x1eee;" horiz-adv-x="402" 
d="M201 -12q-40 0 -72.5 5.5t-55.5 22.5t-35.5 52t-12.5 95v428h159v-476q0 -11 2 -18t6 -9.5t9 -2.5t9 2.5t6 9.5t2 18v476h159v-427q0 -60 -12.5 -95.5t-35.5 -52.5t-55.5 -22.5t-72.5 -5.5zM251 525v66h21q42 0 42 47v20h100v-20q0 -63 -40.5 -88t-122.5 -25zM245 635
q-17 0 -32 7t-29 14q-12 7 -23.5 11.5t-23.5 4.5q-13 0 -20 -10.5t-8 -25.5h-41q0 47 19.5 76t51.5 29q18 0 33 -5.5t28 -12.5q12 -6 23.5 -11t22.5 -5q16 0 22.5 9.5t8.5 21.5h46q0 -34 -12.5 -57t-30.5 -34.5t-35 -11.5z" />
    <glyph glyph-name="Uhungarumlaut" unicode="&#x170;" horiz-adv-x="402" 
d="M201 -12q-40 0 -72.5 5.5t-55.5 22.5t-35.5 52t-12.5 95v428h159v-476q0 -11 2 -18t6 -9.5t9 -2.5t9 2.5t6 9.5t2 18v476h159v-427q0 -60 -12.5 -95.5t-35.5 -52.5t-55.5 -22.5t-72.5 -5.5zM101 631l8 106h116l-65 -106h-59zM214 631l28 106h116l-75 -106h-69z" />
    <glyph glyph-name="uni0216" unicode="&#x216;" horiz-adv-x="402" 
d="M203 754q54 0 80 -18.5t34.5 -43.5t8.5 -46h-82q0 18 -13 27t-29 9t-29 -8.5t-14 -27.5h-83q0 30 13 54.5t41 39t73 14.5zM201 -12q-40 0 -72.5 5.5t-55.5 22.5t-35.5 52t-12.5 95v428h159v-476q0 -11 2 -18t6 -9.5t9 -2.5t9 2.5t6 9.5t2 18v476h159v-427
q0 -60 -12.5 -95.5t-35.5 -52.5t-55.5 -22.5t-72.5 -5.5z" />
    <glyph glyph-name="Umacron" unicode="&#x16a;" horiz-adv-x="402" 
d="M201 -12q-40 0 -72.5 5.5t-55.5 22.5t-35.5 52t-12.5 95v428h159v-476q0 -11 2 -18t6 -9.5t9 -2.5t9 2.5t6 9.5t2 18v476h159v-427q0 -60 -12.5 -95.5t-35.5 -52.5t-55.5 -22.5t-72.5 -5.5zM90 642v77h222v-77h-222z" />
    <glyph glyph-name="Uogonek" unicode="&#x172;" horiz-adv-x="402" 
d="M201 -12q-40 0 -72.5 5.5t-55.5 22.5t-35.5 52t-12.5 95v428h159v-476q0 -11 2 -18t6 -9.5t9 -2.5t9 2.5t6 9.5t2 18v476h159v-427q0 -60 -12.5 -95.5t-35.5 -52.5t-55.5 -22.5t-72.5 -5.5zM214 -151q-43 0 -68 21.5t-25 46.5q0 28 24.5 54.5t65.5 30.5l59 -2
q-27 -7 -39 -25.5t-12 -35.5q0 -18 12.5 -28t24.5 -10q7 0 11.5 1.5t6.5 1.5l17 -37q-5 -3 -22 -10.5t-55 -7.5z" />
    <glyph glyph-name="Uring" unicode="&#x16e;" horiz-adv-x="402" 
d="M201 -12q-40 0 -72.5 5.5t-55.5 22.5t-35.5 52t-12.5 95v428h159v-476q0 -11 2 -18t6 -9.5t9 -2.5t9 2.5t6 9.5t2 18v476h159v-427q0 -60 -12.5 -95.5t-35.5 -52.5t-55.5 -22.5t-72.5 -5.5zM201 626q-40 0 -66.5 25.5t-26.5 61.5q0 38 26.5 63.5t66.5 25.5q38 0 65.5 -26
t27.5 -63q0 -36 -27.5 -61.5t-65.5 -25.5zM201 685q13 0 22 8t9 20q0 14 -9 22.5t-22 8.5t-22 -8.5t-9 -22.5q0 -12 9 -20t22 -8z" />
    <glyph glyph-name="uni040E" unicode="&#x40e;" horiz-adv-x="394" 
d="M135 -20q-34 0 -67.5 5t-52.5 10v80q8 -3 18.5 -4.5t20.5 -1.5q16 0 31.5 4t15.5 26q0 10 -2.5 19.5t-5.5 25.5l-88 447h161l36 -343h2l37 343h148l-86 -433q-19 -97 -57.5 -137.5t-110.5 -40.5zM195 631q-53 0 -79.5 18.5t-35 44t-8.5 45.5h82q0 -18 13 -27t29 -9
q17 0 29.5 8.5t13.5 27.5h83q0 -30 -13 -54.5t-40.5 -39t-73.5 -14.5z" />
    <glyph glyph-name="Utilde" unicode="&#x168;" horiz-adv-x="402" 
d="M201 -12q-40 0 -72.5 5.5t-55.5 22.5t-35.5 52t-12.5 95v428h159v-476q0 -11 2 -18t6 -9.5t9 -2.5t9 2.5t6 9.5t2 18v476h159v-427q0 -60 -12.5 -95.5t-35.5 -52.5t-55.5 -22.5t-72.5 -5.5zM245 635q-17 0 -32 7t-29 14q-12 7 -23.5 11.5t-23.5 4.5q-13 0 -20 -10.5
t-8 -25.5h-41q0 47 19.5 76t51.5 29q18 0 33 -5.5t28 -12.5q12 -6 23.5 -11t22.5 -5q16 0 22.5 9.5t8.5 21.5h46q0 -34 -12.5 -57t-30.5 -34.5t-35 -11.5z" />
    <glyph glyph-name="V" unicode="V" horiz-adv-x="419" 
d="M94 0l-86 591h165l36 -434h2l41 434h159l-88 -591h-229z" />
    <glyph glyph-name="uni0412" unicode="&#x412;" horiz-adv-x="401" 
d="M25 0v591h232q62 0 90.5 -28.5t28.5 -72.5v-64q0 -25 -7 -46.5t-23 -36.5q-10 -10 -25 -16.5t-32 -8.5v-2q14 0 27.5 -4t29.5 -15q18 -13 29 -36.5t11 -58.5v-77q0 -47 -17 -74.5t-49 -39t-77 -11.5h-218zM185 81h20q7 0 11 4.5t6.5 16t2.5 32.5v63q0 33 -5 42.5t-16 9.5
h-19v-168zM185 348h16q9 0 16 11.5t7 48.5v53q0 26 -5 36t-16 10h-18v-159z" />
    <glyph glyph-name="W" unicode="W" horiz-adv-x="637" 
d="M94 0l-86 591h165l41 -391l38 391h133l38 -391l41 391h165l-86 -591h-186l-39 258l-38 -258h-186z" />
    <glyph glyph-name="Wacute" unicode="&#x1e82;" horiz-adv-x="637" 
d="M94 0l-86 591h165l41 -391l38 391h133l38 -391l41 391h165l-86 -591h-186l-39 258l-38 -258h-186zM249 635l77 103h138l-130 -103h-85z" />
    <glyph glyph-name="Wcircumflex" unicode="&#x174;" horiz-adv-x="637" 
d="M94 0l-86 591h165l41 -391l38 391h133l38 -391l41 391h165l-86 -591h-186l-39 258l-38 -258h-186zM176 632l101 109h83l102 -108h-105l-37 32l-37 -33h-107z" />
    <glyph glyph-name="Wdieresis" unicode="&#x1e84;" horiz-adv-x="637" 
d="M94 0l-86 591h165l41 -391l38 391h133l38 -391l41 391h165l-86 -591h-186l-39 258l-38 -258h-186zM250 630q-26 0 -43 16.5t-17 40.5t17 40t43 16q25 0 41.5 -16t16.5 -40t-16.5 -40.5t-41.5 -16.5zM389 630q-26 0 -43 16.5t-17 40.5t17 40t43 16q25 0 41.5 -16t16.5 -40
t-16.5 -40.5t-41.5 -16.5z" />
    <glyph glyph-name="Wgrave" unicode="&#x1e80;" horiz-adv-x="637" 
d="M94 0l-86 591h165l41 -391l38 391h133l38 -391l41 391h165l-86 -591h-186l-39 258l-38 -258h-186zM290 635l-119 98h141l73 -98h-95z" />
    <glyph glyph-name="X" unicode="X" horiz-adv-x="404" 
d="M5 0l81 307l-79 284h159l35 -155l29 155h169l-77 -284l75 -307h-159l-35 154l-29 -154h-169z" />
    <glyph glyph-name="Y" unicode="Y" horiz-adv-x="392" 
d="M115 0v245l-111 346h157l32 -124l9 -52l9 52l33 124h144l-114 -355v-236h-159z" />
    <glyph glyph-name="Yacute" unicode="&#xdd;" horiz-adv-x="392" 
d="M115 0v245l-111 346h157l32 -124l9 -52l9 52l33 124h144l-114 -355v-236h-159zM133 635l77 103h138l-130 -103h-85z" />
    <glyph glyph-name="uni0462" unicode="&#x462;" horiz-adv-x="454" 
d="M83 0v591h156v-155h79q25 0 50.5 -7.5t43 -31t17.5 -73.5v-163q0 -57 -10.5 -89.5t-29 -47.5t-43 -19.5t-53.5 -4.5h-210zM239 80h18q7 0 10.5 5t4.5 23t1 58v125q0 20 -1 30.5t-4.5 15t-11.5 4.5h-17v-261zM16 481v73h326v-73h-326z" />
    <glyph glyph-name="Ycircumflex" unicode="&#x176;" horiz-adv-x="392" 
d="M115 0v245l-111 346h157l32 -124l9 -52l9 52l33 124h144l-114 -355v-236h-159zM60 632l101 109h83l102 -108h-105l-37 32l-37 -33h-107z" />
    <glyph glyph-name="Ydieresis" unicode="&#x178;" horiz-adv-x="392" 
d="M115 0v245l-111 346h157l32 -124l9 -52l9 52l33 124h144l-114 -355v-236h-159zM134 630q-26 0 -43 16.5t-17 40.5t17 40t43 16q25 0 41.5 -16t16.5 -40t-16.5 -40.5t-41.5 -16.5zM273 630q-26 0 -43 16.5t-17 40.5t17 40t43 16q25 0 41.5 -16t16.5 -40t-16.5 -40.5
t-41.5 -16.5z" />
    <glyph glyph-name="uni1EF4" unicode="&#x1ef4;" horiz-adv-x="392" 
d="M115 0v245l-111 346h157l32 -124l9 -52l9 52l33 124h144l-114 -355v-236h-159zM195 -147q-25 0 -42 17t-17 40q0 24 17 41t42 17t43 -17t18 -41q0 -23 -18 -40t-43 -17z" />
    <glyph glyph-name="uni042B" unicode="&#x42b;" horiz-adv-x="606" 
d="M25 0v591h156v-155h79q25 0 50.5 -7.5t43 -31t17.5 -73.5v-163q0 -57 -10.5 -89.5t-29 -47.5t-43 -19.5t-53.5 -4.5h-210zM181 80h18q7 0 10.5 5t4.5 23t1 58v125q0 20 -1 30.5t-4.5 15t-11.5 4.5h-17v-261zM422 0v591h159v-591h-159z" />
    <glyph glyph-name="Ygrave" unicode="&#x1ef2;" horiz-adv-x="392" 
d="M115 0v245l-111 346h157l32 -124l9 -52l9 52l33 124h144l-114 -355v-236h-159zM174 635l-119 98h141l73 -98h-95z" />
    <glyph glyph-name="uni1EF6" unicode="&#x1ef6;" horiz-adv-x="392" 
d="M115 0v245l-111 346h157l32 -124l9 -52l9 52l33 124h144l-114 -355v-236h-159zM159 628v9q0 15 10 23t20 14.5t10 17.5v7q0 6 -2 12.5t-9 6.5q-11 0 -11 -20l-67 10q2 32 23 48t62 16q45 0 68 -11.5t23 -58.5v-4q0 -23 -11.5 -31.5t-22.5 -13t-11 -16.5v-9h-82z" />
    <glyph glyph-name="uni0407" unicode="&#x407;" horiz-adv-x="209" 
d="M25 0v591h159v-591h-159zM36 630q-26 0 -43 16.5t-17 40.5t17 40t43 16q25 0 41.5 -16t16.5 -40t-16.5 -40.5t-41.5 -16.5zM175 630q-26 0 -43 16.5t-17 40.5t17 40t43 16q25 0 41.5 -16t16.5 -40t-16.5 -40.5t-41.5 -16.5z" />
    <glyph glyph-name="uni0232" unicode="&#x232;" horiz-adv-x="392" 
d="M115 0v245l-111 346h157l32 -124l9 -52l9 52l33 124h144l-114 -355v-236h-159zM92 642v77h222v-77h-222z" />
    <glyph glyph-name="uni1EF8" unicode="&#x1ef8;" horiz-adv-x="392" 
d="M115 0v245l-111 346h157l32 -124l9 -52l9 52l33 124h144l-114 -355v-236h-159zM247 635q-17 0 -32 7t-29 14q-12 7 -23.5 11.5t-23.5 4.5q-13 0 -20 -10.5t-8 -25.5h-41q0 47 19.5 76t51.5 29q18 0 33 -5.5t28 -12.5q12 -6 23.5 -11t22.5 -5q16 0 22.5 9.5t8.5 21.5h46
q0 -34 -12.5 -57t-30.5 -34.5t-35 -11.5z" />
    <glyph glyph-name="uni046A" unicode="&#x46a;" horiz-adv-x="661" 
d="M20 0l55 253q5 23 16 41t27.5 29.5t38.5 12.5l42 2l-177 146v107h610v-107l-176 -145l49 -4q21 -1 37 -12t27.5 -28.5t16.5 -41.5l55 -253h-177l-37 224q-3 19 -5.5 37.5t-5.5 37.5h-2v-299h-167l-1 299h-2q-3 -17 -5.5 -34.5t-5.5 -34.5l-36 -230h-177zM327 395l123 89
h-246z" />
    <glyph glyph-name="Z" unicode="Z" horiz-adv-x="308" 
d="M10 0v98l107 382h-97v111h278v-75l-115 -405h115v-111h-288z" />
    <glyph glyph-name="Zacute" unicode="&#x179;" horiz-adv-x="308" 
d="M10 0v98l107 382h-97v111h278v-75l-115 -405h115v-111h-288zM93 635l77 103h138l-130 -103h-85z" />
    <glyph glyph-name="Zcaron" unicode="&#x17d;" horiz-adv-x="308" 
d="M10 0v98l107 382h-97v111h278v-75l-115 -405h115v-111h-288zM121 632l-101 109h107l37 -33l37 32h105l-102 -108h-83z" />
    <glyph glyph-name="Zdotaccent" unicode="&#x17b;" horiz-adv-x="308" 
d="M10 0v98l107 382h-97v111h278v-75l-115 -405h115v-111h-288zM162 633q-28 0 -48.5 19.5t-20.5 46.5q0 28 20.5 47.5t48.5 19.5q29 0 50 -19.5t21 -46.5q0 -28 -21 -47.5t-50 -19.5z" />
    <glyph glyph-name="uni0417" unicode="&#x417;" horiz-adv-x="386" 
d="M191 -6q-60 0 -100.5 16t-61 48t-20.5 80v75h159v-25q0 -41 2.5 -61.5t18.5 -20.5q13 0 16.5 16t3.5 38v59q0 24 -17.5 30.5t-54.5 6.5h-39v84h40q17 0 29.5 2t20.5 6q13 6 17 14.5t4 18.5v46q0 22 -3.5 38t-16.5 16q-16 0 -18.5 -20.5t-2.5 -61.5v-15h-159v65
q0 72 45.5 108t136.5 36q98 0 140.5 -31t42.5 -99v-57q0 -50 -25 -80.5t-78 -32.5q48 0 75.5 -28.5t27.5 -79.5v-47q0 -54 -19 -85.5t-59 -45t-105 -13.5z" />
    <glyph glyph-name="uni0416" unicode="&#x416;" horiz-adv-x="699" 
d="M10 0l102 307l-100 284h183l50 -241h23v241h159v-241h27l50 241h183l-100 -284l102 -307h-177l-58 265h-27v-265h-159v265h-23l-58 -265h-177z" />
    <glyph glyph-name="a" unicode="a" horiz-adv-x="378" 
d="M112 -8q-28 0 -50 7.5t-35 28.5t-13 61v81q0 44 25.5 72t89.5 48q29 10 44 17.5t20.5 20t5.5 37.5v32q0 8 -1.5 13.5t-5 9t-10.5 3.5q-10 0 -13.5 -12.5t-3.5 -47.5v-42h-141v57q0 37 11 65.5t45 45t102 16.5t106 -10t54 -35.5t16 -73.5v-386h-156v49q-5 -25 -31.5 -41
t-58.5 -16zM182 93q12 0 14.5 11t2.5 36v101q-2 -4 -9 -7.5t-12 -9.5q-7 -7 -10 -14t-3 -20v-61q0 -9 1 -17.5t4.5 -13.5t11.5 -5z" />
    <glyph glyph-name="uni0430" unicode="&#x430;" horiz-adv-x="378" 
d="M112 -8q-28 0 -50 7.5t-35 28.5t-13 61v81q0 44 25.5 72t89.5 48q29 10 44 17.5t20.5 20t5.5 37.5v32q0 8 -1.5 13.5t-5 9t-10.5 3.5q-10 0 -13.5 -12.5t-3.5 -47.5v-42h-141v57q0 37 11 65.5t45 45t102 16.5t106 -10t54 -35.5t16 -73.5v-386h-156v49q-5 -25 -31.5 -41
t-58.5 -16zM182 93q12 0 14.5 11t2.5 36v101q-2 -4 -9 -7.5t-12 -9.5q-7 -7 -10 -14t-3 -20v-61q0 -9 1 -17.5t4.5 -13.5t11.5 -5z" />
    <glyph glyph-name="a.sc" horiz-adv-x="401" 
d="M3 0l83 495h231l81 -495h-176l-7 60h-36l-6 -60h-170zM180 135h35l-18 244z" />
    <glyph glyph-name="aacute" unicode="&#xe1;" horiz-adv-x="378" 
d="M112 -8q-28 0 -50 7.5t-35 28.5t-13 61v81q0 44 25.5 72t89.5 48q29 10 44 17.5t20.5 20t5.5 37.5v32q0 8 -1.5 13.5t-5 9t-10.5 3.5q-10 0 -13.5 -12.5t-3.5 -47.5v-42h-141v57q0 37 11 65.5t45 45t102 16.5t106 -10t54 -35.5t16 -73.5v-386h-156v49q-5 -25 -31.5 -41
t-58.5 -16zM182 93q12 0 14.5 11t2.5 36v101q-2 -4 -9 -7.5t-12 -9.5q-7 -7 -10 -14t-3 -20v-61q0 -9 1 -17.5t4.5 -13.5t11.5 -5zM143 550l58 106h136l-106 -106h-88z" />
    <glyph glyph-name="aacute.sc" horiz-adv-x="401" 
d="M3 0l83 495h231l81 -495h-176l-7 60h-36l-6 -60h-170zM180 135h35l-18 244zM151 550l58 106h136l-106 -106h-88z" />
    <glyph glyph-name="abreve" unicode="&#x103;" horiz-adv-x="378" 
d="M112 -8q-28 0 -50 7.5t-35 28.5t-13 61v81q0 44 25.5 72t89.5 48q29 10 44 17.5t20.5 20t5.5 37.5v32q0 8 -1.5 13.5t-5 9t-10.5 3.5q-10 0 -13.5 -12.5t-3.5 -47.5v-42h-141v57q0 37 11 65.5t45 45t102 16.5t106 -10t54 -35.5t16 -73.5v-386h-156v49q-5 -25 -31.5 -41
t-58.5 -16zM182 93q12 0 14.5 11t2.5 36v101q-2 -4 -9 -7.5t-12 -9.5q-7 -7 -10 -14t-3 -20v-61q0 -9 1 -17.5t4.5 -13.5t11.5 -5zM191 545q-53 0 -79.5 18.5t-35 44t-8.5 45.5h82q0 -18 13 -27t29 -9q17 0 29.5 8.5t13.5 27.5h83q0 -30 -13 -54.5t-40.5 -39t-73.5 -14.5z
" />
    <glyph glyph-name="abreve.sc" horiz-adv-x="401" 
d="M3 0l83 495h231l81 -495h-176l-7 60h-36l-6 -60h-170zM180 135h35l-18 244zM199 545q-53 0 -79.5 18.5t-35 44t-8.5 45.5h82q0 -18 13 -27t29 -9q17 0 29.5 8.5t13.5 27.5h83q0 -30 -13 -54.5t-40.5 -39t-73.5 -14.5z" />
    <glyph glyph-name="uni1EAF" unicode="&#x1eaf;" horiz-adv-x="378" 
d="M112 -8q-28 0 -50 7.5t-35 28.5t-13 61v81q0 44 25.5 72t89.5 48q29 10 44 17.5t20.5 20t5.5 37.5v32q0 8 -1.5 13.5t-5 9t-10.5 3.5q-10 0 -13.5 -12.5t-3.5 -47.5v-42h-141v57q0 37 11 65.5t45 45t102 16.5t106 -10t54 -35.5t16 -73.5v-386h-156v49q-5 -25 -31.5 -41
t-58.5 -16zM182 93q12 0 14.5 11t2.5 36v101q-2 -4 -9 -7.5t-12 -9.5q-7 -7 -10 -14t-3 -20v-61q0 -9 1 -17.5t4.5 -13.5t11.5 -5zM191 545q-53 0 -79.5 18.5t-35 44t-8.5 45.5h82q0 -18 13 -27t29 -9q17 0 29.5 8.5t13.5 27.5h83q0 -30 -13 -54.5t-40.5 -39t-73.5 -14.5z
M143 679l58 106h136l-106 -106h-88z" />
    <glyph glyph-name="uni1EAF.sc" horiz-adv-x="401" 
d="M3 0l83 495h231l81 -495h-176l-7 60h-36l-6 -60h-170zM180 135h35l-18 244zM199 545q-53 0 -79.5 18.5t-35 44t-8.5 45.5h82q0 -18 13 -27t29 -9q17 0 29.5 8.5t13.5 27.5h83q0 -30 -13 -54.5t-40.5 -39t-73.5 -14.5zM151 679l58 106h136l-106 -106h-88z" />
    <glyph glyph-name="uni1EB7" unicode="&#x1eb7;" horiz-adv-x="378" 
d="M112 -8q-28 0 -50 7.5t-35 28.5t-13 61v81q0 44 25.5 72t89.5 48q29 10 44 17.5t20.5 20t5.5 37.5v32q0 8 -1.5 13.5t-5 9t-10.5 3.5q-10 0 -13.5 -12.5t-3.5 -47.5v-42h-141v57q0 37 11 65.5t45 45t102 16.5t106 -10t54 -35.5t16 -73.5v-386h-156v49q-5 -25 -31.5 -41
t-58.5 -16zM182 93q12 0 14.5 11t2.5 36v101q-2 -4 -9 -7.5t-12 -9.5q-7 -7 -10 -14t-3 -20v-61q0 -9 1 -17.5t4.5 -13.5t11.5 -5zM188 -147q-25 0 -42 17t-17 40q0 24 17 41t42 17t43 -17t18 -41q0 -23 -18 -40t-43 -17zM191 545q-53 0 -79.5 18.5t-35 44t-8.5 45.5h82
q0 -18 13 -27t29 -9q17 0 29.5 8.5t13.5 27.5h83q0 -30 -13 -54.5t-40.5 -39t-73.5 -14.5z" />
    <glyph glyph-name="uni1EB7.sc" horiz-adv-x="401" 
d="M3 0l83 495h231l81 -495h-176l-7 60h-36l-6 -60h-170zM180 135h35l-18 244zM200 -147q-25 0 -42 17t-17 40q0 24 17 41t42 17t43 -17t18 -41q0 -23 -18 -40t-43 -17zM199 545q-53 0 -79.5 18.5t-35 44t-8.5 45.5h82q0 -18 13 -27t29 -9q17 0 29.5 8.5t13.5 27.5h83
q0 -30 -13 -54.5t-40.5 -39t-73.5 -14.5z" />
    <glyph glyph-name="uni1EB1" unicode="&#x1eb1;" horiz-adv-x="378" 
d="M112 -8q-28 0 -50 7.5t-35 28.5t-13 61v81q0 44 25.5 72t89.5 48q29 10 44 17.5t20.5 20t5.5 37.5v32q0 8 -1.5 13.5t-5 9t-10.5 3.5q-10 0 -13.5 -12.5t-3.5 -47.5v-42h-141v57q0 37 11 65.5t45 45t102 16.5t106 -10t54 -35.5t16 -73.5v-386h-156v49q-5 -25 -31.5 -41
t-58.5 -16zM182 93q12 0 14.5 11t2.5 36v101q-2 -4 -9 -7.5t-12 -9.5q-7 -7 -10 -14t-3 -20v-61q0 -9 1 -17.5t4.5 -13.5t11.5 -5zM191 545q-53 0 -79.5 18.5t-35 44t-8.5 45.5h82q0 -18 13 -27t29 -9q17 0 29.5 8.5t13.5 27.5h83q0 -30 -13 -54.5t-40.5 -39t-73.5 -14.5z
M163 679l-106 106h136l58 -106h-88z" />
    <glyph glyph-name="uni1EB1.sc" horiz-adv-x="401" 
d="M3 0l83 495h231l81 -495h-176l-7 60h-36l-6 -60h-170zM180 135h35l-18 244zM199 545q-53 0 -79.5 18.5t-35 44t-8.5 45.5h82q0 -18 13 -27t29 -9q17 0 29.5 8.5t13.5 27.5h83q0 -30 -13 -54.5t-40.5 -39t-73.5 -14.5zM171 679l-106 106h136l58 -106h-88z" />
    <glyph glyph-name="uni1EB3" unicode="&#x1eb3;" horiz-adv-x="378" 
d="M112 -8q-28 0 -50 7.5t-35 28.5t-13 61v81q0 44 25.5 72t89.5 48q29 10 44 17.5t20.5 20t5.5 37.5v32q0 8 -1.5 13.5t-5 9t-10.5 3.5q-10 0 -13.5 -12.5t-3.5 -47.5v-42h-141v57q0 37 11 65.5t45 45t102 16.5t106 -10t54 -35.5t16 -73.5v-386h-156v49q-5 -25 -31.5 -41
t-58.5 -16zM182 93q12 0 14.5 11t2.5 36v101q-2 -4 -9 -7.5t-12 -9.5q-7 -7 -10 -14t-3 -20v-61q0 -9 1 -17.5t4.5 -13.5t11.5 -5zM191 545q-53 0 -79.5 18.5t-35 44t-8.5 45.5h82q0 -18 13 -27t29 -9q17 0 29.5 8.5t13.5 27.5h83q0 -30 -13 -54.5t-40.5 -39t-73.5 -14.5z
M150 679v9q0 15 10 23t20 14.5t10 17.5v7q0 6 -2 12.5t-9 6.5q-11 0 -11 -20l-67 10q2 32 23 48t62 16q45 0 68 -11.5t23 -58.5v-4q0 -23 -11.5 -31.5t-22.5 -13t-11 -16.5v-9h-82z" />
    <glyph glyph-name="uni1EB3.sc" horiz-adv-x="401" 
d="M3 0l83 495h231l81 -495h-176l-7 60h-36l-6 -60h-170zM180 135h35l-18 244zM199 545q-53 0 -79.5 18.5t-35 44t-8.5 45.5h82q0 -18 13 -27t29 -9q17 0 29.5 8.5t13.5 27.5h83q0 -30 -13 -54.5t-40.5 -39t-73.5 -14.5zM158 679v9q0 15 10 23t20 14.5t10 17.5v7
q0 6 -2 12.5t-9 6.5q-11 0 -11 -20l-67 10q2 32 23 48t62 16q45 0 68 -11.5t23 -58.5v-4q0 -23 -11.5 -31.5t-22.5 -13t-11 -16.5v-9h-82z" />
    <glyph glyph-name="uni1EB5" unicode="&#x1eb5;" horiz-adv-x="378" 
d="M112 -8q-28 0 -50 7.5t-35 28.5t-13 61v81q0 44 25.5 72t89.5 48q29 10 44 17.5t20.5 20t5.5 37.5v32q0 8 -1.5 13.5t-5 9t-10.5 3.5q-10 0 -13.5 -12.5t-3.5 -47.5v-42h-141v57q0 37 11 65.5t45 45t102 16.5t106 -10t54 -35.5t16 -73.5v-386h-156v49q-5 -25 -31.5 -41
t-58.5 -16zM182 93q12 0 14.5 11t2.5 36v101q-2 -4 -9 -7.5t-12 -9.5q-7 -7 -10 -14t-3 -20v-61q0 -9 1 -17.5t4.5 -13.5t11.5 -5zM191 545q-53 0 -79.5 18.5t-35 44t-8.5 45.5h82q0 -18 13 -27t29 -9q17 0 29.5 8.5t13.5 27.5h83q0 -30 -13 -54.5t-40.5 -39t-73.5 -14.5z
M242 677q-17 0 -32 7t-29 14q-12 7 -23.5 11.5t-23.5 4.5q-13 0 -20 -10.5t-8 -25.5h-41q0 47 19.5 76t51.5 29q18 0 33 -5.5t28 -12.5q12 -6 23.5 -11t22.5 -5q16 0 22.5 9.5t8.5 21.5h46q0 -34 -12.5 -57t-30.5 -34.5t-35 -11.5z" />
    <glyph glyph-name="uni1EB5.sc" horiz-adv-x="401" 
d="M3 0l83 495h231l81 -495h-176l-7 60h-36l-6 -60h-170zM180 135h35l-18 244zM199 545q-53 0 -79.5 18.5t-35 44t-8.5 45.5h82q0 -18 13 -27t29 -9q17 0 29.5 8.5t13.5 27.5h83q0 -30 -13 -54.5t-40.5 -39t-73.5 -14.5zM250 677q-17 0 -32 7t-29 14q-12 7 -23.5 11.5
t-23.5 4.5q-13 0 -20 -10.5t-8 -25.5h-41q0 47 19.5 76t51.5 29q18 0 33 -5.5t28 -12.5q12 -6 23.5 -11t22.5 -5q16 0 22.5 9.5t8.5 21.5h46q0 -34 -12.5 -57t-30.5 -34.5t-35 -11.5z" />
    <glyph glyph-name="uni01CE" unicode="&#x1ce;" horiz-adv-x="378" 
d="M112 -8q-28 0 -50 7.5t-35 28.5t-13 61v81q0 44 25.5 72t89.5 48q29 10 44 17.5t20.5 20t5.5 37.5v32q0 8 -1.5 13.5t-5 9t-10.5 3.5q-10 0 -13.5 -12.5t-3.5 -47.5v-42h-141v57q0 37 11 65.5t45 45t102 16.5t106 -10t54 -35.5t16 -73.5v-386h-156v49q-5 -25 -31.5 -41
t-58.5 -16zM182 93q12 0 14.5 11t2.5 36v101q-2 -4 -9 -7.5t-12 -9.5q-7 -7 -10 -14t-3 -20v-61q0 -9 1 -17.5t4.5 -13.5t11.5 -5zM151 545l-99 116h102l40 -42l40 42h100l-100 -116h-83z" />
    <glyph glyph-name="uni01CE.sc" horiz-adv-x="401" 
d="M3 0l83 495h231l81 -495h-176l-7 60h-36l-6 -60h-170zM180 135h35l-18 244zM159 545l-99 116h102l40 -42l40 42h100l-100 -116h-83z" />
    <glyph glyph-name="acircumflex" unicode="&#xe2;" horiz-adv-x="378" 
d="M112 -8q-28 0 -50 7.5t-35 28.5t-13 61v81q0 44 25.5 72t89.5 48q29 10 44 17.5t20.5 20t5.5 37.5v32q0 8 -1.5 13.5t-5 9t-10.5 3.5q-10 0 -13.5 -12.5t-3.5 -47.5v-42h-141v57q0 37 11 65.5t45 45t102 16.5t106 -10t54 -35.5t16 -73.5v-386h-156v49q-5 -25 -31.5 -41
t-58.5 -16zM182 93q12 0 14.5 11t2.5 36v101q-2 -4 -9 -7.5t-12 -9.5q-7 -7 -10 -14t-3 -20v-61q0 -9 1 -17.5t4.5 -13.5t11.5 -5zM52 545l99 116h83l100 -116h-100l-40 42l-40 -42h-102z" />
    <glyph glyph-name="acircumflex.sc" horiz-adv-x="401" 
d="M3 0l83 495h231l81 -495h-176l-7 60h-36l-6 -60h-170zM180 135h35l-18 244zM60 545l99 116h83l100 -116h-100l-40 42l-40 -42h-102z" />
    <glyph glyph-name="uni1EA5" unicode="&#x1ea5;" horiz-adv-x="378" 
d="M112 -8q-28 0 -50 7.5t-35 28.5t-13 61v81q0 44 25.5 72t89.5 48q29 10 44 17.5t20.5 20t5.5 37.5v32q0 8 -1.5 13.5t-5 9t-10.5 3.5q-10 0 -13.5 -12.5t-3.5 -47.5v-42h-141v57q0 37 11 65.5t45 45t102 16.5t106 -10t54 -35.5t16 -73.5v-386h-156v49q-5 -25 -31.5 -41
t-58.5 -16zM182 93q12 0 14.5 11t2.5 36v101q-2 -4 -9 -7.5t-12 -9.5q-7 -7 -10 -14t-3 -20v-61q0 -9 1 -17.5t4.5 -13.5t11.5 -5zM52 545l99 116h83l100 -116h-100l-40 42l-40 -42h-102zM336 605l58 106h136l-106 -106h-88z" />
    <glyph glyph-name="uni1EA5.sc" horiz-adv-x="401" 
d="M3 0l83 495h231l81 -495h-176l-7 60h-36l-6 -60h-170zM180 135h35l-18 244zM60 545l99 116h83l100 -116h-100l-40 42l-40 -42h-102zM344 605l58 106h136l-106 -106h-88z" />
    <glyph glyph-name="uni1EAD" unicode="&#x1ead;" horiz-adv-x="378" 
d="M112 -8q-28 0 -50 7.5t-35 28.5t-13 61v81q0 44 25.5 72t89.5 48q29 10 44 17.5t20.5 20t5.5 37.5v32q0 8 -1.5 13.5t-5 9t-10.5 3.5q-10 0 -13.5 -12.5t-3.5 -47.5v-42h-141v57q0 37 11 65.5t45 45t102 16.5t106 -10t54 -35.5t16 -73.5v-386h-156v49q-5 -25 -31.5 -41
t-58.5 -16zM182 93q12 0 14.5 11t2.5 36v101q-2 -4 -9 -7.5t-12 -9.5q-7 -7 -10 -14t-3 -20v-61q0 -9 1 -17.5t4.5 -13.5t11.5 -5zM188 -147q-25 0 -42 17t-17 40q0 24 17 41t42 17t43 -17t18 -41q0 -23 -18 -40t-43 -17zM52 545l99 116h83l100 -116h-100l-40 42l-40 -42
h-102z" />
    <glyph glyph-name="uni1EAD.sc" horiz-adv-x="401" 
d="M3 0l83 495h231l81 -495h-176l-7 60h-36l-6 -60h-170zM180 135h35l-18 244zM200 -147q-25 0 -42 17t-17 40q0 24 17 41t42 17t43 -17t18 -41q0 -23 -18 -40t-43 -17zM60 545l99 116h83l100 -116h-100l-40 42l-40 -42h-102z" />
    <glyph glyph-name="uni1EA7" unicode="&#x1ea7;" horiz-adv-x="378" 
d="M112 -8q-28 0 -50 7.5t-35 28.5t-13 61v81q0 44 25.5 72t89.5 48q29 10 44 17.5t20.5 20t5.5 37.5v32q0 8 -1.5 13.5t-5 9t-10.5 3.5q-10 0 -13.5 -12.5t-3.5 -47.5v-42h-141v57q0 37 11 65.5t45 45t102 16.5t106 -10t54 -35.5t16 -73.5v-386h-156v49q-5 -25 -31.5 -41
t-58.5 -16zM182 93q12 0 14.5 11t2.5 36v101q-2 -4 -9 -7.5t-12 -9.5q-7 -7 -10 -14t-3 -20v-61q0 -9 1 -17.5t4.5 -13.5t11.5 -5zM52 545l99 116h83l100 -116h-100l-40 42l-40 -42h-102zM356 605l-106 106h136l58 -106h-88z" />
    <glyph glyph-name="uni1EA7.sc" horiz-adv-x="401" 
d="M3 0l83 495h231l81 -495h-176l-7 60h-36l-6 -60h-170zM180 135h35l-18 244zM60 545l99 116h83l100 -116h-100l-40 42l-40 -42h-102zM364 605l-106 106h136l58 -106h-88z" />
    <glyph glyph-name="uni1EA9" unicode="&#x1ea9;" horiz-adv-x="378" 
d="M112 -8q-28 0 -50 7.5t-35 28.5t-13 61v81q0 44 25.5 72t89.5 48q29 10 44 17.5t20.5 20t5.5 37.5v32q0 8 -1.5 13.5t-5 9t-10.5 3.5q-10 0 -13.5 -12.5t-3.5 -47.5v-42h-141v57q0 37 11 65.5t45 45t102 16.5t106 -10t54 -35.5t16 -73.5v-386h-156v49q-5 -25 -31.5 -41
t-58.5 -16zM182 93q12 0 14.5 11t2.5 36v101q-2 -4 -9 -7.5t-12 -9.5q-7 -7 -10 -14t-3 -20v-61q0 -9 1 -17.5t4.5 -13.5t11.5 -5zM52 545l99 116h83l100 -116h-100l-40 42l-40 -42h-102zM343 605v9q0 15 10 23t20 14.5t10 17.5v7q0 6 -2 12.5t-9 6.5q-11 0 -11 -20l-67 10
q2 32 23 48t62 16q45 0 68 -11.5t23 -58.5v-4q0 -23 -11.5 -31.5t-22.5 -13t-11 -16.5v-9h-82z" />
    <glyph glyph-name="uni1EA9.sc" horiz-adv-x="401" 
d="M3 0l83 495h231l81 -495h-176l-7 60h-36l-6 -60h-170zM180 135h35l-18 244zM60 545l99 116h83l100 -116h-100l-40 42l-40 -42h-102zM351 605v9q0 15 10 23t20 14.5t10 17.5v7q0 6 -2 12.5t-9 6.5q-11 0 -11 -20l-67 10q2 32 23 48t62 16q45 0 68 -11.5t23 -58.5v-4
q0 -23 -11.5 -31.5t-22.5 -13t-11 -16.5v-9h-82z" />
    <glyph glyph-name="uni1EAB" unicode="&#x1eab;" horiz-adv-x="378" 
d="M112 -8q-28 0 -50 7.5t-35 28.5t-13 61v81q0 44 25.5 72t89.5 48q29 10 44 17.5t20.5 20t5.5 37.5v32q0 8 -1.5 13.5t-5 9t-10.5 3.5q-10 0 -13.5 -12.5t-3.5 -47.5v-42h-141v57q0 37 11 65.5t45 45t102 16.5t106 -10t54 -35.5t16 -73.5v-386h-156v49q-5 -25 -31.5 -41
t-58.5 -16zM182 93q12 0 14.5 11t2.5 36v101q-2 -4 -9 -7.5t-12 -9.5q-7 -7 -10 -14t-3 -20v-61q0 -9 1 -17.5t4.5 -13.5t11.5 -5zM52 545l99 116h83l100 -116h-100l-40 42l-40 -42h-102zM243 686q-17 0 -32 7t-29 14q-12 7 -23.5 11.5t-23.5 4.5q-13 0 -20 -10.5t-8 -25.5
h-41q0 47 19.5 76t51.5 29q18 0 33 -5.5t28 -12.5q12 -6 23.5 -11t22.5 -5q16 0 22.5 9.5t8.5 21.5h46q0 -34 -12.5 -57t-30.5 -34.5t-35 -11.5z" />
    <glyph glyph-name="uni1EAB.sc" horiz-adv-x="401" 
d="M3 0l83 495h231l81 -495h-176l-7 60h-36l-6 -60h-170zM180 135h35l-18 244zM60 545l99 116h83l100 -116h-100l-40 42l-40 -42h-102zM251 686q-17 0 -32 7t-29 14q-12 7 -23.5 11.5t-23.5 4.5q-13 0 -20 -10.5t-8 -25.5h-41q0 47 19.5 76t51.5 29q18 0 33 -5.5t28 -12.5
q12 -6 23.5 -11t22.5 -5q16 0 22.5 9.5t8.5 21.5h46q0 -34 -12.5 -57t-30.5 -34.5t-35 -11.5z" />
    <glyph glyph-name="acute" unicode="&#xb4;" horiz-adv-x="224" 
d="M0 550l58 106h136l-106 -106h-88z" />
    <glyph glyph-name="acutecomb" unicode="&#x301;" 
d="M0 550l58 106h136l-106 -106h-88z" />
    <glyph glyph-name="acutecomb.case" 
d="M10 635l77 103h138l-130 -103h-85z" />
    <glyph glyph-name="uni0201" unicode="&#x201;" horiz-adv-x="378" 
d="M112 -8q-28 0 -50 7.5t-35 28.5t-13 61v81q0 44 25.5 72t89.5 48q29 10 44 17.5t20.5 20t5.5 37.5v32q0 8 -1.5 13.5t-5 9t-10.5 3.5q-10 0 -13.5 -12.5t-3.5 -47.5v-42h-141v57q0 37 11 65.5t45 45t102 16.5t106 -10t54 -35.5t16 -73.5v-386h-156v49q-5 -25 -31.5 -41
t-58.5 -16zM182 93q12 0 14.5 11t2.5 36v101q-2 -4 -9 -7.5t-12 -9.5q-7 -7 -10 -14t-3 -20v-61q0 -9 1 -17.5t4.5 -13.5t11.5 -5zM279 550h-59l-65 106h116zM166 550h-69l-75 106h116z" />
    <glyph glyph-name="uni0201.sc" horiz-adv-x="401" 
d="M3 0l83 495h231l81 -495h-176l-7 60h-36l-6 -60h-170zM180 135h35l-18 244zM287 550h-59l-65 106h116zM174 550h-69l-75 106h116z" />
    <glyph glyph-name="adieresis" unicode="&#xe4;" horiz-adv-x="378" 
d="M112 -8q-28 0 -50 7.5t-35 28.5t-13 61v81q0 44 25.5 72t89.5 48q29 10 44 17.5t20.5 20t5.5 37.5v32q0 8 -1.5 13.5t-5 9t-10.5 3.5q-10 0 -13.5 -12.5t-3.5 -47.5v-42h-141v57q0 37 11 65.5t45 45t102 16.5t106 -10t54 -35.5t16 -73.5v-386h-156v49q-5 -25 -31.5 -41
t-58.5 -16zM182 93q12 0 14.5 11t2.5 36v101q-2 -4 -9 -7.5t-12 -9.5q-7 -7 -10 -14t-3 -20v-61q0 -9 1 -17.5t4.5 -13.5t11.5 -5zM124 543q-26 0 -43 16.5t-17 40.5t17 40t43 16q25 0 41.5 -16t16.5 -40t-16.5 -40.5t-41.5 -16.5zM263 543q-26 0 -43 16.5t-17 40.5t17 40
t43 16q25 0 41.5 -16t16.5 -40t-16.5 -40.5t-41.5 -16.5z" />
    <glyph glyph-name="adieresis.sc" horiz-adv-x="401" 
d="M3 0l83 495h231l81 -495h-176l-7 60h-36l-6 -60h-170zM180 135h35l-18 244zM132 543q-26 0 -43 16.5t-17 40.5t17 40t43 16q25 0 41.5 -16t16.5 -40t-16.5 -40.5t-41.5 -16.5zM271 543q-26 0 -43 16.5t-17 40.5t17 40t43 16q25 0 41.5 -16t16.5 -40t-16.5 -40.5
t-41.5 -16.5z" />
    <glyph glyph-name="uni1EA1" unicode="&#x1ea1;" horiz-adv-x="378" 
d="M112 -8q-28 0 -50 7.5t-35 28.5t-13 61v81q0 44 25.5 72t89.5 48q29 10 44 17.5t20.5 20t5.5 37.5v32q0 8 -1.5 13.5t-5 9t-10.5 3.5q-10 0 -13.5 -12.5t-3.5 -47.5v-42h-141v57q0 37 11 65.5t45 45t102 16.5t106 -10t54 -35.5t16 -73.5v-386h-156v49q-5 -25 -31.5 -41
t-58.5 -16zM182 93q12 0 14.5 11t2.5 36v101q-2 -4 -9 -7.5t-12 -9.5q-7 -7 -10 -14t-3 -20v-61q0 -9 1 -17.5t4.5 -13.5t11.5 -5zM188 -147q-25 0 -42 17t-17 40q0 24 17 41t42 17t43 -17t18 -41q0 -23 -18 -40t-43 -17z" />
    <glyph glyph-name="uni1EA1.sc" horiz-adv-x="401" 
d="M3 0l83 495h231l81 -495h-176l-7 60h-36l-6 -60h-170zM180 135h35l-18 244zM200 -147q-25 0 -42 17t-17 40q0 24 17 41t42 17t43 -17t18 -41q0 -23 -18 -40t-43 -17z" />
    <glyph glyph-name="ae" unicode="&#xe6;" horiz-adv-x="563" 
d="M112 -7q-11 0 -27.5 1.5t-32.5 9.5t-27 28t-11 57v81q0 52 31 77.5t80 41.5q29 10 45 16.5t22.5 19.5t6.5 40v32q0 8 -1.5 13.5t-5 9t-10.5 3.5q-10 0 -13.5 -12.5t-3.5 -47.5v-42h-141v57q0 37 11 65.5t45 45t102 16.5q56 0 88 -13.5t45 -40t13 -65.5v-386l-95 78
q-17 -49 -51.5 -67t-69.5 -18zM182 93q12 0 14.5 11t2.5 36v101q-2 -4 -9 -7.5t-12 -9.5q-7 -7 -10 -14t-3 -20v-61q0 -9 1 -17.5t4.5 -13.5t11.5 -5zM375 -2q-35 0 -63.5 4.5t-48.5 20t-30.5 49.5t-10.5 94v207q0 54 40 92t113 38q83 0 128 -28t45 -102v-140h-190v-135
q0 -11 2 -18t6 -9.5t9 -2.5t9 2.5t6 9.5t2 18v90h156v-21q0 -60 -12 -94.5t-34.5 -50t-54.5 -20t-72 -4.5zM358 300h34v93q0 17 -4.5 23.5t-12.5 6.5q-7 0 -12 -6.5t-5 -23.5v-93z" />
    <glyph glyph-name="aeacute" unicode="&#x1fd;" horiz-adv-x="563" 
d="M112 -7q-11 0 -27.5 1.5t-32.5 9.5t-27 28t-11 57v81q0 52 31 77.5t80 41.5q29 10 45 16.5t22.5 19.5t6.5 40v32q0 8 -1.5 13.5t-5 9t-10.5 3.5q-10 0 -13.5 -12.5t-3.5 -47.5v-42h-141v57q0 37 11 65.5t45 45t102 16.5q56 0 88 -13.5t45 -40t13 -65.5v-386l-95 78
q-17 -49 -51.5 -67t-69.5 -18zM182 93q12 0 14.5 11t2.5 36v101q-2 -4 -9 -7.5t-12 -9.5q-7 -7 -10 -14t-3 -20v-61q0 -9 1 -17.5t4.5 -13.5t11.5 -5zM375 -2q-35 0 -63.5 4.5t-48.5 20t-30.5 49.5t-10.5 94v207q0 54 40 92t113 38q83 0 128 -28t45 -102v-140h-190v-135
q0 -11 2 -18t6 -9.5t9 -2.5t9 2.5t6 9.5t2 18v90h156v-21q0 -60 -12 -94.5t-34.5 -50t-54.5 -20t-72 -4.5zM358 300h34v93q0 17 -4.5 23.5t-12.5 6.5q-7 0 -12 -6.5t-5 -23.5v-93zM250 550l58 106h136l-106 -106h-88z" />
    <glyph glyph-name="agrave" unicode="&#xe0;" horiz-adv-x="378" 
d="M112 -8q-28 0 -50 7.5t-35 28.5t-13 61v81q0 44 25.5 72t89.5 48q29 10 44 17.5t20.5 20t5.5 37.5v32q0 8 -1.5 13.5t-5 9t-10.5 3.5q-10 0 -13.5 -12.5t-3.5 -47.5v-42h-141v57q0 37 11 65.5t45 45t102 16.5t106 -10t54 -35.5t16 -73.5v-386h-156v49q-5 -25 -31.5 -41
t-58.5 -16zM182 93q12 0 14.5 11t2.5 36v101q-2 -4 -9 -7.5t-12 -9.5q-7 -7 -10 -14t-3 -20v-61q0 -9 1 -17.5t4.5 -13.5t11.5 -5zM163 550l-106 106h136l58 -106h-88z" />
    <glyph glyph-name="agrave.sc" horiz-adv-x="401" 
d="M3 0l83 495h231l81 -495h-176l-7 60h-36l-6 -60h-170zM180 135h35l-18 244zM171 550l-106 106h136l58 -106h-88z" />
    <glyph glyph-name="uni1EA3" unicode="&#x1ea3;" horiz-adv-x="378" 
d="M112 -8q-28 0 -50 7.5t-35 28.5t-13 61v81q0 44 25.5 72t89.5 48q29 10 44 17.5t20.5 20t5.5 37.5v32q0 8 -1.5 13.5t-5 9t-10.5 3.5q-10 0 -13.5 -12.5t-3.5 -47.5v-42h-141v57q0 37 11 65.5t45 45t102 16.5t106 -10t54 -35.5t16 -73.5v-386h-156v49q-5 -25 -31.5 -41
t-58.5 -16zM182 93q12 0 14.5 11t2.5 36v101q-2 -4 -9 -7.5t-12 -9.5q-7 -7 -10 -14t-3 -20v-61q0 -9 1 -17.5t4.5 -13.5t11.5 -5zM150 550v9q0 15 10 23t20 14.5t10 17.5v7q0 6 -2 12.5t-9 6.5q-11 0 -11 -20l-67 10q2 32 23 48t62 16q45 0 68 -11.5t23 -58.5v-4
q0 -23 -11.5 -31.5t-22.5 -13t-11 -16.5v-9h-82z" />
    <glyph glyph-name="uni1EA3.sc" horiz-adv-x="401" 
d="M3 0l83 495h231l81 -495h-176l-7 60h-36l-6 -60h-170zM180 135h35l-18 244zM158 550v9q0 15 10 23t20 14.5t10 17.5v7q0 6 -2 12.5t-9 6.5q-11 0 -11 -20l-67 10q2 32 23 48t62 16q45 0 68 -11.5t23 -58.5v-4q0 -23 -11.5 -31.5t-22.5 -13t-11 -16.5v-9h-82z" />
    <glyph glyph-name="uni0203" unicode="&#x203;" horiz-adv-x="378" 
d="M195 658q54 0 80 -18.5t34.5 -43.5t8.5 -46h-82q0 18 -13 27t-29 9t-29 -8.5t-14 -27.5h-83q0 30 13 54.5t41 39t73 14.5zM112 -8q-28 0 -50 7.5t-35 28.5t-13 61v81q0 44 25.5 72t89.5 48q29 10 44 17.5t20.5 20t5.5 37.5v32q0 8 -1.5 13.5t-5 9t-10.5 3.5
q-10 0 -13.5 -12.5t-3.5 -47.5v-42h-141v57q0 37 11 65.5t45 45t102 16.5t106 -10t54 -35.5t16 -73.5v-386h-156v49q-5 -25 -31.5 -41t-58.5 -16zM182 93q12 0 14.5 11t2.5 36v101q-2 -4 -9 -7.5t-12 -9.5q-7 -7 -10 -14t-3 -20v-61q0 -9 1 -17.5t4.5 -13.5t11.5 -5z" />
    <glyph glyph-name="uni0203.sc" horiz-adv-x="401" 
d="M203 658q54 0 80 -18.5t34.5 -43.5t8.5 -46h-82q0 18 -13 27t-29 9t-29 -8.5t-14 -27.5h-83q0 30 13 54.5t41 39t73 14.5zM3 0l83 495h231l81 -495h-176l-7 60h-36l-6 -60h-170zM180 135h35l-18 244z" />
    <glyph glyph-name="amacron" unicode="&#x101;" horiz-adv-x="378" 
d="M112 -8q-28 0 -50 7.5t-35 28.5t-13 61v81q0 44 25.5 72t89.5 48q29 10 44 17.5t20.5 20t5.5 37.5v32q0 8 -1.5 13.5t-5 9t-10.5 3.5q-10 0 -13.5 -12.5t-3.5 -47.5v-42h-141v57q0 37 11 65.5t45 45t102 16.5t106 -10t54 -35.5t16 -73.5v-386h-156v49q-5 -25 -31.5 -41
t-58.5 -16zM182 93q12 0 14.5 11t2.5 36v101q-2 -4 -9 -7.5t-12 -9.5q-7 -7 -10 -14t-3 -20v-61q0 -9 1 -17.5t4.5 -13.5t11.5 -5zM82 556v77h222v-77h-222z" />
    <glyph glyph-name="amacron.sc" horiz-adv-x="401" 
d="M3 0l83 495h231l81 -495h-176l-7 60h-36l-6 -60h-170zM180 135h35l-18 244zM90 556v77h222v-77h-222z" />
    <glyph glyph-name="ampersand" unicode="&#x26;" horiz-adv-x="449" 
d="M184 -2q-52 0 -88.5 20t-56 56.5t-19.5 88.5q0 39 18 74t56 43q-11 23 -17.5 49t-4.5 58q4 60 36 91t96 31q32 0 66 -4.5t60.5 -10t36.5 -9.5v-111q-2 1 -21 5t-45.5 7.5t-52.5 3.5q-15 0 -24.5 -7.5t-13 -19.5t-0.5 -26.5t12 -28.5q4 -6 8 -12.5t8 -12.5t8.5 -12
t9.5 -11.5t10 -11.5l1 76h162v-95h-64q0 -9 -0.5 -19t-2 -20t-3.5 -21q14 -8 35 -18.5t35 -15.5v-137q-25 0 -60 14.5t-64 33.5q-14 -16 -32 -26.5t-40 -16t-49 -5.5zM191 104q10 0 18 2t15 6q-22 20 -42.5 43t-37.5 47q-2 -5 -3 -10t-1 -12q-3 -34 12 -55t39 -21z" />
    <glyph glyph-name="ampersand.salt" horiz-adv-x="530" 
d="M188 -6q-50 0 -85.5 13.5t-54 45t-18.5 85.5v47q1 49 26 78t77 29l1 2q-35 2 -58 15.5t-34 38.5t-12 58v43q0 68 43.5 106t149.5 38q33 0 68.5 -4.5t64 -10.5t39.5 -10v-97q-8 3 -32.5 7.5t-54.5 8t-55 3.5q-29 0 -43 -14t-15 -49v-55q0 -18 8 -28q8 -11 21 -13.5
t23 -2.5h51q5 26 11 52.5t11 52.5h102v-105h78v-72h-78v-96q-1 -30 8.5 -47.5t34.5 -17.5q9 0 17.5 0.5t17.5 0.5v-87q-20 -6 -32.5 -9t-23.5 -4t-28 -1q-21 0 -43 6t-38 20.5t-20 40.5q-12 -23 -41.5 -45.5t-85.5 -22.5zM231 106q16 0 27.5 6.5t18.5 17.5v126h-41
q-19 0 -30 -7.5t-11 -29.5v-66q0 -27 7 -37t29 -10z" />
    <glyph glyph-name="aogonek" unicode="&#x105;" horiz-adv-x="378" 
d="M112 -8q-28 0 -50 7.5t-35 28.5t-13 61v81q0 44 25.5 72t89.5 48q29 10 44 17.5t20.5 20t5.5 37.5v32q0 8 -1.5 13.5t-5 9t-10.5 3.5q-10 0 -13.5 -12.5t-3.5 -47.5v-42h-141v57q0 37 11 65.5t45 45t102 16.5t106 -10t54 -35.5t16 -73.5v-386h-156v49q-5 -25 -31.5 -41
t-58.5 -16zM182 93q12 0 14.5 11t2.5 36v101q-2 -4 -9 -7.5t-12 -9.5q-7 -7 -10 -14t-3 -20v-61q0 -9 1 -17.5t4.5 -13.5t11.5 -5zM302 -151q-43 0 -68 21.5t-25 46.5q0 28 24.5 54.5t65.5 30.5l59 -2q-27 -7 -39 -25.5t-12 -35.5q0 -18 12.5 -28t24.5 -10q7 0 11.5 1.5
t6.5 1.5l17 -37q-5 -3 -22 -10.5t-55 -7.5z" />
    <glyph glyph-name="aogonek.sc" horiz-adv-x="401" 
d="M3 0l83 495h231l81 -495h-176l-7 60h-36l-6 -60h-170zM180 135h35l-18 244zM342 -151q-43 0 -68 21.5t-25 46.5q0 28 24.5 54.5t65.5 30.5l59 -2q-27 -7 -39 -25.5t-12 -35.5q0 -18 12.5 -28t24.5 -10q7 0 11.5 1.5t6.5 1.5l17 -37q-5 -3 -22 -10.5t-55 -7.5z" />
    <glyph glyph-name="uni02BC" unicode="&#x2bc;" horiz-adv-x="153" 
d="M80 368h-80l35 204h118z" />
    <glyph glyph-name="approxequal" unicode="&#x2248;" horiz-adv-x="553" 
d="M376 291q-37 2 -69 14t-64.5 24.5t-71.5 14.5q-28 2 -45 -14.5t-20 -36.5h-76q0 39 17 73t50 55.5t79 19.5q36 -1 67 -12.5t61 -22.5t61 -13q41 -2 55 12.5t18 31.5h85q0 -62 -22.5 -94.5t-56.5 -43t-68 -8.5zM376 76q-37 2 -69 14t-64.5 24.5t-71.5 14.5
q-28 2 -45 -14.5t-20 -36.5h-76q0 39 17 73t50 55.5t79 19.5q36 -1 67 -12.5t61 -22.5t61 -13q41 -2 55 12.5t18 31.5h85q0 -62 -22.5 -94.5t-56.5 -43t-68 -8.5z" />
    <glyph glyph-name="aring" unicode="&#xe5;" horiz-adv-x="378" 
d="M112 -8q-28 0 -50 7.5t-35 28.5t-13 61v81q0 44 25.5 72t89.5 48q29 10 44 17.5t20.5 20t5.5 37.5v32q0 8 -1.5 13.5t-5 9t-10.5 3.5q-10 0 -13.5 -12.5t-3.5 -47.5v-42h-141v57q0 37 11 65.5t45 45t102 16.5t106 -10t54 -35.5t16 -73.5v-386h-156v49q-5 -25 -31.5 -41
t-58.5 -16zM182 93q12 0 14.5 11t2.5 36v101q-2 -4 -9 -7.5t-12 -9.5q-7 -7 -10 -14t-3 -20v-61q0 -9 1 -17.5t4.5 -13.5t11.5 -5zM193 539q-40 0 -66.5 25.5t-26.5 61.5q0 38 26.5 63.5t66.5 25.5q38 0 65.5 -26t27.5 -63q0 -36 -27.5 -61.5t-65.5 -25.5zM193 598
q13 0 22 8t9 20q0 14 -9 22.5t-22 8.5t-22 -8.5t-9 -22.5q0 -12 9 -20t22 -8z" />
    <glyph glyph-name="aring.sc" horiz-adv-x="401" 
d="M3 0l83 495h231l81 -495h-176l-7 60h-36l-6 -60h-170zM180 135h35l-18 244zM201 539q-40 0 -66.5 25.5t-26.5 61.5q0 38 26.5 63.5t66.5 25.5q38 0 65.5 -26t27.5 -63q0 -36 -27.5 -61.5t-65.5 -25.5zM201 598q13 0 22 8t9 20q0 14 -9 22.5t-22 8.5t-22 -8.5t-9 -22.5
q0 -12 9 -20t22 -8z" />
    <glyph glyph-name="aringacute" unicode="&#x1fb;" horiz-adv-x="378" 
d="M112 -8q-28 0 -50 7.5t-35 28.5t-13 61v81q0 44 25.5 72t89.5 48q29 10 44 17.5t20.5 20t5.5 37.5v32q0 8 -1.5 13.5t-5 9t-10.5 3.5q-10 0 -13.5 -12.5t-3.5 -47.5v-42h-141v57q0 37 11 65.5t45 45t102 16.5t106 -10t54 -35.5t16 -73.5v-386h-156v49q-5 -25 -31.5 -41
t-58.5 -16zM182 93q12 0 14.5 11t2.5 36v101q-2 -4 -9 -7.5t-12 -9.5q-7 -7 -10 -14t-3 -20v-61q0 -9 1 -17.5t4.5 -13.5t11.5 -5zM193 539q-40 0 -66.5 25.5t-26.5 61.5q0 38 26.5 63.5t66.5 25.5q38 0 65.5 -26t27.5 -63q0 -36 -27.5 -61.5t-65.5 -25.5zM193 598
q13 0 22 8t9 20q0 14 -9 22.5t-22 8.5t-22 -8.5t-9 -22.5q0 -12 9 -20t22 -8zM143 740l58 106h136l-106 -106h-88z" />
    <glyph glyph-name="aringacute.sc" horiz-adv-x="401" 
d="M3 0l83 495h231l81 -495h-176l-7 60h-36l-6 -60h-170zM180 135h35l-18 244zM201 539q-40 0 -66.5 25.5t-26.5 61.5q0 38 26.5 63.5t66.5 25.5q38 0 65.5 -26t27.5 -63q0 -36 -27.5 -61.5t-65.5 -25.5zM201 598q13 0 22 8t9 20q0 14 -9 22.5t-22 8.5t-22 -8.5t-9 -22.5
q0 -12 9 -20t22 -8zM151 740l58 106h136l-106 -106h-88z" />
    <glyph glyph-name="asciicircum" unicode="^" horiz-adv-x="441" 
d="M30 495l154 224h74l153 -224h-122l-66 109l-68 -109h-125z" />
    <glyph glyph-name="asciitilde" unicode="~" horiz-adv-x="553" 
d="M376 507q-37 2 -69 13.5t-64.5 24t-71.5 15.5q-28 2 -45 -14.5t-20 -36.5h-76q0 39 17 73.5t50 55.5t79 19q36 -1 67 -12.5t61 -22.5t61 -13q41 -2 55 12.5t18 31.5h85q0 -62 -22.5 -94t-56.5 -42.5t-68 -9.5z" />
    <glyph glyph-name="asterisk" unicode="*" horiz-adv-x="600" 
d="M204 72l-114 84l149 134l-204 9l51 153l170 -113l-48 197h146l-44 -196l172 108l46 -141l-201 -17l153 -133l-117 -82l-79 183z" />
    <glyph glyph-name="at" unicode="@" horiz-adv-x="758" 
d="M361 -69q-122 0 -190.5 37.5t-96.5 109t-28 173.5q0 162 77 251.5t246 90.5q96 1 171.5 -29.5t119 -96t43.5 -171.5q0 -87 -21.5 -139.5t-55.5 -76t-73 -23.5q-29 0 -58 11.5t-49 36.5t-23 66l32 -14q-14 -46 -40.5 -66t-73.5 -20q-49 0 -78.5 26t-29.5 88q0 27 5 48.5
t28.5 39.5t80.5 32q25 6 39.5 18.5t14.5 20.5v12v12q0 21 -4.5 27.5t-21.5 6.5q-16 0 -22 -8.5t-6 -31.5v-30h-104v36q0 36 9 57t37 30t84 9q61 0 92 -11.5t42 -35t11 -61.5v-167q0 -43 15.5 -59t38.5 -16q15 0 28 14t20.5 49.5t7.5 99.5q0 80 -27.5 137.5t-83.5 88
t-142 30.5t-142 -26.5t-83 -88.5t-27 -168q0 -80 18 -130.5t51 -77.5t79.5 -38t103.5 -13q20 -1 55 2t74 8.5t71 13.5t46 17v-56q-19 -8 -58 -19t-90.5 -18.5t-111.5 -7.5zM375 151q17 0 23.5 7.5t8 16.5t1.5 15v71q-19 0 -32.5 -4.5t-20.5 -10.5q-5 -4 -8.5 -10t-5.5 -15
t-2 -22q0 -22 4.5 -35t31.5 -13z" />
    <glyph glyph-name="atilde" unicode="&#xe3;" horiz-adv-x="378" 
d="M112 -8q-28 0 -50 7.5t-35 28.5t-13 61v81q0 44 25.5 72t89.5 48q29 10 44 17.5t20.5 20t5.5 37.5v32q0 8 -1.5 13.5t-5 9t-10.5 3.5q-10 0 -13.5 -12.5t-3.5 -47.5v-42h-141v57q0 37 11 65.5t45 45t102 16.5t106 -10t54 -35.5t16 -73.5v-386h-156v49q-5 -25 -31.5 -41
t-58.5 -16zM182 93q12 0 14.5 11t2.5 36v101q-2 -4 -9 -7.5t-12 -9.5q-7 -7 -10 -14t-3 -20v-61q0 -9 1 -17.5t4.5 -13.5t11.5 -5zM242 548q-17 0 -32 7t-29 14q-12 7 -23.5 11.5t-23.5 4.5q-13 0 -20 -10.5t-8 -25.5h-41q0 47 19.5 76t51.5 29q18 0 33 -5.5t28 -12.5
q12 -6 23.5 -11t22.5 -5q16 0 22.5 9.5t8.5 21.5h46q0 -34 -12.5 -57t-30.5 -34.5t-35 -11.5z" />
    <glyph glyph-name="atilde.sc" horiz-adv-x="401" 
d="M3 0l83 495h231l81 -495h-176l-7 60h-36l-6 -60h-170zM180 135h35l-18 244zM250 548q-17 0 -32 7t-29 14q-12 7 -23.5 11.5t-23.5 4.5q-13 0 -20 -10.5t-8 -25.5h-41q0 47 19.5 76t51.5 29q18 0 33 -5.5t28 -12.5q12 -6 23.5 -11t22.5 -5q16 0 22.5 9.5t8.5 21.5h46
q0 -34 -12.5 -57t-30.5 -34.5t-35 -11.5z" />
    <glyph glyph-name="b" unicode="b" horiz-adv-x="391" 
d="M235 -7q-43 0 -67 18.5t-30 31.5l-3 -43h-110v630h156v-172q8 15 26.5 31t55.5 16q25 0 49.5 -8t41.5 -33t17 -75v-235q0 -57 -10.5 -89.5t-29 -47.5t-43 -19.5t-53.5 -4.5zM198 98q8 0 11.5 4t4.5 12t1 19v243q0 17 -4.5 23.5t-12.5 6.5q-7 0 -12 -6.5t-5 -23.5v-243
q0 -17 3.5 -26t13.5 -9z" />
    <glyph glyph-name="b.sc" horiz-adv-x="393" 
d="M24 0v495h227q61 0 89 -25t28 -60v-52q0 -45 -30 -69q-10 -7 -24 -13t-31 -8v-3q13 0 26.5 -3t28.5 -12q18 -11 29 -31t11 -51v-62q0 -52 -33 -79t-107 -27h-214zM181 79h19q6 0 10.5 2.5t7 10t2.5 22.5v49q0 21 -4 29t-17 8h-18v-121zM181 296h16q5 0 13.5 5.5t8.5 39.5
v40q0 17 -4 25t-17 8h-17v-118z" />
    <glyph glyph-name="backslash" unicode="\" horiz-adv-x="600" 
d="M372 -44l-342 674h107l341 -674h-106z" />
    <glyph glyph-name="bar" unicode="|" horiz-adv-x="335" 
d="M100 -237v867h135v-867h-135z" />
    <glyph glyph-name="uni0431" unicode="&#x431;" horiz-adv-x="386" 
d="M186 -7q-44 0 -81.5 8t-60.5 33.5t-23 76.5l-1 347q0 51 6.5 90t29 60.5t69.5 21.5q20 0 55.5 3t72 7t62 9t25.5 9v-57q0 -22 -15 -37.5t-57 -17.5h-10q-41 0 -58 -9t-20.5 -24t-3.5 -33v-20q8 14 25 28.5t54 14.5q25 0 50.5 -7.5t43 -31t17.5 -73.5v-237
q0 -57 -11.5 -89.5t-34 -47.5t-56 -19.5t-78.5 -4.5zM193 83q6 0 9.5 2.5t5.5 9.5t2 18v265q0 12 -2 18.5t-5.5 9t-9.5 2.5q-4 0 -7 -1.5t-5.5 -5t-3.5 -9t-1 -14.5v-265q0 -11 2 -18t6 -9.5t9 -2.5z" />
    <glyph glyph-name="braceleft" unicode="{" horiz-adv-x="353" 
d="M313 -136q-100 0 -157.5 23.5t-81.5 59t-24 71.5q0 42 12.5 68t29 43t29 31.5t12.5 32.5q0 15 -7 26t-21 17.5t-37 6.5v43q18 0 31.5 9t21.5 23.5t8 30.5q0 12 -12 26t-27.5 31t-27.5 40.5t-12 55.5q0 42 23 79t80 60.5t160 23.5v-79q-25 -4 -47 -9.5t-35 -22t-13 -52.5
q0 -29 8.5 -50t19 -38t19 -35t8.5 -41q0 -14 -7 -31t-25 -29.5t-50 -12.5q33 0 58 -13.5t25 -52.5q0 -17 -7 -33.5t-16 -35t-16 -41.5t-7 -54q0 -36 15.5 -56t35.5 -28t34 -8v-79z" />
    <glyph glyph-name="braceright" unicode="}" horiz-adv-x="353" 
d="M40 -136v79q14 0 34 8t35.5 28t15.5 56q0 31 -7 54t-16 41.5t-16 35t-7 33.5q0 39 25 52.5t58 13.5q-32 0 -50 12.5t-25 29.5t-7 31q0 23 8.5 41t19 35t19 38t8.5 50q0 36 -13 52.5t-34.5 22t-47.5 9.5v79q103 0 160 -23.5t80 -60.5t23 -79q0 -32 -12 -55.5t-27.5 -40.5
t-27.5 -31t-12 -26q0 -16 8 -30.5t22 -23.5t31 -9v-43q-22 0 -36.5 -6.5t-21.5 -17.5t-7 -26q0 -18 12.5 -32.5t29 -31.5t29 -43t12.5 -68q0 -36 -24 -71.5t-81.5 -59t-157.5 -23.5z" />
    <glyph glyph-name="bracketleft" unicode="[" horiz-adv-x="333" 
d="M40 -57v687h253v-80h-106v-527h106v-80h-253z" />
    <glyph glyph-name="bracketright" unicode="]" horiz-adv-x="333" 
d="M40 -57v80h106v527h-106v80h253v-687h-253z" />
    <glyph glyph-name="breve" unicode="&#x2d8;" horiz-adv-x="285" 
d="M141 551q-53 0 -79.5 18.5t-35 44t-8.5 45.5h82q0 -18 13 -27t29 -9q17 0 29.5 8.5t13.5 27.5h83q0 -30 -13 -54.5t-40.5 -39t-73.5 -14.5z" />
    <glyph glyph-name="uni032E" unicode="&#x32e;" 
d="M123 -140q-53 0 -79.5 18.5t-35 44t-8.5 45.5h82q0 -18 13 -27t29 -9q17 0 29.5 8.5t13.5 27.5h83q0 -30 -13 -54.5t-40.5 -39t-73.5 -14.5z" />
    <glyph glyph-name="uni0306" unicode="&#x306;" 
d="M141 551q-53 0 -79.5 18.5t-35 44t-8.5 45.5h82q0 -18 13 -27t29 -9q17 0 29.5 8.5t13.5 27.5h83q0 -30 -13 -54.5t-40.5 -39t-73.5 -14.5z" />
    <glyph glyph-name="uni0306.case" 
d="M123 631q-53 0 -79.5 18.5t-35 44t-8.5 45.5h82q0 -18 13 -27t29 -9q17 0 29.5 8.5t13.5 27.5h83q0 -30 -13 -54.5t-40.5 -39t-73.5 -14.5z" />
    <glyph glyph-name="uni03060301" 
d="M141 551q-53 0 -79.5 18.5t-35 44t-8.5 45.5h82q0 -18 13 -27t29 -9q17 0 29.5 8.5t13.5 27.5h83q0 -30 -13 -54.5t-40.5 -39t-73.5 -14.5zM93 685l58 106h136l-106 -106h-88z" />
    <glyph glyph-name="uni03060301.case" 
d="M114 387q-45 0 -66 15t-27 35t-6 36h80q-2 -7 5.5 -11.5t14.5 -4.5q6 0 13.5 4t6.5 12h81q1 -39 -23 -62.5t-79 -23.5zM63 496l41 81h133l-86 -81h-88z" />
    <glyph glyph-name="uni03060300" 
d="M141 551q-53 0 -79.5 18.5t-35 44t-8.5 45.5h82q0 -18 13 -27t29 -9q17 0 29.5 8.5t13.5 27.5h83q0 -30 -13 -54.5t-40.5 -39t-73.5 -14.5zM113 685l-106 106h136l58 -106h-88z" />
    <glyph glyph-name="uni03060300.case" 
d="M114 387q-45 0 -66 15t-26.5 35t-5.5 36h79q-1 -9 7 -12.5t13 -3.5q7 0 14 4t7 12h80q2 -39 -23 -62.5t-79 -23.5zM90 496l-86 81h133l41 -81h-88z" />
    <glyph glyph-name="uni03060309" 
d="M141 551q-53 0 -79.5 18.5t-35 44t-8.5 45.5h82q0 -18 13 -27t29 -9q17 0 29.5 8.5t13.5 27.5h83q0 -30 -13 -54.5t-40.5 -39t-73.5 -14.5zM100 685v9q0 15 10 23t20 14.5t10 17.5v7q0 6 -2 12.5t-9 6.5q-11 0 -11 -20l-67 10q2 32 23 48t62 16q45 0 68 -11.5t23 -58.5
v-4q0 -23 -11.5 -31.5t-22.5 -13t-11 -16.5v-9h-82z" />
    <glyph glyph-name="uni03060309.case" 
d="M114 387q-45 0 -66 15t-27 35t-6 36h80q-2 -7 5.5 -11.5t14.5 -4.5q6 0 13.5 4t6.5 12h81q1 -39 -23 -62.5t-79 -23.5zM73 495v3q0 11 8 17t16 10.5t8 10.5v6q0 7 -1.5 8.5t-3.5 1.5t-4 -3t-2 -8l-60 8q1 26 17.5 40t54.5 14q44 0 61 -9.5t17 -47.5v-4q0 -16 -7.5 -22
t-15 -9t-7.5 -11v-5h-81z" />
    <glyph glyph-name="uni03060303" 
d="M141 551q-53 0 -79.5 18.5t-35 44t-8.5 45.5h82q0 -18 13 -27t29 -9q17 0 29.5 8.5t13.5 27.5h83q0 -30 -13 -54.5t-40.5 -39t-73.5 -14.5zM192 683q-17 0 -32 7t-29 14q-12 7 -23.5 11.5t-23.5 4.5q-13 0 -20 -10.5t-8 -25.5h-41q0 47 19.5 76t51.5 29q18 0 33 -5.5
t28 -12.5q12 -6 23.5 -11t22.5 -5q16 0 22.5 9.5t8.5 21.5h46q0 -34 -12.5 -57t-30.5 -34.5t-35 -11.5z" />
    <glyph glyph-name="uni03060303.case" 
d="M114 387q-45 0 -66 15t-27 35t-6 36h80q-1 -7 6 -11.5t14 -4.5t14 4t7 12h80q2 -39 -23 -62.5t-79 -23.5zM154 489q-13 0 -25.5 5.5t-25.5 11.5q-10 5 -17 7.5t-18 2.5q-9 0 -13.5 -8.5t-3.5 -17.5h-38q-1 41 15.5 67t41.5 26q13 0 25.5 -3.5t22.5 -8.5q11 -4 19.5 -8
t17.5 -4q12 0 15.5 7t4.5 14h43q1 -31 -10.5 -51.5t-26.5 -30t-27 -9.5z" />
    <glyph glyph-name="uni0311" unicode="&#x311;" 
d="M128 658q54 0 80 -18.5t34.5 -43.5t8.5 -46h-82q0 18 -13 27t-29 9t-29 -8.5t-14 -27.5h-83q0 30 13 54.5t41 39t73 14.5z" />
    <glyph glyph-name="brokenbar" unicode="&#xa6;" horiz-adv-x="235" 
d="M50 -165v346h135v-346h-135zM50 267v318h135v-318h-135z" />
    <glyph glyph-name="bullet" unicode="&#x2022;" horiz-adv-x="353" 
d="M177 143q-38 0 -69 18.5t-49.5 49.5t-18.5 69t18.5 68.5t49.5 49t69 18.5t68.5 -18.5t49 -49t18.5 -68.5t-18.5 -69t-49 -49.5t-68.5 -18.5z" />
    <glyph glyph-name="uni2219" unicode="&#x2219;" horiz-adv-x="242" 
d="M126 200q-34 0 -57.5 23.5t-23.5 56.5t23.5 56.5t57.5 23.5q33 0 56 -23.5t23 -56.5t-23 -56.5t-56 -23.5z" />
    <glyph glyph-name="c" unicode="c" horiz-adv-x="381" 
d="M193 -8q-53 0 -92 11t-60 48.5t-21 114.5v197q0 80 45 110t128 30t128 -28t45 -102v-79h-156v89q0 17 -4.5 23.5t-12.5 6.5q-7 0 -12 -6.5t-5 -23.5v-271q0 -17 5 -23.5t12 -6.5q8 0 12.5 6.5t4.5 23.5v101h156v-46q0 -78 -21 -115.5t-60 -48.5t-92 -11z" />
    <glyph glyph-name="c.sc" horiz-adv-x="388" 
d="M198 -10q-60 0 -99.5 14t-59 50t-19.5 100v235q0 60 49.5 87t128.5 27q80 0 126 -26.5t46 -87.5v-124h-156v132q0 5 -4.5 8t-11.5 3t-11 -3t-4 -8v-307q0 -4 4.5 -7t10.5 -3t11 3t5 7v127h156v-62q0 -64 -18 -100t-55.5 -50.5t-98.5 -14.5z" />
    <glyph glyph-name="cacute" unicode="&#x107;" horiz-adv-x="381" 
d="M193 -8q-53 0 -92 11t-60 48.5t-21 114.5v197q0 80 45 110t128 30t128 -28t45 -102v-79h-156v89q0 17 -4.5 23.5t-12.5 6.5q-7 0 -12 -6.5t-5 -23.5v-271q0 -17 5 -23.5t12 -6.5q8 0 12.5 6.5t4.5 23.5v101h156v-46q0 -78 -21 -115.5t-60 -48.5t-92 -11zM141 550l58 106
h136l-106 -106h-88z" />
    <glyph glyph-name="cacute.sc" horiz-adv-x="388" 
d="M198 -10q-60 0 -99.5 14t-59 50t-19.5 100v235q0 60 49.5 87t128.5 27q80 0 126 -26.5t46 -87.5v-124h-156v132q0 5 -4.5 8t-11.5 3t-11 -3t-4 -8v-307q0 -4 4.5 -7t10.5 -3t11 3t5 7v127h156v-62q0 -64 -18 -100t-55.5 -50.5t-98.5 -14.5zM144 550l58 106h136l-106 -106
h-88z" />
    <glyph glyph-name="caron" unicode="&#x2c7;" horiz-adv-x="316" 
d="M99 545l-99 116h102l40 -42l40 42h100l-100 -116h-83z" />
    <glyph glyph-name="uni030C" unicode="&#x30c;" 
d="M99 545l-99 116h102l40 -42l40 42h100l-100 -116h-83z" />
    <glyph glyph-name="uni030C.alt" 
d="M0 500l28 161h92l-67 -161h-53z" />
    <glyph glyph-name="uni030C.case" 
d="M101 632l-101 109h107l37 -33l37 32h105l-102 -108h-83z" />
    <glyph glyph-name="ccaron" unicode="&#x10d;" horiz-adv-x="381" 
d="M193 -8q-53 0 -92 11t-60 48.5t-21 114.5v197q0 80 45 110t128 30t128 -28t45 -102v-79h-156v89q0 17 -4.5 23.5t-12.5 6.5q-7 0 -12 -6.5t-5 -23.5v-271q0 -17 5 -23.5t12 -6.5q8 0 12.5 6.5t4.5 23.5v101h156v-46q0 -78 -21 -115.5t-60 -48.5t-92 -11zM149 545l-99 116
h102l40 -42l40 42h100l-100 -116h-83z" />
    <glyph glyph-name="ccaron.sc" horiz-adv-x="388" 
d="M198 -10q-60 0 -99.5 14t-59 50t-19.5 100v235q0 60 49.5 87t128.5 27q80 0 126 -26.5t46 -87.5v-124h-156v132q0 5 -4.5 8t-11.5 3t-11 -3t-4 -8v-307q0 -4 4.5 -7t10.5 -3t11 3t5 7v127h156v-62q0 -64 -18 -100t-55.5 -50.5t-98.5 -14.5zM152 545l-99 116h102l40 -42
l40 42h100l-100 -116h-83z" />
    <glyph glyph-name="ccedilla" unicode="&#xe7;" horiz-adv-x="381" 
d="M193 -8q-53 0 -92 11t-60 48.5t-21 114.5v197q0 80 45 110t128 30t128 -28t45 -102v-79h-156v89q0 17 -4.5 23.5t-12.5 6.5q-7 0 -12 -6.5t-5 -23.5v-271q0 -17 5 -23.5t12 -6.5q8 0 12.5 6.5t4.5 23.5v101h156v-46q0 -78 -21 -115.5t-60 -48.5t-92 -11zM186 -174
q-22 0 -41 8.5t-26 12.5l18 47q7 -6 19.5 -10.5t22.5 -4.5q13 0 20 6.5t7 18.5q0 8 -5 12t-12 4q-6 0 -9.5 -2t-5.5 -4l-41 22l31 64h56l-26 -53l-7 4q6 3 16 6.5t24 3.5q30 0 46.5 -19t16.5 -41q0 -30 -27 -52.5t-77 -22.5z" />
    <glyph glyph-name="ccedilla.sc" horiz-adv-x="388" 
d="M198 -10q-60 0 -99.5 14t-59 50t-19.5 100v235q0 60 49.5 87t128.5 27q80 0 126 -26.5t46 -87.5v-124h-156v132q0 5 -4.5 8t-11.5 3t-11 -3t-4 -8v-307q0 -4 4.5 -7t10.5 -3t11 3t5 7v127h156v-62q0 -64 -18 -100t-55.5 -50.5t-98.5 -14.5zM189 -174q-22 0 -41 8.5
t-26 12.5l18 47q7 -6 19.5 -10.5t22.5 -4.5q13 0 20 6.5t7 18.5q0 8 -5 12t-12 4q-6 0 -9.5 -2t-5.5 -4l-41 22l31 64h56l-26 -53l-7 4q6 3 16 6.5t24 3.5q30 0 46.5 -19t16.5 -41q0 -30 -27 -52.5t-77 -22.5z" />
    <glyph glyph-name="ccircumflex" unicode="&#x109;" horiz-adv-x="381" 
d="M193 -8q-53 0 -92 11t-60 48.5t-21 114.5v197q0 80 45 110t128 30t128 -28t45 -102v-79h-156v89q0 17 -4.5 23.5t-12.5 6.5q-7 0 -12 -6.5t-5 -23.5v-271q0 -17 5 -23.5t12 -6.5q8 0 12.5 6.5t4.5 23.5v101h156v-46q0 -78 -21 -115.5t-60 -48.5t-92 -11zM50 545l99 116
h83l100 -116h-100l-40 42l-40 -42h-102z" />
    <glyph glyph-name="ccircumflex.sc" horiz-adv-x="388" 
d="M198 -10q-60 0 -99.5 14t-59 50t-19.5 100v235q0 60 49.5 87t128.5 27q80 0 126 -26.5t46 -87.5v-124h-156v132q0 5 -4.5 8t-11.5 3t-11 -3t-4 -8v-307q0 -4 4.5 -7t10.5 -3t11 3t5 7v127h156v-62q0 -64 -18 -100t-55.5 -50.5t-98.5 -14.5zM53 545l99 116h83l100 -116
h-100l-40 42l-40 -42h-102z" />
    <glyph glyph-name="cdotaccent" unicode="&#x10b;" horiz-adv-x="381" 
d="M193 -8q-53 0 -92 11t-60 48.5t-21 114.5v197q0 80 45 110t128 30t128 -28t45 -102v-79h-156v89q0 17 -4.5 23.5t-12.5 6.5q-7 0 -12 -6.5t-5 -23.5v-271q0 -17 5 -23.5t12 -6.5q8 0 12.5 6.5t4.5 23.5v101h156v-46q0 -78 -21 -115.5t-60 -48.5t-92 -11zM190 545
q-28 0 -48.5 19.5t-20.5 46.5q0 28 20.5 47.5t48.5 19.5q29 0 50 -19.5t21 -46.5q0 -28 -21 -47.5t-50 -19.5z" />
    <glyph glyph-name="cdotaccent.sc" horiz-adv-x="388" 
d="M198 -10q-60 0 -99.5 14t-59 50t-19.5 100v235q0 60 49.5 87t128.5 27q80 0 126 -26.5t46 -87.5v-124h-156v132q0 5 -4.5 8t-11.5 3t-11 -3t-4 -8v-307q0 -4 4.5 -7t10.5 -3t11 3t5 7v127h156v-62q0 -64 -18 -100t-55.5 -50.5t-98.5 -14.5zM193 545q-28 0 -48.5 19.5
t-20.5 46.5q0 28 20.5 47.5t48.5 19.5q29 0 50 -19.5t21 -46.5q0 -28 -21 -47.5t-50 -19.5z" />
    <glyph glyph-name="uni20B5" unicode="&#x20b5;" horiz-adv-x="395" 
d="M202 659h88l-74 -738h-88zM202 -12q-54 0 -95 13t-64 53t-23 119v292q0 50 23 79.5t64 42.5t95 13q55 0 94 -13t60 -42.5t21 -79.5v-138h-159v146q0 12 -2 18.5t-5.5 9t-8.5 2.5t-8.5 -2.5t-5.5 -9t-2 -18.5v-363q0 -11 2 -18t5.5 -9.5t8.5 -2.5t8.5 2.5t5.5 9.5t2 18
v138h159v-74q0 -80 -21 -120t-60 -53t-94 -13z" />
    <glyph glyph-name="uni20B5.BRACKET.70" horiz-adv-x="395" 
d="M147 52h88l-17 -131h-88zM183 659h88l-11 -109h-88zM202 -12q-54 0 -95 13t-64 53t-23 119v292q0 50 23 79.5t64 42.5t95 13q55 0 94 -13t60 -42.5t21 -79.5v-138h-159v146q0 12 -2 18.5t-5.5 9t-8.5 2.5t-8.5 -2.5t-5.5 -9t-2 -18.5v-363q0 -11 2 -18t5.5 -9.5t8.5 -2.5
t8.5 2.5t5.5 9.5t2 18v138h159v-74q0 -80 -21 -120t-60 -53t-94 -13z" />
    <glyph glyph-name="cedilla" unicode="&#xb8;" horiz-adv-x="243" 
d="M67 -174q-22 0 -41 8.5t-26 12.5l18 47q7 -6 19.5 -10.5t22.5 -4.5q13 0 20 6.5t7 18.5q0 8 -5 12t-12 4q-6 0 -9.5 -2t-5.5 -4l-41 22l31 64h56l-26 -53l-7 4q6 3 16 6.5t24 3.5q30 0 46.5 -19t16.5 -41q0 -30 -27 -52.5t-77 -22.5z" />
    <glyph glyph-name="uni0327" unicode="&#x327;" 
d="M67 -174q-22 0 -41 8.5t-26 12.5l18 47q7 -6 19.5 -10.5t22.5 -4.5q13 0 20 6.5t7 18.5q0 8 -5 12t-12 4q-6 0 -9.5 -2t-5.5 -4l-41 22l31 64h56l-26 -53l-7 4q6 3 16 6.5t24 3.5q30 0 46.5 -19t16.5 -41q0 -30 -27 -52.5t-77 -22.5z" />
    <glyph glyph-name="cent" unicode="&#xa2;" horiz-adv-x="382" 
d="M146 -67v116q-36 4 -62 18t-40 46t-14 90v244q0 36 14 59.5t40 36.5t62 16v91h96v-95q32 -5 57 -18.5t39 -35.5t14 -54v-114h-136v123q0 10 -4.5 15t-10 7.5t-10.5 2.5q-4 0 -9.5 -2.5t-10 -7.5t-4.5 -15v-305q0 -10 4.5 -15.5t10 -8t9.5 -2.5q5 0 10.5 2.5t10 8
t4.5 15.5v116h136v-63q0 -51 -14.5 -82.5t-39 -47t-56.5 -21.5v-120h-96z" />
    <glyph glyph-name="cent.tf" horiz-adv-x="450" 
d="M186 -67v116q-36 4 -62 18t-40 46t-14 90v244q0 36 14 59.5t40 36.5t62 16v91h96v-95q32 -5 57 -18.5t39 -35.5t14 -54v-114h-136v123q0 10 -4.5 15t-10 7.5t-10.5 2.5q-4 0 -9.5 -2.5t-10 -7.5t-4.5 -15v-305q0 -10 4.5 -15.5t10 -8t9.5 -2.5q5 0 10.5 2.5t10 8
t4.5 15.5v116h136v-63q0 -51 -14.5 -82.5t-39 -47t-56.5 -21.5v-120h-96z" />
    <glyph glyph-name="uni0447" unicode="&#x447;" horiz-adv-x="393" 
d="M223 0v149q-5 -35 -32 -53.5t-59 -18.5q-44 0 -68 14.5t-33 44t-9 72.5v287h156v-286q0 -14 4.5 -21t12.5 -7q4 0 9 0.5t8 2.5v311h156v-495h-145z" />
    <glyph glyph-name="circumflex" unicode="&#x2c6;" horiz-adv-x="302" 
d="M10 545l99 116h83l100 -116h-100l-40 42l-40 -42h-102z" />
    <glyph glyph-name="uni0302" unicode="&#x302;" 
d="M10 545l99 116h83l100 -116h-100l-40 42l-40 -42h-102z" />
    <glyph glyph-name="uni0302.case" 
d="M-2 632l101 109h83l102 -108h-105l-37 32l-37 -33h-107z" />
    <glyph glyph-name="uni03020301" 
d="M10 545l99 116h83l100 -116h-100l-40 42l-40 -42h-102zM294 605l58 106h136l-106 -106h-88z" />
    <glyph glyph-name="uni03020301.case" 
d="M7 381l74 93h79l75 -93h-87l-26 32l-26 -32h-89zM234 446l41 81h133l-86 -81h-88z" />
    <glyph glyph-name="uni03020300" 
d="M10 545l99 116h83l100 -116h-100l-40 42l-40 -42h-102zM314 605l-106 106h136l58 -106h-88z" />
    <glyph glyph-name="uni03020300.case" 
d="M7 381l74 93h79l75 -93h-87l-26 32l-26 -32h-89zM258 444l-86 81h133l41 -81h-88z" />
    <glyph glyph-name="uni03020309" 
d="M10 545l99 116h83l100 -116h-100l-40 42l-40 -42h-102zM301 605v9q0 15 10 23t20 14.5t10 17.5v7q0 6 -2 12.5t-9 6.5q-11 0 -11 -20l-67 10q2 32 23 48t62 16q45 0 68 -11.5t23 -58.5v-4q0 -23 -11.5 -31.5t-22.5 -13t-11 -16.5v-9h-82z" />
    <glyph glyph-name="uni03020309.case" 
d="M7 381l74 93h79l75 -93h-87l-26 32l-26 -32h-89zM232 438v3q0 11 8 17t16 10.5t8 10.5v6q0 7 -1.5 8.5t-3.5 1.5q-6 0 -6 -11l-60 8q1 26 17.5 40t54.5 14q44 0 61 -9.5t17 -47.5v-4q0 -16 -7.5 -22t-15 -9t-7.5 -11v-5h-81z" />
    <glyph glyph-name="uni03020303" 
d="M10 545l99 116h83l100 -116h-100l-40 42l-40 -42h-102zM201 686q-17 0 -32 7t-29 14q-12 7 -23.5 11.5t-23.5 4.5q-13 0 -20 -10.5t-8 -25.5h-41q0 47 19.5 76t51.5 29q18 0 33 -5.5t28 -12.5q12 -6 23.5 -11t22.5 -5q16 0 22.5 9.5t8.5 21.5h46q0 -34 -12.5 -57
t-30.5 -34.5t-35 -11.5z" />
    <glyph glyph-name="uni03020303.case" 
d="M7 381l74 93h79l75 -93h-87l-26 32l-26 -32h-89zM160 493q-13 0 -26 6t-23 10q-10 5 -19 7.5t-17 2.5q-9 0 -13.5 -8t-4.5 -17h-37q-1 41 15 66.5t42 25.5q13 0 26 -3.5t23 -8.5q9 -4 17.5 -7.5t17.5 -3.5q13 0 16.5 7t4.5 13h43q1 -30 -10.5 -50t-26.5 -30t-28 -10z" />
    <glyph glyph-name="colon" unicode=":" horiz-adv-x="254" 
d="M126 259q-31 0 -53.5 21.5t-22.5 51.5q0 31 22.5 52.5t53.5 21.5q32 0 55 -21.5t23 -52.5q0 -30 -23 -51.5t-55 -21.5zM126 -11q-31 0 -53.5 21.5t-22.5 51.5q0 31 22.5 52.5t53.5 21.5q32 0 55 -21.5t23 -52.5q0 -30 -23 -51.5t-55 -21.5z" />
    <glyph glyph-name="colonmonetary" unicode="&#x20a1;" horiz-adv-x="395" 
d="M142 659h88l-74 -738h-88zM256 659h88l-74 -738h-88zM202 -12q-54 0 -95 13t-64 53t-23 119v292q0 50 23 79.5t64 42.5t95 13q55 0 94 -13t60 -42.5t21 -79.5v-138h-159v146q0 12 -2 18.5t-5.5 9t-8.5 2.5t-8.5 -2.5t-5.5 -9t-2 -18.5v-363q0 -11 2 -18t5.5 -9.5
t8.5 -2.5t8.5 2.5t5.5 9.5t2 18v138h159v-74q0 -80 -21 -120t-60 -53t-94 -13z" />
    <glyph glyph-name="colonmonetary.BRACKET.70" horiz-adv-x="395" 
d="M77 52h88l-17 -131h-88zM219 52h88l-17 -131h-88zM113 659h88l-11 -109h-88zM247 659h88l-11 -109h-88zM202 -12q-54 0 -95 13t-64 53t-23 119v292q0 50 23 79.5t64 42.5t95 13q55 0 94 -13t60 -42.5t21 -79.5v-138h-159v146q0 12 -2 18.5t-5.5 9t-8.5 2.5t-8.5 -2.5
t-5.5 -9t-2 -18.5v-363q0 -11 2 -18t5.5 -9.5t8.5 -2.5t8.5 2.5t5.5 9.5t2 18v138h159v-74q0 -80 -21 -120t-60 -53t-94 -13z" />
    <glyph glyph-name="comma" unicode="," horiz-adv-x="254" 
d="M51 -170q19 41 31 72.5t12 55.5q0 23 -11 36t-22 25.5t-11 35.5q0 29 22.5 50.5t56.5 21.5t54.5 -22t20.5 -56q0 -31 -13 -71t-32.5 -79t-40.5 -69h-67z" />
    <glyph glyph-name="comma.tf" horiz-adv-x="450" 
d="M164 -170q19 41 31 72.5t12 55.5q0 23 -11 36t-22 25.5t-11 35.5q0 29 22.5 50.5t56.5 21.5t54.5 -22t20.5 -56q0 -31 -13 -71t-32.5 -79t-40.5 -69h-67z" />
    <glyph glyph-name="uni0326" unicode="&#x326;" 
d="M0 -211q17 24 26 43t9 31q0 8 -8.5 14t-16.5 15t-8 24q0 18 17.5 33t45.5 15q29 0 47.5 -15.5t18.5 -39.5q0 -15 -11 -37.5t-26.5 -44.5t-31.5 -38h-62z" />
    <glyph glyph-name="uni0312" unicode="&#x312;" 
d="M131 718q-16 -24 -25.5 -43t-9.5 -31q0 -8 8.5 -14t16.5 -14.5t8 -24.5q0 -18 -17.5 -33t-45.5 -15q-29 0 -47.5 15.5t-18.5 39.5q0 16 11 38t27 44t31 38h62z" />
    <glyph glyph-name="uni2052" unicode="&#x2052;" horiz-adv-x="507" 
d="M401 81q-34 0 -57.5 23.5t-23.5 56.5t23.5 56.5t57.5 23.5q33 0 56 -23.5t23 -56.5t-23 -56.5t-56 -23.5zM100 285q-34 0 -57.5 23.5t-23.5 56.5t23.5 56.5t57.5 23.5q33 0 56 -23.5t23 -56.5t-23 -56.5t-56 -23.5zM-67 0l321 591h110l-322 -591h-109z" />
    <glyph glyph-name="copyright" unicode="&#xa9;" horiz-adv-x="600" 
d="M306 30q-58 0 -109 21.5t-90 60.5t-60.5 90t-21.5 109t21.5 109t60.5 89.5t90 60t109 21.5t109 -21.5t89.5 -60t60 -89.5t21.5 -109t-21.5 -109t-60 -90t-89.5 -60.5t-109 -21.5zM306 86q46 0 86.5 17.5t71 48.5t47.5 72t17 87q0 62 -30 112.5t-80 80.5t-112 30
q-46 0 -86.5 -17.5t-71 -48t-48 -71t-17.5 -86.5t17.5 -87t48 -72t71 -48.5t86.5 -17.5zM306 147q-35 0 -61.5 7.5t-40.5 32.5t-14 77v133q0 55 30 75t86 20q57 0 87 -19t30 -69v-53h-105v60q0 11 -3.5 15.5t-8.5 4.5t-8 -4.5t-3 -15.5v-183q0 -12 3 -16.5t8 -4.5t8.5 4.5
t3.5 16.5v68h105v-31q0 -53 -14 -78t-40.5 -32.5t-62.5 -7.5z" />
    <glyph glyph-name="currency" unicode="&#xa4;" horiz-adv-x="566" 
d="M101 51l-69 69l110 111q-9 16 -13.5 33.5t-4.5 37.5q0 38 17 70l-111 111l69 69l113 -112q33 16 71 16t69 -15l113 114l69 -69l-111 -112q19 -32 19 -72q0 -39 -18 -71l112 -110l-69 -69l-114 113q-17 -8 -34.5 -12t-35.5 -4q-38 0 -70 15zM283 249q21 0 36 15t15 37
q0 23 -15 38t-36 15t-36 -15t-15 -38q0 -22 15 -37t36 -15z" />
    <glyph glyph-name="d" unicode="d" horiz-adv-x="391" 
d="M156 -7q-28 0 -52.5 4.5t-43.5 19.5t-29.5 47.5t-10.5 89.5v237q0 37 11.5 58.5t28.5 32.5t34.5 14.5t30.5 3.5q40 0 58 -13t27 -27v170h156v-630h-105l-16 47q-4 -7 -14 -20t-28 -23.5t-47 -10.5zM193 80q4 0 7 1.5t5.5 5t3.5 9t1 14.5v295l-2.5 1t-6 1.5t-8.5 0.5
q-4 0 -7 -1.5t-5.5 -5t-3.5 -9t-1 -14.5v-268q0 -11 2 -18t6 -9.5t9 -2.5z" />
    <glyph glyph-name="d.sc" horiz-adv-x="394" 
d="M24 0v495h227q43 0 70 -11t40 -29.5t13 -39.5v-311q0 -52 -34.5 -78t-111.5 -26h-204zM187 78h14q5 0 8.5 1t6 3t2.5 6v311q0 6 -4.5 8.5t-12.5 2.5h-14v-332z" />
    <glyph glyph-name="dagger" unicode="&#x2020;" horiz-adv-x="396" 
d="M131 -120v422h-101v82h101v201h135v-201h101v-82h-101v-422h-135z" />
    <glyph glyph-name="daggerdbl" unicode="&#x2021;" horiz-adv-x="403" 
d="M134 -120v235h-104v93h104v111h-104v93h104v218h136v-218h103v-93h-103v-111h103v-93h-103v-235h-136z" />
    <glyph glyph-name="uni030F" unicode="&#x30f;" 
d="M257 550h-59l-65 106h116zM144 550h-69l-75 106h116z" />
    <glyph glyph-name="dcaron" unicode="&#x10f;" horiz-adv-x="496" 
d="M156 -7q-28 0 -52.5 4.5t-43.5 19.5t-29.5 47.5t-10.5 89.5v237q0 37 11.5 58.5t28.5 32.5t34.5 14.5t30.5 3.5q40 0 58 -13t27 -27v170h156v-630h-105l-16 47q-4 -7 -14 -20t-28 -23.5t-47 -10.5zM193 80q4 0 7 1.5t5.5 5t3.5 9t1 14.5v295l-2.5 1t-6 1.5t-8.5 0.5
q-4 0 -7 -1.5t-5.5 -5t-3.5 -9t-1 -14.5v-268q0 -11 2 -18t6 -9.5t9 -2.5zM389 477l28 161h92l-67 -161h-53z" />
    <glyph glyph-name="dcaron.sc" horiz-adv-x="394" 
d="M24 0v495h227q43 0 70 -11t40 -29.5t13 -39.5v-311q0 -52 -34.5 -78t-111.5 -26h-204zM187 78h14q5 0 8.5 1t6 3t2.5 6v311q0 6 -4.5 8.5t-12.5 2.5h-14v-332zM155 545l-99 116h102l40 -42l40 42h100l-100 -116h-83z" />
    <glyph glyph-name="dcroat" unicode="&#x111;" horiz-adv-x="391" 
d="M142 527v55h248v-55h-248zM156 -7q-28 0 -52.5 4.5t-43.5 19.5t-29.5 47.5t-10.5 89.5v237q0 37 11.5 58.5t28.5 32.5t34.5 14.5t30.5 3.5q40 0 58 -13t27 -27v170h156v-630h-105l-16 47q-4 -7 -14 -20t-28 -23.5t-47 -10.5zM193 80q4 0 7 1.5t5.5 5t3.5 9t1 14.5v295
l-2.5 1t-6 1.5t-8.5 0.5q-4 0 -7 -1.5t-5.5 -5t-3.5 -9t-1 -14.5v-268q0 -11 2 -18t6 -9.5t9 -2.5z" />
    <glyph glyph-name="dcroat.sc" horiz-adv-x="438" 
d="M46 0v495h249q43 0 70 -11t40 -29.5t13 -39.5v-311q0 -52 -34.5 -78t-111.5 -26h-226zM7 201v86h224v-86h-224zM209 78h24q10 0 16.5 1t9.5 3t3 6v311q0 5 -5.5 8t-23.5 3h-24v-332z" />
    <glyph glyph-name="uni0434" unicode="&#x434;" horiz-adv-x="570" 
d="M15 -119v209h28q10 2 26 12.5t30 33t18 59.5l36 300h323v-405h79v-209h-129v87h-282v-87h-129zM238 90h72v294h-15l-26 -190q-4 -32 -10.5 -64t-20.5 -40z" />
    <glyph glyph-name="uni0434.loclBGR" horiz-adv-x="570" 
d="M15 -119v209h28q10 2 26 12.5t30 33t18 59.5l36 300h323v-405h79v-209h-129v87h-282v-87h-129zM238 90h72v294h-15l-26 -190q-4 -32 -10.5 -64t-20.5 -40z" />
    <glyph glyph-name="degree" unicode="&#xb0;" horiz-adv-x="333" 
d="M166 325q-70 0 -103 39t-33 93q0 56 31 95t107 39q51 0 80.5 -18t42 -48t12.5 -66q0 -59 -33.5 -96.5t-103.5 -37.5zM167 393q26 0 42 18.5t16 46.5q0 26 -15 46t-44 20q-26 0 -42 -20t-16 -47t16.5 -45.5t42.5 -18.5z" />
    <glyph glyph-name="dieresis" unicode="&#xa8;" horiz-adv-x="277" 
d="M60 543q-26 0 -43 16.5t-17 40.5t17 40t43 16q25 0 41.5 -16t16.5 -40t-16.5 -40.5t-41.5 -16.5zM199 543q-26 0 -43 16.5t-17 40.5t17 40t43 16q25 0 41.5 -16t16.5 -40t-16.5 -40.5t-41.5 -16.5z" />
    <glyph glyph-name="uni0324" unicode="&#x324;" 
d="M60 -145q-26 0 -43 16.5t-17 40.5t17 40t43 16q25 0 41.5 -16t16.5 -40t-16.5 -40.5t-41.5 -16.5zM199 -145q-26 0 -43 16.5t-17 40.5t17 40t43 16q25 0 41.5 -16t16.5 -40t-16.5 -40.5t-41.5 -16.5z" />
    <glyph glyph-name="uni0308" unicode="&#x308;" 
d="M60 543q-26 0 -43 16.5t-17 40.5t17 40t43 16q25 0 41.5 -16t16.5 -40t-16.5 -40.5t-41.5 -16.5zM199 543q-26 0 -43 16.5t-17 40.5t17 40t43 16q25 0 41.5 -16t16.5 -40t-16.5 -40.5t-41.5 -16.5z" />
    <glyph glyph-name="uni0308.case" 
d="M60 630q-26 0 -43 16.5t-17 40.5t17 40t43 16q25 0 41.5 -16t16.5 -40t-16.5 -40.5t-41.5 -16.5zM199 630q-26 0 -43 16.5t-17 40.5t17 40t43 16q25 0 41.5 -16t16.5 -40t-16.5 -40.5t-41.5 -16.5z" />
    <glyph glyph-name="divide" unicode="&#xf7;" horiz-adv-x="403" 
d="M40 234v103h323v-103h-323zM201 56q-30 0 -50 19t-20 47q0 29 20 49t50 20t50.5 -20t20.5 -49q0 -28 -20.5 -47t-50.5 -19zM200 382q-29 0 -49.5 19.5t-20.5 47.5q0 29 20.5 48.5t49.5 19.5q30 0 50.5 -19.5t20.5 -48.5q0 -28 -20.5 -47.5t-50.5 -19.5z" />
    <glyph glyph-name="uni2215" unicode="&#x2215;" horiz-adv-x="470" 
d="M16 -154l341 874h107l-342 -874h-106z" />
    <glyph glyph-name="uni0452" unicode="&#x452;" horiz-adv-x="448" 
d="M320 -91q-27 0 -45 4t-29 8l2 70q2 -1 4 -1.5t5 -0.5q7 0 11 6.5t4 23.5v262q0 17 -4.5 23.5t-12.5 6.5q-2 0 -4.5 -0.5t-4.5 -2l-4 -3t-4 -4.5v-301h-159v475h-75v81h75v74h159v-74h85v-81h-85v-110q9 15 26.5 28t52.5 13q25 0 50.5 -7.5t43 -31t17.5 -73.5v-231
q0 -44 -7.5 -73.5t-21 -47.5t-33.5 -25.5t-46 -7.5z" />
    <glyph glyph-name="dollar" unicode="$" horiz-adv-x="374" 
d="M147 47q-73 0 -99 43t-26 113v34h148v-69q0 -13 1 -22.5t4.5 -14t10.5 -4.5t10 3.5t4.5 10t1.5 13.5v46q0 25 -10 37t-27.5 19.5t-40.5 17.5q-21 9 -42 22.5t-34.5 37t-13.5 60.5v28q0 61 25.5 95.5t91.5 43.5l91 2q69 -7 93.5 -44.5t24.5 -106.5v-32h-142v63
q0 20 -3 29.5t-14 9.5q-10 0 -13 -7.5t-3 -18.5v-47q0 -23 14 -35t33.5 -18t37.5 -13q22 -8 42.5 -21.5t34 -35.5t13.5 -57v-36q0 -32 -6 -59t-20.5 -46.5t-37.5 -30t-58 -10.5h-91zM193 679h88l-74 -738h-88z" />
    <glyph glyph-name="dollar.BRACKET.70" horiz-adv-x="374" 
d="M147 47q-73 0 -99 43t-26 113v34h148v-69q0 -13 1 -22.5t4.5 -14t10.5 -4.5t10 3.5t4.5 10t1.5 13.5v46q0 25 -10 37t-27.5 19.5t-40.5 17.5q-21 9 -42 22.5t-34.5 37t-13.5 60.5v28q0 61 25.5 95.5t91.5 43.5l91 2q69 -7 93.5 -44.5t24.5 -106.5v-32h-142v63
q0 20 -3 29.5t-14 9.5q-10 0 -13 -7.5t-3 -18.5v-47q0 -23 14 -35t33.5 -18t37.5 -13q22 -8 42.5 -21.5t34 -35.5t13.5 -57v-36q0 -32 -6 -59t-20.5 -46.5t-37.5 -30t-58 -10.5h-91zM121 76h108l-19 -135h-108zM178 679h108l-19 -184h-108z" />
    <glyph glyph-name="dollar.tf" horiz-adv-x="450" 
d="M176 47q-73 0 -99 43t-26 113v34h148v-69q0 -13 1 -22.5t4.5 -14t10.5 -4.5t10 3.5t4.5 10t1.5 13.5v46q0 25 -10 37t-27.5 19.5t-40.5 17.5q-21 9 -42 22.5t-34.5 37t-13.5 60.5v28q0 61 25.5 95.5t91.5 43.5l91 2q69 -7 93.5 -44.5t24.5 -106.5v-32h-142v63
q0 20 -3 29.5t-14 9.5q-10 0 -13 -7.5t-3 -18.5v-47q0 -23 14 -35t33.5 -18t37.5 -13q22 -8 42.5 -21.5t34 -35.5t13.5 -57v-36q0 -32 -6 -59t-20.5 -46.5t-37.5 -30t-58 -10.5h-91zM222 679h88l-74 -738h-88z" />
    <glyph glyph-name="dong" unicode="&#x20ab;" horiz-adv-x="391" 
d="M142 527v55h248v-55h-248zM156 -7q-28 0 -52.5 4.5t-43.5 19.5t-29.5 47.5t-10.5 89.5v237q0 37 11.5 58.5t28.5 32.5t34.5 14.5t30.5 3.5q40 0 58 -13t27 -27v170h156v-630h-105l-16 47q-4 -7 -14 -20t-28 -23.5t-47 -10.5zM193 80q4 0 7 1.5t5.5 5t3.5 9t1 14.5v295
l-2.5 1t-6 1.5t-8.5 0.5q-4 0 -7 -1.5t-5.5 -5t-3.5 -9t-1 -14.5v-268q0 -11 2 -18t6 -9.5t9 -2.5zM85 -117v77h222v-77h-222z" />
    <glyph glyph-name="dotaccent" unicode="&#x2d9;" horiz-adv-x="138" 
d="M76 545q-28 0 -48.5 19.5t-20.5 46.5q0 28 20.5 47.5t48.5 19.5q29 0 50 -19.5t21 -46.5q0 -28 -21 -47.5t-50 -19.5z" />
    <glyph glyph-name="uni0307" unicode="&#x307;" 
d="M76 545q-28 0 -48.5 19.5t-20.5 46.5q0 28 20.5 47.5t48.5 19.5q29 0 50 -19.5t21 -46.5q0 -28 -21 -47.5t-50 -19.5z" />
    <glyph glyph-name="uni0307.case" 
d="M58 633q-28 0 -48.5 19.5t-20.5 46.5q0 28 20.5 47.5t48.5 19.5q29 0 50 -19.5t21 -46.5q0 -28 -21 -47.5t-50 -19.5z" />
    <glyph glyph-name="dotbelowcomb" unicode="&#x323;" 
d="M69 -147q-25 0 -42 17t-17 40q0 24 17 41t42 17t43 -17t18 -41q0 -23 -18 -40t-43 -17z" />
    <glyph glyph-name="uni02BA" unicode="&#x2ba;" horiz-adv-x="261" 
d="M200 401h-68l30 171h99zM68 401h-68l30 171h99z" />
    <glyph glyph-name="arrowdown" unicode="&#x2193;" horiz-adv-x="543" 
d="M273 -1l-243 311l75 75l103 -116l5 469l123 -1l-2 -465l104 112l75 -75z" />
    <glyph glyph-name="uni01C6" unicode="&#x1c6;" horiz-adv-x="699" 
d="M156 -7q-28 0 -52.5 4.5t-43.5 19.5t-29.5 47.5t-10.5 89.5v237q0 37 11.5 58.5t28.5 32.5t34.5 14.5t30.5 3.5q40 0 58 -13t27 -27v170h156v-630h-105l-16 47q-4 -7 -14 -20t-28 -23.5t-47 -10.5zM193 80q4 0 7 1.5t5.5 5t3.5 9t1 14.5v295l-2.5 1t-6 1.5t-8.5 0.5
q-4 0 -7 -1.5t-5.5 -5t-3.5 -9t-1 -14.5v-268q0 -11 2 -18t6 -9.5t9 -2.5zM398 0v60l118 336h-103v99h279v-66l-112 -324h112v-105h-294zM503 545l-99 116h102l40 -42l40 42h100l-100 -116h-83z" />
    <glyph glyph-name="uni0455" unicode="&#x455;" horiz-adv-x="386" 
d="M190 -8q-70 0 -108 17.5t-53 53t-15 87.5v34h157v-69q0 -20 3 -30.5t14 -10.5q10 0 13.5 8t3.5 19v46q0 25 -10.5 36.5t-29.5 18t-43 16.5q-22 9 -44 22t-36.5 36t-14.5 59v28q0 71 37.5 105.5t138.5 34.5q68 0 104.5 -16.5t50.5 -50t14 -83.5v-32h-151v61q0 20 -3 29.5
t-14 9.5q-10 0 -13.5 -7.5t-3.5 -18.5v-45q0 -22 14.5 -33.5t35.5 -17t39 -12.5q24 -8 46 -21t36 -34.5t14 -55.5v-36q0 -49 -16.5 -82t-56 -49.5t-109.5 -16.5z" />
    <glyph glyph-name="uni045F" unicode="&#x45f;" horiz-adv-x="396" 
d="M141 -99v99h-116v495h156v-384h34v384h156v-495h-118v-99h-112z" />
    <glyph glyph-name="e" unicode="e" horiz-adv-x="381" 
d="M193 -8q-53 0 -92 11.5t-60 49.5t-21 117v203q0 76 45 104t128 28t128 -28t45 -104v-140h-190v-131q0 -17 5 -23.5t12 -6.5q8 0 12.5 6.5t4.5 23.5v90h156v-21q0 -80 -21 -118t-60 -49.5t-92 -11.5zM176 300h34v83q0 17 -4.5 23.5t-12.5 6.5q-7 0 -12 -6.5t-5 -23.5v-83z
" />
    <glyph glyph-name="uni0454" unicode="&#x454;" horiz-adv-x="396" 
d="M198 -12q-40 0 -72 6t-54.5 23.5t-34.5 53t-12 95.5v207q0 37 11.5 62t33.5 40t54 21.5t74 6.5q56 0 94.5 -12t58.5 -40t20 -78v-23h-156v43q0 12 -2 18.5t-5.5 9t-9.5 2.5q-5 0 -9 -2.5t-6 -9t-2 -18.5v-82h137v-99h-137v-114q0 -11 2 -18t6 -9.5t9 -2.5q6 0 9.5 2.5
t5.5 9.5t2 18v77h156v-8q0 -80 -21 -118t-59.5 -49.5t-92.5 -11.5z" />
    <glyph glyph-name="e.sc" horiz-adv-x="321" 
d="M24 0v495h280v-108h-117v-74h108v-122h-108v-85h117v-106h-280z" />
    <glyph glyph-name="eacute" unicode="&#xe9;" horiz-adv-x="381" 
d="M193 -8q-53 0 -92 11.5t-60 49.5t-21 117v203q0 76 45 104t128 28t128 -28t45 -104v-140h-190v-131q0 -17 5 -23.5t12 -6.5q8 0 12.5 6.5t4.5 23.5v90h156v-21q0 -80 -21 -118t-60 -49.5t-92 -11.5zM176 300h34v83q0 17 -4.5 23.5t-12.5 6.5q-7 0 -12 -6.5t-5 -23.5v-83z
M141 550l58 106h136l-106 -106h-88z" />
    <glyph glyph-name="eacute.sc" horiz-adv-x="321" 
d="M24 0v495h280v-108h-117v-74h108v-122h-108v-85h117v-106h-280zM113 550l58 106h136l-106 -106h-88z" />
    <glyph glyph-name="ebreve" unicode="&#x115;" horiz-adv-x="381" 
d="M193 -8q-53 0 -92 11.5t-60 49.5t-21 117v203q0 76 45 104t128 28t128 -28t45 -104v-140h-190v-131q0 -17 5 -23.5t12 -6.5q8 0 12.5 6.5t4.5 23.5v90h156v-21q0 -80 -21 -118t-60 -49.5t-92 -11.5zM176 300h34v83q0 17 -4.5 23.5t-12.5 6.5q-7 0 -12 -6.5t-5 -23.5v-83z
M189 545q-53 0 -79.5 18.5t-35 44t-8.5 45.5h82q0 -18 13 -27t29 -9q17 0 29.5 8.5t13.5 27.5h83q0 -30 -13 -54.5t-40.5 -39t-73.5 -14.5z" />
    <glyph glyph-name="ebreve.sc" horiz-adv-x="321" 
d="M24 0v495h280v-108h-117v-74h108v-122h-108v-85h117v-106h-280zM161 545q-53 0 -79.5 18.5t-35 44t-8.5 45.5h82q0 -18 13 -27t29 -9q17 0 29.5 8.5t13.5 27.5h83q0 -30 -13 -54.5t-40.5 -39t-73.5 -14.5z" />
    <glyph glyph-name="ecaron" unicode="&#x11b;" horiz-adv-x="381" 
d="M193 -8q-53 0 -92 11.5t-60 49.5t-21 117v203q0 76 45 104t128 28t128 -28t45 -104v-140h-190v-131q0 -17 5 -23.5t12 -6.5q8 0 12.5 6.5t4.5 23.5v90h156v-21q0 -80 -21 -118t-60 -49.5t-92 -11.5zM176 300h34v83q0 17 -4.5 23.5t-12.5 6.5q-7 0 -12 -6.5t-5 -23.5v-83z
M149 545l-99 116h102l40 -42l40 42h100l-100 -116h-83z" />
    <glyph glyph-name="ecaron.sc" horiz-adv-x="321" 
d="M24 0v495h280v-108h-117v-74h108v-122h-108v-85h117v-106h-280zM121 545l-99 116h102l40 -42l40 42h100l-100 -116h-83z" />
    <glyph glyph-name="ecircumflex" unicode="&#xea;" horiz-adv-x="381" 
d="M193 -8q-53 0 -92 11.5t-60 49.5t-21 117v203q0 76 45 104t128 28t128 -28t45 -104v-140h-190v-131q0 -17 5 -23.5t12 -6.5q8 0 12.5 6.5t4.5 23.5v90h156v-21q0 -80 -21 -118t-60 -49.5t-92 -11.5zM176 300h34v83q0 17 -4.5 23.5t-12.5 6.5q-7 0 -12 -6.5t-5 -23.5v-83z
M50 545l99 116h83l100 -116h-100l-40 42l-40 -42h-102z" />
    <glyph glyph-name="ecircumflex.sc" horiz-adv-x="321" 
d="M24 0v495h280v-108h-117v-74h108v-122h-108v-85h117v-106h-280zM22 545l99 116h83l100 -116h-100l-40 42l-40 -42h-102z" />
    <glyph glyph-name="uni1EBF" unicode="&#x1ebf;" horiz-adv-x="381" 
d="M193 -8q-53 0 -92 11.5t-60 49.5t-21 117v203q0 76 45 104t128 28t128 -28t45 -104v-140h-190v-131q0 -17 5 -23.5t12 -6.5q8 0 12.5 6.5t4.5 23.5v90h156v-21q0 -80 -21 -118t-60 -49.5t-92 -11.5zM176 300h34v83q0 17 -4.5 23.5t-12.5 6.5q-7 0 -12 -6.5t-5 -23.5v-83z
M50 545l99 116h83l100 -116h-100l-40 42l-40 -42h-102zM334 605l58 106h136l-106 -106h-88z" />
    <glyph glyph-name="uni1EBF.sc" horiz-adv-x="321" 
d="M24 0v495h280v-108h-117v-74h108v-122h-108v-85h117v-106h-280zM22 545l99 116h83l100 -116h-100l-40 42l-40 -42h-102zM306 605l58 106h136l-106 -106h-88z" />
    <glyph glyph-name="uni1EC7" unicode="&#x1ec7;" horiz-adv-x="381" 
d="M193 -8q-53 0 -92 11.5t-60 49.5t-21 117v203q0 76 45 104t128 28t128 -28t45 -104v-140h-190v-131q0 -17 5 -23.5t12 -6.5q8 0 12.5 6.5t4.5 23.5v90h156v-21q0 -80 -21 -118t-60 -49.5t-92 -11.5zM176 300h34v83q0 17 -4.5 23.5t-12.5 6.5q-7 0 -12 -6.5t-5 -23.5v-83z
M190 -147q-25 0 -42 17t-17 40q0 24 17 41t42 17t43 -17t18 -41q0 -23 -18 -40t-43 -17zM50 545l99 116h83l100 -116h-100l-40 42l-40 -42h-102z" />
    <glyph glyph-name="uni1EC7.sc" horiz-adv-x="321" 
d="M24 0v495h280v-108h-117v-74h108v-122h-108v-85h117v-106h-280zM159 -147q-25 0 -42 17t-17 40q0 24 17 41t42 17t43 -17t18 -41q0 -23 -18 -40t-43 -17zM22 545l99 116h83l100 -116h-100l-40 42l-40 -42h-102z" />
    <glyph glyph-name="uni1EC1" unicode="&#x1ec1;" horiz-adv-x="381" 
d="M193 -8q-53 0 -92 11.5t-60 49.5t-21 117v203q0 76 45 104t128 28t128 -28t45 -104v-140h-190v-131q0 -17 5 -23.5t12 -6.5q8 0 12.5 6.5t4.5 23.5v90h156v-21q0 -80 -21 -118t-60 -49.5t-92 -11.5zM176 300h34v83q0 17 -4.5 23.5t-12.5 6.5q-7 0 -12 -6.5t-5 -23.5v-83z
M50 545l99 116h83l100 -116h-100l-40 42l-40 -42h-102zM354 605l-106 106h136l58 -106h-88z" />
    <glyph glyph-name="uni1EC1.sc" horiz-adv-x="321" 
d="M24 0v495h280v-108h-117v-74h108v-122h-108v-85h117v-106h-280zM22 545l99 116h83l100 -116h-100l-40 42l-40 -42h-102zM326 605l-106 106h136l58 -106h-88z" />
    <glyph glyph-name="uni1EC3" unicode="&#x1ec3;" horiz-adv-x="381" 
d="M193 -8q-53 0 -92 11.5t-60 49.5t-21 117v203q0 76 45 104t128 28t128 -28t45 -104v-140h-190v-131q0 -17 5 -23.5t12 -6.5q8 0 12.5 6.5t4.5 23.5v90h156v-21q0 -80 -21 -118t-60 -49.5t-92 -11.5zM176 300h34v83q0 17 -4.5 23.5t-12.5 6.5q-7 0 -12 -6.5t-5 -23.5v-83z
M50 545l99 116h83l100 -116h-100l-40 42l-40 -42h-102zM341 605v9q0 15 10 23t20 14.5t10 17.5v7q0 6 -2 12.5t-9 6.5q-11 0 -11 -20l-67 10q2 32 23 48t62 16q45 0 68 -11.5t23 -58.5v-4q0 -23 -11.5 -31.5t-22.5 -13t-11 -16.5v-9h-82z" />
    <glyph glyph-name="uni1EC3.sc" horiz-adv-x="321" 
d="M24 0v495h280v-108h-117v-74h108v-122h-108v-85h117v-106h-280zM22 545l99 116h83l100 -116h-100l-40 42l-40 -42h-102zM313 605v9q0 15 10 23t20 14.5t10 17.5v7q0 6 -2 12.5t-9 6.5q-11 0 -11 -20l-67 10q2 32 23 48t62 16q45 0 68 -11.5t23 -58.5v-4
q0 -23 -11.5 -31.5t-22.5 -13t-11 -16.5v-9h-82z" />
    <glyph glyph-name="uni1EC5" unicode="&#x1ec5;" horiz-adv-x="381" 
d="M193 -8q-53 0 -92 11.5t-60 49.5t-21 117v203q0 76 45 104t128 28t128 -28t45 -104v-140h-190v-131q0 -17 5 -23.5t12 -6.5q8 0 12.5 6.5t4.5 23.5v90h156v-21q0 -80 -21 -118t-60 -49.5t-92 -11.5zM176 300h34v83q0 17 -4.5 23.5t-12.5 6.5q-7 0 -12 -6.5t-5 -23.5v-83z
M50 545l99 116h83l100 -116h-100l-40 42l-40 -42h-102zM241 686q-17 0 -32 7t-29 14q-12 7 -23.5 11.5t-23.5 4.5q-13 0 -20 -10.5t-8 -25.5h-41q0 47 19.5 76t51.5 29q18 0 33 -5.5t28 -12.5q12 -6 23.5 -11t22.5 -5q16 0 22.5 9.5t8.5 21.5h46q0 -34 -12.5 -57
t-30.5 -34.5t-35 -11.5z" />
    <glyph glyph-name="uni1EC5.sc" horiz-adv-x="321" 
d="M24 0v495h280v-108h-117v-74h108v-122h-108v-85h117v-106h-280zM22 545l99 116h83l100 -116h-100l-40 42l-40 -42h-102zM213 686q-17 0 -32 7t-29 14q-12 7 -23.5 11.5t-23.5 4.5q-13 0 -20 -10.5t-8 -25.5h-41q0 47 19.5 76t51.5 29q18 0 33 -5.5t28 -12.5
q12 -6 23.5 -11t22.5 -5q16 0 22.5 9.5t8.5 21.5h46q0 -34 -12.5 -57t-30.5 -34.5t-35 -11.5z" />
    <glyph glyph-name="uni0205" unicode="&#x205;" horiz-adv-x="381" 
d="M193 -8q-53 0 -92 11.5t-60 49.5t-21 117v203q0 76 45 104t128 28t128 -28t45 -104v-140h-190v-131q0 -17 5 -23.5t12 -6.5q8 0 12.5 6.5t4.5 23.5v90h156v-21q0 -80 -21 -118t-60 -49.5t-92 -11.5zM176 300h34v83q0 17 -4.5 23.5t-12.5 6.5q-7 0 -12 -6.5t-5 -23.5v-83z
M277 550h-59l-65 106h116zM164 550h-69l-75 106h116z" />
    <glyph glyph-name="uni0205.sc" horiz-adv-x="321" 
d="M24 0v495h280v-108h-117v-74h108v-122h-108v-85h117v-106h-280zM249 550h-59l-65 106h116zM136 550h-69l-75 106h116z" />
    <glyph glyph-name="edieresis" unicode="&#xeb;" horiz-adv-x="381" 
d="M193 -8q-53 0 -92 11.5t-60 49.5t-21 117v203q0 76 45 104t128 28t128 -28t45 -104v-140h-190v-131q0 -17 5 -23.5t12 -6.5q8 0 12.5 6.5t4.5 23.5v90h156v-21q0 -80 -21 -118t-60 -49.5t-92 -11.5zM176 300h34v83q0 17 -4.5 23.5t-12.5 6.5q-7 0 -12 -6.5t-5 -23.5v-83z
M122 543q-26 0 -43 16.5t-17 40.5t17 40t43 16q25 0 41.5 -16t16.5 -40t-16.5 -40.5t-41.5 -16.5zM261 543q-26 0 -43 16.5t-17 40.5t17 40t43 16q25 0 41.5 -16t16.5 -40t-16.5 -40.5t-41.5 -16.5z" />
    <glyph glyph-name="edieresis.sc" horiz-adv-x="321" 
d="M24 0v495h280v-108h-117v-74h108v-122h-108v-85h117v-106h-280zM94 543q-26 0 -43 16.5t-17 40.5t17 40t43 16q25 0 41.5 -16t16.5 -40t-16.5 -40.5t-41.5 -16.5zM233 543q-26 0 -43 16.5t-17 40.5t17 40t43 16q25 0 41.5 -16t16.5 -40t-16.5 -40.5t-41.5 -16.5z" />
    <glyph glyph-name="edotaccent" unicode="&#x117;" horiz-adv-x="381" 
d="M193 -8q-53 0 -92 11.5t-60 49.5t-21 117v203q0 76 45 104t128 28t128 -28t45 -104v-140h-190v-131q0 -17 5 -23.5t12 -6.5q8 0 12.5 6.5t4.5 23.5v90h156v-21q0 -80 -21 -118t-60 -49.5t-92 -11.5zM176 300h34v83q0 17 -4.5 23.5t-12.5 6.5q-7 0 -12 -6.5t-5 -23.5v-83z
M190 545q-28 0 -48.5 19.5t-20.5 46.5q0 28 20.5 47.5t48.5 19.5q29 0 50 -19.5t21 -46.5q0 -28 -21 -47.5t-50 -19.5z" />
    <glyph glyph-name="edotaccent.sc" horiz-adv-x="321" 
d="M24 0v495h280v-108h-117v-74h108v-122h-108v-85h117v-106h-280zM162 545q-28 0 -48.5 19.5t-20.5 46.5q0 28 20.5 47.5t48.5 19.5q29 0 50 -19.5t21 -46.5q0 -28 -21 -47.5t-50 -19.5z" />
    <glyph glyph-name="uni1EB9" unicode="&#x1eb9;" horiz-adv-x="381" 
d="M193 -8q-53 0 -92 11.5t-60 49.5t-21 117v203q0 76 45 104t128 28t128 -28t45 -104v-140h-190v-131q0 -17 5 -23.5t12 -6.5q8 0 12.5 6.5t4.5 23.5v90h156v-21q0 -80 -21 -118t-60 -49.5t-92 -11.5zM176 300h34v83q0 17 -4.5 23.5t-12.5 6.5q-7 0 -12 -6.5t-5 -23.5v-83z
M190 -147q-25 0 -42 17t-17 40q0 24 17 41t42 17t43 -17t18 -41q0 -23 -18 -40t-43 -17z" />
    <glyph glyph-name="uni1EB9.sc" horiz-adv-x="321" 
d="M24 0v495h280v-108h-117v-74h108v-122h-108v-85h117v-106h-280zM159 -147q-25 0 -42 17t-17 40q0 24 17 41t42 17t43 -17t18 -41q0 -23 -18 -40t-43 -17z" />
    <glyph glyph-name="uni0444" unicode="&#x444;" horiz-adv-x="592" 
d="M220 -115v108h-33h-34q-79 0 -106 37.5t-27 105.5v196q0 42 11 72t40 46t84 16q21 0 39.5 -1.5t25.5 -3.5v130h155v-130q5 2 24.5 3.5t36.5 1.5q55 0 84.5 -16t40.5 -46t11 -72v-196q0 -68 -27.5 -105.5t-105.5 -37.5h-32h-32v-108h-155zM193 73q5 0 11.5 1.5t11.5 6.5
t5 13v247q0 20 -3 29.5t-9 12.5t-15 3q-8 0 -11.5 -3.5t-4.5 -15t-1 -35.5v-229q0 -12 2 -18.5t6 -9t8 -2.5zM403 73q5 0 8.5 2.5t5.5 9.5t2 18v229q0 22 -0.5 33.5t-4 16.5t-11.5 5t-14.5 -3.5t-10 -13t-3.5 -29.5v-238q0 -11 4.5 -18t11 -9.5t12.5 -2.5z" />
    <glyph glyph-name="egrave" unicode="&#xe8;" horiz-adv-x="381" 
d="M193 -8q-53 0 -92 11.5t-60 49.5t-21 117v203q0 76 45 104t128 28t128 -28t45 -104v-140h-190v-131q0 -17 5 -23.5t12 -6.5q8 0 12.5 6.5t4.5 23.5v90h156v-21q0 -80 -21 -118t-60 -49.5t-92 -11.5zM176 300h34v83q0 17 -4.5 23.5t-12.5 6.5q-7 0 -12 -6.5t-5 -23.5v-83z
M161 550l-106 106h136l58 -106h-88z" />
    <glyph glyph-name="egrave.sc" horiz-adv-x="321" 
d="M24 0v495h280v-108h-117v-74h108v-122h-108v-85h117v-106h-280zM133 550l-106 106h136l58 -106h-88z" />
    <glyph glyph-name="uni1EBB" unicode="&#x1ebb;" horiz-adv-x="381" 
d="M193 -8q-53 0 -92 11.5t-60 49.5t-21 117v203q0 76 45 104t128 28t128 -28t45 -104v-140h-190v-131q0 -17 5 -23.5t12 -6.5q8 0 12.5 6.5t4.5 23.5v90h156v-21q0 -80 -21 -118t-60 -49.5t-92 -11.5zM176 300h34v83q0 17 -4.5 23.5t-12.5 6.5q-7 0 -12 -6.5t-5 -23.5v-83z
M148 550v9q0 15 10 23t20 14.5t10 17.5v7q0 6 -2 12.5t-9 6.5q-11 0 -11 -20l-67 10q2 32 23 48t62 16q45 0 68 -11.5t23 -58.5v-4q0 -23 -11.5 -31.5t-22.5 -13t-11 -16.5v-9h-82z" />
    <glyph glyph-name="uni1EBB.sc" horiz-adv-x="321" 
d="M24 0v495h280v-108h-117v-74h108v-122h-108v-85h117v-106h-280zM120 550v9q0 15 10 23t20 14.5t10 17.5v7q0 6 -2 12.5t-9 6.5q-11 0 -11 -20l-67 10q2 32 23 48t62 16q45 0 68 -11.5t23 -58.5v-4q0 -23 -11.5 -31.5t-22.5 -13t-11 -16.5v-9h-82z" />
    <glyph glyph-name="eight" unicode="8" horiz-adv-x="384" 
d="M194 -8q-59 0 -99.5 16.5t-61 49.5t-20.5 82v36q0 30 3.5 54t16.5 41q11 14 35.5 25.5t66.5 13.5q-42 -2 -59 4t-33 19q-19 17 -21.5 48t-2.5 61v26q0 44 15.5 71.5t53.5 40.5t106 13t106 -13t53.5 -40.5t15.5 -71.5v-26q0 -35 -6.5 -63t-28 -45.5t-66.5 -23.5
q40 -1 61.5 -15t30 -34.5t10 -43.5t1.5 -43v-36q0 -40 -18.5 -73t-57.5 -53t-101 -20zM191 81q14 0 17.5 8.5t3.5 20.5v99q0 14 -2.5 23.5t-18.5 9.5t-18 -12.5t-2 -21.5v-98q0 -12 3.5 -20.5t16.5 -8.5zM191 360q8 0 14.5 8t6.5 32v57q0 22 -3.5 37.5t-17.5 15.5
q-15 0 -17.5 -16.5t-2.5 -34.5v-57q0 -17 2.5 -26.5t7.5 -12.5t10 -3z" />
    <glyph glyph-name="eight.lf" horiz-adv-x="384" 
d="M194 -8q-59 0 -99.5 16.5t-61 49.5t-20.5 82v36q0 30 3.5 54t16.5 41q11 14 35.5 25.5t66.5 13.5q-42 -2 -59 4t-33 19q-19 17 -21.5 48t-2.5 61v26q0 44 15.5 71.5t53.5 40.5t106 13t106 -13t53.5 -40.5t15.5 -71.5v-26q0 -35 -6.5 -63t-28 -45.5t-66.5 -23.5
q40 -1 61.5 -15t30 -34.5t10 -43.5t1.5 -43v-36q0 -40 -18.5 -73t-57.5 -53t-101 -20zM191 81q14 0 17.5 8.5t3.5 20.5v99q0 14 -2.5 23.5t-18.5 9.5t-18 -12.5t-2 -21.5v-98q0 -12 3.5 -20.5t16.5 -8.5zM191 360q8 0 14.5 8t6.5 32v57q0 22 -3.5 37.5t-17.5 15.5
q-15 0 -17.5 -16.5t-2.5 -34.5v-57q0 -17 2.5 -26.5t7.5 -12.5t10 -3z" />
    <glyph glyph-name="eight.tf" horiz-adv-x="450" 
d="M217 -8q-59 0 -99.5 16.5t-61 49.5t-20.5 82v36q0 30 3.5 54t16.5 41q11 14 35.5 25.5t66.5 13.5q-42 -2 -59 4t-33 19q-19 17 -21.5 48t-2.5 61v26q0 44 15.5 71.5t53.5 40.5t106 13t106 -13t53.5 -40.5t15.5 -71.5v-26q0 -35 -6.5 -63t-28 -45.5t-66.5 -23.5
q40 -1 61.5 -15t30 -34.5t10 -43.5t1.5 -43v-36q0 -40 -18.5 -73t-57.5 -53t-101 -20zM214 81q14 0 17.5 8.5t3.5 20.5v99q0 14 -2.5 23.5t-18.5 9.5t-18 -12.5t-2 -21.5v-98q0 -12 3.5 -20.5t16.5 -8.5zM214 360q8 0 14.5 8t6.5 32v57q0 22 -3.5 37.5t-17.5 15.5
q-15 0 -17.5 -16.5t-2.5 -34.5v-57q0 -17 2.5 -26.5t7.5 -12.5t10 -3z" />
    <glyph glyph-name="uni0207" unicode="&#x207;" horiz-adv-x="381" 
d="M193 658q54 0 80 -18.5t34.5 -43.5t8.5 -46h-82q0 18 -13 27t-29 9t-29 -8.5t-14 -27.5h-83q0 30 13 54.5t41 39t73 14.5zM193 -8q-53 0 -92 11.5t-60 49.5t-21 117v203q0 76 45 104t128 28t128 -28t45 -104v-140h-190v-131q0 -17 5 -23.5t12 -6.5q8 0 12.5 6.5t4.5 23.5
v90h156v-21q0 -80 -21 -118t-60 -49.5t-92 -11.5zM176 300h34v83q0 17 -4.5 23.5t-12.5 6.5q-7 0 -12 -6.5t-5 -23.5v-83z" />
    <glyph glyph-name="uni0207.sc" horiz-adv-x="321" 
d="M165 658q54 0 80 -18.5t34.5 -43.5t8.5 -46h-82q0 18 -13 27t-29 9t-29 -8.5t-14 -27.5h-83q0 30 13 54.5t40.5 39t73.5 14.5zM24 0v495h280v-108h-117v-74h108v-122h-108v-85h117v-106h-280z" />
    <glyph glyph-name="uni043B" unicode="&#x43b;" horiz-adv-x="471" 
d="M10 0v79q18 0 36 24.5t20 52.5l30 339h350v-495h-159v386h-33l-29 -270q-2 -18 -4 -38.5t-11.5 -38t-31.5 -28.5t-64 -11h-104z" />
    <glyph glyph-name="uni043B.loclBGR" horiz-adv-x="471" 
d="M10 0v79q18 0 36 24.5t20 52.5l30 339h350v-495h-159v386h-33l-29 -270q-2 -18 -4 -38.5t-11.5 -38t-31.5 -28.5t-64 -11h-104z" />
    <glyph glyph-name="ellipsis" unicode="&#x2026;" horiz-adv-x="664" 
d="M126 -11q-31 0 -53.5 21.5t-22.5 51.5q0 31 22.5 52.5t53.5 21.5q32 0 55 -21.5t23 -52.5q0 -30 -23 -51.5t-55 -21.5zM329 -11q-31 0 -53.5 21.5t-22.5 51.5q0 31 22.5 52.5t53.5 21.5q32 0 55 -21.5t23 -52.5q0 -30 -23 -51.5t-55 -21.5zM536 -11q-31 0 -53.5 21.5
t-22.5 51.5q0 31 22.5 52.5t53.5 21.5q32 0 55 -21.5t23 -52.5q0 -30 -23 -51.5t-55 -21.5z" />
    <glyph glyph-name="uni043C" unicode="&#x43c;" horiz-adv-x="526" 
d="M25 0v495h196l42 -302l42 302h196v-495h-125v316l-61 -316h-103l-62 316v-316h-125z" />
    <glyph glyph-name="emacron" unicode="&#x113;" horiz-adv-x="381" 
d="M193 -8q-53 0 -92 11.5t-60 49.5t-21 117v203q0 76 45 104t128 28t128 -28t45 -104v-140h-190v-131q0 -17 5 -23.5t12 -6.5q8 0 12.5 6.5t4.5 23.5v90h156v-21q0 -80 -21 -118t-60 -49.5t-92 -11.5zM176 300h34v83q0 17 -4.5 23.5t-12.5 6.5q-7 0 -12 -6.5t-5 -23.5v-83z
M80 556v77h222v-77h-222z" />
    <glyph glyph-name="emacron.sc" horiz-adv-x="321" 
d="M24 0v495h280v-108h-117v-74h108v-122h-108v-85h117v-106h-280zM52 556v77h222v-77h-222z" />
    <glyph glyph-name="emdash" unicode="&#x2014;" horiz-adv-x="697" 
d="M30 239v103h637v-103h-637z" />
    <glyph glyph-name="emptyset" unicode="&#x2205;" horiz-adv-x="415" 
d="M15 50l362 518h23l-363 -518h-22zM209 -13q-54 1 -93.5 21t-61.5 65.5t-22 124.5v227q0 89 48.5 131t130.5 42q78 0 125.5 -42t47.5 -131v-226q0 -80 -21.5 -126.5t-61 -66t-92.5 -19.5zM208 79q8 0 13 7t5 24v363q0 17 -5 23.5t-13 6.5q-7 0 -12 -6.5t-5 -23.5v-363
q0 -17 5 -24t12 -7z" />
    <glyph glyph-name="uni043D" unicode="&#x43d;" horiz-adv-x="396" 
d="M25 0v495h156v-182h36v182h154v-495h-154v196h-36v-196h-156z" />
    <glyph glyph-name="endash" unicode="&#x2013;" horiz-adv-x="478" 
d="M30 239v103h418v-103h-418z" />
    <glyph glyph-name="eng" unicode="&#x14b;" horiz-adv-x="396" 
d="M194 -116q-15 0 -29.5 2t-29.5 5v77h9.5h17.5h9q23 0 33.5 11t10.5 27v359q0 10 -2 16t-5.5 9t-9.5 3h-5.5t-6.5 -0.5t-5 -2.5v-390h-156v495h133l12 -65q9 31 34 51.5t57 20.5q44 0 68 -14.5t33 -43.5t9 -73v-305q0 -71 -25 -111.5t-65 -56t-87 -14.5z" />
    <glyph glyph-name="eogonek" unicode="&#x119;" horiz-adv-x="381" 
d="M193 -8q-53 0 -92 11.5t-60 49.5t-21 117v203q0 76 45 104t128 28t128 -28t45 -104v-140h-190v-131q0 -17 5 -23.5t12 -6.5q8 0 12.5 6.5t4.5 23.5v90h156v-21q0 -80 -21 -118t-60 -49.5t-92 -11.5zM176 300h34v83q0 17 -4.5 23.5t-12.5 6.5q-7 0 -12 -6.5t-5 -23.5v-83z
M208 -151q-43 0 -68 21.5t-25 46.5q0 28 24.5 54.5t65.5 30.5l59 -2q-27 -7 -39 -25.5t-12 -35.5q0 -18 12.5 -28t24.5 -10q7 0 11.5 1.5t6.5 1.5l17 -37q-5 -3 -22 -10.5t-55 -7.5z" />
    <glyph glyph-name="eogonek.sc" horiz-adv-x="321" 
d="M24 0v495h280v-108h-117v-74h108v-122h-108v-85h117v-106h-280zM225 -151q-43 0 -68 21.5t-25 46.5q0 28 24.5 54.5t65.5 30.5l59 -2q-27 -7 -39 -25.5t-12 -35.5q0 -18 12.5 -28t24.5 -10q7 0 11.5 1.5t6.5 1.5l17 -37q-5 -3 -22 -10.5t-55 -7.5z" />
    <glyph glyph-name="equal" unicode="=" horiz-adv-x="463" 
d="M50 316v103h363v-103h-363zM50 119v103h363v-103h-363z" />
    <glyph glyph-name="uni0440" unicode="&#x440;" horiz-adv-x="391" 
d="M25 -116v611h156v-35q9 14 25.5 28.5t53.5 14.5q25 0 50.5 -7.5t43 -31.5t17.5 -73v-237q0 -66 -15 -100.5t-40 -47t-55 -12.5q-34 0 -52 13t-28 29v-152h-156zM198 80q4 0 7 1.5t5.5 5t3.5 9t1 14.5v268q0 9 -1 14.5t-3.5 9t-5.5 5t-7 1.5q-3 0 -6 -0.5t-5.5 -1t-4 -1
l-1.5 -0.5v-295q0 -11 2 -18t6 -9.5t9 -2.5z" />
    <glyph glyph-name="uni044D" unicode="&#x44d;" horiz-adv-x="396" 
d="M198 -12q-53 0 -92 11.5t-60 49.5t-21 118v8h156v-77q0 -11 2 -18t6 -9.5t9 -2.5q6 0 9.5 2.5t5.5 9.5t2 18v114h-137v99h137v82q0 12 -2 18.5t-5.5 9t-9.5 2.5q-5 0 -9 -2.5t-6 -9t-2 -18.5v-43h-156v23q0 50 20 78t59 40t94 12q42 0 74 -6.5t54 -21.5t33.5 -40
t11.5 -62v-207q0 -60 -12 -95.5t-34.5 -53t-54.5 -23.5t-72 -6z" />
    <glyph glyph-name="uni0441" unicode="&#x441;" horiz-adv-x="381" 
d="M193 -8q-53 0 -92 11t-60 48.5t-21 114.5v197q0 80 45 110t128 30t128 -28t45 -102v-79h-156v89q0 17 -4.5 23.5t-12.5 6.5q-7 0 -12 -6.5t-5 -23.5v-271q0 -17 5 -23.5t12 -6.5q8 0 12.5 6.5t4.5 23.5v101h156v-46q0 -78 -21 -115.5t-60 -48.5t-92 -11z" />
    <glyph glyph-name="eth" unicode="&#xf0;" horiz-adv-x="386" 
d="M193 -8q-53 0 -92 11.5t-60 49.5t-21 117v179q0 74 43 102t113 28h16h16v11q0 22 -8.5 38t-23.5 25t-33 9q-21 0 -40 -2t-47 -7v98q20 5 46.5 8t69.5 3q61 0 99 -15t58.5 -50t28.5 -93.5t8 -145.5v-187q0 -80 -21 -118t-59.5 -49.5t-92.5 -11.5zM193 72q8 0 12.5 6.5
t4.5 23.5v267q0 12 -2 18.5t-5.5 9t-9.5 2.5q-8 0 -12.5 -6.5t-4.5 -23.5v-267q0 -17 4.5 -23.5t12.5 -6.5zM133 487l-33 41l201 163l35 -40z" />
    <glyph glyph-name="eth.sc" horiz-adv-x="438" 
d="M46 0v495h249q43 0 70 -11t40 -29.5t13 -39.5v-311q0 -52 -34.5 -78t-111.5 -26h-226zM7 201v86h224v-86h-224zM209 78h24q10 0 16.5 1t9.5 3t3 6v311q0 5 -5.5 8t-23.5 3h-24v-332z" />
    <glyph glyph-name="uni1EBD" unicode="&#x1ebd;" horiz-adv-x="381" 
d="M193 -8q-53 0 -92 11.5t-60 49.5t-21 117v203q0 76 45 104t128 28t128 -28t45 -104v-140h-190v-131q0 -17 5 -23.5t12 -6.5q8 0 12.5 6.5t4.5 23.5v90h156v-21q0 -80 -21 -118t-60 -49.5t-92 -11.5zM176 300h34v83q0 17 -4.5 23.5t-12.5 6.5q-7 0 -12 -6.5t-5 -23.5v-83z
M240 548q-17 0 -32 7t-29 14q-12 7 -23.5 11.5t-23.5 4.5q-13 0 -20 -10.5t-8 -25.5h-41q0 47 19.5 76t51.5 29q18 0 33 -5.5t28 -12.5q12 -6 23.5 -11t22.5 -5q16 0 22.5 9.5t8.5 21.5h46q0 -34 -12.5 -57t-30.5 -34.5t-35 -11.5z" />
    <glyph glyph-name="uni1EBD.sc" horiz-adv-x="321" 
d="M24 0v495h280v-108h-117v-74h108v-122h-108v-85h117v-106h-280zM212 548q-17 0 -32 7t-29 14q-12 7 -23.5 11.5t-23.5 4.5q-13 0 -20 -10.5t-8 -25.5h-41q0 47 19.5 76t51.5 29q18 0 33 -5.5t28 -12.5q12 -6 23.5 -11t22.5 -5q16 0 22.5 9.5t8.5 21.5h46q0 -34 -12.5 -57
t-30.5 -34.5t-35 -11.5z" />
    <glyph glyph-name="Euro" unicode="&#x20ac;" horiz-adv-x="480" 
d="M274 -12q-53 0 -93 13t-61.5 53t-21.5 119v53h-77l25 54h52v28h-78l25 54h53v101q0 50 21.5 79.5t61.5 42.5t93 13q54 0 93.5 -13t61 -42.5t21.5 -79.5v-37h-159v47q0 12 -2 18.5t-5.5 9t-9.5 2.5q-5 0 -9 -2.5t-6 -9t-2 -18.5v-111h135l-26 -54h-109v-28h96l-25 -54h-71
v-116q0 -11 2 -18t6 -9.5t9 -2.5q6 0 9.5 2.5t5.5 9.5t2 18v73h159v-9q0 -80 -21.5 -120t-61 -53t-93.5 -13z" />
    <glyph glyph-name="Euro.tf" horiz-adv-x="450" 
d="M257 -12q-53 0 -93 13t-61.5 53t-21.5 119v53h-77l25 54h52v28h-78l25 54h53v101q0 50 21.5 79.5t61.5 42.5t93 13q54 0 93.5 -13t61 -42.5t21.5 -79.5v-37h-159v47q0 12 -2 18.5t-5.5 9t-9.5 2.5q-5 0 -9 -2.5t-6 -9t-2 -18.5v-111h135l-26 -54h-109v-28h96l-25 -54h-71
v-116q0 -11 2 -18t6 -9.5t9 -2.5q6 0 9.5 2.5t5.5 9.5t2 18v73h159v-9q0 -80 -21.5 -120t-61 -53t-93.5 -13z" />
    <glyph glyph-name="exclam" unicode="!" horiz-adv-x="253" 
d="M75 188l-27 189l-8 253h170l-8 -250l-27 -192h-100zM130 -8q-35 0 -59 22t-24 54q0 31 24 53.5t59 22.5t59 -22.5t24 -53.5q0 -32 -24 -54t-59 -22z" />
    <glyph glyph-name="exclamdown" unicode="&#xa1;" horiz-adv-x="253" 
d="M75 299h100l27 -192l8 -250h-170l8 253zM130 495q35 0 59 -22t24 -54q0 -31 -24 -53.5t-59 -22.5t-59 22.5t-24 53.5q0 32 24 54t59 22z" />
    <glyph glyph-name="f" unicode="f" horiz-adv-x="273" 
d="M37 0v389h-32v87h32v36q0 42 11.5 66t30 35t40 14t42.5 3q23 0 47 -1.5t42.5 -3t22.5 -1.5v-70q-8 1 -20 2t-27 1q-19 0 -26 -9.5t-7 -29.5v-42h80v-87h-80v-389h-156z" />
    <glyph glyph-name="f.sc" horiz-adv-x="319" 
d="M24 0v495h280v-108h-117v-74h108v-122h-108v-191h-163z" />
    <glyph glyph-name="f_t" horiz-adv-x="524" 
d="M5 398v87h32v27q0 42 11.5 66t30 35t40 14t42.5 3q32 0 62.5 -3t44.5 -5v-68q-8 1 -18 2t-24 1q-19 0 -26 -9.5t-7 -29.5v-33h93l21 93h121v-93h84v-87h-84v-256q0 -15 6.5 -29.5t30.5 -14.5q12 0 29.5 1.5l17.5 1.5v-92l-28 -7t-62 -7q-24 0 -50.5 3.5t-49 15
t-36.5 35.5t-14 66v283h-79v-398h-156v398h-32z" />
    <glyph glyph-name="five" unicode="5" horiz-adv-x="391" 
d="M195 -8q-70 0 -110 12t-56 45.5t-16 97.5v66h159v-53q0 -34 6 -44t16 -10t14.5 10t4.5 44v107q0 10 -1 19t-5 14.5t-13 5.5q-12 0 -17 -8.5t-5 -24.5h-159v318h355v-111h-198v-107q5 11 24.5 24.5t66.5 13.5q66 0 91.5 -24t25.5 -80v-169q0 -55 -19 -87t-59 -45.5
t-105 -13.5z" />
    <glyph glyph-name="five.lf" horiz-adv-x="391" 
d="M195 -8q-70 0 -110 12t-56 45.5t-16 97.5v66h159v-53q0 -34 6 -44t16 -10t14.5 10t4.5 44v107q0 10 -1 19t-5 14.5t-13 5.5q-12 0 -17 -8.5t-5 -24.5h-159v318h355v-111h-198v-107q5 11 24.5 24.5t66.5 13.5q66 0 91.5 -24t25.5 -80v-169q0 -55 -19 -87t-59 -45.5
t-105 -13.5z" />
    <glyph glyph-name="five.tf" horiz-adv-x="450" 
d="M221 -8q-70 0 -110 12t-56 45.5t-16 97.5v66h159v-53q0 -34 6 -44t16 -10t14.5 10t4.5 44v107q0 10 -1 19t-5 14.5t-13 5.5q-12 0 -17 -8.5t-5 -24.5h-159v318h355v-111h-198v-107q5 11 24.5 24.5t66.5 13.5q66 0 91.5 -24t25.5 -80v-169q0 -55 -19 -87t-59 -45.5
t-105 -13.5z" />
    <glyph glyph-name="florin" unicode="&#x192;" horiz-adv-x="396" 
d="M14 -142q-13 0 -33 1t-37 2t-23 2l10 90l49 -7q28 -1 44 4.5t24.5 29t13.5 75.5l37 318h-65l9 83h65l9 52q12 69 46 95t72 26q10 0 31.5 -0.5t45.5 -1t44.5 -1.5t29.5 -2l-10 -90q-7 2 -29 6t-46 4q-23 0 -28.5 -18.5t-8.5 -42.5l-3 -27h97l-9 -83h-97l-42 -366
q-9 -78 -58.5 -113.5t-137.5 -35.5z" />
    <glyph glyph-name="four" unicode="4" horiz-adv-x="408" 
d="M181 0v113h-178v127l178 351h159v-373h62v-105h-62v-113h-159zM126 218h55v116z" />
    <glyph glyph-name="four.lf" horiz-adv-x="408" 
d="M181 0v113h-178v127l178 351h159v-373h62v-105h-62v-113h-159zM126 218h55v116z" />
    <glyph glyph-name="four.tf" horiz-adv-x="450" 
d="M204 0v113h-178v127l178 351h159v-373h62v-105h-62v-113h-159zM149 218h55v116z" />
    <glyph glyph-name="uni2074" unicode="&#x2074;" horiz-adv-x="275" 
d="M129 236v68h-129v60l139 227h84v-223h39v-64h-39v-68h-94zM86 368h43v75z" />
    <glyph glyph-name="fraction" unicode="&#x2044;" horiz-adv-x="181" 
d="M-115 0l321 591h110l-322 -591h-109z" />
    <glyph glyph-name="franc" unicode="&#x20a3;" horiz-adv-x="366" 
d="M55 0v94h-45v68h45v429h286v-111h-120v-115h110v-125h-110v-78h63v-68h-63v-94h-166z" />
    <glyph glyph-name="g" unicode="g" horiz-adv-x="391" 
d="M202 -121q-17 0 -41 1.5t-47.5 3.5t-40 4t-19.5 3v81q15 -3 43.5 -5t46.5 -2t30.5 3t20.5 9t11.5 16t3.5 23v73q-4 -7 -10.5 -21t-23.5 -25.5t-54 -11.5q-27 0 -46.5 7t-31.5 25t-18 50.5t-6 82.5v182q0 60 27 93.5t78 33.5q35 0 53.5 -9t28 -23.5t15.5 -32.5l-19 -4
l23 59h140v-396q0 -33 -3.5 -71t-18 -72t-48 -55.5t-94.5 -21.5zM193 122q5 0 9 2.5t6 9.5t2 18v247q-2 1 -4 1.5t-5 1t-8 0.5q-7 0 -12 -6.5t-5 -23.5v-219q0 -9 1 -15t3.5 -9.5t5.5 -5t7 -1.5z" />
    <glyph glyph-name="g.sc" horiz-adv-x="388" 
d="M146 -8q-29 0 -58.5 10t-48.5 40.5t-19 89.5v255q0 60 47.5 87t125.5 27q77 0 127 -26.5t50 -87.5v-79h-151v90q0 4 -5.5 7t-16.5 3q-10 0 -15.5 -3t-5.5 -7v-308q0 -4 6.5 -7t14.5 -3q9 0 15.5 1t6.5 9v91h-25v87h176v-268h-118l-8 27v3.5v2.5q-7 -11 -29.5 -26
t-68.5 -15z" />
    <glyph glyph-name="gbreve" unicode="&#x11f;" horiz-adv-x="391" 
d="M202 -121q-17 0 -41 1.5t-47.5 3.5t-40 4t-19.5 3v81q15 -3 43.5 -5t46.5 -2t30.5 3t20.5 9t11.5 16t3.5 23v73q-4 -7 -10.5 -21t-23.5 -25.5t-54 -11.5q-27 0 -46.5 7t-31.5 25t-18 50.5t-6 82.5v182q0 60 27 93.5t78 33.5q35 0 53.5 -9t28 -23.5t15.5 -32.5l-19 -4
l23 59h140v-396q0 -33 -3.5 -71t-18 -72t-48 -55.5t-94.5 -21.5zM193 122q5 0 9 2.5t6 9.5t2 18v247q-2 1 -4 1.5t-5 1t-8 0.5q-7 0 -12 -6.5t-5 -23.5v-219q0 -9 1 -15t3.5 -9.5t5.5 -5t7 -1.5zM194 545q-53 0 -79.5 18.5t-35 44t-8.5 45.5h82q0 -18 13 -27t29 -9
q17 0 29.5 8.5t13.5 27.5h83q0 -30 -13 -54.5t-40.5 -39t-73.5 -14.5z" />
    <glyph glyph-name="gbreve.sc" horiz-adv-x="388" 
d="M146 -8q-29 0 -58.5 10t-48.5 40.5t-19 89.5v255q0 60 47.5 87t125.5 27q77 0 127 -26.5t50 -87.5v-79h-151v90q0 4 -5.5 7t-16.5 3q-10 0 -15.5 -3t-5.5 -7v-308q0 -4 6.5 -7t14.5 -3q9 0 15.5 1t6.5 9v91h-25v87h176v-268h-118l-8 27v3.5v2.5q-7 -11 -29.5 -26
t-68.5 -15zM192 545q-53 0 -79.5 18.5t-35 44t-8.5 45.5h82q0 -18 13 -27t29 -9q17 0 29.5 8.5t13.5 27.5h83q0 -30 -13 -54.5t-40.5 -39t-73.5 -14.5z" />
    <glyph glyph-name="gcaron" unicode="&#x1e7;" horiz-adv-x="391" 
d="M202 -121q-17 0 -41 1.5t-47.5 3.5t-40 4t-19.5 3v81q15 -3 43.5 -5t46.5 -2t30.5 3t20.5 9t11.5 16t3.5 23v73q-4 -7 -10.5 -21t-23.5 -25.5t-54 -11.5q-27 0 -46.5 7t-31.5 25t-18 50.5t-6 82.5v182q0 60 27 93.5t78 33.5q35 0 53.5 -9t28 -23.5t15.5 -32.5l-19 -4
l23 59h140v-396q0 -33 -3.5 -71t-18 -72t-48 -55.5t-94.5 -21.5zM193 122q5 0 9 2.5t6 9.5t2 18v247q-2 1 -4 1.5t-5 1t-8 0.5q-7 0 -12 -6.5t-5 -23.5v-219q0 -9 1 -15t3.5 -9.5t5.5 -5t7 -1.5zM154 545l-99 116h102l40 -42l40 42h100l-100 -116h-83z" />
    <glyph glyph-name="gcaron.sc" horiz-adv-x="388" 
d="M146 -8q-29 0 -58.5 10t-48.5 40.5t-19 89.5v255q0 60 47.5 87t125.5 27q77 0 127 -26.5t50 -87.5v-79h-151v90q0 4 -5.5 7t-16.5 3q-10 0 -15.5 -3t-5.5 -7v-308q0 -4 6.5 -7t14.5 -3q9 0 15.5 1t6.5 9v91h-25v87h176v-268h-118l-8 27v3.5v2.5q-7 -11 -29.5 -26
t-68.5 -15zM152 545l-99 116h102l40 -42l40 42h100l-100 -116h-83z" />
    <glyph glyph-name="gcircumflex" unicode="&#x11d;" horiz-adv-x="391" 
d="M202 -121q-17 0 -41 1.5t-47.5 3.5t-40 4t-19.5 3v81q15 -3 43.5 -5t46.5 -2t30.5 3t20.5 9t11.5 16t3.5 23v73q-4 -7 -10.5 -21t-23.5 -25.5t-54 -11.5q-27 0 -46.5 7t-31.5 25t-18 50.5t-6 82.5v182q0 60 27 93.5t78 33.5q35 0 53.5 -9t28 -23.5t15.5 -32.5l-19 -4
l23 59h140v-396q0 -33 -3.5 -71t-18 -72t-48 -55.5t-94.5 -21.5zM193 122q5 0 9 2.5t6 9.5t2 18v247q-2 1 -4 1.5t-5 1t-8 0.5q-7 0 -12 -6.5t-5 -23.5v-219q0 -9 1 -15t3.5 -9.5t5.5 -5t7 -1.5zM55 545l99 116h83l100 -116h-100l-40 42l-40 -42h-102z" />
    <glyph glyph-name="gcircumflex.sc" horiz-adv-x="388" 
d="M146 -8q-29 0 -58.5 10t-48.5 40.5t-19 89.5v255q0 60 47.5 87t125.5 27q77 0 127 -26.5t50 -87.5v-79h-151v90q0 4 -5.5 7t-16.5 3q-10 0 -15.5 -3t-5.5 -7v-308q0 -4 6.5 -7t14.5 -3q9 0 15.5 1t6.5 9v91h-25v87h176v-268h-118l-8 27v3.5v2.5q-7 -11 -29.5 -26
t-68.5 -15zM53 545l99 116h83l100 -116h-100l-40 42l-40 -42h-102z" />
    <glyph glyph-name="uni0123" unicode="&#x123;" horiz-adv-x="391" 
d="M257 718q-16 -24 -25.5 -43t-9.5 -31q0 -8 8 -14t16.5 -14.5t8.5 -24.5q0 -18 -17.5 -33t-45.5 -15q-29 0 -47.5 15.5t-18.5 39.5q0 16 11 38t27 44t31 38h62zM202 -121q-17 0 -41 1.5t-47.5 3.5t-40 4t-19.5 3v81q15 -3 43.5 -5t46.5 -2t30.5 3t20.5 9t11.5 16t3.5 23
v73q-4 -7 -10.5 -21t-23.5 -25.5t-54 -11.5q-27 0 -46.5 7t-31.5 25t-18 50.5t-6 82.5v182q0 60 27 93.5t78 33.5q35 0 53.5 -9t28 -23.5t15.5 -32.5l-19 -4l23 59h140v-396q0 -33 -3.5 -71t-18 -72t-48 -55.5t-94.5 -21.5zM193 122q5 0 9 2.5t6 9.5t2 18v247q-2 1 -4 1.5
t-5 1t-8 0.5q-7 0 -12 -6.5t-5 -23.5v-219q0 -9 1 -15t3.5 -9.5t5.5 -5t7 -1.5z" />
    <glyph glyph-name="uni0123.sc" horiz-adv-x="388" 
d="M146 -8q-29 0 -58.5 10t-48.5 40.5t-19 89.5v255q0 60 47.5 87t125.5 27q77 0 127 -26.5t50 -87.5v-79h-151v90q0 4 -5.5 7t-16.5 3q-10 0 -15.5 -3t-5.5 -7v-308q0 -4 6.5 -7t14.5 -3q9 0 15.5 1t6.5 9v91h-25v87h176v-268h-118l-8 27v3.5v2.5q-7 -11 -29.5 -26
t-68.5 -15zM127 -211q17 24 26 43t9 31q0 8 -8.5 14t-16.5 15t-8 24q0 18 17.5 33t45.5 15q29 0 47.5 -15.5t18.5 -39.5q0 -15 -11 -37.5t-26.5 -44.5t-31.5 -38h-62z" />
    <glyph glyph-name="gdotaccent" unicode="&#x121;" horiz-adv-x="391" 
d="M202 -121q-17 0 -41 1.5t-47.5 3.5t-40 4t-19.5 3v81q15 -3 43.5 -5t46.5 -2t30.5 3t20.5 9t11.5 16t3.5 23v73q-4 -7 -10.5 -21t-23.5 -25.5t-54 -11.5q-27 0 -46.5 7t-31.5 25t-18 50.5t-6 82.5v182q0 60 27 93.5t78 33.5q35 0 53.5 -9t28 -23.5t15.5 -32.5l-19 -4
l23 59h140v-396q0 -33 -3.5 -71t-18 -72t-48 -55.5t-94.5 -21.5zM193 122q5 0 9 2.5t6 9.5t2 18v247q-2 1 -4 1.5t-5 1t-8 0.5q-7 0 -12 -6.5t-5 -23.5v-219q0 -9 1 -15t3.5 -9.5t5.5 -5t7 -1.5zM195 545q-28 0 -48.5 19.5t-20.5 46.5q0 28 20.5 47.5t48.5 19.5
q29 0 50 -19.5t21 -46.5q0 -28 -21 -47.5t-50 -19.5z" />
    <glyph glyph-name="gdotaccent.sc" horiz-adv-x="388" 
d="M146 -8q-29 0 -58.5 10t-48.5 40.5t-19 89.5v255q0 60 47.5 87t125.5 27q77 0 127 -26.5t50 -87.5v-79h-151v90q0 4 -5.5 7t-16.5 3q-10 0 -15.5 -3t-5.5 -7v-308q0 -4 6.5 -7t14.5 -3q9 0 15.5 1t6.5 9v91h-25v87h176v-268h-118l-8 27v3.5v2.5q-7 -11 -29.5 -26
t-68.5 -15zM193 545q-28 0 -48.5 19.5t-20.5 46.5q0 28 20.5 47.5t48.5 19.5q29 0 50 -19.5t21 -46.5q0 -28 -21 -47.5t-50 -19.5z" />
    <glyph glyph-name="uni0433" unicode="&#x433;" horiz-adv-x="301" 
d="M25 0v495h266v-111h-100v-384h-166z" />
    <glyph glyph-name="uni0433.loclBGR" horiz-adv-x="301" 
d="M25 0v495h266v-111h-100v-384h-166z" />
    <glyph glyph-name="germandbls" unicode="&#xdf;" horiz-adv-x="499" 
d="M15 -147q-11 0 -32.5 1.5t-29.5 2.5v88q4 -1 7 -1t7 -1q5 -1 12.5 -1.5t17.5 -0.5q37 0 49 21t12 50v377h-43v106h43v27q0 38 14.5 62t57.5 35.5t126 11.5q97 0 148.5 -21.5t51.5 -76.5v-95q0 -42 -26.5 -68t-58.5 -28v-4q24 -2 47.5 -13t39.5 -31t16 -50v-123
q0 -52 -23.5 -78t-66 -34.5t-99.5 -8.5h-44v78h20q19 0 27 8t10.5 31t2.5 69v53q0 16 -2 28t-11 19t-32 7h-18l1 80h37q17 0 21.5 16.5t4.5 45.5v48q0 41 -5.5 58t-38.5 17q-18 0 -27.5 -7t-13 -20.5t-3.5 -32.5l1 -460q0 -61 -19 -98t-49 -55.5t-65 -25t-67 -6.5z" />
    <glyph glyph-name="germandbls.sc" horiz-adv-x="499" 
d="M15 -147q-11 0 -32.5 1.5t-29.5 2.5v88q4 -1 7 -1t7 -1q5 -1 12.5 -1.5t17.5 -0.5q37 0 49 21t12 50v377h-43v106h43v27q0 38 14.5 62t57.5 35.5t126 11.5q97 0 148.5 -21.5t51.5 -76.5v-95q0 -42 -26.5 -68t-58.5 -28v-4q24 -2 47.5 -13t39.5 -31t16 -50v-123
q0 -52 -23.5 -78t-66 -34.5t-99.5 -8.5h-44v78h20q19 0 27 8t10.5 31t2.5 69v53q0 16 -2 28t-11 19t-32 7h-18l1 80h37q17 0 21.5 16.5t4.5 45.5v48q0 41 -5.5 58t-38.5 17q-18 0 -27.5 -7t-13 -20.5t-3.5 -32.5l1 -460q0 -61 -19 -98t-49 -55.5t-65 -25t-67 -6.5z" />
    <glyph glyph-name="uni0453" unicode="&#x453;" horiz-adv-x="301" 
d="M25 0v495h266v-111h-100v-384h-166zM101 550l58 106h136l-106 -106h-88z" />
    <glyph glyph-name="grave" unicode="`" horiz-adv-x="241" 
d="M116 550l-106 106h136l58 -106h-88z" />
    <glyph glyph-name="gravecomb" unicode="&#x300;" 
d="M116 550l-106 106h136l58 -106h-88z" />
    <glyph glyph-name="gravecomb.case" 
d="M119 635l-119 98h141l73 -98h-95z" />
    <glyph glyph-name="greater" unicode="&#x3e;" horiz-adv-x="307" 
d="M30 120v138l120 74l-120 73v134l247 -168v-82z" />
    <glyph glyph-name="greaterequal" unicode="&#x2265;" horiz-adv-x="307" 
d="M30 -5v103h242v-103h-242zM30 120v138l120 74l-120 73v134l247 -168v-82z" />
    <glyph glyph-name="uni20B2" unicode="&#x20b2;" horiz-adv-x="395" 
d="M193 679h88l-74 -738h-88zM149 -10q-31 0 -60.5 11.5t-49 46.5t-19.5 103v312q0 50 22 79.5t61.5 42.5t92.5 13t94 -13t64 -42.5t23 -79.5v-90h-154v100q0 12 -3 18.5t-7.5 9t-11.5 2.5q-6 0 -11 -2.5t-8 -9t-3 -18.5v-363q0 -11 3 -18t8 -9.5t11 -2.5q10 0 16 6.5
t6 23.5v112h-25v89h179v-311h-120l-8 38v0v0q-7 -15 -30 -31.5t-70 -16.5z" />
    <glyph glyph-name="uni20B2.BRACKET.80" horiz-adv-x="395" 
d="M130 48h88l-11 -107h-88zM193 679h88l-16 -155h-88zM149 -10q-31 0 -60.5 11.5t-49 46.5t-19.5 103v312q0 50 22 79.5t61.5 42.5t92.5 13t94 -13t64 -42.5t23 -79.5v-90h-154v100q0 12 -3 18.5t-7.5 9t-11.5 2.5q-6 0 -11 -2.5t-8 -9t-3 -18.5v-363q0 -11 3 -18t8 -9.5
t11 -2.5q10 0 16 6.5t6 23.5v112h-25v89h179v-311h-120l-8 38v0v0q-7 -15 -30 -31.5t-70 -16.5z" />
    <glyph glyph-name="guillemotleft" unicode="&#xab;" horiz-adv-x="565" 
d="M399 99l-137 196l136 196h137l-136 -196l136 -196h-136zM167 99l-137 196l136 196h137l-136 -196l136 -196h-136z" />
    <glyph glyph-name="guillemotright" unicode="&#xbb;" horiz-adv-x="565" 
d="M262 99l136 196l-136 196h137l136 -196l-137 -196h-136zM30 99l136 196l-136 196h137l136 -196l-137 -196h-136z" />
    <glyph glyph-name="guilsinglleft" unicode="&#x2039;" horiz-adv-x="333" 
d="M167 99l-137 196l136 196h137l-136 -196l136 -196h-136z" />
    <glyph glyph-name="guilsinglright" unicode="&#x203a;" horiz-adv-x="333" 
d="M30 99l136 196l-136 196h137l136 -196l-137 -196h-136z" />
    <glyph glyph-name="h" unicode="h" horiz-adv-x="391" 
d="M25 0v630h145v-197q12 35 35.5 53.5t55.5 18.5q44 0 68 -15t33 -44t9 -72v-374h-156v368q0 7 -1 12t-3 8.5t-5.5 5.5t-9.5 2q-4 0 -7 -0.5t-4.5 -1t-3.5 -1.5v-393h-156z" />
    <glyph glyph-name="h.sc" horiz-adv-x="395" 
d="M24 0v495h156v-185h35v185h156v-495h-156v196h-35v-196h-156z" />
    <glyph glyph-name="uni0445" unicode="&#x445;" horiz-adv-x="368" 
d="M-5 0l89 254l-71 241h148l28 -126l41 126h143l-84 -241l76 -254h-148l-29 126l-40 -126h-153z" />
    <glyph glyph-name="uni044A" unicode="&#x44a;" horiz-adv-x="430" 
d="M59 0v404h-49v91h205v-155h79q25 0 50.5 -7.5t43 -31t17.5 -73.5v-67q0 -57 -10.5 -89.5t-29 -47.5t-43 -19.5t-53.5 -4.5h-210zM215 79h17q8 0 11.5 3t4.5 10t1 18v96q0 16 -1 24.5t-4.5 11.5t-11.5 3h-17v-166z" />
    <glyph glyph-name="uni044A.loclBGR" horiz-adv-x="430" 
d="M59 0v404h-49v91h205v-155h79q25 0 50.5 -7.5t43 -31t17.5 -73.5v-67q0 -57 -10.5 -89.5t-29 -47.5t-43 -19.5t-53.5 -4.5h-210zM215 79h17q8 0 11.5 3t4.5 10t1 18v96q0 16 -1 24.5t-4.5 11.5t-11.5 3h-17v-166z" />
    <glyph glyph-name="hbar" unicode="&#x127;" horiz-adv-x="391" 
d="M25 0v630h145v-197q12 35 35.5 53.5t55.5 18.5q44 0 68 -15t33 -44t9 -72v-374h-156v368q0 7 -1 12t-3 8.5t-5.5 5.5t-9.5 2q-4 0 -7 -0.5t-4.5 -1t-3.5 -1.5v-393h-156zM-14 511v77h222v-77h-222z" />
    <glyph glyph-name="hbar.sc" horiz-adv-x="395" 
d="M24 0v495h156v-185h35v185h156v-495h-156v196h-35v-196h-156zM-5 367v77h406v-77h-406z" />
    <glyph glyph-name="hcircumflex" unicode="&#x125;" horiz-adv-x="391" 
d="M25 0v630h145v-197q12 35 35.5 53.5t55.5 18.5q44 0 68 -15t33 -44t9 -72v-374h-156v368q0 7 -1 12t-3 8.5t-5.5 5.5t-9.5 2q-4 0 -7 -0.5t-4.5 -1t-3.5 -1.5v-393h-156zM-48 671l101 109h83l102 -108h-105l-37 32l-37 -33h-107z" />
    <glyph glyph-name="hcircumflex.sc" horiz-adv-x="395" 
d="M24 0v495h156v-185h35v185h156v-495h-156v196h-35v-196h-156zM57 545l99 116h83l100 -116h-100l-40 42l-40 -42h-102z" />
    <glyph glyph-name="hookabovecomb" unicode="&#x309;" 
d="M59 550v9q0 15 10 23t20 14.5t10 17.5v7q0 6 -2 12.5t-9 6.5q-11 0 -11 -20l-67 10q2 32 23 48t62 16q45 0 68 -11.5t23 -58.5v-4q0 -23 -11.5 -31.5t-22.5 -13t-11 -16.5v-9h-82z" />
    <glyph glyph-name="hookabovecomb.case" 
d="M59 628v9q0 15 10 23t20 14.5t10 17.5v7q0 6 -2 12.5t-9 6.5q-11 0 -11 -20l-67 10q2 32 23 48t62 16q45 0 68 -11.5t23 -58.5v-4q0 -23 -11.5 -31.5t-22.5 -13t-11 -16.5v-9h-82z" />
    <glyph glyph-name="uni031B" unicode="&#x31b;" 
d="M10 429v66h21q42 0 42 47v20h100v-20q0 -63 -40.5 -88t-122.5 -25z" />
    <glyph glyph-name="uni031B.case" 
d="M10 525v66h21q42 0 42 47v20h100v-20q0 -63 -40.5 -88t-122.5 -25z" />
    <glyph glyph-name="hungarumlaut" unicode="&#x2dd;" horiz-adv-x="257" 
d="M0 550l8 106h116l-65 -106h-59zM113 550l28 106h116l-75 -106h-69z" />
    <glyph glyph-name="uni030B" unicode="&#x30b;" 
d="M0 550l8 106h116l-65 -106h-59zM113 550l28 106h116l-75 -106h-69z" />
    <glyph glyph-name="uni030B.case" 
d="M0 631l8 106h116l-65 -106h-59zM113 631l28 106h116l-75 -106h-69z" />
    <glyph glyph-name="hyphen" unicode="-" horiz-adv-x="272" 
d="M30 239v103h212v-103h-212z" />
    <glyph glyph-name="uni2010" unicode="&#x2010;" horiz-adv-x="272" 
d="M30 239v103h212v-103h-212z" />
    <glyph glyph-name="i" unicode="i" horiz-adv-x="206" 
d="M25 0v495h156v-495h-156zM102 545q-28 0 -48.5 19.5t-20.5 46.5q0 28 20.5 47.5t48.5 19.5q29 0 50 -19.5t21 -46.5q0 -28 -21 -47.5t-50 -19.5z" />
    <glyph glyph-name="uni0456" unicode="&#x456;" horiz-adv-x="206" 
d="M25 0v495h156v-495h-156zM102 545q-28 0 -48.5 19.5t-20.5 46.5q0 28 20.5 47.5t48.5 19.5q29 0 50 -19.5t21 -46.5q0 -28 -21 -47.5t-50 -19.5z" />
    <glyph glyph-name="i.sc" horiz-adv-x="204" 
d="M24 0v495h156v-495h-156z" />
    <glyph glyph-name="uni044F" unicode="&#x44f;" horiz-adv-x="424" 
d="M5 0l55 155q14 38 29.5 49.5t35.5 13.5q-43 6 -63 29t-20 79v35q0 65 29.5 99.5t95.5 34.5h232v-495h-166v202l-7 -26q-7 -31 -15 -61.5t-16 -61.5l-13 -53h-177zM221 260h12v151h-15q-13 0 -15.5 -21t-2.5 -42v-12q1 -47 6.5 -61.5t14.5 -14.5z" />
    <glyph glyph-name="iacute" unicode="&#xed;" horiz-adv-x="206" 
d="M25 0v495h156v-495h-156zM53 550l58 106h136l-106 -106h-88z" />
    <glyph glyph-name="iacute.sc" horiz-adv-x="204" 
d="M24 0v495h156v-495h-156zM52 550l58 106h136l-106 -106h-88z" />
    <glyph glyph-name="ibreve" unicode="&#x12d;" horiz-adv-x="206" 
d="M25 0v495h156v-495h-156zM101 545q-53 0 -79.5 18.5t-35 44t-8.5 45.5h82q0 -18 13 -27t29 -9q17 0 29.5 8.5t13.5 27.5h83q0 -30 -13 -54.5t-40.5 -39t-73.5 -14.5z" />
    <glyph glyph-name="ibreve.sc" horiz-adv-x="204" 
d="M24 0v495h156v-495h-156zM100 545q-53 0 -79.5 18.5t-35 44t-8.5 45.5h82q0 -18 13 -27t29 -9q17 0 29.5 8.5t13.5 27.5h83q0 -30 -13 -54.5t-40.5 -39t-73.5 -14.5z" />
    <glyph glyph-name="uni01D0" unicode="&#x1d0;" horiz-adv-x="206" 
d="M25 0v495h156v-495h-156zM61 545l-99 116h102l40 -42l40 42h100l-100 -116h-83z" />
    <glyph glyph-name="uni01D0.sc" horiz-adv-x="204" 
d="M24 0v495h156v-495h-156zM60 545l-99 116h102l40 -42l40 42h100l-100 -116h-83z" />
    <glyph glyph-name="icircumflex" unicode="&#xee;" horiz-adv-x="206" 
d="M25 0v495h156v-495h-156zM-38 545l99 116h83l100 -116h-100l-40 42l-40 -42h-102z" />
    <glyph glyph-name="icircumflex.sc" horiz-adv-x="204" 
d="M24 0v495h156v-495h-156zM-39 545l99 116h83l100 -116h-100l-40 42l-40 -42h-102z" />
    <glyph glyph-name="uni0209" unicode="&#x209;" horiz-adv-x="206" 
d="M25 0v495h156v-495h-156zM189 550h-59l-65 106h116zM76 550h-69l-75 106h116z" />
    <glyph glyph-name="uni0209.sc" horiz-adv-x="204" 
d="M24 0v495h156v-495h-156zM188 550h-59l-65 106h116zM75 550h-69l-75 106h116z" />
    <glyph glyph-name="idieresis" unicode="&#xef;" horiz-adv-x="206" 
d="M25 0v495h156v-495h-156zM34 543q-26 0 -43 16.5t-17 40.5t17 40t43 16q25 0 41.5 -16t16.5 -40t-16.5 -40.5t-41.5 -16.5zM173 543q-26 0 -43 16.5t-17 40.5t17 40t43 16q25 0 41.5 -16t16.5 -40t-16.5 -40.5t-41.5 -16.5z" />
    <glyph glyph-name="idieresis.sc" horiz-adv-x="204" 
d="M24 0v495h156v-495h-156zM33 543q-26 0 -43 16.5t-17 40.5t17 40t43 16q25 0 41.5 -16t16.5 -40t-16.5 -40.5t-41.5 -16.5zM172 543q-26 0 -43 16.5t-17 40.5t17 40t43 16q25 0 41.5 -16t16.5 -40t-16.5 -40.5t-41.5 -16.5z" />
    <glyph glyph-name="i.loclTRK" horiz-adv-x="206" 
d="M25 0v495h156v-495h-156zM102 545q-28 0 -48.5 19.5t-20.5 46.5q0 28 20.5 47.5t48.5 19.5q29 0 50 -19.5t21 -46.5q0 -28 -21 -47.5t-50 -19.5z" />
    <glyph glyph-name="i.loclTRK.sc" horiz-adv-x="204" 
d="M24 0v495h156v-495h-156zM101 545q-28 0 -48.5 19.5t-20.5 46.5q0 28 20.5 47.5t48.5 19.5q29 0 50 -19.5t21 -46.5q0 -28 -21 -47.5t-50 -19.5z" />
    <glyph glyph-name="uni1ECB" unicode="&#x1ecb;" horiz-adv-x="206" 
d="M25 0v495h156v-495h-156zM102 545q-28 0 -48.5 19.5t-20.5 46.5q0 28 20.5 47.5t48.5 19.5q29 0 50 -19.5t21 -46.5q0 -28 -21 -47.5t-50 -19.5zM102 -147q-25 0 -42 17t-17 40q0 24 17 41t42 17t43 -17t18 -41q0 -23 -18 -40t-43 -17z" />
    <glyph glyph-name="uni1ECB.sc" horiz-adv-x="204" 
d="M24 0v495h156v-495h-156zM101 -147q-25 0 -42 17t-17 40q0 24 17 41t42 17t43 -17t18 -41q0 -23 -18 -40t-43 -17z" />
    <glyph glyph-name="dotlessi" unicode="&#x131;" horiz-adv-x="206" 
d="M25 0v495h156v-495h-156z" />
    <glyph glyph-name="dotlessi.sc" horiz-adv-x="204" 
d="M24 0v495h156v-495h-156z" />
    <glyph glyph-name="uni0435" unicode="&#x435;" horiz-adv-x="381" 
d="M193 -8q-53 0 -92 11.5t-60 49.5t-21 117v203q0 76 45 104t128 28t128 -28t45 -104v-140h-190v-131q0 -17 5 -23.5t12 -6.5q8 0 12.5 6.5t4.5 23.5v90h156v-21q0 -80 -21 -118t-60 -49.5t-92 -11.5zM176 300h34v83q0 17 -4.5 23.5t-12.5 6.5q-7 0 -12 -6.5t-5 -23.5v-83z
" />
    <glyph glyph-name="uni0450" unicode="&#x450;" horiz-adv-x="381" 
d="M193 -8q-53 0 -92 11.5t-60 49.5t-21 117v203q0 76 45 104t128 28t128 -28t45 -104v-140h-190v-131q0 -17 5 -23.5t12 -6.5q8 0 12.5 6.5t4.5 23.5v90h156v-21q0 -80 -21 -118t-60 -49.5t-92 -11.5zM176 300h34v83q0 17 -4.5 23.5t-12.5 6.5q-7 0 -12 -6.5t-5 -23.5v-83z
M161 550l-106 106h136l58 -106h-88z" />
    <glyph glyph-name="igrave" unicode="&#xec;" horiz-adv-x="206" 
d="M25 0v495h156v-495h-156zM73 550l-106 106h136l58 -106h-88z" />
    <glyph glyph-name="igrave.sc" horiz-adv-x="204" 
d="M24 0v495h156v-495h-156zM72 550l-106 106h136l58 -106h-88z" />
    <glyph glyph-name="uni1EC9" unicode="&#x1ec9;" horiz-adv-x="206" 
d="M25 0v495h156v-495h-156zM60 550v9q0 15 10 23t20 14.5t10 17.5v7q0 6 -2 12.5t-9 6.5q-11 0 -11 -20l-67 10q2 32 23 48t62 16q45 0 68 -11.5t23 -58.5v-4q0 -23 -11.5 -31.5t-22.5 -13t-11 -16.5v-9h-82z" />
    <glyph glyph-name="uni1EC9.sc" horiz-adv-x="204" 
d="M24 0v495h156v-495h-156zM59 550v9q0 15 10 23t20 14.5t10 17.5v7q0 6 -2 12.5t-9 6.5q-11 0 -11 -20l-67 10q2 32 23 48t62 16q45 0 68 -11.5t23 -58.5v-4q0 -23 -11.5 -31.5t-22.5 -13t-11 -16.5v-9h-82z" />
    <glyph glyph-name="uni0438" unicode="&#x438;" horiz-adv-x="393" 
d="M25 0v495h136v-217l72 217h135v-495h-136v255q-21 -64 -41.5 -127.5t-41.5 -127.5h-124z" />
    <glyph glyph-name="uni0438.loclBGR" horiz-adv-x="393" 
d="M25 0v495h136v-217l72 217h135v-495h-136v255q-21 -64 -41.5 -127.5t-41.5 -127.5h-124z" />
    <glyph glyph-name="uni045D" unicode="&#x45d;" horiz-adv-x="393" 
d="M25 0v495h136v-217l72 217h135v-495h-136v255q-21 -64 -41.5 -127.5t-41.5 -127.5h-124zM167 550l-106 106h136l58 -106h-88z" />
    <glyph glyph-name="uni045D.loclBGR" horiz-adv-x="393" 
d="M25 0v495h136v-217l72 217h135v-495h-136v255q-21 -64 -41.5 -127.5t-41.5 -127.5h-124zM167 550l-106 106h136l58 -106h-88z" />
    <glyph glyph-name="uni020B" unicode="&#x20b;" horiz-adv-x="206" 
d="M105 658q54 0 80 -18.5t34.5 -43.5t8.5 -46h-82q0 18 -13 27t-29 9t-29 -8.5t-14 -27.5h-83q0 30 13 54.5t41 39t73 14.5zM25 0v495h156v-495h-156z" />
    <glyph glyph-name="uni020B.sc" horiz-adv-x="204" 
d="M104 658q54 0 80 -18.5t34.5 -43.5t8.5 -46h-82q0 18 -13 27t-29 9t-29 -8.5t-14 -27.5h-83q0 30 13 54.5t41 39t73 14.5zM24 0v495h156v-495h-156z" />
    <glyph glyph-name="uni0439" unicode="&#x439;" horiz-adv-x="393" 
d="M25 0v495h136v-217l72 217h135v-495h-136v255q-21 -64 -41.5 -127.5t-41.5 -127.5h-124zM195 545q-53 0 -79.5 18.5t-35 44t-8.5 45.5h82q0 -18 13 -27t29 -9q17 0 29.5 8.5t13.5 27.5h83q0 -30 -13 -54.5t-40.5 -39t-73.5 -14.5z" />
    <glyph glyph-name="uni0439.loclBGR" horiz-adv-x="393" 
d="M25 0v495h136v-217l72 217h135v-495h-136v255q-21 -64 -41.5 -127.5t-41.5 -127.5h-124zM195 545q-53 0 -79.5 18.5t-35 44t-8.5 45.5h82q0 -18 13 -27t29 -9q17 0 29.5 8.5t13.5 27.5h83q0 -30 -13 -54.5t-40.5 -39t-73.5 -14.5z" />
    <glyph glyph-name="imacron" unicode="&#x12b;" horiz-adv-x="206" 
d="M25 0v495h156v-495h-156zM-8 556v77h222v-77h-222z" />
    <glyph glyph-name="imacron.sc" horiz-adv-x="204" 
d="M24 0v495h156v-495h-156zM-9 556v77h222v-77h-222z" />
    <glyph glyph-name="infinity" unicode="&#x221e;" horiz-adv-x="687" 
d="M163 94q-70 0 -101.5 38.5t-31.5 115.5t31.5 115.5t101.5 38.5q42 0 76.5 -17t60.5 -39.5t42 -40.5q15 17 41.5 39.5t62.5 40t78 17.5q70 0 101.5 -38.5t31.5 -115.5t-31.5 -115.5t-101.5 -38.5q-42 0 -77 17.5t-61 41t-42 40.5q-15 -19 -42 -42.5t-62 -40t-77 -16.5z
M168 184q35 0 58 19.5t53 44.5q-21 20 -39.5 33t-35.5 19.5t-36 6.5q-28 0 -42 -15t-14 -46t14 -46.5t42 -15.5zM519 189q28 0 42 15t14 46t-14 46.5t-42 15.5q-17 0 -31 -5.5t-27 -14.5t-25.5 -20.5t-27.5 -23.5q22 -20 40 -33t35.5 -19.5t35.5 -6.5z" />
    <glyph glyph-name="integral" unicode="&#x222b;" horiz-adv-x="407" 
d="M-40 -302q-19 1 -37 3.5t-37 9.5l17 98l68 -10q18 2 25 15.5t10 28.5l117 669q10 56 39.5 81t71.5 31t87 6q23 0 42.5 -3.5t33.5 -9.5l-17 -98l-70 10q-18 -2 -25 -15.5t-10 -28.5l-117 -669q-10 -56 -39.5 -81t-71 -31t-87.5 -6z" />
    <glyph glyph-name="uni0451" unicode="&#x451;" horiz-adv-x="381" 
d="M193 -8q-53 0 -92 11.5t-60 49.5t-21 117v203q0 76 45 104t128 28t128 -28t45 -104v-140h-190v-131q0 -17 5 -23.5t12 -6.5q8 0 12.5 6.5t4.5 23.5v90h156v-21q0 -80 -21 -118t-60 -49.5t-92 -11.5zM176 300h34v83q0 17 -4.5 23.5t-12.5 6.5q-7 0 -12 -6.5t-5 -23.5v-83z
M122 543q-26 0 -43 16.5t-17 40.5t17 40t43 16q25 0 41.5 -16t16.5 -40t-16.5 -40.5t-41.5 -16.5zM261 543q-26 0 -43 16.5t-17 40.5t17 40t43 16q25 0 41.5 -16t16.5 -40t-16.5 -40.5t-41.5 -16.5z" />
    <glyph glyph-name="iogonek" unicode="&#x12f;" horiz-adv-x="206" 
d="M25 0v495h156v-495h-156zM102 545q-28 0 -48.5 19.5t-20.5 46.5q0 28 20.5 47.5t48.5 19.5q29 0 50 -19.5t21 -46.5q0 -28 -21 -47.5t-50 -19.5zM125 -151q-43 0 -68 21.5t-25 46.5q0 28 24.5 54.5t65.5 30.5l59 -2q-27 -7 -39 -25.5t-12 -35.5q0 -18 12.5 -28t24.5 -10
q7 0 11.5 1.5t6.5 1.5l17 -37q-5 -3 -22 -10.5t-55 -7.5z" />
    <glyph glyph-name="iogonek.sc" horiz-adv-x="204" 
d="M24 0v495h156v-495h-156zM124 -151q-43 0 -68 21.5t-25 46.5q0 28 24.5 54.5t65.5 30.5l59 -2q-27 -7 -39 -25.5t-12 -35.5q0 -18 12.5 -28t24.5 -10q7 0 11.5 1.5t6.5 1.5l17 -37q-5 -3 -22 -10.5t-55 -7.5z" />
    <glyph glyph-name="itilde" unicode="&#x129;" horiz-adv-x="206" 
d="M25 0v495h156v-495h-156zM152 548q-17 0 -32 7t-29 14q-12 7 -23.5 11.5t-23.5 4.5q-13 0 -20 -10.5t-8 -25.5h-41q0 47 19.5 76t51.5 29q18 0 33 -5.5t28 -12.5q12 -6 23.5 -11t22.5 -5q16 0 22.5 9.5t8.5 21.5h46q0 -34 -12.5 -57t-30.5 -34.5t-35 -11.5z" />
    <glyph glyph-name="itilde.sc" horiz-adv-x="204" 
d="M24 0v495h156v-495h-156zM151 548q-17 0 -32 7t-29 14q-12 7 -23.5 11.5t-23.5 4.5q-13 0 -20 -10.5t-8 -25.5h-41q0 47 19.5 76t51.5 29q18 0 33 -5.5t28 -12.5q12 -6 23.5 -11t22.5 -5q16 0 22.5 9.5t8.5 21.5h46q0 -34 -12.5 -57t-30.5 -34.5t-35 -11.5z" />
    <glyph glyph-name="uni044E" unicode="&#x44e;" horiz-adv-x="600" 
d="M403 -12q-53 0 -92 11.5t-60 49.5t-21 117v207q0 50 20 78t59 40t94 12q56 0 94.5 -12t58.5 -40t20 -78v-206q0 -80 -21 -118t-60 -49.5t-92 -11.5zM25 0v495h156v-182h104v-117h-104v-196h-156zM403 68q5 0 9 2.5t6 9.5t2 18v295q0 12 -2 18.5t-6 9t-9 2.5t-9 -2.5
t-6 -9t-2 -18.5v-295q0 -11 2 -18t6 -9.5t9 -2.5z" />
    <glyph glyph-name="uni044E.loclBGR" horiz-adv-x="600" 
d="M403 -12q-53 0 -92 11.5t-60 49.5t-21 117v207q0 50 20 78t59 40t94 12q56 0 94.5 -12t58.5 -40t20 -78v-206q0 -80 -21 -118t-60 -49.5t-92 -11.5zM25 0v495h156v-182h104v-117h-104v-196h-156zM403 68q5 0 9 2.5t6 9.5t2 18v295q0 12 -2 18.5t-6 9t-9 2.5t-9 -2.5
t-6 -9t-2 -18.5v-295q0 -11 2 -18t6 -9.5t9 -2.5z" />
    <glyph glyph-name="j" unicode="j" horiz-adv-x="202" 
d="M-20 -113q-8 1 -24.5 2t-21.5 2v81q11 0 25.5 0.5t21.5 1.5q23 2 33.5 16.5t10.5 29.5v475h156v-426q0 -79 -29 -120t-74.5 -54t-97.5 -8zM100 545q-28 0 -48.5 19.5t-20.5 46.5q0 28 20.5 47.5t48.5 19.5q29 0 50 -19.5t21 -46.5q0 -28 -21 -47.5t-50 -19.5z" />
    <glyph glyph-name="j.sc" horiz-adv-x="258" 
d="M58 -1h-26.5t-26.5 1v105h28q26 0 35.5 6.5t9.5 31.5v352h156v-355q0 -50 -15 -81t-53 -45.5t-108 -14.5z" />
    <glyph glyph-name="jcircumflex" unicode="&#x135;" horiz-adv-x="202" 
d="M-20 -113q-8 1 -24.5 2t-21.5 2v81q11 0 25.5 0.5t21.5 1.5q23 2 33.5 16.5t10.5 29.5v475h156v-426q0 -79 -29 -120t-74.5 -54t-97.5 -8zM-40 545l99 116h83l100 -116h-100l-40 42l-40 -42h-102z" />
    <glyph glyph-name="jcircumflex.sc" horiz-adv-x="258" 
d="M58 -1h-26.5t-26.5 1v105h28q26 0 35.5 6.5t9.5 31.5v352h156v-355q0 -50 -15 -81t-53 -45.5t-108 -14.5zM10 545l99 116h83l100 -116h-100l-40 42l-40 -42h-102z" />
    <glyph glyph-name="uni0237" unicode="&#x237;" horiz-adv-x="202" 
d="M-20 -113q-8 1 -24.5 2t-21.5 2v81q11 0 25.5 0.5t21.5 1.5q23 2 33.5 16.5t10.5 29.5v475h156v-426q0 -79 -29 -120t-74.5 -54t-97.5 -8z" />
    <glyph glyph-name="uni0237.sc" horiz-adv-x="202" 
d="M-20 -113q-8 1 -24.5 2t-21.5 2v81q11 0 25.5 0.5t21.5 1.5q23 2 33.5 16.5t10.5 29.5v475h156v-426q0 -79 -29 -120t-74.5 -54t-97.5 -8z" />
    <glyph glyph-name="uni0458" unicode="&#x458;" horiz-adv-x="202" 
d="M-20 -113q-8 1 -24.5 2t-21.5 2v81q11 0 25.5 0.5t21.5 1.5q23 2 33.5 16.5t10.5 29.5v475h156v-426q0 -79 -29 -120t-74.5 -54t-97.5 -8zM100 545q-28 0 -48.5 19.5t-20.5 46.5q0 28 20.5 47.5t48.5 19.5q29 0 50 -19.5t21 -46.5q0 -28 -21 -47.5t-50 -19.5z" />
    <glyph glyph-name="k" unicode="k" horiz-adv-x="416" 
d="M242 0l-62 286l80 209h154l-87 -212l84 -283h-169zM25 0v630h156v-630h-156z" />
    <glyph glyph-name="k.sc" horiz-adv-x="430" 
d="M257 0l-79 256l79 239h166l-94 -238l96 -257h-168zM24 0v495h156v-495h-156z" />
    <glyph glyph-name="uni043A" unicode="&#x43a;" horiz-adv-x="439" 
d="M25 0v495h157v-135q26 46 62.5 78.5t81.5 47.5t93 7v-101q-23 -3 -39.5 -12.5t-27.5 -20.5q-6 -6 -11 -12.5t-9 -14.5l85 -332h-180l-44 159q-3 -4 -5.5 -9t-5.5 -10v-140h-157z" />
    <glyph glyph-name="uni043A.loclBGR" horiz-adv-x="439" 
d="M25 0v495h157v-135q26 46 62.5 78.5t81.5 47.5t93 7v-101q-23 -3 -39.5 -12.5t-27.5 -20.5q-6 -6 -11 -12.5t-9 -14.5l85 -332h-180l-44 159q-3 -4 -5.5 -9t-5.5 -10v-140h-157z" />
    <glyph glyph-name="uni0137" unicode="&#x137;" horiz-adv-x="416" 
d="M242 0l-62 286l80 209h154l-87 -212l84 -283h-169zM25 0v630h156v-630h-156zM141 -211q17 24 26 43t9 31q0 8 -8.5 14t-16.5 15t-8 24q0 18 17.5 33t45.5 15q29 0 47.5 -15.5t18.5 -39.5q0 -15 -11 -37.5t-26.5 -44.5t-31.5 -38h-62z" />
    <glyph glyph-name="uni0137.sc" horiz-adv-x="430" 
d="M257 0l-79 256l79 239h166l-94 -238l96 -257h-168zM24 0v495h156v-495h-156zM148 -211q17 24 26 43t9 31q0 8 -8.5 14t-16.5 15t-8 24q0 18 17.5 33t45.5 15q29 0 47.5 -15.5t18.5 -39.5q0 -15 -11 -37.5t-26.5 -44.5t-31.5 -38h-62z" />
    <glyph glyph-name="kgreenlandic" unicode="&#x138;" horiz-adv-x="416" 
d="M242 0l-62 286l80 209h154l-87 -212l84 -283h-169zM25 0v550h156v-550h-156z" />
    <glyph glyph-name="uni20AD" unicode="&#x20ad;" horiz-adv-x="456" 
d="M263 0l-81 306l81 285h169l-96 -284l98 -307h-171zM25 0v591h159v-591h-159zM0 239v103h418v-103h-418z" />
    <glyph glyph-name="uni045C" unicode="&#x45c;" horiz-adv-x="439" 
d="M25 0v495h157v-135q26 46 62.5 78.5t81.5 47.5t93 7v-101q-23 -3 -39.5 -12.5t-27.5 -20.5q-6 -6 -11 -12.5t-9 -14.5l85 -332h-180l-44 159q-3 -4 -5.5 -9t-5.5 -10v-140h-157zM170 550l58 106h136l-106 -106h-88z" />
    <glyph glyph-name="l" unicode="l" horiz-adv-x="206" 
d="M25 0v630h156v-630h-156z" />
    <glyph glyph-name="l.sc" horiz-adv-x="295" 
d="M24 0v495h154v-389h107v-106h-261z" />
    <glyph glyph-name="lacute" unicode="&#x13a;" horiz-adv-x="206" 
d="M25 0v630h156v-630h-156zM33 674l77 103h138l-130 -103h-85z" />
    <glyph glyph-name="lacute.sc" horiz-adv-x="295" 
d="M24 0v495h154v-389h107v-106h-261zM98 550l58 106h136l-106 -106h-88z" />
    <glyph glyph-name="lcaron" unicode="&#x13e;" horiz-adv-x="316" 
d="M25 0v630h156v-630h-156zM204 498l28 161h92l-67 -161h-53z" />
    <glyph glyph-name="lcaron.sc" horiz-adv-x="295" 
d="M24 0v495h154v-389h107v-106h-261zM213 365l28 161h92l-67 -161h-53z" />
    <glyph glyph-name="uni013C" unicode="&#x13c;" horiz-adv-x="206" 
d="M25 0v630h156v-630h-156zM36 -211q17 24 26 43t9 31q0 8 -8.5 14t-16.5 15t-8 24q0 18 17.5 33t45.5 15q29 0 47.5 -15.5t18.5 -39.5q0 -15 -11 -37.5t-26.5 -44.5t-31.5 -38h-62z" />
    <glyph glyph-name="uni013C.sc" horiz-adv-x="295" 
d="M24 0v495h154v-389h107v-106h-261zM81 -211q17 24 26 43t9 31q0 8 -8.5 14t-16.5 15t-8 24q0 18 17.5 33t45.5 15q29 0 47.5 -15.5t18.5 -39.5q0 -15 -11 -37.5t-26.5 -44.5t-31.5 -38h-62z" />
    <glyph glyph-name="ldot" unicode="&#x140;" horiz-adv-x="206" 
d="M25 0v630h156v-630h-156zM304 215q-31 0 -53.5 21.5t-22.5 51.5q0 31 22.5 52.5t53.5 21.5q32 0 55 -21.5t23 -52.5q0 -30 -23 -51.5t-55 -21.5z" />
    <glyph glyph-name="ldot.sc" horiz-adv-x="295" 
d="M24 0v495h154v-389h107v-106h-261zM307 220q-31 0 -53.5 21.5t-22.5 51.5q0 31 22.5 52.5t53.5 21.5q32 0 55 -21.5t23 -52.5q0 -30 -23 -51.5t-55 -21.5z" />
    <glyph glyph-name="arrowleft" unicode="&#x2190;" horiz-adv-x="799" 
d="M340 0l-310 240l311 243l75 -75l-116 -103l469 -5l-1 -123l-465 2l112 -104z" />
    <glyph glyph-name="arrowboth" unicode="&#x2194;" horiz-adv-x="1040" 
d="M340 69l-311 240l311 243l75 -75l-116 -103h440l-116 103l75 75l311 -243l-311 -240l-75 75l111 102h-430l111 -102z" />
    <glyph glyph-name="uni27E8" unicode="&#x27e8;" horiz-adv-x="333" 
d="M167 -153l-137 389l136 396h137l-136 -396l136 -389h-136z" />
    <glyph glyph-name="less" unicode="&#x3c;" horiz-adv-x="307" 
d="M277 120l-247 168v82l247 169v-138l-120 -74l120 -73v-134z" />
    <glyph glyph-name="lessequal" unicode="&#x2264;" horiz-adv-x="308" 
d="M278 120l-247 169v82l247 168v-134l-120 -73l120 -74v-138zM279 -5h-242v103h242v-103z" />
    <glyph glyph-name="lira" unicode="&#x20a4;" horiz-adv-x="412" 
d="M20 0v60q20 28 34.5 59t23.5 72.5t11 98.5h-69v52h60q-6 24 -14.5 47t-14.5 46.5t-6 48.5q0 50 42 82t129 32q80 0 128 -30t48 -105v-49h-137v50q0 22 -5.5 36.5t-15 21.5t-20.5 7q-13 0 -22.5 -10t-9.5 -29q0 -15 9 -37.5t18 -50.5t9 -60h66v-52h-70q-6 -56 -20 -97
t-28 -65.5t-22 -33.5q8 2 17 3.5t20.5 2t24.5 0.5q32 0 42 6.5t10 36.5v42h134v-53q0 -67 -17 -94t-47 -33q-32 -6 -71 -0.5t-79 13t-77 7.5q-33 0 -52.5 -9t-28.5 -16zM149 264h135v-50h-152h-112v50h129z" />
    <glyph glyph-name="uni20BA" unicode="&#x20ba;" horiz-adv-x="413" 
d="M288 0h-186q-33 0 -41.5 16.5t-8.5 33.5v541h156v-486q2 -1 5 -1.5t6.5 -1t5.5 -0.5q6 0 9.5 3.5t5.5 9.5t2 15v275h156v-281q0 -43 -9 -70.5t-33 -40.5t-68 -13zM5 321v76l250 59v-76zM5 213v76l250 59v-76z" />
    <glyph glyph-name="uni20BA.BRACKET.90" horiz-adv-x="423" 
d="M298 0h-196q-33 0 -41.5 16.5t-8.5 33.5v541h156v-486q2 -1 12.5 -1.5t21.5 -1t13 -0.5q6 0 9.5 3.5t5.5 9.5t2 15v275h136v-281q0 -43 -9 -70.5t-33 -40.5t-68 -13zM5 321v76l250 59v-76zM5 213v76l250 59v-76z" />
    <glyph glyph-name="uni01C9" unicode="&#x1c9;" horiz-adv-x="408" 
d="M25 0v630h156v-630h-156zM186 -113q-8 1 -24.5 2t-21.5 2v81q11 0 25.5 0.5t21.5 1.5q23 2 33.5 16.5t10.5 29.5v475h156v-426q0 -79 -29 -120t-74.5 -54t-97.5 -8zM306 545q-28 0 -48.5 19.5t-20.5 46.5q0 28 20.5 47.5t48.5 19.5q29 0 50 -19.5t21 -46.5
q0 -28 -21 -47.5t-50 -19.5z" />
    <glyph glyph-name="uni0459" unicode="&#x459;" horiz-adv-x="661" 
d="M10 0v79q18 0 36 24.5t20 52.5l30 339h350v-155h79q25 0 50.5 -7.5t43 -31t17.5 -73.5v-67q0 -57 -10.5 -89.5t-29 -47.5t-43 -19.5t-53.5 -4.5h-213v386h-33l-29 -270q-2 -18 -4 -38.5t-11.5 -38t-31.5 -28.5t-64 -11h-104zM446 79h17q8 0 11.5 3t4.5 10t1 18v96
q0 16 -1 24.5t-4.5 11.5t-11.5 3h-17v-166z" />
    <glyph glyph-name="logicalnot" unicode="&#xac;" horiz-adv-x="558" 
d="M429 95v201h-393v113h492v-314h-99z" />
    <glyph glyph-name="longs" unicode="&#x17f;" horiz-adv-x="305" 
d="M54 -142q-21 -1 -43.5 0.5t-45.5 5.5v77h36q8 0 15 3t13 8q5 5 9.5 10.5t5.5 12.5v375h-43v90h43v72q0 56 24 81t63.5 31t84.5 6q26 0 51.5 -4.5t47.5 -9.5l-13 -88q-21 8 -38 10t-36 2q-17 0 -22 -17.5t-5 -32.5v-451q0 -64 -20 -102.5t-53 -56.5t-74 -22z" />
    <glyph glyph-name="longs.sc" horiz-adv-x="398" 
d="M94 -142q-21 -1 -43.5 0.5t-45.5 5.5v77h36q8 0 15 3t13 8q5 5 9.5 10.5t5.5 12.5v375h-43v90h43v72q0 56 24 81t63.5 31t84.5 6q26 0 51.5 -4.5t47.5 -9.5l-13 -88q-21 8 -38 10t-36 2q-17 0 -22 -17.5t-5 -32.5v-451q0 -64 -20 -102.5t-53 -56.5t-74 -22z" />
    <glyph glyph-name="longs_t" horiz-adv-x="562" 
d="M-35 -136v77h36q8 0 15 3t13 8q5 5 9.5 10.5t5.5 12.5v375h-43v90h43v49q0 74 45 107.5t158 33.5q31 0 74 -3.5t83.5 -8t61.5 -8.5v-115h84v-90h-84v-263q0 -15 6.5 -29.5t30.5 -14.5q12 0 29.5 1.5l17.5 1.5v-92l-28 -7t-62 -7q-24 0 -50.5 3.5t-49 15t-36.5 35.5
t-14 66v290h-49v67l63 23l20 71l17 -29q-22 4 -45 5.5t-47 1.5q-41 0 -54.5 -15.5t-13.5 -52.5v-437q0 -64 -20 -102.5t-53 -56.5t-74 -22q-21 -1 -43.5 0.5t-45.5 5.5z" />
    <glyph glyph-name="lozenge" unicode="&#x25ca;" horiz-adv-x="494" 
d="M198 -34l-168 326l168 325h98l168 -325l-168 -326h-98zM247 111l85 184l-83 180l-86 -184z" />
    <glyph glyph-name="lslash" unicode="&#x142;" horiz-adv-x="300" 
d="M71 0v157l-56 -25v64l56 25v409h156v-340l58 26v-63l-58 -26v-227h-156z" />
    <glyph glyph-name="lslash.sc" horiz-adv-x="295" 
d="M24 0v495h154v-389h107v-106h-261zM-37 109v63l272 121v-62z" />
    <glyph glyph-name="m" unicode="m" horiz-adv-x="581" 
d="M25 0v495h133l12 -62q9 31 34 51.5t57 20.5q56 0 79.5 -24t29.5 -70l-14 1q3 38 30.5 65.5t64.5 27.5q66 0 88 -33t22 -98v-374h-156v368q0 14 -4.5 21t-12.5 7q-4 0 -9 -0.5t-8 -2.5v-393h-156v368q0 14 -4.5 21t-12.5 7q-4 0 -9 -0.5t-8 -2.5v-393h-156z" />
    <glyph glyph-name="m.sc" horiz-adv-x="528" 
d="M24 0v495h198l42 -210l42 210h198v-495h-136v330l-52 -330h-104l-52 330v-330h-136z" />
    <glyph glyph-name="macron" unicode="&#xaf;" horiz-adv-x="242" 
d="M10 556v77h222v-77h-222z" />
    <glyph glyph-name="uni0331" unicode="&#x331;" 
d="M0 -109v77h222v-77h-222z" />
    <glyph glyph-name="uni0304" unicode="&#x304;" 
d="M10 556v77h222v-77h-222z" />
    <glyph glyph-name="uni0304.case" 
d="M10 642v77h222v-77h-222z" />
    <glyph glyph-name="uni20BC" unicode="&#x20bc;" horiz-adv-x="402" 
d="M201 603q35 0 62 -5.5t46.5 -22.5t31 -52.5t14.5 -95.5l22 -427h-159l-2 476q0 12 -2 18.5t-5 9t-8 2.5q-4 0 -7.5 -2.5t-5.5 -9t-2 -18.5l-2 -476h-159l22 428q4 80 23 117t52 47.5t79 10.5zM148 5v625h88v-625h-88z" />
    <glyph glyph-name="uni20BC.BRACKET.80" horiz-adv-x="402" 
d="M201 603q35 0 62 -5.5t46.5 -22.5t31 -52.5t14.5 -95.5l22 -427h-133l-9 476q0 12 -4.5 18.5t-12 9t-17.5 2.5t-17.5 -2.5t-11.5 -9t-5 -18.5l-16 -476h-126l22 428q4 80 23 117t52 47.5t79 10.5zM177 115v515h46v-515h-46z" />
    <glyph glyph-name="uni00B5" unicode="&#xb5;" horiz-adv-x="406" 
d="M30 -129v624h156v-390q3 -2 8 -2.5t9 -0.5q6 0 9.5 3t5.5 9.5t2 15.5v365h156v-371q0 -43 -9 -72.5t-33 -44t-68 -14.5q-32 0 -57 20.5t-34 51.5l-12 -194h-133z" />
    <glyph glyph-name="minus" unicode="&#x2212;" horiz-adv-x="600" 
d="M70 209v103h377v-103h-377z" />
    <glyph glyph-name="minute" unicode="&#x2032;" horiz-adv-x="129" 
d="M68 434h-68l30 138h99z" />
    <glyph glyph-name="uni03BC" unicode="&#x3bc;" horiz-adv-x="396" 
d="M208 30q-6 -7 -12.5 -13t-14.5 -11v-53q0 -17 2.5 -35t18.5 -35h-156q-16 24 -18.5 48.5t-2.5 48.5v515h156v-365q0 -9 2 -15t6 -9.5t9 -3.5q3 0 6 0.5l6 1t5 1.5v390h156v-202v-202q0 -22 7.5 -50.5t17.5 -40.5h-72h-72q-13 17 -18 33t-8 32q-3 -10 -7.5 -18.5
t-10.5 -16.5z" />
    <glyph glyph-name="multiply" unicode="&#xd7;" horiz-adv-x="412" 
d="M310 85l-104 103l-103 -102l-73 72l104 103l-104 103l73 73l103 -103l104 104l72 -73l-103 -104l103 -104z" />
    <glyph glyph-name="n" unicode="n" horiz-adv-x="391" 
d="M25 0v495h133l12 -62q9 31 34 51.5t57 20.5q44 0 68 -15t33 -44t9 -72v-374h-156v368q0 7 -1 12t-3 8.5t-5 5.5t-8 2q-2 0 -5.5 -0.5t-6.5 -1t-5 -1.5v-393h-156z" />
    <glyph glyph-name="n.sc" horiz-adv-x="390" 
d="M24 0v495h135l71 -186v186h136v-495h-134l-72 158v-158h-136z" />
    <glyph glyph-name="nacute" unicode="&#x144;" horiz-adv-x="391" 
d="M25 0v495h133l12 -62q9 31 34 51.5t57 20.5q44 0 68 -15t33 -44t9 -72v-374h-156v368q0 7 -1 12t-3 8.5t-5 5.5t-8 2q-2 0 -5.5 -0.5t-6.5 -1t-5 -1.5v-393h-156zM146 550l58 106h136l-106 -106h-88z" />
    <glyph glyph-name="nacute.sc" horiz-adv-x="390" 
d="M24 0v495h135l71 -186v186h136v-495h-134l-72 158v-158h-136zM148 550l58 106h136l-106 -106h-88z" />
    <glyph glyph-name="uni20A6" unicode="&#x20a6;" horiz-adv-x="458" 
d="M50 0v591h138l72 -275v275h139v-591h-137l-73 245v-245h-139zM10 296v103h438v-103h-438zM10 149v103h438v-103h-438z" />
    <glyph glyph-name="uni20A6.BRACKET.70" horiz-adv-x="458" 
d="M50 0v591h138l72 -275v275h139v-591h-137l-73 245v-245h-139zM10 296v103h117v-103h-117zM10 149v103h117v-103h-117zM310 296v103h138v-103h-138zM310 149v103h138v-103h-138z" />
    <glyph glyph-name="ncaron" unicode="&#x148;" horiz-adv-x="391" 
d="M25 0v495h133l12 -62q9 31 34 51.5t57 20.5q44 0 68 -15t33 -44t9 -72v-374h-156v368q0 7 -1 12t-3 8.5t-5 5.5t-8 2q-2 0 -5.5 -0.5t-6.5 -1t-5 -1.5v-393h-156zM154 545l-99 116h102l40 -42l40 42h100l-100 -116h-83z" />
    <glyph glyph-name="ncaron.sc" horiz-adv-x="390" 
d="M24 0v495h135l71 -186v186h136v-495h-134l-72 158v-158h-136zM156 545l-99 116h102l40 -42l40 42h100l-100 -116h-83z" />
    <glyph glyph-name="uni0146" unicode="&#x146;" horiz-adv-x="391" 
d="M25 0v495h133l12 -62q9 31 34 51.5t57 20.5q44 0 68 -15t33 -44t9 -72v-374h-156v368q0 7 -1 12t-3 8.5t-5 5.5t-8 2q-2 0 -5.5 -0.5t-6.5 -1t-5 -1.5v-393h-156zM129 -211q17 24 26 43t9 31q0 8 -8.5 14t-16.5 15t-8 24q0 18 17.5 33t45.5 15q29 0 47.5 -15.5
t18.5 -39.5q0 -15 -11 -37.5t-26.5 -44.5t-31.5 -38h-62z" />
    <glyph glyph-name="uni0146.sc" horiz-adv-x="390" 
d="M24 0v495h135l71 -186v186h136v-495h-134l-72 158v-158h-136zM129 -211q17 24 26 43t9 31q0 8 -8.5 14t-16.5 15t-8 24q0 18 17.5 33t45.5 15q29 0 47.5 -15.5t18.5 -39.5q0 -15 -11 -37.5t-26.5 -44.5t-31.5 -38h-62z" />
    <glyph glyph-name="nine" unicode="9" horiz-adv-x="390" 
d="M196 -13q-86 0 -131.5 34t-45.5 109v54h158v-72q0 -17 4.5 -23.5t13.5 -6.5t13.5 6.5t4.5 23.5v134q-14 -19 -39.5 -26.5t-49.5 -7.5q-32 0 -57 11.5t-39.5 41t-14.5 83.5v101q0 49 23.5 81.5t65 49.5t94.5 17q54 0 93.5 -17.5t61 -54.5t21.5 -96v-299q0 -74 -48 -108.5
t-128 -34.5zM195 309q6 0 11 3t7 6v157q0 17 -6.5 23.5t-14.5 6.5t-14 -6.5t-6 -23.5v-146q0 -15 9.5 -17.5t13.5 -2.5z" />
    </font>
</defs>
</svg>
